<svg xmlns="http://www.w3.org/2000/svg" width="121" height="120" viewBox="0 0 121 120" fill="none">
<path d="M115.699 25.6508C115.56 24.5662 115.214 23.2507 114.199 22.2354C113.183 21.2433 111.845 20.7813 110.53 20.4585C107.83 19.8585 105.037 19.8585 102.014 19.6506C101.335 19.6072 100.623 19.5892 99.9186 19.5644C99.8194 18.7277 99.7169 17.9249 99.6082 17.1947C99.4087 16.229 99.1304 15.2572 98.656 14.4752C98.1906 13.6808 97.5343 13.1382 96.9568 12.8706C95.7404 12.3162 94.9978 12.723 95.0452 12.914C95.0525 13.1557 95.6412 13.2836 96.2356 13.9303C96.8774 14.5754 97.2498 15.6606 97.2999 17.5034C97.2785 19.3756 97.2774 21.587 97.35 24.0231C97.3782 25.2508 97.2588 26.4457 96.8796 27.2249C96.6599 27.6503 96.4903 27.8278 96.1573 28.0351C95.8046 28.2312 95.328 28.372 94.8418 28.4086C93.826 28.4779 93.0321 28.0633 92.8873 27.6317C92.5893 27.0446 92.6513 25.7618 92.7775 24.5561C92.9933 21.8259 92.8513 19.7554 93.0738 17.9237C93.2395 16.1366 93.5758 14.7445 94.0378 14.0509C94.4666 13.3343 95.0525 13.176 95.0452 12.914C95.1004 12.7478 94.275 12.3421 93.1335 13.1421C92.0298 13.9365 91.2822 15.5789 90.7819 17.5113C90.6168 18.0888 90.4963 18.7288 90.3903 19.3903C82.2242 19.318 80.3315 19.5087 69.5451 19.3277C66.6061 19.3441 54.9428 19.4081 51.9968 19.4168C49.6407 16.1749 47.7279 14.9907 47.6242 15.1214C47.4225 15.3191 49.0249 16.8313 50.9404 20.1379C52.8098 23.3915 54.8375 28.8233 53.7822 35.4934C53.3185 38.7848 51.9562 42.2458 49.6976 45.4166C47.4192 48.5587 44.2157 51.4101 40.2707 53.2101C36.3517 55.0395 31.6873 55.5702 26.926 54.9544C22.1861 54.3955 17.4186 52.6174 13.7007 49.326C9.96423 46.073 7.7202 41.5241 7.19229 36.8749C6.17887 28.7518 9.74743 19.6524 17.1138 14.0318C20.2187 11.6858 23.6921 10.3268 26.9491 9.70146C33.5679 8.55043 39.0881 10.3589 42.4257 12.0886C45.8388 13.821 47.4293 15.3439 47.6242 15.1214C47.7414 15.02 46.4479 13.1545 43.0584 10.9742C39.7546 8.81804 33.9448 6.44838 26.5812 7.40165C22.9563 7.93688 19.0553 9.302 15.5036 11.826C7.16295 17.8098 2.91609 27.9249 3.98766 37.2524C4.36514 40.9432 5.76069 44.6611 8.0081 47.8584C7.89598 48.2792 7.7833 48.6956 7.67569 49.166C6.70664 53.3893 5.64463 59.5738 5.3449 67.3509C5.1601 71.2046 5.2294 75.5203 5.50659 79.997C5.73703 84.4969 5.78322 89.4126 7.02947 94.6049C7.51399 96.4574 8.14557 98.4034 9.23631 100.223C9.29885 100.618 9.43407 100.893 9.66055 100.988C9.6921 101.001 9.73267 100.987 9.76647 100.993C10.06 101.416 10.3417 101.842 10.6989 102.243C12.7987 104.435 15.245 105.935 17.9217 107.159C23.2295 109.513 29.068 110.597 34.9528 111.312C40.8606 112.028 46.5836 112.259 52.1219 112.604C57.6832 112.882 63.0834 112.882 68.2064 112.628C78.4524 112.12 87.5677 110.689 95.1376 108.912C98.945 107.966 102.314 106.697 105.06 105.151C107.806 103.605 109.93 101.851 111.406 100.212C113.114 98.2969 114.084 96.7047 114.568 95.6664C114.568 95.6664 114.591 95.6427 114.591 95.6202C114.937 95.2506 115.26 94.8123 115.514 94.3508C116.691 92.3198 116.968 90.22 117.176 88.2588C116.968 72.843 116.991 60.7045 116.691 52.143C116.529 47.8742 116.391 44.5738 116.253 42.3354C116.114 40.1201 115.999 38.9431 115.883 38.9431C115.768 38.9431 115.676 40.1201 115.583 42.3585C115.514 44.5969 115.445 47.8967 115.399 52.143C115.33 60.589 114.914 73.0509 114.868 88.0278C114.661 89.8047 114.314 91.6741 113.437 93.0815C112.653 94.4889 110.991 95.3892 109.214 96.1509C105.568 97.6045 101.276 98.2507 96.914 99.0817C88.1908 100.651 78.7296 101.597 68.7602 101.643C63.7758 101.689 58.7216 101.412 53.4605 101.043C48.1989 100.697 42.8911 100.35 37.5833 99.4969C32.2986 98.6434 26.922 97.3735 22.3754 94.6737C21.2678 94.0043 20.1832 93.197 19.2835 92.3429C18.4293 91.5586 17.7837 90.4504 17.2293 89.2966C16.1216 86.9663 15.5447 84.2428 15.1757 81.4506C14.7836 78.6584 14.645 75.82 14.4833 72.9816C14.3221 70.0508 14.0911 67.2816 14.0449 64.4889C13.9469 60.9107 14.0635 57.3754 14.2878 53.8766C18.0581 56.3404 22.3765 57.7044 26.5395 58.1574C31.747 58.7957 37.101 58.1405 41.5541 55.9595C46.005 53.8282 49.5021 50.5497 51.9382 46.9778C53.8712 44.0999 55.1102 41.0108 55.7243 38.018C59.734 38.6738 71.1491 39.1476 84.6296 39.1476C101.45 39.1476 115.085 38.4107 115.085 37.5014C115.085 36.5915 101.45 35.8546 84.6296 35.8546C71.3288 35.8546 60.0501 36.316 55.8989 36.9588C55.9586 36.5718 56.0544 36.1774 56.0916 35.7954C56.735 30.1743 55.3665 25.4868 53.66 22.156C54.6448 22.1487 55.6307 22.138 56.5987 22.12C61.0529 22.0276 65.368 21.9583 69.522 21.8664C78.3687 21.8664 82.2255 21.6914 90.1047 21.507C90.0005 22.4005 89.8996 23.3025 89.7672 24.1758C89.6224 25.4328 89.1993 26.897 89.9205 28.8999C90.3103 29.9293 91.2535 30.7766 92.1713 31.1918C93.9561 31.9907 96.1338 31.8458 97.8312 30.851C98.7208 30.336 99.4786 29.3952 99.8127 28.5692C100.537 26.8215 100.465 25.2795 100.385 24.0192C100.302 23.1273 100.217 22.2822 100.131 21.4602C100.738 21.463 101.354 21.4602 101.945 21.4737C104.945 21.5892 107.806 21.543 110.206 22.0045C111.383 22.2354 112.491 22.6045 113.206 23.2738C113.922 23.92 114.268 24.8891 114.43 25.8587C114.775 27.8199 114.661 29.7816 114.914 31.4431C115.076 33.0584 115.214 34.4432 115.33 35.5509C115.583 37.7662 115.768 38.9431 115.883 38.9431C115.999 38.92 116.022 37.7431 115.999 35.5047C115.952 34.3739 115.929 32.9891 115.883 31.3507C115.745 29.7354 115.976 27.9123 115.699 25.6508ZM11.2527 51.5368C11.1288 52.8884 11.0155 54.2434 10.9417 55.6097C10.5947 55.5511 10.2099 55.5449 9.79183 55.6288C9.01152 55.7888 8.48304 56.1917 8.13205 56.6339C8.3481 54.0908 8.64814 51.4118 8.96137 49.1238C9.65943 49.9807 10.4211 50.7903 11.2527 51.5368ZM8.76813 86.7793C8.54502 84.5313 8.42389 82.3104 8.27233 80.1531C9.09941 80.1565 10.1547 79.1553 11.135 77.9181C11.2527 77.7643 11.3474 77.6127 11.4561 77.4595C11.5632 78.926 11.7018 80.405 11.8989 81.889C11.9384 82.1729 11.9908 82.4569 12.0342 82.7408C11.1361 83.1082 9.86901 84.5099 8.91292 86.4553C8.85883 86.5646 8.81827 86.6711 8.76813 86.7793ZM10.8736 67.1583C11.0016 69.9167 11.2093 73.0689 11.2572 74.0199C10.4392 74.185 9.39181 74.7946 8.53657 75.8949C8.32304 76.1682 8.1512 76.4454 7.99965 76.7214C7.79006 73.776 7.68696 71.026 7.66499 68.4101C7.7833 68.7127 7.96528 68.9318 8.21205 69.0057C9.01659 69.2564 10.0099 68.3662 10.8736 67.1583ZM8.00134 58.3219C8.6346 58.9196 9.60309 59.003 10.4499 58.8554C10.5744 58.8267 10.6983 58.7782 10.8234 58.7377C10.7845 60.2036 10.7659 61.6741 10.7817 63.1508C9.50011 63.4557 8.12642 64.8125 7.66386 66.5904C7.69203 63.5863 7.81992 60.8234 8.00134 58.3219ZM25.7068 99.8474C27.2364 100.43 28.783 100.913 30.3357 101.314C29.8472 102.114 29.552 103.654 29.6269 105.432C29.6534 106.067 29.7244 106.668 29.8292 107.215C28.272 106.934 26.7519 106.594 25.2617 106.206C25.331 105.35 25.3744 104.348 25.4611 103.291C25.5417 102.002 25.6707 100.809 25.7068 99.8474ZM46.9814 109.031C45.2309 108.919 43.4663 108.794 41.6922 108.656C41.983 106.431 41.5532 104.378 40.8989 103.195C43.0139 103.443 45.1064 103.627 47.1825 103.783C46.7149 105.315 46.6103 107.399 46.9814 109.031ZM57.6866 109.571C58.2038 109.005 58.583 107.935 58.7013 106.699C58.7785 105.863 58.7216 105.082 58.5559 104.457C60.8461 104.564 63.1105 104.613 65.3658 104.631C64.8267 106.098 64.5393 108.176 64.7308 109.618C62.4254 109.652 60.0816 109.64 57.6866 109.571ZM75.7059 104.424C77.9809 104.299 80.2181 104.119 82.4295 103.904C81.8944 105.424 81.7388 107.207 81.9241 108.574C79.9516 108.797 77.9166 108.992 75.8242 109.154C75.9447 108.73 76.0411 108.266 76.1053 107.778C76.2811 106.368 76.1633 105.077 75.7059 104.424ZM90.4433 107.39C88.6461 107.686 86.7795 107.964 84.8386 108.217C85.3121 106.629 85.3943 104.889 85.153 103.611C87.0375 103.395 88.9154 103.171 90.7453 102.897C89.9418 104.181 89.8275 106.045 90.4433 107.39ZM110.183 98.5048C110.922 98.1814 111.66 97.8124 112.399 97.3971C111.868 97.9741 111.245 98.6197 110.507 99.3121C108.596 101.107 105.75 102.964 102.066 104.459C102.346 104.002 102.586 103.454 102.741 102.832C102.933 102.036 102.972 101.267 102.853 100.649C105.358 100.11 107.82 99.4851 110.183 98.5048ZM99.8031 101.281C99.7017 101.52 99.6098 101.773 99.5428 102.048C99.2025 103.429 99.4932 104.659 100.037 105.208C98.3726 105.775 96.5742 106.269 94.6294 106.65C94.1139 106.75 93.5724 106.844 93.0423 106.94C93.1893 106.451 93.3026 105.911 93.3499 105.321C93.4254 104.201 93.2998 103.164 92.9313 102.523C97.2735 101.809 96.0437 102.02 99.8031 101.281ZM68.8064 104.666C70.5812 104.646 72.3193 104.56 74.0619 104.482C73.1159 105.454 72.5209 107.495 72.9041 109.35C71.317 109.445 69.7113 109.528 68.0678 109.581C67.8436 109.59 67.6041 109.582 67.3788 109.589C68.0702 108.163 68.3645 106.249 68.0746 104.659C68.3163 104.656 68.5659 104.671 68.8064 104.666ZM55.9992 104.324C55.7136 104.881 55.4972 105.588 55.4223 106.391C55.2949 107.732 55.5964 108.89 56.0792 109.513C54.8121 109.465 53.5721 109.45 52.2836 109.374C51.394 109.314 50.4891 109.258 49.5883 109.2C50.1192 107.608 50.2006 105.525 49.8925 103.977C51.0187 104.049 52.1422 104.118 53.2526 104.182C54.1704 104.242 55.082 104.272 55.9992 104.324ZM39.0329 102.944C38.6295 103.8 38.4481 105.332 38.4915 107.058C38.505 107.521 38.5388 107.962 38.5822 108.387C34.9274 108.044 34.9708 108.014 32.7758 107.697C33.1472 105.529 32.8075 103.091 32.1611 101.751C33.8074 102.117 35.4519 102.422 37.0757 102.682C37.7309 102.783 38.3805 102.856 39.0329 102.944ZM20.6683 97.4659C21.5951 98.009 22.5399 98.4777 23.4921 98.9161C22.4238 100.529 21.8849 102.964 22.2847 105.335C20.1949 104.637 18.9852 104.175 17.209 103.194C17.7268 102.272 18.1696 100.665 18.4744 98.8338C18.6293 97.8772 18.7234 96.9746 18.7561 96.1723C19.3758 96.6388 20.0125 97.0681 20.6683 97.4659ZM16.6265 94.3001C15.4652 96.127 14.7744 99.3164 15.1515 101.891C14.3751 101.336 13.6438 100.752 13.0297 100.12C12.6736 99.7431 12.3615 99.3212 12.0713 98.8794C12.5373 98.1374 13.0021 97.2529 13.4162 96.2596C14.2365 94.2922 14.6427 92.464 14.5836 91.3445C15.1272 92.3857 15.7723 93.4049 16.6265 94.3001ZM14.0737 90.2611C13.2179 90.0177 11.5863 92.0922 10.3766 94.992C10.3637 95.023 10.3541 95.0534 10.3411 95.0844C10.2093 94.6793 10.0752 94.2731 9.96028 93.8663C9.74563 93.0404 9.59858 92.2105 9.44308 91.3806C10.2082 90.7411 11.0995 89.4644 11.8674 87.91C12.1885 87.2559 12.4533 86.6176 12.6607 86.0187C13.0032 87.4503 13.4607 88.8678 14.0737 90.2611Z" fill="#f9a566"/>
<path d="M41.3254 24.1679C41.1474 24.3567 42.0482 25.2919 43.1193 27.2215C44.1678 29.1202 45.2782 32.2392 44.5419 35.9898C43.9092 39.6327 41.0054 43.7225 36.4339 45.5614C34.1944 46.4797 31.5645 46.7243 28.8421 46.3642C26.144 46.0273 23.456 45.0633 21.3455 43.2824C19.2293 41.5224 17.9414 39.0671 17.6462 36.4957C17.32 33.9193 17.902 31.322 19.0023 29.1354C21.2029 24.6536 25.4437 22.1464 29.1508 21.5194C32.9228 20.8653 36.1105 21.7859 38.1039 22.6783C40.1349 23.5713 41.1519 24.3685 41.3254 24.1679C41.4567 24.0372 40.7276 22.8901 38.7174 21.5532C36.7517 20.2342 33.2964 18.7756 28.8314 19.2128C24.4605 19.6094 19.1448 22.3791 16.3143 27.728C14.8974 30.3411 14.0759 33.5423 14.4416 36.8659C14.7548 40.1843 16.4912 43.5546 19.2288 45.8048C21.9427 48.0939 25.3 49.2207 28.455 49.5672C31.5988 49.9413 34.8429 49.5948 37.6143 48.3564C43.1655 45.9124 46.3847 40.8057 46.8445 36.3385C47.3887 31.8414 45.6703 28.345 44.1869 26.5122C42.6612 24.6254 41.446 24.0214 41.3254 24.1679Z" fill="#f9a566"/>
<path d="M104.448 76.7141C103.385 76.024 102.058 75.5665 100.608 75.4628C99.8797 75.389 99.1242 75.5084 98.3754 75.651C97.6898 75.8809 96.9895 76.0566 96.3117 76.473C94.955 77.197 93.7488 78.5024 93.3031 80.0574C92.8355 81.6028 93.0947 83.1887 93.7054 84.4108C94.9494 86.9376 97.4278 87.9686 99.2374 88.1422C100.209 88.194 100.955 88.1546 101.61 88.0492C102.283 87.9568 102.882 87.812 103.35 87.6193C104.3 87.2334 104.655 86.7297 104.546 86.5483C104.431 86.3387 103.929 86.4063 103.109 86.3601C102.299 86.3225 101.424 86.1836 100.611 86.0666C100.307 85.9979 99.9862 85.9257 99.6493 85.8502C98.3861 85.4711 96.9974 84.5753 96.4638 83.1465C95.9061 81.7261 96.319 80.1886 97.9135 79.3508C101.203 77.3254 105.331 80.2996 105.825 82.5498C106.198 83.6671 105.746 84.6294 105.267 85.2784C104.782 85.9122 104.429 86.3348 104.546 86.5483C104.638 86.7314 105.199 86.7162 106.113 86.2418C106.974 85.8255 108.358 84.3482 108.128 82.2039C107.965 80.1221 106.575 78.0708 104.448 76.7141Z" fill="#f9a566"/>
<path d="M104.448 59.6679C103.385 58.9771 102.058 58.5202 100.608 58.4166C99.8797 58.3427 99.1242 58.4622 98.3754 58.6042C97.6898 58.8346 96.9895 59.0098 96.3117 59.4267C94.955 60.1501 93.7488 61.4561 93.3031 63.0105C92.8355 64.5565 93.0947 66.1425 93.7054 67.3645C94.9494 69.8908 97.4278 70.9224 99.2374 71.0959C100.209 71.1477 100.955 71.1077 101.61 71.0024C102.283 70.9105 102.882 70.7658 103.35 70.5731C104.3 70.1866 104.655 69.6835 104.546 69.502C104.431 69.2925 103.929 69.3601 103.109 69.3139C102.295 69.2761 101.43 69.137 100.611 69.0203C100.307 68.9516 99.9862 68.8795 99.6493 68.8034C98.3861 68.4243 96.9974 67.529 96.4638 66.1002C95.9061 64.6799 96.319 63.1418 97.9135 62.304C101.203 60.2792 105.331 63.2528 105.825 65.503C106.198 66.6202 105.746 67.5831 105.267 68.2321C104.782 68.866 104.429 69.2885 104.546 69.502C104.638 69.6851 105.199 69.6694 106.113 69.1956C106.974 68.7792 108.358 67.302 108.128 65.1577C107.965 63.0759 106.575 61.0245 104.448 59.6679Z" fill="#f9a566"/>
<path d="M104.448 42.621C103.385 41.9308 102.058 41.4739 100.608 41.3702C99.8797 41.2964 99.1242 41.4159 98.3754 41.5578C97.6898 41.7877 96.9895 41.9635 96.3117 42.3804C94.955 43.1038 93.7488 44.4092 93.3031 45.9642C92.8355 47.5102 93.0947 49.0962 93.7054 50.3182C94.9494 52.8445 97.4278 53.8761 99.2374 54.0496C100.209 54.1014 100.955 54.0614 101.61 53.9561C102.283 53.8642 102.882 53.7189 103.35 53.5262C104.3 53.1402 104.655 52.6371 104.546 52.4557C104.431 52.2461 103.929 52.3132 103.109 52.2675C102.292 52.2285 101.439 52.0926 100.611 51.9734C100.307 51.9053 99.9862 51.8332 99.6493 51.7571C98.3861 51.3779 96.9974 50.4821 96.4638 49.0539C95.9061 47.6336 96.319 46.0955 97.9135 45.2577C101.203 43.2323 105.331 46.2065 105.825 48.4567C106.198 49.5739 105.746 50.5362 105.267 51.1852C104.782 51.8191 104.429 52.2422 104.546 52.4557C104.638 52.6388 105.199 52.623 106.113 52.1487C106.974 51.7329 108.358 50.2556 108.128 48.1113C107.965 46.0296 106.575 43.9777 104.448 42.621Z" fill="#f9a566"/>
<path d="M80.6858 76.7141C79.6226 76.024 78.2958 75.5665 76.8451 75.4628C76.1171 75.389 75.3616 75.5084 74.6129 75.651C73.9272 75.8809 73.2269 76.0566 72.5497 76.473C71.193 77.197 69.9862 78.5024 69.5406 80.0574C69.0729 81.6028 69.3321 83.1887 69.9428 84.4108C71.1868 86.9376 73.6652 87.9686 75.4754 88.1422C76.4467 88.194 77.1927 88.1546 77.8474 88.0492C78.5212 87.9568 79.1189 87.812 79.5871 87.6193C80.5376 87.2334 80.8925 86.7297 80.7832 86.5483C80.6683 86.3387 80.1669 86.4063 79.3466 86.3601C78.5357 86.3225 77.6617 86.1836 76.849 86.0666C76.5448 85.9979 76.2236 85.9257 75.8867 85.8502C74.6236 85.4711 73.2348 84.5753 72.7012 83.1465C72.144 81.7261 72.5565 80.1886 74.1514 79.3508C77.44 77.3254 81.5686 80.2996 82.0627 82.5498C82.4351 83.6671 81.9833 84.6294 81.505 85.2784C81.0199 85.9122 80.666 86.3348 80.7832 86.5483C80.8762 86.7314 81.4362 86.7162 82.3506 86.2418C83.2109 85.8255 84.5958 84.3482 84.3659 82.2039C84.202 80.1221 82.8126 78.0708 80.6858 76.7141Z" fill="#f9a566"/>
<path d="M80.6858 59.6679C79.6226 58.9771 78.2958 58.5202 76.8451 58.4166C76.1171 58.3427 75.3616 58.4622 74.6129 58.6042C73.9272 58.8346 73.2269 59.0098 72.5497 59.4267C71.193 60.1501 69.9862 61.4561 69.5406 63.0105C69.0729 64.5565 69.3321 66.1425 69.9428 67.3645C71.1868 69.8908 73.6652 70.9224 75.4754 71.0959C76.4467 71.1477 77.1927 71.1077 77.8474 71.0024C78.5212 70.9105 79.1189 70.7658 79.5871 70.5731C80.5376 70.1866 80.8925 69.6835 80.7832 69.502C80.6683 69.2925 80.1669 69.3601 79.3466 69.3139C78.532 69.2761 77.6727 69.1376 76.849 69.0203C76.5448 68.9516 76.2236 68.8795 75.8867 68.8034C74.6236 68.4243 73.2348 67.529 72.7012 66.1002C72.144 64.6799 72.5565 63.1418 74.1514 62.304C77.44 60.2792 81.5686 63.2528 82.0627 65.503C82.4351 66.6202 81.9833 67.5831 81.505 68.2321C81.0199 68.866 80.666 69.2885 80.7832 69.502C80.8762 69.6851 81.4362 69.6694 82.3506 69.1956C83.2109 68.7792 84.5958 67.302 84.3659 65.1577C84.202 63.0759 82.8126 61.0245 80.6858 59.6679Z" fill="#f9a566"/>
<path d="M57.9272 76.7141C56.864 76.024 55.5378 75.5665 54.087 75.4628C53.3591 75.389 52.6036 75.5084 51.8548 75.651C51.1692 75.8809 50.4683 76.0566 49.7911 76.473C48.4344 77.197 47.2276 78.5024 46.782 80.0574C46.3143 81.6028 46.5735 83.1887 47.1842 84.4108C48.4282 86.9376 50.9066 87.9686 52.7168 88.1422C53.6887 88.194 54.4341 88.1546 55.0887 88.0492C55.7626 87.9568 56.3609 87.812 56.8285 87.6193C57.779 87.2334 58.1339 86.7297 58.0246 86.5483C57.9103 86.3387 57.4088 86.4063 56.588 86.3601C55.7771 86.3225 54.9031 86.1836 54.0904 86.0666C53.7862 85.9979 53.465 85.9257 53.1281 85.8502C51.865 85.4711 50.4762 84.5753 49.9426 83.1465C49.3854 81.7261 49.7984 80.1886 51.3928 79.3508C54.6814 77.3254 58.81 80.2996 59.3047 82.5498C59.6765 83.6671 59.2247 84.6294 58.7464 85.2784C58.2613 85.9122 57.9074 86.3348 58.0246 86.5483C58.1176 86.7314 58.6782 86.7162 59.592 86.2418C60.4523 85.8255 61.8372 84.3482 61.6073 82.2039C61.4439 80.1221 60.0546 78.0708 57.9272 76.7141Z" fill="#f9a566"/>
<path d="M57.9272 59.6679C56.864 58.9771 55.5378 58.5202 54.087 58.4166C53.3591 58.3427 52.6036 58.4622 51.8548 58.6042C51.1692 58.8346 50.4683 59.0098 49.7911 59.4267C48.4344 60.1501 47.2276 61.4561 46.782 63.0105C46.3143 64.5565 46.5735 66.1425 47.1842 67.3645C48.4282 69.8908 50.9066 70.9224 52.7168 71.0959C53.6887 71.1477 54.4341 71.1077 55.0887 71.0024C55.7626 70.9105 56.3609 70.7658 56.8285 70.5731C57.779 70.1866 58.1339 69.6835 58.0246 69.502C57.9103 69.2925 57.4088 69.3601 56.588 69.3139C55.7734 69.2761 54.9141 69.1376 54.0904 69.0203C53.7862 68.9516 53.465 68.8795 53.1281 68.8034C51.865 68.4243 50.4762 67.529 49.9426 66.1002C49.3854 64.6799 49.7984 63.1418 51.3928 62.304C54.6814 60.2792 58.81 63.2528 59.3047 65.503C59.6765 66.6202 59.2247 67.5831 58.7464 68.2321C58.2613 68.866 57.9074 69.2885 58.0246 69.502C58.1176 69.6851 58.6782 69.6694 59.592 69.1956C60.4523 68.7792 61.8372 67.302 61.6073 65.1577C61.4439 63.0759 60.0546 61.0245 57.9272 59.6679Z" fill="#f9a566"/>
<path d="M37.5118 76.7141C36.4486 76.024 35.1218 75.5665 33.6711 75.4628C32.9431 75.389 32.1876 75.5084 31.4389 75.651C30.7532 75.8809 30.0529 76.0566 29.3751 76.473C28.0184 77.197 26.8122 78.5024 26.3666 80.0574C25.8989 81.6028 26.1581 83.1887 26.7688 84.4108C28.0128 86.9376 30.4912 87.9686 32.3014 88.1422C33.2727 88.194 34.0181 88.1546 34.6733 88.0492C35.3472 87.9568 35.9449 87.812 36.4131 87.6193C37.3636 87.2334 37.7185 86.7297 37.6092 86.5483C37.4943 86.3387 36.9929 86.4063 36.172 86.3601C35.3623 86.3225 34.487 86.1836 33.6744 86.0666C33.3708 85.9979 33.0496 85.9257 32.7127 85.8502C31.4496 85.4711 30.0608 84.5753 29.5272 83.1465C28.9695 81.7261 29.3824 80.1886 30.9769 79.3508C34.266 77.3254 38.3946 80.2996 38.8887 82.5498C39.2611 83.6671 38.8093 84.6294 38.3304 85.2784C37.8459 85.9122 37.492 86.3348 37.6092 86.5483C37.7016 86.7314 38.2622 86.7162 39.176 86.2418C40.0369 85.8255 41.4218 84.3482 41.1919 82.2039C41.0279 80.1221 39.6386 78.0708 37.5118 76.7141Z" fill="#f9a566"/>
<path d="M37.5118 59.6679C36.4486 58.9771 35.1218 58.5202 33.6711 58.4166C32.9431 58.3427 32.1876 58.4622 31.4389 58.6042C30.7532 58.8346 30.0529 59.0098 29.3751 59.4267C28.0184 60.1501 26.8122 61.4561 26.3666 63.0105C25.8989 64.5565 26.1581 66.1425 26.7688 67.3645C28.0128 69.8908 30.4912 70.9224 32.3014 71.0959C33.2727 71.1477 34.0181 71.1077 34.6733 71.0024C35.3472 70.9105 35.9449 70.7658 36.4131 70.5731C37.3636 70.1866 37.7185 69.6835 37.6092 69.502C37.4943 69.2925 36.9929 69.3601 36.172 69.3139C35.3586 69.2761 34.4934 69.137 33.6744 69.0203C33.3708 68.9516 33.0496 68.8795 32.7127 68.8034C31.4496 68.4243 30.0608 67.529 29.5272 66.1002C28.9695 64.6799 29.3824 63.1418 30.9769 62.304C34.266 60.2792 38.3946 63.2528 38.8887 65.503C39.2611 66.6202 38.8093 67.5831 38.3304 68.2321C37.8459 68.866 37.492 69.2885 37.6092 69.502C37.7016 69.6851 38.2622 69.6694 39.176 69.1956C40.0369 68.7792 41.4218 67.302 41.1919 65.1577C41.0279 63.0759 39.6386 61.0245 37.5118 59.6679Z" fill="#f9a566"/>
<path d="M80.6858 42.621C79.6226 41.9308 78.2958 41.4739 76.8451 41.3702C76.1171 41.2964 75.3616 41.4159 74.6129 41.5578C73.9272 41.7877 73.2269 41.9635 72.5497 42.3804C71.193 43.1038 69.9862 44.4092 69.5406 45.9642C69.0729 47.5102 69.3321 49.0962 69.9428 50.3182C71.1868 52.8445 73.6652 53.8761 75.4754 54.0496C76.4467 54.1014 77.1927 54.0614 77.8474 53.9561C78.5212 53.8642 79.1189 53.7189 79.5871 53.5262C80.5376 53.1402 80.8925 52.6371 80.7832 52.4557C80.6683 52.2461 80.1669 52.3132 79.3466 52.2675C78.5263 52.2284 77.6684 52.0914 76.849 51.9734C76.5448 51.9053 76.2236 51.8332 75.8867 51.7571C74.6236 51.3779 73.2348 50.4821 72.7012 49.0539C72.144 47.6336 72.5565 46.0955 74.1514 45.2577C77.44 43.2323 81.5686 46.2065 82.0627 48.4567C82.4351 49.5739 81.9833 50.5362 81.505 51.1852C81.0199 51.8191 80.666 52.2422 80.7832 52.4557C80.8762 52.6388 81.4362 52.623 82.3506 52.1487C83.2109 51.7329 84.5958 50.2556 84.3659 48.1113C84.202 46.0296 82.8126 43.9777 80.6858 42.621Z" fill="#f9a566"/>
<path d="M29.4658 35.1142C29.2342 35.3807 29.0066 35.6421 28.7835 35.8979C28.6455 36.0647 28.7435 35.9892 28.6973 36.0557C28.672 36.1323 28.5694 36.192 28.4776 36.152L28.397 36.1233L28.1395 35.859C27.9677 35.6776 27.8032 35.5035 27.646 35.3373C26.3952 33.9925 25.5885 33.0601 25.162 33.2482C24.7574 33.4206 24.8205 34.7446 25.7096 36.6309C25.8211 36.8653 25.9462 37.107 26.0848 37.3543L26.3096 37.7386L26.7524 38.3594C27.3558 39.1837 28.5627 39.5651 29.6421 39.0738C30.1514 38.8806 30.7627 38.3758 31.0777 38.0495C31.8822 37.2623 31.8187 37.3231 33.2997 35.8681C37.3872 31.8313 40.8465 28.5895 40.3253 27.8266C39.8324 27.0807 35.3235 29.2481 30.9915 33.5198C30.4506 34.0477 29.9436 34.5852 29.4658 35.1142Z" fill="#f9a566"/>
</svg>