<svg xmlns="http://www.w3.org/2000/svg" width="121" height="120" viewBox="0 0 121 120" fill="none">
<path d="M90.0556 94.7825C94.2723 87.9257 96.4873 79.837 96.2502 71.8882C97.1895 58.5105 92.3292 46.8305 83.5764 38.4595C84.1389 37.8347 84.7066 37.2114 85.2672 36.5862C90.1471 36.4915 95.0356 36.8337 99.8536 37.6155C104.329 33.384 109.157 28.8099 113.561 24.5034C113.409 24.0934 113.221 23.612 113.035 23.1349C113.592 22.2822 113.11 21.335 112.265 21.1408C108.72 20.3198 102.334 19.4508 98.5672 18.6506C97.4146 15.1724 95.8084 8.8186 94.6845 5.66175C94.5346 5.24039 94.1813 4.92329 93.7461 4.81903C93.3101 4.71821 92.8526 4.83885 92.5277 5.1456C87.9181 9.51237 84.2268 15.3275 80.591 20.4911C80.3609 20.8186 80.2903 21.2322 80.4005 21.6173C81.3193 24.8227 83.4404 29.9162 84.5523 33.429C83.5807 34.5163 82.5911 35.5992 81.6131 36.6851C69.0998 26.1033 51.0791 22.4185 35.1771 29.0688C34.6564 29.1895 34.1756 29.3275 33.8211 29.4946C20.4723 35.7895 10.5369 48.854 8.03684 63.3992C5.53691 77.9446 11.0453 93.0684 21.5262 103.459C40.7893 122.556 76.0946 117.485 90.0556 94.7825ZM109.301 23.2338C106.152 26.4096 102.027 30.6269 98.9498 33.7144C95.6108 33.5035 92.014 33.3833 88.393 32.904C90.6313 30.4102 98.457 21.7583 98.7252 21.3843C101.824 22.0024 106.068 22.6298 109.301 23.2338ZM92.85 8.57334C93.886 11.9542 95.3021 17.3795 96.2914 20.1747L86.5374 31.0093C85.4617 27.9236 83.9297 24.0849 83.1252 21.4881C86.1287 17.1951 89.2534 12.3993 92.85 8.57334ZM79.8352 38.6548C77.7672 40.9407 75.6892 43.2192 73.5976 45.4947C61.4739 35.2141 43.2887 35.1456 31.7212 45.6175C21.4595 54.9107 18.3429 70.3941 24.3117 82.4325C29.4402 92.7743 42.1323 100.421 53.8533 100.421C81.7965 100.421 94.1186 65.929 75.5562 47.2748C77.6498 44.9971 79.7297 42.7162 81.7997 40.4279C99.7832 57.7137 96.2012 86.8379 79.1537 100.86C55.7241 120.131 13.6821 105.076 11.8221 70.6643C10.5173 33.3112 52.5359 15.6357 79.8352 38.6548ZM57.661 62.4912C54.4617 60.0118 51.5569 61.1748 51.3804 61.1732C47.917 62.2166 45.6915 66.2818 46.6788 69.7616C47.666 73.2413 51.6949 75.5322 55.1902 74.6013C59.0995 73.5601 61.8472 68.5205 59.4276 64.4732C61.3754 62.4378 63.3163 60.3956 65.254 58.3411C76.4999 70.9139 63.0605 91.0478 46.2723 83.4656C41.6037 81.3571 38.2303 77.5313 37.0179 72.9696C35.342 66.6604 37.3273 60.0885 42.0759 56.2273C48.2286 51.2249 57.0593 51.4096 63.3395 56.5132C61.4509 58.5158 59.5593 60.5068 57.661 62.4912ZM65.1769 54.5587C58.1285 48.7183 47.7415 48.2103 40.406 54.1731C34.8508 58.6908 32.5165 66.3356 34.4605 73.6486C36.7107 82.1225 45.0834 87.7163 53.5396 87.7163C69.6813 87.7163 77.8589 68.1108 67.0936 56.384C69.3258 54.0063 71.5466 51.6219 73.7592 49.2256C79.0661 54.6006 81.6908 61.2677 81.7422 68.6884C81.8799 88.8929 63.466 102.215 45.5838 96.4872C37.1342 93.7781 30.0685 88.0851 26.683 81.2572C21.2303 70.2571 24.0963 56.0937 33.498 47.5804C44.0938 37.9867 60.7354 38.1248 71.806 47.4395C69.6056 49.8226 67.3969 52.1941 65.1769 54.5587Z" fill="#f9a566"/>
<path d="M11.7726 29.5034C11.1092 29.1958 10.3224 29.481 10.014 30.1453C9.70549 30.8079 9.99329 31.5955 10.6559 31.904L18.8875 35.735C19.5542 36.043 20.3383 35.7535 20.6461 35.093C20.9546 34.4304 20.6668 33.6429 20.0042 33.3344L11.7726 29.5034Z" fill="#f9a566"/>
<path d="M24.7442 30.7838C25.2974 30.3065 25.3586 29.4706 24.8804 28.9174C23.1837 26.9537 21.8809 24.7202 21.0071 22.2783C20.7607 21.5898 20.0024 21.2313 19.3157 21.4778C18.6272 21.7233 18.2687 22.4816 18.5152 23.1692C19.4992 25.9206 20.9666 28.4366 22.8778 30.6477C23.3574 31.203 24.1937 31.2603 24.7442 30.7838Z" fill="#f9a566"/>
<path d="M31.4971 18.486C30.7828 18.3421 30.0814 18.8005 29.9349 19.5174C29.4463 21.9034 29.4463 24.4264 29.9349 26.8123C30.0633 27.4388 30.6148 27.8705 31.23 27.8705C32.0653 27.8705 32.6971 27.1056 32.5285 26.2816C32.1106 24.2428 32.1106 22.0869 32.5285 20.0482C32.675 19.3322 32.2132 18.6333 31.4971 18.486Z" fill="#f9a566"/>
</svg>