<svg xmlns="http://www.w3.org/2000/svg" width="121" height="120" viewBox="0 0 121 120" fill="none">
<path d="M35.1415 80.8302C35.1415 81.5095 35.5944 81.9623 36.2736 81.9623C50.3113 81.2831 53.7076 81.2831 60.5 80.8302C53.7076 80.3774 50.0849 80.3774 37.4057 79.6982C37.8585 75.3963 39.4434 71.0944 42.1604 67.6982C45.1038 64.0755 48.9528 61.1321 53.4811 59.7736C53.934 59.5472 54.1604 59.3208 54.3868 59.0944C55.066 58.1887 54.8396 57.0567 53.934 56.3774C51.8962 54.7925 50.3113 52.7548 49.4057 50.2642C48.5 47.7736 48.7264 45.2831 49.4057 42.7925C50.9906 38.0378 55.7453 34.4151 60.7264 34.6416C65.7076 34.6416 70.6887 38.2642 72.0472 43.0189C72.7264 45.5095 72.7264 48 71.8208 50.4906C70.9151 52.9812 69.3302 55.0189 67.2925 56.3774C67.066 56.6038 66.6132 57.0567 66.6132 57.2831C66.3868 58.1887 66.8396 59.3208 67.7453 59.7736C72.0472 61.1321 75.8962 63.8491 78.8396 67.6982C81.3302 71.0944 83.1415 75.1699 83.3679 79.4717L72.5 79.9246C68.4245 80.151 64.3491 80.3774 60.2736 80.6038C64.3491 80.8302 68.4245 81.0567 72.5 81.2831C73.1793 81.2831 85.4057 81.9623 84.7264 81.7359C85.4057 81.7359 85.8585 81.2831 85.8585 80.6038C85.8585 75.3963 84.5 70.1887 81.5566 65.8868C79.2925 62.4906 75.8962 59.5472 72.2736 57.5095C73.8585 55.9246 75.217 53.8868 76.1227 51.8491C77.4811 48.6793 77.4811 45.0567 76.5755 41.6604C74.7642 34.868 68.1981 29.8868 61.1793 29.8868C57.783 29.8868 54.1604 31.0189 51.4434 33.0567C48.7264 35.0944 46.4623 38.0378 45.5566 41.434C44.651 44.8302 44.651 48.2265 45.783 51.6227C46.4623 53.8868 47.8208 55.6982 49.4057 57.2831C45.5566 59.3208 42.1604 62.0378 39.6698 65.6604C36.5 70.1887 34.9151 75.6227 35.1415 80.8302Z" fill="#f9a566"/>
<path d="M10.9151 57.9623C10.4623 57.9623 10.0095 58.1887 9.55663 58.1887C8.42455 58.6415 7.29248 59.0944 6.1604 60C7.29248 60.9057 8.42455 61.3585 9.55663 61.8113C10.0095 61.8113 10.2359 62.0378 10.6887 62.0378C10.9151 74.4906 16.1227 86.9434 24.9529 96C33.783 105.057 46.0095 110.264 58.6887 110.717V110.943C59.1415 112.075 59.5944 113.208 60.5 114.34C61.4057 113.208 61.8585 112.075 62.3113 110.943V110.717C74.7642 110.264 87.217 104.83 96.0472 96C104.877 86.9434 110.085 74.4906 110.311 62.0378C110.764 62.0378 110.991 61.8113 111.443 61.8113C112.576 61.3585 113.708 60.9057 114.84 60C113.708 59.0944 112.576 58.6415 111.443 58.1887C110.991 57.9623 110.538 57.9623 110.311 57.9623C109.632 46.4151 104.651 35.0944 96.5 26.9434C97.6321 25.8113 98.7642 24.6793 99.8963 23.5472C102.613 20.8302 105.104 18.1132 107.821 15.1698C110.311 12.2264 112.802 9.28304 115.066 6.11323C111.896 8.37738 108.953 10.6415 106.009 13.3585C102.84 15.8491 100.123 18.5661 97.4057 21.0566C96.2736 22.1887 95.1415 23.3208 94.0095 24.6793C85.4057 16.9812 74.0849 12.4529 62.7642 12.4529C62.7642 11.3208 62.5378 10.1887 62.3113 9.05663C61.8585 7.92455 61.4057 6.79248 60.5 5.6604C59.5944 6.79248 59.1415 7.92455 58.6887 9.05663C58.4623 10.1887 58.2359 11.3208 58.2359 12.4529C46.9151 12.4529 35.5944 16.9812 26.9906 24.6793C25.8585 23.5472 24.7264 22.4151 23.5944 21.0566C20.8774 18.5661 18.1604 15.8491 15.217 13.3585C12.2736 10.8679 9.33021 8.37738 6.1604 6.11323C8.42455 9.28304 10.6887 12.2264 13.4057 15.1698C15.8962 18.1132 18.3868 20.8302 21.1038 23.5472L24.5 26.9434C20.4246 31.2453 17.0283 36.2264 14.5378 41.6604C12.5 46.6415 11.1415 52.3019 10.9151 57.9623ZM29.4812 31.2453C31.7453 33.0566 34.0095 35.0944 36.2736 36.6793C35.3679 36.6793 34.6887 36.6793 33.783 36.6793C32.1981 36.6793 30.3868 36.9057 28.5755 37.5849C30.1604 38.4906 31.7453 38.9434 33.3302 39.3962C34.9151 39.8491 36.7264 40.0755 38.3113 40.3019C39.4434 40.3019 40.3491 39.3962 40.1227 38.4906C39.8963 36.9057 39.6698 35.0944 39.217 33.5095C38.7642 31.9246 38.3113 30.3396 37.4057 28.5283C36.9529 30.3396 36.7264 31.9245 36.5 33.7359V36.2264C34.6887 33.9623 32.8774 31.6981 31.0661 29.434C30.1604 28.3019 29.0283 27.1698 28.1227 26.2642C32.1981 22.1887 36.9529 19.0189 42.1604 16.7547C47.1415 14.4906 52.5755 13.1321 58.0095 12.6793C58.0095 13.8113 58.2359 14.717 58.4623 15.8491C58.9151 16.9812 59.368 18.1132 60.2736 19.2453C61.1793 18.1132 61.6321 16.9812 62.0849 15.8491C62.3113 14.717 62.5378 13.8113 62.5378 12.6793C67.9717 13.1321 73.4057 14.4906 78.3868 16.7547C83.5944 19.0189 88.3491 22.4151 92.4246 26.2642C91.5189 27.3962 90.3868 28.3019 89.4812 29.434C87.6698 31.6981 85.8585 33.9623 84.0472 36.2264C84.0472 35.3208 84.0472 34.6415 84.0472 33.7359C84.0472 32.151 83.8208 30.3396 83.1415 28.5283C82.2359 30.1132 81.783 31.6981 81.3302 33.5095C80.8774 35.0944 80.651 36.9057 80.4246 38.4906C80.4246 39.6227 81.3302 40.5283 82.2359 40.3019C83.8208 40.0755 85.6321 39.8491 87.217 39.3962C88.8019 38.9434 90.3868 38.4906 91.9717 37.5849C90.1604 37.1321 88.5755 36.9057 86.7642 36.6793C85.8585 36.6793 85.1793 36.6793 84.2736 36.6793C86.5378 34.8679 88.8019 33.0566 91.0661 31.2453C92.1981 30.3396 93.1038 29.434 94.2359 28.3019C101.481 36.4529 105.783 46.8679 106.236 57.7359C105.557 57.7359 104.877 57.9623 104.198 58.1887C103.066 58.6415 101.934 59.0944 100.802 60C101.934 60.9057 103.066 61.3585 104.198 61.8113C104.877 62.0378 105.557 62.0378 106.236 62.2642C105.557 73.8113 100.802 85.1321 92.4246 93.0566C84.5 100.981 73.4057 105.736 62.0849 106.189C62.0849 105.509 61.8585 104.83 61.6321 104.151C61.1793 103.019 60.7264 101.887 59.8208 100.755C58.9151 101.887 58.4623 103.019 58.0095 104.151C57.783 104.83 57.783 105.509 57.5566 106.189C46.2359 105.736 35.3679 100.981 27.217 93.0566C19.0661 85.1321 14.0849 73.8113 13.4057 62.2642C14.0849 62.2642 14.7642 62.0378 15.4434 61.8113C16.5755 61.3585 17.7076 60.9057 18.8396 60C17.7076 59.0944 16.5755 58.6415 15.4434 58.1887C14.7642 57.9623 14.0849 57.9623 13.4057 57.7359C13.8585 47.0944 18.1604 36.4529 25.4057 28.3019C27.4434 29.434 28.3491 30.3396 29.4812 31.2453Z" fill="#f9a566"/>
</svg>