<svg width="993" height="324" viewBox="0 0 993 324" fill="none" xmlns="http://www.w3.org/2000/svg">
<path d="M130.947 8.72401C130.947 6.67547 130.133 4.71084 128.684 3.26231C127.235 1.81378 125.27 1 123.221 1C121.173 1 119.208 1.81378 117.759 3.26231C116.31 4.71084 115.496 6.67547 115.496 8.72401C115.496 10.7725 116.31 12.7372 117.759 14.1857C119.208 15.6342 121.173 16.448 123.221 16.448C125.27 16.448 127.235 15.6342 128.684 14.1857C130.133 12.7372 130.947 10.7725 130.947 8.72401Z" stroke="#FCD2B3" stroke-width="2"/>
<path d="M115.232 38.4088C115.232 35.5275 114.087 32.7642 112.049 30.7269C110.011 28.6895 107.248 27.5449 104.366 27.5449C101.484 27.5449 98.7202 28.6895 96.6825 30.7269C94.6448 32.7642 93.5 35.5275 93.5 38.4088C93.5 41.29 94.6448 44.0533 96.6825 46.0907C98.7202 48.128 101.484 49.2726 104.366 49.2726C107.248 49.2726 110.011 48.128 112.049 46.0907C114.087 44.0533 115.232 41.29 115.232 38.4088Z" stroke="#FCD2B3" stroke-width="2"/>
<path d="M175.18 172.283C181.179 184.005 185.633 196.298 188.54 209.163" stroke="#FCD2B3" stroke-width="2"/>
<path d="M188.54 209.162C192.871 231.153 191.127 252.758 183.309 273.977C183.267 274.093 183.262 274.218 183.294 274.337C183.326 274.455 183.393 274.561 183.487 274.64C183.581 274.719 183.696 274.768 183.819 274.779C183.941 274.791 184.063 274.764 184.17 274.704L195.862 268.021" stroke="#ECC8AD" stroke-width="2"/>
<path d="M195.859 268.02C213.517 256.447 227.266 241.962 237.106 224.564C262.723 179.279 258.452 123.336 225.837 82.6795C214.824 68.9539 201.539 58.0093 185.98 49.8457" stroke="#FCD2B3" stroke-width="2"/>
<path d="M185.981 49.8463C173.545 43.3633 160.251 39.0303 146.098 36.8474C145.793 36.7985 145.479 36.8345 145.193 36.9516C144.907 37.0687 144.658 37.2623 144.474 37.5112C137.296 47.2537 134.398 60.6564 134.245 72.8838C133.931 98.4241 144.187 123.902 157.915 145.477C162.222 152.25 167.076 158.844 171.203 165.832C172.454 167.955 173.778 170.105 175.178 172.282" stroke="#ECC8AD" stroke-width="2"/>
<path d="M185.982 49.8457C181.819 54.696 178.026 59.6629 174.605 64.7465C159.19 87.6583 157.476 114.41 164.457 140.461C167.131 150.437 170.705 161.044 175.179 172.282" stroke="#E99B60" stroke-width="2"/>
<path d="M195.861 268.021C196.501 248.039 194.329 228.662 189.347 209.889C189.251 209.53 188.982 209.288 188.539 209.162" stroke="#E99B60" stroke-width="2"/>
<path d="M84.9189 280.877C92.5935 283.61 100.34 285.539 108.158 286.663C108.33 286.689 108.506 286.655 108.656 286.566C108.806 286.478 108.922 286.341 108.983 286.179C111.962 278.176 113.823 270.165 114.564 262.145C117.095 234.667 109.979 207.754 96.4846 183.757C94.9473 181.036 90.5986 174.242 83.4385 163.375C76.9363 153.513 71.6365 141.57 67.5391 127.545" stroke="#EDD6C6" stroke-width="2"/>
<path d="M67.5369 127.545C67.0105 124.734 66.4513 121.896 65.8591 119.032C61.0677 95.7878 63.7146 71.2612 72.0053 49.058C72.0352 48.977 72.0406 48.8887 72.0206 48.8045C72.0006 48.7203 71.9562 48.6441 71.8932 48.586C71.8302 48.5279 71.7516 48.4905 71.6675 48.4786C71.5835 48.4668 71.4979 48.4811 71.4221 48.5197C42.7278 62.4696 20.3233 87.5076 9.10755 117.219C1.25954 138.008 -0.890886 159.625 2.65627 182.071C9.8433 227.535 41.5883 265.231 84.9168 280.877" stroke="#FEE2D0" stroke-width="2"/>
<path d="M67.5391 127.545C69.4353 138.842 72.3544 149.871 76.2963 160.63C80.0468 170.875 83.8422 181.132 87.6825 191.4C94.8067 210.419 100.172 230.209 96.6551 250.519C94.7948 261.248 90.8827 271.368 84.9189 280.877" stroke="#ECB997" stroke-width="2"/>
<path d="M109.025 76.9049C109.025 75.2379 108.697 73.5872 108.059 72.0471C107.421 70.507 106.486 69.1076 105.307 67.9289C104.128 66.7502 102.728 65.8151 101.188 65.1772C99.6473 64.5393 97.9963 64.2109 96.329 64.2109C92.9618 64.2109 89.7324 65.5483 87.3514 67.9289C84.9704 70.3095 83.6328 73.5382 83.6328 76.9049C83.6328 80.2715 84.9704 83.5002 87.3514 85.8808C89.7324 88.2614 92.9618 89.5988 96.329 89.5988C97.9963 89.5988 99.6473 89.2704 101.188 88.6325C102.728 87.9946 104.128 87.0595 105.307 85.8808C106.486 84.7021 107.421 83.3027 108.059 81.7626C108.697 80.2225 109.025 78.5718 109.025 76.9049Z" stroke="#FCD2B3" stroke-width="2"/>
<path d="M122.594 115.183C122.594 110.941 120.908 106.872 117.908 103.872C114.908 100.873 110.839 99.1875 106.596 99.1875C102.353 99.1875 98.2836 100.873 95.2834 103.872C92.2832 106.872 90.5977 110.941 90.5977 115.183C90.5977 117.283 91.0114 119.363 91.8154 121.304C92.6194 123.244 93.7978 125.008 95.2834 126.493C96.769 127.978 98.5326 129.157 100.474 129.96C102.415 130.764 104.495 131.178 106.596 131.178C108.697 131.178 110.777 130.764 112.718 129.96C114.659 129.157 116.423 127.978 117.908 126.493C119.394 125.008 120.572 123.244 121.376 121.304C122.18 119.363 122.594 117.283 122.594 115.183Z" stroke="#FCD2B3" stroke-width="2"/>
<path d="M144.756 161.822C144.756 156.857 142.783 152.094 139.272 148.583C135.76 145.072 130.997 143.1 126.03 143.1C121.064 143.1 116.301 145.072 112.789 148.583C109.278 152.094 107.305 156.857 107.305 161.822C107.305 166.788 109.278 171.55 112.789 175.061C116.301 178.572 121.064 180.544 126.03 180.544C130.997 180.544 135.76 178.572 139.272 175.061C142.783 171.55 144.756 166.788 144.756 161.822Z" stroke="#FCD2B3" stroke-width="2"/>
<path d="M161.488 208.454C161.488 204.212 159.803 200.144 156.803 197.144C153.802 194.144 149.733 192.459 145.49 192.459C141.247 192.459 137.178 194.144 134.178 197.144C131.178 200.144 129.492 204.212 129.492 208.454C129.492 212.696 131.178 216.765 134.178 219.765C137.178 222.764 141.247 224.449 145.49 224.449C149.733 224.449 153.802 222.764 156.803 219.765C159.803 216.765 161.488 212.696 161.488 208.454Z" stroke="#FCD2B3" stroke-width="2"/>
<path d="M168.449 246.724C168.449 243.355 167.111 240.124 164.728 237.742C162.345 235.36 159.114 234.021 155.744 234.021C154.076 234.021 152.424 234.35 150.882 234.988C149.341 235.627 147.94 236.562 146.76 237.742C145.581 238.922 144.645 240.322 144.006 241.863C143.368 243.404 143.039 245.056 143.039 246.724C143.039 248.393 143.368 250.044 144.006 251.586C144.645 253.127 145.581 254.527 146.76 255.707C147.94 256.886 149.341 257.822 150.882 258.46C152.424 259.099 154.076 259.427 155.744 259.427C159.114 259.427 162.345 258.089 164.728 255.707C167.111 253.324 168.449 250.093 168.449 246.724Z" stroke="#FCD2B3" stroke-width="2"/>
<path d="M158.587 285.227C158.587 282.346 157.442 279.583 155.405 277.545C153.367 275.508 150.603 274.363 147.721 274.363C144.839 274.363 142.076 275.508 140.038 277.545C138 279.583 136.855 282.346 136.855 285.227C136.855 288.108 138 290.872 140.038 292.909C142.076 294.946 144.839 296.091 147.721 296.091C150.603 296.091 153.367 294.946 155.405 292.909C157.442 290.872 158.587 288.108 158.587 285.227Z" stroke="#FCD2B3" stroke-width="2"/>
<path d="M136.597 314.895C136.597 312.849 135.784 310.886 134.337 309.439C132.89 307.993 130.927 307.18 128.88 307.18C127.867 307.18 126.864 307.379 125.928 307.767C124.991 308.155 124.141 308.723 123.424 309.439C122.708 310.156 122.139 311.006 121.751 311.942C121.364 312.878 121.164 313.882 121.164 314.895C121.164 316.941 121.977 318.903 123.424 320.35C124.871 321.797 126.834 322.61 128.88 322.61C130.927 322.61 132.89 321.797 134.337 320.35C135.784 318.903 136.597 316.941 136.597 314.895Z" stroke="#FCD2B3" stroke-width="2"/>
<path d="M123.221 16.448C127.488 16.448 130.947 12.9899 130.947 8.72401C130.947 4.45816 127.488 1 123.221 1C118.955 1 115.496 4.45816 115.496 8.72401C115.496 12.9899 118.955 16.448 123.221 16.448Z" fill="#F9A566"/>
<path d="M104.366 49.2726C110.367 49.2726 115.232 44.4087 115.232 38.4088C115.232 32.4088 110.367 27.5449 104.366 27.5449C98.3648 27.5449 93.5 32.4088 93.5 38.4088C93.5 44.4087 98.3648 49.2726 104.366 49.2726Z" fill="#F9A566"/>
<path d="M185.981 49.8463C181.818 54.6966 178.025 59.6636 174.604 64.7471C159.189 87.659 157.475 114.41 164.456 140.462C167.13 150.438 170.704 161.045 175.178 172.282C173.778 170.105 172.454 167.955 171.203 165.832C167.076 158.844 162.222 152.25 157.915 145.477C144.187 123.902 133.931 98.4241 134.245 72.8838C134.398 60.6564 137.296 47.2537 144.474 37.5112C144.658 37.2623 144.907 37.0687 145.193 36.9516C145.479 36.8345 145.793 36.7985 146.098 36.8474C160.251 39.0303 173.545 43.3633 185.981 49.8463Z" fill="#D9905A"/>
<path d="M67.5369 127.545C69.4331 138.842 72.3522 149.871 76.2942 160.63C80.0447 170.875 83.8401 181.132 87.6804 191.4C94.8046 210.419 100.17 230.209 96.6529 250.519C94.7926 261.248 90.8806 271.368 84.9168 280.877C41.5883 265.231 9.8433 227.535 2.65627 182.071C-0.890886 159.625 1.25954 138.008 9.10755 117.219C20.3233 87.5076 42.7278 62.4696 71.4221 48.5197C71.4979 48.4811 71.5835 48.4668 71.6675 48.4786C71.7516 48.4905 71.8302 48.5279 71.8932 48.586C71.9562 48.6441 72.0006 48.7203 72.0206 48.8045C72.0406 48.8887 72.0352 48.977 72.0053 49.058C63.7146 71.2612 61.0677 95.7878 65.8591 119.032C66.4513 121.896 67.0105 124.734 67.5369 127.545Z" fill="#FCC5A0"/>
<path d="M195.861 268.02C196.501 248.038 194.329 228.661 189.347 209.888C189.251 209.529 188.982 209.287 188.539 209.161C185.632 196.297 181.179 184.004 175.179 172.282C170.705 161.044 167.131 150.437 164.457 140.461C157.476 114.41 159.19 87.6583 174.605 64.7465C178.026 59.6629 181.819 54.696 185.982 49.8457C201.54 58.0093 214.826 68.9539 225.838 82.6795C258.453 123.336 262.724 179.279 237.108 224.564C227.268 241.962 213.519 256.447 195.861 268.02Z" fill="#F9A566"/>
<path d="M96.329 89.5968C103.341 89.5968 109.025 83.9136 109.025 76.9029C109.025 69.8922 103.341 64.209 96.329 64.209C89.3171 64.209 83.6328 69.8922 83.6328 76.9029C83.6328 83.9136 89.3171 89.5968 96.329 89.5968Z" fill="#F9A566"/>
<path d="M106.596 131.178C115.431 131.178 122.594 124.017 122.594 115.183C122.594 106.349 115.431 99.1875 106.596 99.1875C97.7602 99.1875 90.5977 106.349 90.5977 115.183C90.5977 124.017 97.7602 131.178 106.596 131.178Z" fill="#F9A566"/>
<path d="M67.5391 127.543C71.6365 141.568 76.9363 153.511 83.4385 163.373C90.5986 174.24 94.9473 181.034 96.4846 183.755C109.979 207.752 117.095 234.665 114.564 262.143C113.823 270.163 111.962 278.175 108.983 286.177C108.922 286.339 108.806 286.476 108.656 286.564C108.506 286.653 108.33 286.687 108.158 286.661C100.34 285.537 92.5935 283.608 84.9189 280.875C90.8827 271.366 94.7948 261.246 96.6551 250.517C100.172 230.207 94.8067 210.417 87.6825 191.398C83.8422 181.13 80.0468 170.873 76.2963 160.628C72.3544 149.869 69.4353 138.84 67.5391 127.543Z" fill="#DBAD8D"/>
<path d="M126.03 180.544C136.372 180.544 144.756 172.162 144.756 161.822C144.756 151.482 136.372 143.1 126.03 143.1C115.688 143.1 107.305 151.482 107.305 161.822C107.305 172.162 115.688 180.544 126.03 180.544Z" fill="#F9A566"/>
<path d="M145.49 224.449C154.326 224.449 161.488 217.288 161.488 208.454C161.488 199.62 154.326 192.459 145.49 192.459C136.655 192.459 129.492 199.62 129.492 208.454C129.492 217.288 136.655 224.449 145.49 224.449Z" fill="#F9A566"/>
<path d="M195.862 268.021L184.17 274.704C184.063 274.764 183.941 274.791 183.819 274.779C183.696 274.768 183.581 274.719 183.487 274.64C183.393 274.561 183.326 274.455 183.294 274.337C183.262 274.218 183.267 274.093 183.309 273.977C191.127 252.758 192.871 231.153 188.54 209.162C188.983 209.288 189.252 209.53 189.347 209.889C194.33 228.662 196.502 248.039 195.862 268.021Z" fill="#D9905A"/>
<path d="M155.744 259.427C162.761 259.427 168.449 253.74 168.449 246.724C168.449 239.709 162.761 234.021 155.744 234.021C148.727 234.021 143.039 239.709 143.039 246.724C143.039 253.74 148.727 259.427 155.744 259.427Z" fill="#F9A566"/>
<path d="M147.721 296.089C153.722 296.089 158.587 291.225 158.587 285.225C158.587 279.225 153.722 274.361 147.721 274.361C141.72 274.361 136.855 279.225 136.855 285.225C136.855 291.225 141.72 296.089 147.721 296.089Z" fill="#F9A566"/>
<path d="M128.88 322.608C133.142 322.608 136.597 319.154 136.597 314.893C136.597 310.632 133.142 307.178 128.88 307.178C124.619 307.178 121.164 310.632 121.164 314.893C121.164 319.154 124.619 322.608 128.88 322.608Z" fill="#F9A566"/>
<path d="M787.196 140.23C783.956 142.817 779.762 144.244 774.616 144.51C763.256 145.1 757.446 137.9 755.766 127.44C753.906 115.887 753.886 104.487 755.706 93.2403C756.646 87.4403 759.736 80.5303 765.426 78.2603C772.616 75.3803 781.796 78.2403 788.176 82.1203C788.32 82.207 788.489 82.2405 788.654 82.2148C788.819 82.1892 788.968 82.1061 789.076 81.9803C791.196 79.5503 792.866 74.8403 790.646 72.0503C788.666 69.5403 785.696 68.9303 782.086 68.3503C765.506 65.7103 751.626 71.0503 745.726 87.5503C743.359 94.177 742.086 101.614 741.906 109.86C741.506 128.38 741.716 152.33 766.856 153.61C774.736 154.01 782.616 153.49 789.566 150.19C790.611 149.693 791.453 148.85 791.95 147.805C792.447 146.76 792.569 145.575 792.296 144.45L791.636 141.74C791.525 141.286 791.301 140.867 790.986 140.522C790.67 140.177 790.273 139.918 789.83 139.767C789.387 139.617 788.914 139.58 788.454 139.661C787.993 139.742 787.561 139.938 787.196 140.23Z" stroke="#FCD2B3" stroke-width="2"/>
<path d="M327.698 138.449C325.438 140.956 324.598 144.023 325.178 147.649C326.398 155.339 347.268 154.129 352.338 153.529C369.788 151.459 376.288 137.249 372.388 121.329C369.368 109.049 355.078 106.039 346.668 102.039C339.178 98.4794 335.508 93.4395 337.338 85.1395C340.328 71.5295 359.768 78.7995 367.648 83.0595C367.783 83.135 367.942 83.1594 368.094 83.1283C368.246 83.0971 368.383 83.0123 368.478 82.8895C370.011 80.9028 370.808 78.6494 370.868 76.1294C370.978 71.1794 367.638 69.4094 363.138 68.7894C355.648 67.7694 345.778 67.2495 339.448 69.9595C331.788 73.2395 327.384 78.6795 326.238 86.2795C325.451 91.5195 325.641 96.0794 326.808 99.9594C329.508 108.979 337.508 112.769 346.108 115.889C348.894 116.903 352.094 118.526 355.708 120.759C359.594 123.166 361.694 126.616 362.008 131.109C362.598 139.419 359.368 144.309 350.668 144.719C342.788 145.093 335.364 142.973 328.398 138.359C328.29 138.288 328.159 138.258 328.031 138.274C327.902 138.291 327.784 138.353 327.698 138.449Z" stroke="#FCD2B3" stroke-width="2"/>
<path d="M802.728 109.47C802.482 115.523 802.632 121.233 803.178 126.6C804.168 136.31 806.908 145.68 815.838 150.64C820.838 153.42 826.838 154.477 833.838 153.81C855.568 151.76 861.298 131.55 862.078 112.61C862.325 106.55 862.175 100.836 861.628 95.4698C860.638 85.7598 857.898 76.3898 848.968 71.4298C843.968 68.6498 837.965 67.5932 830.958 68.2598C809.228 70.3098 803.498 90.5198 802.728 109.47Z" stroke="#FCD2B3" stroke-width="2"/>
<path d="M668.437 116.41L679.807 129.53C679.86 129.592 679.925 129.641 679.998 129.676C680.071 129.711 680.151 129.729 680.232 129.731C680.313 129.733 680.394 129.718 680.469 129.687C680.543 129.656 680.611 129.609 680.667 129.55C682.847 127.22 685.527 123.85 685.837 120.84C685.849 120.698 685.834 120.554 685.791 120.419C685.748 120.283 685.678 120.158 685.587 120.05L675.777 108.73C675.721 108.666 675.692 108.583 675.696 108.499C675.7 108.415 675.736 108.337 675.797 108.28C679.67 104.674 683.173 100.854 686.307 96.8205C693.747 87.2505 694.417 72.1805 679.557 69.4105C665.067 66.7005 649.637 72.9105 651.417 90.3305C651.837 94.4505 653.65 98.4805 656.857 102.42C656.92 102.499 656.999 102.564 657.088 102.611C657.177 102.659 657.275 102.688 657.376 102.697C657.476 102.706 657.578 102.696 657.674 102.665C657.77 102.635 657.86 102.586 657.937 102.52L664.507 96.8305C664.731 96.6338 664.878 96.3642 664.922 96.0695C664.965 95.7747 664.904 95.4739 664.747 95.2205C661.157 89.3705 660.527 79.5705 668.077 76.6305C670.243 75.7905 672.547 75.8672 674.987 76.8605C679.657 78.7705 681.197 84.4905 680.167 89.1705C678.977 94.5905 674.137 99.8005 670.487 103.501C665.467 108.601 659.353 114.654 652.147 121.66C644.577 129.03 640.987 137.91 646.967 147.97C651.997 156.45 664.587 156.38 672.697 153.17C678.797 150.75 684.507 146.13 689.837 141.87C689.946 141.782 690.086 141.74 690.226 141.753C690.366 141.766 690.495 141.833 690.587 141.941L698.407 150.96C698.759 151.365 699.193 151.69 699.682 151.913C700.17 152.135 700.7 152.25 701.237 152.251H712.057C712.596 152.251 713.116 152.051 713.515 151.691C713.914 151.33 714.164 150.835 714.217 150.3L714.547 147.071C714.568 146.861 714.51 146.652 714.384 146.483C714.258 146.315 714.073 146.199 713.867 146.16C707.127 144.92 702.727 139.08 697.687 133.47C697.587 133.355 697.523 133.213 697.506 133.061C697.488 132.909 697.516 132.756 697.587 132.62C699.58 128.814 701.5 124.237 703.347 118.891C703.84 117.451 705.15 115.48 707.277 112.98C707.319 112.93 707.347 112.87 707.357 112.805C707.367 112.74 707.359 112.674 707.335 112.613C707.31 112.552 707.269 112.5 707.217 112.46C707.164 112.421 707.102 112.397 707.037 112.391L696.637 111.34C696.55 111.331 696.462 111.339 696.379 111.364C696.295 111.389 696.217 111.431 696.149 111.486C696.081 111.542 696.025 111.611 695.983 111.689C695.942 111.767 695.916 111.852 695.907 111.941C694.887 121.911 691.737 132.031 684.597 139.061C680.07 143.527 674.933 145.56 669.187 145.16C664.293 144.82 661.06 142.561 659.487 138.381C655.967 129.031 661.377 122.521 667.747 116.381C667.792 116.335 667.846 116.3 667.906 116.277C667.966 116.254 668.03 116.244 668.095 116.247C668.16 116.249 668.223 116.265 668.282 116.294C668.341 116.322 668.393 116.362 668.437 116.41Z" stroke="#FCD2B3" stroke-width="2"/>
<path d="M390.826 76.6195V145.239C390.827 145.359 390.802 145.478 390.754 145.588C390.706 145.698 390.635 145.797 390.547 145.878C390.458 145.959 390.354 146.02 390.24 146.059C390.126 146.097 390.006 146.111 389.886 146.099C387.966 145.913 386.26 146.046 384.766 146.499C384.585 146.555 384.419 146.655 384.283 146.791C384.147 146.927 384.045 147.094 383.986 147.279C383.533 148.739 383.57 150.339 384.096 152.079C384.148 152.248 384.252 152.395 384.392 152.5C384.533 152.604 384.702 152.66 384.876 152.659H409.056C409.526 152.659 409.976 152.473 410.308 152.141C410.64 151.809 410.826 151.359 410.826 150.89V147.519C410.826 147.325 410.788 147.133 410.714 146.953C410.639 146.774 410.53 146.61 410.393 146.473C410.256 146.336 410.092 146.227 409.913 146.152C409.733 146.078 409.541 146.039 409.346 146.039H403.136C402.953 146.039 402.778 145.967 402.649 145.837C402.519 145.708 402.446 145.532 402.446 145.349V121.669C402.446 121.617 402.457 121.564 402.479 121.515C402.5 121.467 402.531 121.423 402.57 121.386C402.61 121.35 402.656 121.322 402.707 121.303C402.758 121.285 402.812 121.277 402.866 121.279C411.256 121.699 421.666 120.629 428.316 115.989C437.326 109.689 439.326 98.9095 438.206 88.2395C437.356 80.2395 433.686 74.1895 426.006 71.6995C422.286 70.4928 418.4 69.7895 414.346 69.5895C408.64 69.3095 399.163 69.2562 385.916 69.4295C385.455 69.4374 385.015 69.6262 384.691 69.9555C384.368 70.2847 384.186 70.7278 384.186 71.1895V74.5195C384.186 74.8908 384.334 75.2469 384.596 75.5094C384.859 75.772 385.215 75.9195 385.586 75.9195H390.126C390.312 75.9195 390.49 75.9932 390.621 76.1245C390.753 76.2558 390.826 76.4338 390.826 76.6195Z" stroke="#FCD2B3" stroke-width="2"/>
<path d="M452.908 111.001C452.918 127.691 452.858 137.741 452.558 145.551C452.553 145.696 452.492 145.833 452.387 145.934C452.283 146.035 452.143 146.091 451.998 146.091H447.708C447.465 146.091 447.225 146.139 447 146.232C446.776 146.325 446.572 146.461 446.4 146.633C446.228 146.805 446.092 147.008 445.999 147.233C445.906 147.457 445.858 147.698 445.858 147.941V150.721C445.858 151.228 446.06 151.715 446.42 152.075C446.78 152.435 447.268 152.638 447.778 152.641C451.425 152.648 455.058 152.651 458.678 152.651C462.291 152.651 465.921 152.648 469.568 152.641C469.822 152.64 470.072 152.589 470.306 152.491C470.54 152.393 470.752 152.251 470.93 152.071C471.108 151.892 471.249 151.68 471.345 151.446C471.441 151.213 471.489 150.963 471.488 150.711V147.931C471.488 147.44 471.293 146.97 470.946 146.623C470.599 146.276 470.129 146.081 469.638 146.081H465.348C465.201 146.084 465.059 146.029 464.953 145.928C464.846 145.827 464.783 145.688 464.778 145.541C464.478 137.741 464.408 127.681 464.398 110.991C464.398 94.3009 464.448 84.2409 464.748 76.4409C464.753 76.2941 464.816 76.1553 464.923 76.0543C465.029 75.9533 465.171 75.8982 465.318 75.9009H469.608C470.099 75.9009 470.569 75.706 470.916 75.3591C471.263 75.0121 471.458 74.5416 471.458 74.0509V71.2709C471.459 71.0188 471.411 70.7688 471.315 70.5354C471.219 70.3019 471.078 70.0896 470.9 69.9103C470.722 69.7311 470.51 69.5886 470.276 69.4909C470.042 69.3932 469.792 69.3422 469.538 69.3409C465.885 69.3343 462.251 69.3343 458.638 69.3409C455.025 69.3409 451.395 69.3443 447.748 69.3509C447.495 69.3522 447.244 69.4032 447.01 69.5009C446.777 69.5986 446.565 69.7411 446.386 69.9203C446.208 70.0996 446.067 70.312 445.971 70.5454C445.875 70.7789 445.827 71.0288 445.828 71.2809V74.0609C445.828 74.3039 445.876 74.5444 445.969 74.7689C446.062 74.9933 446.198 75.1973 446.37 75.3691C446.542 75.5409 446.746 75.6771 446.97 75.7701C447.195 75.8631 447.435 75.9109 447.678 75.9109L451.968 75.9009C452.115 75.8982 452.257 75.9533 452.364 76.0543C452.47 76.1553 452.533 76.2941 452.538 76.4409C452.838 84.2509 452.908 94.3009 452.908 111.001Z" stroke="#FCD2B3" stroke-width="2"/>
<path d="M497.688 90.9596C505.675 110.073 515.138 129.63 526.078 149.63C526.671 150.703 527.231 151.616 527.758 152.37C527.911 152.588 528.111 152.771 528.342 152.904C528.574 153.037 528.832 153.117 529.098 153.14C531.558 153.346 534.175 153.403 536.948 153.31C539.928 153.22 540.508 151.28 540.488 148.65C540.275 124.07 540.351 100.106 540.718 76.7596C540.721 76.52 540.818 76.2911 540.988 76.1226C541.159 75.9541 541.389 75.8596 541.628 75.8596H544.898C545.492 75.8596 546.062 75.6226 546.482 75.2006C546.902 74.7787 547.138 74.2064 547.138 73.6096V71.2896C547.138 70.7751 546.935 70.2817 546.573 69.9178C546.211 69.554 545.72 69.3496 545.208 69.3496H526.918C526.473 69.3496 526.045 69.5266 525.73 69.8417C525.415 70.1567 525.238 70.5841 525.238 71.0296V74.5996C525.238 74.773 525.273 74.9446 525.339 75.1048C525.406 75.2649 525.504 75.4104 525.628 75.533C525.751 75.6556 525.898 75.7528 526.059 75.8192C526.221 75.8855 526.393 75.9196 526.568 75.9196H530.548C530.736 75.9196 530.917 75.9944 531.05 76.1276C531.183 76.2607 531.258 76.4413 531.258 76.6296V134.94C531.258 134.97 531.248 134.999 531.229 135.022C531.21 135.045 531.183 135.061 531.154 135.067C531.124 135.073 531.094 135.069 531.067 135.054C531.041 135.04 531.02 135.017 531.008 134.99C527.228 126.15 523.188 116.58 519.088 108.08C510.981 91.2929 504.948 78.5463 500.988 69.8396C500.926 69.6995 500.824 69.5805 500.694 69.497C500.565 69.4136 500.413 69.3693 500.258 69.3696H484.018C483.586 69.3696 483.171 69.5414 482.866 69.847C482.56 70.1527 482.388 70.5673 482.388 70.9996V74.4896C482.388 74.8715 482.541 75.2378 482.813 75.5078C483.085 75.7779 483.454 75.9296 483.838 75.9296H487.238C487.437 75.9296 487.628 76.0086 487.768 76.1493C487.909 76.2899 487.988 76.4807 487.988 76.6796V145.43C487.988 145.597 487.921 145.757 487.801 145.875C487.681 145.993 487.518 146.06 487.348 146.06H484.208C483.378 146.06 482.582 146.389 481.995 146.976C481.408 147.563 481.078 148.36 481.078 149.19V150.33C481.078 150.95 481.325 151.545 481.764 151.984C482.202 152.423 482.798 152.67 483.418 152.67H501.448C501.88 152.67 502.295 152.498 502.601 152.192C502.906 151.887 503.078 151.472 503.078 151.04V147.37C503.078 147.195 503.043 147.022 502.976 146.861C502.909 146.699 502.81 146.553 502.686 146.429C502.561 146.306 502.414 146.208 502.251 146.141C502.088 146.074 501.914 146.04 501.738 146.04H498.008C497.849 146.04 497.696 145.976 497.584 145.864C497.471 145.751 497.408 145.599 497.408 145.44V91.0096C497.406 90.9764 497.417 90.9443 497.437 90.9189C497.457 90.8935 497.486 90.8764 497.52 90.8705C497.553 90.8646 497.588 90.8702 497.618 90.8865C497.649 90.9027 497.674 90.9286 497.688 90.9596Z" stroke="#FCD2B3" stroke-width="2"/>
<path d="M575.279 112.659H599.239C599.849 112.659 600.434 112.418 600.865 111.989C601.296 111.559 601.539 110.977 601.539 110.369V106.569C601.539 106.036 601.327 105.525 600.95 105.148C600.573 104.771 600.062 104.559 599.529 104.559H575.219C575.081 104.559 574.949 104.506 574.851 104.41C574.754 104.314 574.699 104.185 574.699 104.049V77.9294C574.699 77.7703 574.763 77.6176 574.877 77.5051C574.992 77.3926 575.147 77.3294 575.309 77.3294C581.122 77.316 586.719 77.6627 592.099 78.3694C596.732 78.9827 600.982 80.196 604.849 82.0094C604.923 82.0449 605.003 82.0653 605.085 82.0694C605.167 82.0735 605.249 82.0611 605.326 82.0331C605.402 82.0051 605.472 81.962 605.531 81.9063C605.59 81.8507 605.637 81.7837 605.669 81.7094C607.329 77.976 607.799 74.6627 607.079 71.7694C606.907 71.0811 606.512 70.47 605.955 70.0333C605.399 69.5966 604.714 69.3594 604.009 69.3594H558.829C558.349 69.3594 557.888 69.5511 557.549 69.8924C557.209 70.2337 557.019 70.6967 557.019 71.1794V74.5194C557.019 74.8854 557.164 75.2364 557.423 75.4952C557.682 75.754 558.033 75.8994 558.399 75.8994H562.489C562.558 75.8994 562.627 75.9134 562.692 75.9405C562.756 75.9676 562.814 76.0074 562.864 76.0575C562.913 76.1077 562.952 76.1672 562.978 76.2327C563.005 76.2982 563.019 76.3684 563.019 76.4394V145.699C563.019 145.877 562.948 146.048 562.823 146.173C562.697 146.299 562.526 146.369 562.349 146.369H558.769C558.532 146.369 558.298 146.416 558.08 146.506C557.862 146.597 557.663 146.729 557.496 146.897C557.329 147.064 557.196 147.262 557.106 147.481C557.015 147.699 556.969 147.933 556.969 148.169V151.349C556.969 151.556 557.009 151.76 557.087 151.95C557.166 152.141 557.281 152.314 557.426 152.46C557.571 152.605 557.742 152.721 557.932 152.8C558.121 152.879 558.324 152.919 558.529 152.919C583.489 152.993 597.345 152.949 600.099 152.789C603.939 152.579 608.859 153.169 608.739 147.579C608.692 145.013 608.235 142.743 607.369 140.769C607.322 140.662 607.236 140.576 607.128 140.529C607.021 140.483 606.899 140.479 606.789 140.519C596.349 144.309 586.509 144.889 575.319 144.509C575.152 144.504 574.995 144.433 574.879 144.312C574.763 144.191 574.699 144.028 574.699 143.859V113.239C574.699 113.086 574.76 112.938 574.869 112.829C574.977 112.72 575.125 112.659 575.279 112.659Z" stroke="#FCD2B3" stroke-width="2"/>
<path d="M879.546 76.5594C880.039 98.7328 880.019 121.699 879.486 145.459C879.483 145.627 879.413 145.788 879.292 145.906C879.17 146.023 879.006 146.089 878.836 146.089H875.046C874.417 146.089 873.814 146.34 873.37 146.786C872.925 147.233 872.676 147.838 872.676 148.469V150.789C872.676 151.288 872.873 151.766 873.223 152.119C873.574 152.471 874.05 152.669 874.546 152.669H897.376C897.896 152.669 898.394 152.464 898.762 152.098C899.129 151.733 899.336 151.237 899.336 150.719V147.759C899.336 147.303 899.153 146.866 898.829 146.543C898.505 146.221 898.065 146.039 897.606 146.039H892.116C891.927 146.039 891.747 145.964 891.614 145.829C891.481 145.694 891.406 145.51 891.406 145.319V118.789C891.406 118.641 891.459 118.498 891.554 118.386C891.65 118.274 891.782 118.201 891.926 118.179C900.216 117.019 905.246 118.419 908.296 126.219C910.309 131.366 912.176 137.626 913.896 144.999C914.076 145.786 914.836 147.529 916.176 150.229C918.376 154.649 925.936 154.139 930.566 153.699C931.376 153.621 932.133 153.257 932.701 152.673C933.268 152.089 933.61 151.322 933.666 150.509L933.816 148.329C933.839 148.009 933.793 147.688 933.683 147.386C933.573 147.084 933.401 146.809 933.177 146.579C932.953 146.348 932.683 146.168 932.385 146.049C932.087 145.93 931.767 145.876 931.446 145.889C929.326 146.049 927.476 144.429 925.896 141.029C922.906 134.639 920.346 125.919 916.066 119.399C914.466 116.953 912.379 115.186 909.806 114.099C909.742 114.071 909.688 114.024 909.651 113.965C909.613 113.907 909.594 113.839 909.595 113.77C909.596 113.701 909.617 113.635 909.657 113.579C909.696 113.524 909.752 113.482 909.816 113.459C919.526 109.719 924.976 102.419 925.436 92.2094C926.206 75.0494 915.326 69.4594 900.096 69.3994C884.809 69.3261 876.462 69.3227 875.056 69.3894C874.536 69.4126 874.045 69.6356 873.685 70.012C873.326 70.3883 873.125 70.8889 873.126 71.4094V74.4194C873.126 74.8146 873.284 75.1936 873.565 75.473C873.846 75.7524 874.228 75.9094 874.626 75.9094H878.876C879.05 75.9093 879.218 75.9772 879.343 76.0985C879.468 76.2199 879.541 76.3852 879.546 76.5594Z" stroke="#FCD2B3" stroke-width="2"/>
<path d="M958.249 112.659L982.199 112.649C982.809 112.649 983.394 112.408 983.825 111.979C984.256 111.549 984.499 110.967 984.499 110.359V106.559C984.499 106.026 984.287 105.515 983.91 105.138C983.533 104.761 983.022 104.549 982.489 104.549L958.189 104.559C958.051 104.559 957.919 104.506 957.821 104.41C957.724 104.314 957.669 104.185 957.669 104.049L957.649 77.9394C957.649 77.7802 957.713 77.6276 957.827 77.5151C957.942 77.4026 958.097 77.3394 958.259 77.3394C964.072 77.3261 969.669 77.6727 975.049 78.3794C979.675 78.986 983.922 80.196 987.789 82.0094C987.863 82.0449 987.943 82.0653 988.025 82.0694C988.107 82.0735 988.189 82.0611 988.266 82.0331C988.342 82.0051 988.412 81.962 988.471 81.9063C988.53 81.8507 988.577 81.7837 988.609 81.7094C990.269 77.976 990.739 74.6627 990.019 71.7694C989.847 71.0811 989.452 70.47 988.895 70.0333C988.339 69.5966 987.654 69.3594 986.949 69.3594L941.779 69.3894C941.299 69.3894 940.838 69.5811 940.499 69.9225C940.159 70.2638 939.969 70.7267 939.969 71.2094L939.979 74.5494C939.981 74.9136 940.128 75.2621 940.386 75.5187C940.645 75.7754 940.994 75.9194 941.359 75.9194H945.449C945.518 75.9194 945.587 75.9333 945.652 75.9605C945.716 75.9876 945.774 76.0274 945.824 76.0775C945.873 76.1277 945.912 76.1872 945.938 76.2527C945.965 76.3182 945.979 76.3885 945.979 76.4594L946.009 145.699C946.009 145.877 945.938 146.048 945.812 146.173C945.687 146.299 945.516 146.369 945.339 146.369H941.759C941.283 146.372 940.828 146.563 940.492 146.9C940.157 147.237 939.969 147.694 939.969 148.169V151.349C939.969 151.766 940.133 152.165 940.426 152.46C940.718 152.754 941.115 152.919 941.529 152.919C966.475 152.979 980.325 152.926 983.079 152.759C986.919 152.549 991.839 153.139 991.719 147.549C991.665 144.983 991.205 142.713 990.339 140.739C990.292 140.632 990.206 140.546 990.098 140.499C989.991 140.453 989.869 140.449 989.759 140.489C979.329 144.289 969.489 144.869 958.309 144.499C958.142 144.494 957.985 144.423 957.869 144.302C957.753 144.181 957.689 144.018 957.689 143.849L957.669 113.239C957.669 113.086 957.73 112.938 957.839 112.829C957.947 112.72 958.095 112.659 958.249 112.659Z" stroke="#FCD2B3" stroke-width="2"/>
<path d="M815.207 111.17C815.307 122.69 815.887 144.9 832.697 144.75C849.507 144.61 849.697 122.39 849.597 110.88C849.497 99.3597 848.927 77.1497 832.117 77.2897C815.297 77.4397 815.107 99.6597 815.207 111.17Z" stroke="#FCD2B3" stroke-width="2"/>
<path d="M402.447 79.7192L402.387 112.359C402.387 112.63 402.494 112.889 402.685 113.08C402.877 113.272 403.136 113.379 403.407 113.379L410.757 113.389C412.736 113.393 414.696 113.013 416.526 112.271C418.356 111.529 420.02 110.439 421.422 109.064C422.824 107.689 423.937 106.055 424.698 104.256C425.459 102.457 425.853 100.528 425.857 98.5792V93.5792C425.865 89.6434 424.284 85.8657 421.464 83.0771C418.643 80.2884 414.813 78.7173 410.817 78.7092L403.467 78.6992C403.333 78.6992 403.2 78.7256 403.076 78.7769C402.953 78.8281 402.84 78.9033 402.745 78.998C402.651 79.0927 402.576 79.2051 402.524 79.3289C402.473 79.4526 402.447 79.5853 402.447 79.7192Z" stroke="#FCD2B3" stroke-width="2"/>
<path d="M891.867 109.86C896.807 109.7 899.857 109.507 901.017 109.28C909.77 107.567 913.667 101.87 912.707 92.1901C911.497 79.8901 902.817 77.7901 892.517 78.8401C892.183 78.8747 891.873 79.0318 891.648 79.281C891.423 79.5303 891.298 79.8541 891.297 80.1901V109.31C891.297 109.383 891.312 109.455 891.34 109.523C891.369 109.59 891.411 109.651 891.464 109.703C891.517 109.754 891.58 109.794 891.649 109.821C891.719 109.848 891.792 109.861 891.867 109.86Z" stroke="#FCD2B3" stroke-width="2"/>
<path d="M787.196 140.23C787.561 139.938 787.993 139.742 788.454 139.661C788.914 139.58 789.387 139.617 789.83 139.767C790.273 139.918 790.67 140.177 790.986 140.522C791.301 140.867 791.525 141.286 791.636 141.74L792.296 144.45C792.569 145.575 792.447 146.76 791.95 147.805C791.453 148.85 790.611 149.693 789.566 150.19C782.616 153.49 774.736 154.01 766.856 153.61C741.716 152.33 741.506 128.38 741.906 109.86C742.086 101.614 743.359 94.177 745.726 87.5503C751.626 71.0503 765.506 65.7103 782.086 68.3503C785.696 68.9303 788.666 69.5403 790.646 72.0503C792.866 74.8403 791.196 79.5503 789.076 81.9803C788.968 82.1061 788.819 82.1892 788.654 82.2148C788.489 82.2405 788.32 82.207 788.176 82.1203C781.796 78.2403 772.616 75.3803 765.426 78.2603C759.736 80.5303 756.646 87.4403 755.706 93.2403C753.886 104.487 753.906 115.887 755.766 127.44C757.446 137.9 763.256 145.1 774.616 144.51C779.762 144.244 783.956 142.817 787.196 140.23Z" fill="#F9A566"/>
<path d="M327.698 138.449C327.784 138.353 327.902 138.291 328.031 138.274C328.159 138.258 328.29 138.288 328.398 138.359C335.364 142.973 342.788 145.093 350.668 144.719C359.368 144.309 362.598 139.419 362.008 131.109C361.694 126.616 359.594 123.166 355.708 120.759C352.094 118.526 348.894 116.903 346.108 115.889C337.508 112.769 329.508 108.979 326.808 99.9594C325.641 96.0794 325.451 91.5195 326.238 86.2795C327.384 78.6795 331.788 73.2395 339.448 69.9595C345.778 67.2495 355.648 67.7694 363.138 68.7894C367.638 69.4094 370.978 71.1794 370.868 76.1294C370.808 78.6494 370.011 80.9028 368.478 82.8895C368.383 83.0123 368.246 83.0971 368.094 83.1283C367.942 83.1594 367.783 83.135 367.648 83.0595C359.768 78.7995 340.328 71.5295 337.338 85.1395C335.508 93.4395 339.178 98.4794 346.668 102.039C355.078 106.039 369.368 109.049 372.388 121.329C376.288 137.249 369.788 151.459 352.338 153.529C347.268 154.129 326.398 155.339 325.178 147.649C324.598 144.023 325.438 140.956 327.698 138.449Z" fill="#F9A566"/>
<path d="M862.078 112.61C861.298 131.55 855.568 151.76 833.838 153.81C826.838 154.477 820.838 153.42 815.838 150.64C806.908 145.68 804.168 136.31 803.178 126.6C802.632 121.233 802.482 115.523 802.728 109.47C803.498 90.5198 809.228 70.3098 830.958 68.2598C837.965 67.5932 843.968 68.6498 848.968 71.4298C857.898 76.3898 860.638 85.7598 861.628 95.4698C862.175 100.836 862.325 106.55 862.078 112.61ZM815.208 111.17C815.308 122.69 815.888 144.9 832.698 144.75C849.508 144.61 849.698 122.39 849.598 110.88C849.498 99.3599 848.928 77.1498 832.118 77.2898C815.298 77.4398 815.108 99.6598 815.208 111.17Z" fill="#F9A566"/>
<path d="M667.747 116.379C661.377 122.519 655.967 129.029 659.487 138.379C661.06 142.559 664.293 144.819 669.187 145.159C674.933 145.559 680.07 143.525 684.597 139.059C691.737 132.029 694.887 121.909 695.907 111.939C695.916 111.85 695.942 111.765 695.983 111.687C696.025 111.609 696.081 111.54 696.149 111.484C696.217 111.429 696.295 111.387 696.379 111.362C696.462 111.337 696.55 111.329 696.637 111.339L707.037 112.389C707.102 112.395 707.164 112.419 707.217 112.458C707.269 112.498 707.31 112.55 707.335 112.611C707.359 112.672 707.367 112.738 707.357 112.803C707.347 112.868 707.319 112.928 707.277 112.979C705.15 115.479 703.84 117.449 703.347 118.889C701.5 124.235 699.58 128.812 697.587 132.619C697.516 132.754 697.488 132.907 697.506 133.059C697.523 133.211 697.587 133.353 697.687 133.469C702.727 139.079 707.127 144.919 713.867 146.159C714.073 146.198 714.258 146.313 714.384 146.481C714.51 146.65 714.568 146.859 714.547 147.069L714.217 150.299C714.164 150.833 713.914 151.328 713.515 151.689C713.116 152.049 712.596 152.249 712.057 152.249H701.237C700.7 152.248 700.17 152.133 699.682 151.911C699.193 151.688 698.759 151.363 698.407 150.959L690.587 141.939C690.495 141.831 690.366 141.764 690.226 141.751C690.086 141.738 689.946 141.78 689.837 141.869C684.507 146.129 678.797 150.749 672.697 153.169C664.587 156.379 651.997 156.449 646.967 147.969C640.987 137.909 644.577 129.029 652.147 121.659C659.353 114.652 665.467 108.599 670.487 103.499C674.137 99.7986 678.977 94.5885 680.167 89.1685C681.197 84.4885 679.657 78.7685 674.987 76.8585C672.547 75.8652 670.243 75.7885 668.077 76.6285C660.527 79.5685 661.157 89.3685 664.747 95.2185C664.904 95.4719 664.965 95.7728 664.922 96.0675C664.878 96.3623 664.731 96.6319 664.507 96.8285L657.937 102.519C657.86 102.584 657.77 102.633 657.674 102.663C657.578 102.694 657.476 102.704 657.376 102.695C657.275 102.686 657.177 102.657 657.088 102.609C656.999 102.562 656.92 102.497 656.857 102.419C653.65 98.4785 651.837 94.4485 651.417 90.3285C649.637 72.9085 665.067 66.6985 679.557 69.4085C694.417 72.1785 693.747 87.2486 686.307 96.8186C683.173 100.852 679.67 104.672 675.797 108.279C675.736 108.335 675.7 108.413 675.696 108.497C675.692 108.581 675.721 108.664 675.777 108.729L685.587 120.049C685.678 120.156 685.748 120.281 685.791 120.417C685.834 120.553 685.849 120.696 685.837 120.839C685.527 123.849 682.847 127.219 680.667 129.549C680.611 129.607 680.543 129.654 680.469 129.685C680.394 129.716 680.313 129.731 680.232 129.729C680.151 129.728 680.071 129.709 679.998 129.674C679.925 129.639 679.86 129.59 679.807 129.529L668.437 116.409C668.393 116.36 668.341 116.32 668.282 116.292C668.223 116.263 668.16 116.247 668.095 116.245C668.03 116.242 667.966 116.252 667.906 116.275C667.846 116.298 667.792 116.333 667.747 116.379Z" fill="#F9A566"/>
<path d="M390.126 75.9195H385.586C385.215 75.9195 384.859 75.772 384.596 75.5094C384.334 75.2469 384.186 74.8908 384.186 74.5195V71.1895C384.186 70.7278 384.368 70.2847 384.691 69.9555C385.015 69.6262 385.455 69.4374 385.916 69.4295C399.163 69.2562 408.64 69.3095 414.346 69.5895C418.4 69.7895 422.286 70.4928 426.006 71.6995C433.686 74.1895 437.356 80.2395 438.206 88.2395C439.326 98.9095 437.326 109.689 428.316 115.989C421.666 120.629 411.256 121.699 402.866 121.279C402.812 121.277 402.758 121.285 402.707 121.303C402.656 121.322 402.61 121.35 402.57 121.386C402.531 121.423 402.5 121.467 402.479 121.515C402.457 121.564 402.446 121.617 402.446 121.669V145.349C402.446 145.532 402.519 145.708 402.649 145.837C402.778 145.967 402.953 146.039 403.136 146.039H409.346C409.541 146.039 409.733 146.078 409.913 146.152C410.092 146.227 410.256 146.336 410.393 146.473C410.53 146.61 410.639 146.774 410.714 146.953C410.788 147.133 410.826 147.325 410.826 147.519V150.89C410.826 151.359 410.64 151.809 410.308 152.141C409.976 152.473 409.526 152.659 409.056 152.659H384.876C384.702 152.66 384.533 152.604 384.392 152.5C384.252 152.395 384.148 152.248 384.096 152.079C383.57 150.339 383.533 148.739 383.986 147.279C384.045 147.094 384.147 146.927 384.283 146.791C384.419 146.655 384.585 146.555 384.766 146.499C386.26 146.046 387.966 145.913 389.886 146.099C390.006 146.111 390.126 146.097 390.24 146.059C390.354 146.02 390.458 145.959 390.547 145.878C390.635 145.797 390.706 145.698 390.754 145.588C390.802 145.478 390.827 145.359 390.826 145.239V76.6195C390.826 76.4338 390.753 76.2558 390.621 76.1245C390.49 75.9932 390.312 75.9195 390.126 75.9195ZM402.446 79.7195L402.386 112.359C402.386 112.63 402.494 112.889 402.685 113.081C402.876 113.272 403.136 113.38 403.406 113.38L410.756 113.39C412.735 113.393 414.696 113.014 416.526 112.271C418.356 111.529 420.019 110.44 421.421 109.064C422.824 107.689 423.937 106.055 424.698 104.256C425.459 102.457 425.853 100.528 425.856 98.5795V93.5795C425.864 89.6437 424.284 85.866 421.464 83.0773C418.643 80.2887 414.813 78.7175 410.816 78.7095L403.466 78.6995C403.332 78.6995 403.2 78.7259 403.076 78.7771C402.952 78.8284 402.84 78.9035 402.745 78.9982C402.65 79.093 402.575 79.2054 402.524 79.3291C402.473 79.4529 402.446 79.5855 402.446 79.7195Z" fill="#F9A566"/>
<path d="M458.638 69.339C462.251 69.3323 465.885 69.3323 469.538 69.339C469.792 69.3403 470.042 69.3912 470.276 69.4889C470.51 69.5866 470.722 69.7292 470.9 69.9084C471.078 70.0876 471.219 70.3 471.315 70.5334C471.411 70.7669 471.459 71.0168 471.458 71.269V74.049C471.458 74.5396 471.263 75.0102 470.916 75.3571C470.569 75.7041 470.099 75.899 469.608 75.899H465.318C465.171 75.8963 465.029 75.9513 464.923 76.0523C464.816 76.1533 464.753 76.2922 464.748 76.439C464.448 84.239 464.398 94.299 464.398 110.989C464.408 127.679 464.478 137.739 464.778 145.539C464.783 145.686 464.846 145.825 464.953 145.926C465.059 146.027 465.201 146.082 465.348 146.079H469.638C470.129 146.079 470.599 146.274 470.946 146.621C471.293 146.968 471.488 147.438 471.488 147.929V150.709C471.489 150.961 471.441 151.211 471.345 151.444C471.249 151.678 471.108 151.89 470.93 152.07C470.752 152.249 470.54 152.391 470.306 152.489C470.072 152.587 469.822 152.638 469.568 152.639C465.921 152.646 462.291 152.649 458.678 152.649C455.058 152.649 451.425 152.646 447.778 152.639C447.268 152.636 446.78 152.433 446.42 152.073C446.06 151.713 445.858 151.226 445.858 150.719V147.939C445.858 147.696 445.906 147.455 445.999 147.231C446.092 147.007 446.228 146.803 446.4 146.631C446.572 146.459 446.776 146.323 447 146.23C447.225 146.137 447.465 146.089 447.708 146.089H451.998C452.143 146.089 452.283 146.033 452.387 145.932C452.492 145.831 452.553 145.694 452.558 145.549C452.858 137.739 452.918 127.689 452.908 110.999C452.908 94.299 452.838 84.249 452.538 76.439C452.533 76.2922 452.47 76.1533 452.364 76.0523C452.257 75.9513 452.115 75.8963 451.968 75.899L447.678 75.909C447.435 75.909 447.195 75.8611 446.97 75.7682C446.746 75.6752 446.542 75.5389 446.37 75.3671C446.198 75.1953 446.062 74.9914 445.969 74.7669C445.876 74.5425 445.828 74.3019 445.828 74.059V71.279C445.827 71.0268 445.875 70.7769 445.971 70.5435C446.067 70.31 446.208 70.0976 446.386 69.9184C446.565 69.7392 446.777 69.5966 447.01 69.4989C447.244 69.4012 447.495 69.3503 447.748 69.349C451.395 69.3423 455.025 69.339 458.638 69.339Z" fill="#F9A566"/>
<path d="M497.408 91.0096V145.44C497.408 145.599 497.471 145.751 497.584 145.864C497.696 145.976 497.849 146.04 498.008 146.04H501.738C501.914 146.04 502.088 146.074 502.251 146.141C502.414 146.208 502.561 146.306 502.686 146.429C502.81 146.553 502.909 146.699 502.976 146.861C503.043 147.022 503.078 147.195 503.078 147.37V151.04C503.078 151.472 502.906 151.887 502.601 152.192C502.295 152.498 501.88 152.67 501.448 152.67H483.418C482.798 152.67 482.202 152.423 481.764 151.984C481.325 151.545 481.078 150.95 481.078 150.33V149.19C481.078 148.36 481.408 147.563 481.995 146.976C482.582 146.389 483.378 146.06 484.208 146.06H487.348C487.518 146.06 487.681 145.993 487.801 145.875C487.921 145.757 487.988 145.597 487.988 145.43V76.6796C487.988 76.4807 487.909 76.2899 487.768 76.1493C487.628 76.0086 487.437 75.9296 487.238 75.9296H483.838C483.454 75.9296 483.085 75.7779 482.813 75.5078C482.541 75.2378 482.388 74.8715 482.388 74.4896V70.9996C482.388 70.5673 482.56 70.1527 482.866 69.847C483.171 69.5414 483.586 69.3696 484.018 69.3696H500.258C500.413 69.3693 500.565 69.4136 500.694 69.497C500.824 69.5805 500.926 69.6995 500.988 69.8396C504.948 78.5463 510.981 91.2929 519.088 108.08C523.188 116.58 527.228 126.15 531.008 134.99C531.02 135.017 531.041 135.04 531.067 135.054C531.094 135.069 531.124 135.073 531.154 135.067C531.183 135.061 531.21 135.045 531.229 135.022C531.248 134.999 531.258 134.97 531.258 134.94V76.6296C531.258 76.4413 531.183 76.2607 531.05 76.1276C530.917 75.9944 530.736 75.9196 530.548 75.9196H526.568C526.393 75.9196 526.221 75.8855 526.059 75.8192C525.898 75.7528 525.751 75.6556 525.628 75.533C525.504 75.4104 525.406 75.2649 525.339 75.1048C525.273 74.9446 525.238 74.773 525.238 74.5996V71.0296C525.238 70.5841 525.415 70.1567 525.73 69.8417C526.045 69.5266 526.473 69.3496 526.918 69.3496H545.208C545.72 69.3496 546.211 69.554 546.573 69.9178C546.935 70.2817 547.138 70.7751 547.138 71.2896V73.6096C547.138 74.2064 546.902 74.7787 546.482 75.2006C546.062 75.6226 545.492 75.8596 544.898 75.8596H541.628C541.389 75.8596 541.159 75.9541 540.988 76.1226C540.818 76.2911 540.721 76.52 540.718 76.7596C540.351 100.106 540.275 124.07 540.488 148.65C540.508 151.28 539.928 153.22 536.948 153.31C534.175 153.403 531.558 153.346 529.098 153.14C528.832 153.117 528.574 153.037 528.342 152.904C528.111 152.771 527.911 152.588 527.758 152.37C527.231 151.616 526.671 150.703 526.078 149.63C515.138 129.63 505.675 110.073 497.688 90.9596C497.674 90.9286 497.649 90.9027 497.618 90.8865C497.588 90.8702 497.553 90.8646 497.52 90.8705C497.486 90.8764 497.457 90.8935 497.437 90.9189C497.417 90.9443 497.406 90.9764 497.408 91.0096Z" fill="#F9A566"/>
<path d="M574.699 113.239V143.859C574.699 144.028 574.763 144.191 574.879 144.312C574.995 144.433 575.152 144.504 575.319 144.509C586.509 144.889 596.349 144.309 606.789 140.519C606.899 140.479 607.021 140.483 607.128 140.529C607.236 140.576 607.322 140.662 607.369 140.769C608.235 142.743 608.692 145.013 608.739 147.579C608.859 153.169 603.939 152.579 600.099 152.789C597.345 152.949 583.489 152.993 558.529 152.919C558.324 152.919 558.121 152.879 557.932 152.8C557.742 152.721 557.571 152.605 557.426 152.46C557.281 152.314 557.166 152.141 557.087 151.95C557.009 151.76 556.969 151.556 556.969 151.349V148.169C556.969 147.933 557.015 147.699 557.106 147.481C557.196 147.262 557.329 147.064 557.496 146.897C557.663 146.729 557.862 146.597 558.08 146.506C558.298 146.416 558.532 146.369 558.769 146.369H562.349C562.526 146.369 562.697 146.299 562.823 146.173C562.948 146.048 563.019 145.877 563.019 145.699V76.4394C563.019 76.3684 563.005 76.2982 562.978 76.2327C562.952 76.1672 562.913 76.1077 562.864 76.0575C562.814 76.0074 562.756 75.9676 562.692 75.9405C562.627 75.9134 562.558 75.8994 562.489 75.8994H558.399C558.033 75.8994 557.682 75.754 557.423 75.4952C557.164 75.2364 557.019 74.8854 557.019 74.5194V71.1794C557.019 70.6967 557.209 70.2337 557.549 69.8924C557.888 69.5511 558.349 69.3594 558.829 69.3594H604.009C604.714 69.3594 605.399 69.5966 605.955 70.0333C606.512 70.47 606.907 71.0811 607.079 71.7694C607.799 74.6627 607.329 77.976 605.669 81.7094C605.637 81.7837 605.59 81.8507 605.531 81.9063C605.472 81.962 605.402 82.0051 605.326 82.0331C605.249 82.0611 605.167 82.0735 605.085 82.0694C605.003 82.0653 604.923 82.0449 604.849 82.0094C600.982 80.196 596.732 78.9827 592.099 78.3694C586.719 77.6627 581.122 77.316 575.309 77.3294C575.147 77.3294 574.992 77.3926 574.877 77.5051C574.763 77.6176 574.699 77.7703 574.699 77.9294V104.049C574.699 104.185 574.754 104.314 574.851 104.41C574.949 104.506 575.081 104.559 575.219 104.559H599.529C600.062 104.559 600.573 104.771 600.95 105.148C601.327 105.525 601.539 106.036 601.539 106.569V110.369C601.539 110.977 601.296 111.559 600.865 111.989C600.434 112.418 599.849 112.659 599.239 112.659H575.279C575.125 112.659 574.977 112.72 574.869 112.829C574.76 112.938 574.699 113.086 574.699 113.239Z" fill="#F9A566"/>
<path d="M878.876 75.9094H874.626C874.228 75.9094 873.846 75.7524 873.565 75.473C873.284 75.1936 873.126 74.8146 873.126 74.4194V71.4094C873.125 70.8889 873.326 70.3883 873.685 70.012C874.045 69.6356 874.536 69.4126 875.056 69.3894C876.462 69.3227 884.809 69.3261 900.096 69.3994C915.326 69.4594 926.206 75.0494 925.436 92.2094C924.976 102.419 919.526 109.719 909.816 113.459C909.752 113.482 909.696 113.524 909.657 113.579C909.617 113.635 909.596 113.701 909.595 113.77C909.594 113.839 909.613 113.907 909.651 113.965C909.688 114.024 909.742 114.071 909.806 114.099C912.379 115.186 914.466 116.953 916.066 119.399C920.346 125.919 922.906 134.639 925.896 141.029C927.476 144.429 929.326 146.049 931.446 145.889C931.767 145.876 932.087 145.93 932.385 146.049C932.683 146.168 932.953 146.348 933.177 146.579C933.401 146.809 933.573 147.084 933.683 147.386C933.793 147.688 933.839 148.009 933.816 148.329L933.666 150.509C933.61 151.322 933.268 152.089 932.701 152.673C932.133 153.257 931.376 153.621 930.566 153.699C925.936 154.139 918.376 154.649 916.176 150.229C914.836 147.529 914.076 145.786 913.896 144.999C912.176 137.626 910.309 131.366 908.296 126.219C905.246 118.419 900.216 117.019 891.926 118.179C891.782 118.201 891.65 118.274 891.554 118.386C891.459 118.498 891.406 118.641 891.406 118.789V145.319C891.406 145.51 891.481 145.694 891.614 145.829C891.747 145.964 891.927 146.039 892.116 146.039H897.606C898.065 146.039 898.505 146.221 898.829 146.543C899.153 146.866 899.336 147.303 899.336 147.759V150.719C899.336 151.237 899.129 151.733 898.762 152.098C898.394 152.464 897.896 152.669 897.376 152.669H874.546C874.05 152.669 873.574 152.471 873.223 152.119C872.873 151.766 872.676 151.288 872.676 150.789V148.469C872.676 147.838 872.925 147.233 873.37 146.786C873.814 146.34 874.417 146.089 875.046 146.089H878.836C879.006 146.089 879.17 146.023 879.292 145.906C879.413 145.788 879.483 145.627 879.486 145.459C880.019 121.699 880.039 98.7328 879.546 76.5594C879.541 76.3852 879.468 76.2199 879.343 76.0985C879.218 75.9772 879.05 75.9093 878.876 75.9094ZM891.866 109.859C896.806 109.699 899.856 109.506 901.016 109.279C909.769 107.566 913.666 101.869 912.706 92.1894C911.496 79.8894 902.816 77.7894 892.516 78.8394C892.182 78.874 891.872 79.0311 891.647 79.2803C891.421 79.5296 891.296 79.8534 891.296 80.1894V109.309C891.296 109.383 891.311 109.455 891.339 109.522C891.368 109.59 891.41 109.651 891.463 109.702C891.516 109.753 891.579 109.793 891.648 109.82C891.717 109.848 891.791 109.861 891.866 109.859Z" fill="#F9A566"/>
<path d="M958.249 112.659C958.095 112.659 957.947 112.72 957.839 112.829C957.73 112.938 957.669 113.086 957.669 113.239L957.689 143.849C957.689 144.018 957.753 144.181 957.869 144.302C957.985 144.423 958.142 144.494 958.309 144.499C969.489 144.869 979.329 144.289 989.759 140.489C989.869 140.449 989.991 140.453 990.098 140.499C990.206 140.546 990.292 140.632 990.339 140.739C991.205 142.713 991.665 144.983 991.719 147.549C991.839 153.139 986.919 152.549 983.079 152.759C980.325 152.926 966.475 152.979 941.529 152.919C941.115 152.919 940.718 152.754 940.426 152.46C940.133 152.165 939.969 151.766 939.969 151.349V148.169C939.969 147.694 940.157 147.237 940.492 146.9C940.828 146.563 941.283 146.372 941.759 146.369H945.339C945.516 146.369 945.687 146.299 945.812 146.173C945.938 146.048 946.009 145.877 946.009 145.699L945.979 76.4594C945.979 76.3885 945.965 76.3182 945.938 76.2527C945.912 76.1872 945.873 76.1277 945.824 76.0775C945.774 76.0274 945.716 75.9876 945.652 75.9605C945.587 75.9333 945.518 75.9194 945.449 75.9194H941.359C940.994 75.9194 940.645 75.7754 940.386 75.5187C940.128 75.2621 939.981 74.9136 939.979 74.5494L939.969 71.2094C939.969 70.7267 940.159 70.2638 940.499 69.9225C940.838 69.5811 941.299 69.3894 941.779 69.3894L986.949 69.3594C987.654 69.3594 988.339 69.5966 988.895 70.0333C989.452 70.47 989.847 71.0811 990.019 71.7694C990.739 74.6627 990.269 77.976 988.609 81.7094C988.577 81.7837 988.53 81.8507 988.471 81.9063C988.412 81.962 988.342 82.0051 988.266 82.0331C988.189 82.0611 988.107 82.0735 988.025 82.0694C987.943 82.0653 987.863 82.0449 987.789 82.0094C983.922 80.196 979.675 78.986 975.049 78.3794C969.669 77.6727 964.072 77.3261 958.259 77.3394C958.097 77.3394 957.942 77.4026 957.827 77.5151C957.713 77.6276 957.649 77.7802 957.649 77.9394L957.669 104.049C957.669 104.185 957.724 104.314 957.821 104.41C957.919 104.506 958.051 104.559 958.189 104.559L982.489 104.549C983.022 104.549 983.533 104.761 983.91 105.138C984.287 105.515 984.499 106.026 984.499 106.559V110.359C984.499 110.967 984.256 111.549 983.825 111.979C983.394 112.408 982.809 112.649 982.199 112.649L958.249 112.659Z" fill="#F9A566"/>
<path d="M849.224 211.248C854.818 211.008 859.971 211.848 864.684 213.768C864.812 213.819 864.949 213.844 865.087 213.84C865.224 213.837 865.359 213.806 865.484 213.749C865.609 213.692 865.72 213.61 865.811 213.508C865.902 213.406 865.972 213.287 866.014 213.158C866.768 210.918 867.041 209.068 866.834 207.608C866.756 207.074 866.49 206.586 866.083 206.231C865.676 205.876 865.156 205.676 864.614 205.668C862.188 205.634 852.688 205.604 836.114 205.578C832.288 205.571 828.764 205.068 825.544 204.068C825.328 204.001 825.099 203.983 824.875 204.015C824.651 204.048 824.437 204.129 824.248 204.253C824.06 204.377 823.902 204.542 823.785 204.735C823.669 204.928 823.597 205.144 823.574 205.368L823.174 209.378C823.146 209.648 823.175 209.921 823.26 210.179C823.344 210.438 823.481 210.675 823.663 210.877C823.845 211.079 824.068 211.24 824.316 211.35C824.564 211.461 824.833 211.518 825.104 211.518H840.174C840.254 211.518 840.33 211.549 840.387 211.606C840.443 211.662 840.474 211.738 840.474 211.818V258.028C840.474 258.179 840.414 258.324 840.307 258.431C840.201 258.538 840.056 258.598 839.904 258.598H836.114C835.932 258.598 835.751 258.634 835.582 258.704C835.414 258.775 835.261 258.878 835.132 259.008C835.002 259.138 834.9 259.292 834.83 259.462C834.76 259.632 834.724 259.814 834.724 259.998V261.618C834.724 261.963 834.861 262.293 835.105 262.537C835.349 262.781 835.68 262.918 836.024 262.918H852.784C853.19 262.918 853.579 262.758 853.866 262.473C854.153 262.188 854.314 261.801 854.314 261.398V259.948C854.314 259.584 854.169 259.236 853.91 258.979C853.651 258.722 853.3 258.578 852.934 258.578H849.064C848.908 258.578 848.758 258.515 848.647 258.402C848.537 258.289 848.474 258.137 848.474 257.978V212.038C848.474 211.833 848.552 211.637 848.692 211.489C848.832 211.342 849.023 211.256 849.224 211.248Z" stroke="#FCD2B3" stroke-width="2"/>
<path d="M357.123 254.778C354.61 256.611 351.443 257.548 347.623 257.588C336.873 257.688 334.673 249.218 334.013 240.278C333.507 233.518 333.707 227.645 334.613 222.658C335.753 216.348 338.863 210.928 346.113 211.108C350.34 211.215 354.28 212.365 357.933 214.558C358.034 214.618 358.154 214.637 358.269 214.613C358.383 214.589 358.485 214.523 358.553 214.428C361.043 210.898 360.993 206.838 356.043 205.738C341.063 202.408 329.013 207.968 326.163 223.968C324.937 230.821 324.68 237.835 325.393 245.008C326.263 253.858 329.293 260.918 338.193 262.978C344.347 264.398 351.01 263.985 358.183 261.738C359.104 261.45 359.874 260.811 360.326 259.959C360.779 259.108 360.879 258.112 360.603 257.188L360.193 255.818C360.102 255.514 359.939 255.237 359.719 255.009C359.499 254.781 359.227 254.609 358.926 254.507C358.626 254.405 358.306 254.377 357.992 254.424C357.678 254.471 357.381 254.592 357.123 254.778Z" stroke="#FCD2B3" stroke-width="2"/>
<path d="M539.095 232.669C538.715 247.369 539.285 263.899 559.125 263.749C575.065 263.629 580.655 249.559 581.005 235.989C581.385 221.299 580.825 204.769 560.975 204.919C545.035 205.029 539.445 219.109 539.095 232.669Z" stroke="#FCD2B3" stroke-width="2"/>
<path d="M805.123 254.778C802.61 256.611 799.443 257.548 795.623 257.588C784.873 257.688 782.673 249.218 782.013 240.278C781.507 233.518 781.707 227.645 782.613 222.658C783.753 216.348 786.863 210.928 794.113 211.108C798.34 211.215 802.28 212.365 805.933 214.558C806.034 214.618 806.154 214.637 806.269 214.613C806.383 214.589 806.485 214.523 806.553 214.428C809.043 210.898 808.993 206.838 804.043 205.738C789.073 202.408 777.023 207.968 774.163 223.968C772.937 230.821 772.68 237.835 773.393 245.008C774.263 253.848 777.293 260.918 786.193 262.978C792.347 264.398 799.01 263.985 806.183 261.738C807.104 261.45 807.874 260.811 808.326 259.959C808.779 259.108 808.879 258.112 808.603 257.188L808.193 255.818C808.102 255.514 807.939 255.237 807.719 255.009C807.498 254.781 807.227 254.609 806.926 254.507C806.626 254.405 806.306 254.377 805.992 254.424C805.678 254.471 805.381 254.592 805.123 254.778Z" stroke="#FCD2B3" stroke-width="2"/>
<path d="M951.123 254.778C948.61 256.611 945.443 257.548 941.623 257.588C930.873 257.688 928.673 249.218 928.013 240.278C927.507 233.518 927.707 227.648 928.613 222.668C929.753 216.358 932.863 210.938 940.113 211.118C944.333 211.218 948.27 212.364 951.923 214.558C952.024 214.617 952.144 214.637 952.259 214.613C952.373 214.589 952.475 214.523 952.543 214.428C955.033 210.898 954.983 206.838 950.033 205.748C935.063 202.418 923.013 207.978 920.163 223.978C918.937 230.824 918.68 237.835 919.393 245.008C920.263 253.858 923.293 260.918 932.193 262.978C938.347 264.398 945.01 263.984 952.183 261.738C953.104 261.449 953.874 260.81 954.326 259.959C954.779 259.108 954.879 258.112 954.603 257.188L954.193 255.818C954.102 255.513 953.939 255.234 953.718 255.005C953.497 254.776 953.224 254.604 952.924 254.502C952.623 254.4 952.302 254.372 951.989 254.42C951.676 254.468 951.379 254.591 951.123 254.778Z" stroke="#FCD2B3" stroke-width="2"/>
<path d="M743.755 258.619H741.745C741.519 258.619 741.303 258.708 741.143 258.868C740.984 259.027 740.895 259.243 740.895 259.469V262.159C740.895 262.257 740.914 262.355 740.951 262.446C740.988 262.537 741.043 262.619 741.111 262.689C741.18 262.759 741.262 262.814 741.351 262.852C741.441 262.889 741.537 262.909 741.635 262.909H756.535C756.808 262.909 757.07 262.8 757.263 262.607C757.456 262.414 757.565 262.152 757.565 261.879V259.489C757.565 259.372 757.542 259.256 757.497 259.148C757.452 259.04 757.387 258.942 757.304 258.859C757.221 258.777 757.123 258.711 757.015 258.666C756.907 258.622 756.791 258.599 756.675 258.599H754.635C754.421 258.599 754.213 258.53 754.041 258.402C753.87 258.274 753.745 258.094 753.685 257.889L738.305 206.099C738.247 205.903 738.135 205.728 737.982 205.592C737.828 205.455 737.638 205.364 737.435 205.329C734.205 204.769 729.825 204.489 728.445 208.489C727.131 212.302 725.755 216.845 724.315 222.119C720.721 235.305 717.368 247.279 714.255 258.039C714.206 258.212 714.102 258.364 713.957 258.473C713.813 258.581 713.636 258.639 713.455 258.639H711.395C711.129 258.639 710.875 258.744 710.687 258.932C710.5 259.119 710.395 259.374 710.395 259.639V262.049C710.395 262.277 710.486 262.496 710.649 262.657C710.813 262.818 711.034 262.909 711.265 262.909L724.455 262.919C724.63 262.919 724.801 262.867 724.949 262.769C725.096 262.671 725.213 262.532 725.285 262.369C725.658 261.489 725.671 260.412 725.325 259.139C725.285 258.989 725.196 258.857 725.073 258.763C724.95 258.669 724.799 258.618 724.645 258.619H722.395C722.312 258.619 722.23 258.601 722.155 258.565C722.08 258.53 722.013 258.478 721.961 258.414C721.908 258.35 721.87 258.275 721.85 258.195C721.83 258.114 721.828 258.03 721.845 257.949L724.655 244.749C724.686 244.605 724.767 244.476 724.883 244.383C725 244.29 725.145 244.239 725.295 244.239H740.275C740.445 244.238 740.611 244.295 740.745 244.401C740.879 244.506 740.974 244.653 741.015 244.819L744.225 258.009C744.243 258.081 744.244 258.156 744.229 258.228C744.214 258.301 744.183 258.369 744.138 258.428C744.092 258.487 744.034 258.534 743.968 258.567C743.902 258.6 743.829 258.618 743.755 258.619Z" stroke="#FCD2B3" stroke-width="2"/>
<path d="M402.632 235.449C408.632 235.449 411.915 235.463 412.482 235.489C412.641 235.497 412.791 235.566 412.901 235.681C413.011 235.797 413.072 235.95 413.072 236.109V257.889C413.072 258.08 412.996 258.263 412.861 258.398C412.726 258.534 412.543 258.609 412.352 258.609H409.742C409.516 258.609 409.3 258.699 409.141 258.858C408.981 259.018 408.892 259.234 408.892 259.459V262.009C408.892 262.248 408.987 262.477 409.155 262.646C409.324 262.815 409.553 262.909 409.792 262.909H424.582C424.919 262.909 425.242 262.776 425.48 262.537C425.718 262.299 425.852 261.976 425.852 261.639V259.889C425.852 259.719 425.818 259.55 425.753 259.392C425.688 259.234 425.592 259.091 425.471 258.97C425.35 258.849 425.207 258.754 425.049 258.688C424.892 258.623 424.723 258.589 424.552 258.589H421.852C421.679 258.589 421.514 258.522 421.392 258.402C421.27 258.282 421.202 258.119 421.202 257.949V211.049C421.202 210.813 421.296 210.587 421.463 210.42C421.629 210.253 421.856 210.159 422.092 210.159H424.482C424.84 210.159 425.183 210.017 425.436 209.764C425.69 209.511 425.832 209.167 425.832 208.809V207.009C425.832 206.638 425.684 206.282 425.422 206.019C425.159 205.757 424.803 205.609 424.432 205.609H409.992C409.703 205.609 409.426 205.725 409.221 205.932C409.017 206.138 408.902 206.418 408.902 206.709V209.069C408.902 209.361 409.018 209.641 409.224 209.847C409.43 210.053 409.71 210.169 410.002 210.169H412.292C412.499 210.169 412.697 210.252 412.843 210.398C412.99 210.544 413.072 210.743 413.072 210.949V229.199C413.072 229.36 413.01 229.514 412.899 229.631C412.787 229.748 412.634 229.819 412.472 229.829C411.759 229.883 408.479 229.909 402.632 229.909C396.785 229.916 393.505 229.893 392.792 229.839C392.629 229.829 392.477 229.758 392.365 229.641C392.254 229.524 392.192 229.37 392.192 229.209L392.182 210.959C392.182 210.752 392.264 210.554 392.41 210.408C392.557 210.262 392.755 210.179 392.962 210.179H395.252C395.397 210.179 395.541 210.151 395.675 210.095C395.809 210.039 395.931 209.957 396.033 209.854C396.136 209.75 396.216 209.628 396.271 209.493C396.326 209.359 396.353 209.215 396.352 209.069V206.709C396.351 206.565 396.321 206.422 396.265 206.289C396.209 206.156 396.128 206.036 396.026 205.934C395.923 205.833 395.803 205.753 395.67 205.699C395.537 205.645 395.395 205.618 395.252 205.619L380.812 205.629C380.442 205.632 380.089 205.781 379.828 206.043C379.568 206.305 379.422 206.66 379.422 207.029V208.829C379.422 209.187 379.564 209.531 379.817 209.784C380.07 210.037 380.414 210.179 380.772 210.179L383.162 210.169C383.398 210.169 383.624 210.263 383.791 210.43C383.958 210.597 384.052 210.823 384.052 211.059L384.082 257.959C384.082 258.129 384.013 258.292 383.891 258.412C383.77 258.532 383.604 258.599 383.432 258.599L380.732 258.609C380.387 258.609 380.056 258.746 379.813 258.99C379.569 259.234 379.432 259.565 379.432 259.909V261.659C379.432 261.827 379.465 261.993 379.529 262.148C379.594 262.302 379.688 262.443 379.807 262.561C379.926 262.679 380.068 262.772 380.223 262.836C380.378 262.899 380.544 262.931 380.712 262.929L395.502 262.919C395.62 262.918 395.737 262.893 395.846 262.847C395.954 262.801 396.053 262.733 396.135 262.649C396.218 262.564 396.283 262.464 396.327 262.355C396.371 262.245 396.393 262.128 396.392 262.009V259.459C396.389 259.236 396.299 259.022 396.139 258.865C395.98 258.708 395.766 258.619 395.542 258.619H392.932C392.741 258.619 392.558 258.544 392.423 258.409C392.288 258.273 392.212 258.09 392.212 257.899L392.202 236.119C392.202 235.96 392.263 235.807 392.373 235.691C392.483 235.576 392.633 235.507 392.792 235.499C393.359 235.466 396.639 235.449 402.632 235.449Z" stroke="#FCD2B3" stroke-width="2"/>
<path d="M448.553 234.319C448.553 240.906 448.466 248.766 448.293 257.899C448.29 258.062 448.224 258.217 448.108 258.331C447.992 258.445 447.836 258.509 447.673 258.509H444.833C444.456 258.509 444.095 258.659 443.829 258.925C443.562 259.192 443.413 259.553 443.413 259.929V261.499C443.413 261.882 443.564 262.25 443.834 262.521C444.104 262.793 444.47 262.947 444.853 262.949C447.159 262.963 449.706 262.966 452.493 262.959C455.273 262.966 457.819 262.959 460.133 262.939C460.514 262.934 460.878 262.779 461.145 262.508C461.413 262.236 461.563 261.87 461.563 261.489V259.919C461.563 259.543 461.413 259.182 461.147 258.915C460.881 258.649 460.519 258.499 460.143 258.499H457.303C457.142 258.499 456.987 258.437 456.871 258.325C456.756 258.213 456.688 258.06 456.683 257.899C456.496 248.766 456.399 240.903 456.393 234.309C456.393 227.723 456.479 219.863 456.653 210.729C456.655 210.567 456.722 210.412 456.838 210.297C456.954 210.183 457.11 210.119 457.273 210.119H460.113C460.489 210.119 460.851 209.97 461.117 209.703C461.383 209.437 461.533 209.076 461.533 208.699V207.129C461.533 206.747 461.381 206.379 461.112 206.108C460.842 205.836 460.476 205.682 460.093 205.679C457.786 205.666 455.239 205.663 452.453 205.669C449.673 205.669 447.126 205.676 444.813 205.689C444.432 205.695 444.068 205.85 443.8 206.121C443.533 206.392 443.383 206.758 443.383 207.139V208.709C443.383 208.896 443.42 209.08 443.491 209.253C443.562 209.425 443.667 209.582 443.799 209.713C443.931 209.845 444.087 209.95 444.259 210.021C444.432 210.093 444.616 210.129 444.803 210.129H447.643C447.806 210.129 447.962 210.193 448.078 210.307C448.194 210.422 448.26 210.577 448.263 210.739C448.449 219.866 448.546 227.726 448.553 234.319Z" stroke="#FCD2B3" stroke-width="2"/>
<path d="M505.551 235.958C512.671 233.398 516.395 228.432 516.721 221.058C517.271 208.788 508.721 206.188 498.591 205.728C494.218 205.528 488.361 205.518 481.021 205.698C480.679 205.706 480.354 205.847 480.114 206.092C479.875 206.337 479.741 206.666 479.741 207.008V209.178C479.741 209.459 479.852 209.729 480.049 209.928C480.246 210.127 480.513 210.238 480.791 210.238H483.801C483.974 210.238 484.139 210.306 484.261 210.426C484.383 210.546 484.451 210.708 484.451 210.878V258.108C484.451 258.241 484.399 258.368 484.305 258.462C484.211 258.556 484.084 258.608 483.951 258.608H480.681C480.353 258.608 480.037 258.739 479.805 258.971C479.572 259.204 479.441 259.519 479.441 259.848V261.808C479.441 261.954 479.47 262.098 479.526 262.233C479.582 262.368 479.663 262.49 479.767 262.593C479.87 262.696 479.992 262.778 480.127 262.834C480.261 262.89 480.406 262.918 480.551 262.918H496.881C497.059 262.918 497.234 262.883 497.398 262.815C497.562 262.748 497.711 262.648 497.836 262.523C497.961 262.397 498.061 262.249 498.129 262.085C498.197 261.921 498.231 261.746 498.231 261.568V259.778C498.231 259.465 498.107 259.165 497.886 258.944C497.665 258.723 497.364 258.598 497.051 258.598H493.201C493.024 258.598 492.853 258.528 492.728 258.402C492.602 258.276 492.531 258.106 492.531 257.928V239.778C492.531 239.643 492.578 239.513 492.664 239.409C492.75 239.305 492.869 239.234 493.001 239.208C500.561 237.708 503.661 240.858 505.881 247.668C506.535 249.682 507.591 253.285 509.051 258.478C510.078 262.145 512.591 263.895 516.591 263.728C520.241 263.578 523.901 263.878 522.441 259.158C522.392 258.994 522.292 258.85 522.156 258.744C522.02 258.638 521.854 258.577 521.681 258.568C519.555 258.468 518.028 257.322 517.101 255.128C514.941 250.035 513.261 246.158 512.061 243.498C510.601 240.272 508.421 237.892 505.521 236.358C505.484 236.338 505.454 236.307 505.433 236.27C505.413 236.233 505.404 236.191 505.407 236.148C505.41 236.106 505.426 236.066 505.451 236.032C505.477 235.998 505.512 235.973 505.551 235.958Z" stroke="#FCD2B3" stroke-width="2"/>
<path d="M613.113 241.479C623.883 241.339 634.573 239.759 637.593 227.709C638.833 222.759 638.463 214.529 634.623 210.599C630.233 206.089 622.013 205.769 615.853 205.649C609.166 205.509 604.243 205.532 601.083 205.719C600.72 205.739 600.379 205.899 600.13 206.165C599.881 206.431 599.742 206.783 599.743 207.149V209.219C599.743 209.489 599.85 209.749 600.039 209.94C600.228 210.131 600.485 210.239 600.753 210.239H603.803C603.976 210.239 604.141 210.307 604.263 210.429C604.385 210.551 604.453 210.716 604.453 210.889V258.109C604.453 258.241 604.4 258.368 604.307 258.462C604.213 258.556 604.086 258.609 603.953 258.609H600.683C600.357 258.609 600.044 258.738 599.813 258.969C599.583 259.2 599.453 259.512 599.453 259.839V261.849C599.453 261.989 599.481 262.128 599.535 262.258C599.588 262.388 599.667 262.506 599.767 262.605C599.866 262.705 599.984 262.783 600.114 262.837C600.243 262.891 600.383 262.919 600.523 262.919H617.073C617.274 262.919 617.473 262.879 617.659 262.802C617.844 262.725 618.013 262.613 618.155 262.47C618.297 262.328 618.41 262.16 618.487 261.974C618.564 261.788 618.603 261.59 618.603 261.389V259.989C618.603 259.806 618.567 259.625 618.497 259.457C618.427 259.288 618.325 259.135 618.196 259.006C618.067 258.877 617.914 258.774 617.745 258.704C617.576 258.635 617.396 258.599 617.213 258.599H613.213C613.035 258.599 612.865 258.528 612.739 258.402C612.614 258.277 612.543 258.106 612.543 257.929V242.059C612.543 241.982 612.558 241.907 612.587 241.837C612.615 241.766 612.657 241.702 612.71 241.648C612.763 241.595 612.826 241.552 612.895 241.523C612.964 241.494 613.038 241.479 613.113 241.479Z" stroke="#FCD2B3" stroke-width="2"/>
<path d="M680.551 235.958C687.671 233.398 691.395 228.432 691.721 221.058C692.271 208.788 683.721 206.188 673.591 205.728C669.218 205.528 663.361 205.518 656.021 205.698C655.679 205.706 655.354 205.847 655.114 206.092C654.875 206.337 654.741 206.666 654.741 207.008V209.178C654.741 209.459 654.852 209.729 655.049 209.928C655.246 210.127 655.513 210.238 655.791 210.238H658.801C658.974 210.238 659.139 210.306 659.261 210.426C659.383 210.546 659.451 210.708 659.451 210.878V258.108C659.451 258.241 659.399 258.368 659.305 258.462C659.211 258.556 659.084 258.608 658.951 258.608H655.681C655.353 258.608 655.037 258.739 654.805 258.971C654.572 259.204 654.441 259.519 654.441 259.848V261.808C654.441 262.103 654.558 262.385 654.767 262.593C654.975 262.801 655.257 262.918 655.551 262.918H671.881C672.239 262.918 672.583 262.776 672.836 262.523C673.089 262.27 673.231 261.926 673.231 261.568V259.778C673.231 259.465 673.107 259.165 672.886 258.944C672.665 258.723 672.364 258.598 672.051 258.598H668.201C668.024 258.598 667.853 258.528 667.728 258.402C667.602 258.276 667.531 258.106 667.531 257.928V239.778C667.531 239.643 667.578 239.513 667.664 239.409C667.75 239.305 667.869 239.234 668.001 239.208C675.561 237.708 678.661 240.858 680.881 247.668C681.535 249.682 682.591 253.285 684.051 258.478C685.078 262.145 687.591 263.895 691.591 263.728C695.241 263.578 698.901 263.878 697.441 259.158C697.392 258.994 697.292 258.85 697.156 258.744C697.02 258.638 696.854 258.577 696.681 258.568C694.555 258.468 693.028 257.322 692.101 255.128C689.941 250.035 688.261 246.158 687.061 243.498C685.601 240.272 683.421 237.892 680.521 236.358C680.484 236.338 680.454 236.307 680.433 236.27C680.413 236.233 680.404 236.191 680.407 236.148C680.41 236.106 680.426 236.066 680.451 236.032C680.477 235.998 680.512 235.973 680.551 235.958Z" stroke="#FCD2B3" stroke-width="2"/>
<path d="M887.553 234.318C887.559 240.912 887.473 248.775 887.293 257.908C887.29 258.071 887.224 258.226 887.108 258.34C886.992 258.454 886.836 258.518 886.673 258.518H883.833C883.456 258.518 883.095 258.668 882.829 258.934C882.562 259.2 882.413 259.562 882.413 259.938V261.508C882.413 261.891 882.564 262.258 882.834 262.53C883.104 262.802 883.47 262.956 883.853 262.958C886.166 262.972 888.713 262.975 891.493 262.968C894.279 262.975 896.826 262.968 899.133 262.948C899.516 262.946 899.882 262.792 900.152 262.52C900.421 262.248 900.573 261.881 900.573 261.498V259.928C900.573 259.552 900.423 259.19 900.157 258.924C899.891 258.658 899.529 258.508 899.153 258.508H896.313C896.231 258.51 896.151 258.495 896.075 258.465C895.999 258.435 895.93 258.39 895.871 258.334C895.813 258.277 895.766 258.209 895.734 258.135C895.701 258.06 895.684 257.98 895.683 257.898C895.496 248.765 895.403 240.905 895.403 234.318C895.396 227.725 895.479 219.862 895.653 210.728C895.654 210.647 895.671 210.566 895.704 210.492C895.736 210.417 895.783 210.349 895.841 210.293C895.9 210.236 895.969 210.192 896.045 210.162C896.121 210.132 896.201 210.117 896.283 210.118H899.123C899.499 210.118 899.861 209.969 900.127 209.702C900.393 209.436 900.543 209.075 900.543 208.698V207.128C900.544 206.938 900.508 206.749 900.436 206.573C900.365 206.396 900.259 206.236 900.125 206.1C899.992 205.964 899.832 205.856 899.657 205.782C899.482 205.708 899.293 205.67 899.103 205.668C896.789 205.662 894.243 205.658 891.463 205.658C888.676 205.658 886.13 205.665 883.823 205.678C883.632 205.68 883.444 205.718 883.269 205.792C883.093 205.867 882.934 205.974 882.8 206.11C882.667 206.246 882.561 206.406 882.489 206.583C882.418 206.759 882.382 206.948 882.383 207.138V208.708C882.383 208.895 882.42 209.079 882.491 209.252C882.562 209.424 882.667 209.58 882.799 209.712C882.931 209.844 883.087 209.949 883.259 210.02C883.432 210.092 883.616 210.128 883.803 210.128L886.643 210.118C886.724 210.117 886.805 210.132 886.881 210.162C886.957 210.192 887.026 210.236 887.084 210.293C887.143 210.349 887.189 210.417 887.222 210.492C887.254 210.566 887.271 210.647 887.273 210.728C887.459 219.862 887.553 227.725 887.553 234.318Z" stroke="#FCD2B3" stroke-width="2"/>
<path d="M547.725 234.438C547.805 242.798 548.375 257.728 560.255 257.618C572.135 257.518 572.445 242.568 572.365 234.208C572.295 225.848 571.715 210.918 559.835 211.028C547.955 211.138 547.655 226.078 547.725 234.438Z" stroke="#FCD2B3" stroke-width="2"/>
<path d="M726.174 238.349C726.156 238.424 726.155 238.503 726.172 238.578C726.189 238.654 726.222 238.725 726.271 238.786C726.319 238.847 726.38 238.895 726.45 238.929C726.52 238.962 726.597 238.979 726.674 238.979L738.825 238.859C738.903 238.859 738.981 238.84 739.052 238.805C739.122 238.77 739.184 238.719 739.231 238.656C739.279 238.593 739.311 238.52 739.325 238.442C739.34 238.364 739.336 238.285 739.314 238.209L733.005 215.449C732.976 215.338 732.911 215.241 732.821 215.172C732.731 215.102 732.619 215.065 732.506 215.066C732.392 215.068 732.281 215.107 732.192 215.178C732.103 215.249 732.041 215.348 732.014 215.459L726.174 238.349Z" stroke="#FCD2B3" stroke-width="2"/>
<path d="M492.583 212.149L492.363 233.189C492.363 233.263 492.393 233.335 492.445 233.387C492.498 233.44 492.569 233.469 492.643 233.469L497.623 233.519C500.365 233.547 503.004 232.519 504.962 230.663C506.92 228.807 508.035 226.273 508.063 223.619L508.083 222.039C508.097 220.724 507.844 219.419 507.337 218.199C506.829 216.978 506.079 215.866 505.128 214.926C504.177 213.987 503.044 213.237 501.794 212.721C500.544 212.205 499.202 211.933 497.843 211.919L492.863 211.869C492.789 211.869 492.718 211.899 492.665 211.951C492.613 212.004 492.583 212.075 492.583 212.149Z" stroke="#FCD2B3" stroke-width="2"/>
<path d="M612.543 212.618L612.383 235.418C612.382 235.5 612.397 235.582 612.427 235.658C612.458 235.735 612.503 235.804 612.561 235.863C612.619 235.921 612.687 235.968 612.763 236C612.839 236.031 612.921 236.048 613.003 236.048L618.503 236.078C621.349 236.096 624.085 235.073 626.11 233.236C628.135 231.398 629.283 228.896 629.303 226.278L629.333 221.998C629.343 220.7 629.074 219.413 628.544 218.21C628.013 217.007 627.229 215.912 626.238 214.987C625.248 214.062 624.068 213.325 622.769 212.819C621.469 212.313 620.074 212.048 618.663 212.038L613.163 212.008C613 212.008 612.844 212.072 612.728 212.186C612.612 212.3 612.546 212.455 612.543 212.618Z" stroke="#FCD2B3" stroke-width="2"/>
<path d="M667.583 212.149L667.363 233.189C667.363 233.263 667.393 233.335 667.445 233.387C667.498 233.44 667.569 233.469 667.643 233.469L672.623 233.519C675.365 233.547 678.004 232.52 679.962 230.666C681.92 228.811 683.035 226.28 683.063 223.629L683.083 222.029C683.097 220.715 682.844 219.412 682.336 218.192C681.829 216.973 681.079 215.862 680.128 214.923C679.177 213.985 678.044 213.236 676.794 212.72C675.544 212.205 674.202 211.933 672.843 211.919L667.863 211.869C667.789 211.869 667.718 211.899 667.665 211.951C667.613 212.004 667.583 212.075 667.583 212.149Z" stroke="#FCD2B3" stroke-width="2"/>
<path d="M848.474 212.038V257.978C848.474 258.137 848.537 258.289 848.647 258.402C848.758 258.515 848.908 258.578 849.064 258.578H852.934C853.3 258.578 853.651 258.722 853.91 258.979C854.169 259.236 854.314 259.584 854.314 259.948V261.398C854.314 261.801 854.153 262.188 853.866 262.473C853.579 262.758 853.19 262.918 852.784 262.918H836.024C835.68 262.918 835.349 262.781 835.105 262.537C834.861 262.293 834.724 261.963 834.724 261.618V259.998C834.724 259.814 834.76 259.632 834.83 259.462C834.9 259.292 835.002 259.138 835.132 259.008C835.261 258.878 835.414 258.775 835.582 258.704C835.751 258.634 835.932 258.598 836.114 258.598H839.904C840.056 258.598 840.201 258.538 840.307 258.431C840.414 258.324 840.474 258.179 840.474 258.028V211.818C840.474 211.738 840.443 211.662 840.387 211.606C840.33 211.549 840.254 211.518 840.174 211.518H825.104C824.833 211.518 824.564 211.461 824.316 211.35C824.068 211.24 823.845 211.079 823.663 210.877C823.481 210.675 823.344 210.438 823.26 210.179C823.175 209.921 823.146 209.648 823.174 209.378L823.574 205.368C823.597 205.144 823.669 204.928 823.785 204.735C823.902 204.542 824.06 204.377 824.248 204.253C824.437 204.129 824.651 204.048 824.875 204.015C825.099 203.983 825.328 204.001 825.544 204.068C828.764 205.068 832.288 205.571 836.114 205.578C852.688 205.604 862.188 205.634 864.614 205.668C865.156 205.676 865.676 205.876 866.083 206.231C866.49 206.586 866.756 207.074 866.834 207.608C867.041 209.068 866.768 210.918 866.014 213.158C865.972 213.287 865.902 213.406 865.811 213.508C865.72 213.61 865.609 213.692 865.484 213.749C865.359 213.806 865.224 213.837 865.087 213.84C864.949 213.844 864.812 213.819 864.684 213.768C859.971 211.848 854.818 211.008 849.224 211.248C849.023 211.256 848.832 211.342 848.692 211.489C848.552 211.637 848.474 211.833 848.474 212.038Z" fill="#F9A566"/>
<path d="M357.123 254.778C357.381 254.592 357.678 254.471 357.992 254.424C358.306 254.377 358.626 254.405 358.926 254.507C359.227 254.609 359.499 254.781 359.719 255.009C359.939 255.237 360.102 255.514 360.193 255.818L360.603 257.188C360.879 258.112 360.779 259.108 360.326 259.959C359.874 260.811 359.104 261.45 358.183 261.738C351.01 263.985 344.347 264.398 338.193 262.978C329.293 260.918 326.263 253.858 325.393 245.008C324.68 237.835 324.937 230.821 326.163 223.968C329.013 207.968 341.063 202.408 356.043 205.738C360.993 206.838 361.043 210.898 358.553 214.428C358.485 214.523 358.383 214.589 358.269 214.613C358.154 214.637 358.034 214.618 357.933 214.558C354.28 212.365 350.34 211.215 346.113 211.108C338.863 210.928 335.753 216.348 334.613 222.658C333.707 227.645 333.507 233.518 334.013 240.278C334.673 249.218 336.873 257.688 347.623 257.588C351.443 257.548 354.61 256.611 357.123 254.778Z" fill="#F9A566"/>
<path d="M539.095 232.667C539.445 219.107 545.035 205.027 560.975 204.917C580.825 204.767 581.385 221.297 581.005 235.987C580.655 249.557 575.065 263.627 559.125 263.747C539.285 263.897 538.715 247.367 539.095 232.667ZM547.725 234.437C547.805 242.797 548.375 257.727 560.255 257.617C572.135 257.517 572.445 242.567 572.365 234.207C572.295 225.847 571.715 210.917 559.835 211.027C547.955 211.137 547.655 226.077 547.725 234.437Z" fill="#F9A566"/>
<path d="M805.123 254.778C805.381 254.592 805.678 254.471 805.992 254.424C806.306 254.377 806.626 254.405 806.926 254.507C807.227 254.609 807.498 254.781 807.719 255.009C807.939 255.237 808.102 255.514 808.193 255.818L808.603 257.188C808.879 258.112 808.779 259.108 808.326 259.959C807.874 260.811 807.104 261.45 806.183 261.738C799.01 263.985 792.347 264.398 786.193 262.978C777.293 260.918 774.263 253.848 773.393 245.008C772.68 237.835 772.937 230.821 774.163 223.968C777.023 207.968 789.073 202.408 804.043 205.738C808.993 206.838 809.043 210.898 806.553 214.428C806.485 214.523 806.383 214.589 806.269 214.613C806.154 214.637 806.034 214.618 805.933 214.558C802.28 212.365 798.34 211.215 794.113 211.108C786.863 210.928 783.753 216.348 782.613 222.658C781.707 227.645 781.507 233.518 782.013 240.278C782.673 249.218 784.873 257.688 795.623 257.588C799.443 257.548 802.61 256.611 805.123 254.778Z" fill="#F9A566"/>
<path d="M951.123 254.778C951.379 254.591 951.676 254.468 951.989 254.42C952.302 254.372 952.623 254.4 952.924 254.502C953.224 254.604 953.497 254.776 953.718 255.005C953.939 255.234 954.102 255.513 954.193 255.818L954.603 257.188C954.879 258.112 954.779 259.108 954.326 259.959C953.874 260.81 953.104 261.449 952.183 261.738C945.01 263.984 938.347 264.398 932.193 262.978C923.293 260.918 920.263 253.858 919.393 245.008C918.68 237.835 918.937 230.824 920.163 223.978C923.013 207.978 935.063 202.418 950.033 205.748C954.983 206.838 955.033 210.898 952.543 214.428C952.475 214.523 952.373 214.589 952.259 214.613C952.144 214.637 952.024 214.617 951.923 214.558C948.27 212.364 944.333 211.218 940.113 211.118C932.863 210.938 929.753 216.358 928.613 222.668C927.707 227.648 927.507 233.518 928.013 240.278C928.673 249.218 930.873 257.688 941.623 257.588C945.443 257.548 948.61 256.611 951.123 254.778Z" fill="#F9A566"/>
<path d="M744.225 258.009L741.015 244.819C740.974 244.653 740.879 244.506 740.745 244.401C740.611 244.295 740.445 244.238 740.275 244.239H725.295C725.145 244.239 725 244.29 724.883 244.383C724.767 244.476 724.686 244.605 724.655 244.749L721.845 257.949C721.828 258.03 721.83 258.114 721.85 258.195C721.87 258.275 721.908 258.35 721.961 258.414C722.013 258.478 722.08 258.53 722.155 258.565C722.23 258.601 722.312 258.619 722.395 258.619H724.645C724.799 258.618 724.95 258.669 725.073 258.763C725.196 258.857 725.285 258.989 725.325 259.139C725.671 260.412 725.658 261.489 725.285 262.369C725.213 262.532 725.096 262.671 724.949 262.769C724.801 262.867 724.63 262.919 724.455 262.919L711.265 262.909C711.034 262.909 710.813 262.818 710.649 262.657C710.486 262.496 710.395 262.277 710.395 262.049V259.639C710.395 259.374 710.5 259.119 710.687 258.932C710.875 258.744 711.129 258.639 711.395 258.639H713.455C713.636 258.639 713.813 258.581 713.957 258.473C714.102 258.364 714.206 258.212 714.255 258.039C717.368 247.279 720.721 235.305 724.315 222.119C725.755 216.845 727.131 212.302 728.445 208.489C729.825 204.489 734.205 204.769 737.435 205.329C737.638 205.364 737.828 205.455 737.982 205.592C738.135 205.728 738.247 205.903 738.305 206.099L753.685 257.889C753.745 258.094 753.87 258.274 754.041 258.402C754.213 258.53 754.421 258.599 754.635 258.599H756.675C756.791 258.599 756.907 258.622 757.015 258.666C757.123 258.711 757.221 258.777 757.304 258.859C757.387 258.942 757.452 259.04 757.497 259.148C757.542 259.256 757.565 259.372 757.565 259.489V261.879C757.565 262.152 757.456 262.414 757.263 262.607C757.07 262.8 756.808 262.909 756.535 262.909H741.635C741.537 262.909 741.441 262.889 741.351 262.852C741.262 262.814 741.18 262.759 741.111 262.689C741.043 262.619 740.988 262.537 740.951 262.446C740.914 262.355 740.895 262.257 740.895 262.159V259.469C740.895 259.243 740.984 259.027 741.143 258.868C741.303 258.708 741.519 258.619 741.745 258.619H743.755C743.829 258.618 743.902 258.6 743.968 258.567C744.034 258.534 744.092 258.487 744.138 258.428C744.183 258.369 744.214 258.301 744.229 258.228C744.244 258.156 744.243 258.081 744.225 258.009ZM726.175 238.349C726.156 238.424 726.155 238.503 726.172 238.578C726.189 238.654 726.223 238.725 726.271 238.786C726.319 238.847 726.38 238.896 726.45 238.929C726.52 238.962 726.597 238.979 726.675 238.979L738.825 238.859C738.903 238.859 738.981 238.84 739.052 238.805C739.122 238.77 739.184 238.719 739.231 238.656C739.279 238.593 739.311 238.52 739.326 238.442C739.34 238.364 739.336 238.285 739.315 238.209L733.005 215.449C732.976 215.338 732.911 215.241 732.821 215.172C732.731 215.102 732.62 215.065 732.506 215.066C732.392 215.068 732.281 215.107 732.192 215.178C732.103 215.249 732.041 215.348 732.015 215.459L726.175 238.349Z" fill="#F9A566"/>
<path d="M402.632 229.907C408.479 229.907 411.759 229.881 412.472 229.827C412.634 229.817 412.787 229.746 412.899 229.629C413.01 229.512 413.072 229.358 413.072 229.197V210.947C413.072 210.741 412.99 210.542 412.843 210.396C412.697 210.25 412.499 210.167 412.292 210.167H410.002C409.71 210.167 409.43 210.052 409.224 209.845C409.018 209.639 408.902 209.359 408.902 209.067V206.707C408.902 206.416 409.017 206.136 409.221 205.93C409.426 205.723 409.703 205.607 409.992 205.607H424.432C424.803 205.607 425.159 205.755 425.422 206.017C425.684 206.28 425.832 206.636 425.832 207.007V208.807C425.832 209.165 425.69 209.509 425.436 209.762C425.183 210.015 424.84 210.157 424.482 210.157H422.092C421.856 210.157 421.629 210.251 421.463 210.418C421.296 210.585 421.202 210.811 421.202 211.047V257.947C421.202 258.117 421.27 258.28 421.392 258.4C421.514 258.52 421.679 258.587 421.852 258.587H424.552C424.723 258.587 424.892 258.621 425.049 258.686C425.207 258.752 425.35 258.847 425.471 258.968C425.592 259.089 425.688 259.232 425.753 259.39C425.818 259.548 425.852 259.717 425.852 259.887V261.637C425.852 261.974 425.718 262.297 425.48 262.535C425.242 262.774 424.919 262.907 424.582 262.907H409.792C409.553 262.907 409.324 262.813 409.155 262.644C408.987 262.475 408.892 262.246 408.892 262.007V259.457C408.892 259.232 408.981 259.016 409.141 258.856C409.3 258.697 409.516 258.607 409.742 258.607H412.352C412.543 258.607 412.726 258.532 412.861 258.397C412.996 258.262 413.072 258.078 413.072 257.887V236.107C413.072 235.948 413.011 235.795 412.901 235.679C412.791 235.564 412.641 235.495 412.482 235.487C411.915 235.461 408.632 235.447 402.632 235.447C396.639 235.447 393.359 235.464 392.792 235.497C392.633 235.505 392.483 235.574 392.373 235.689C392.263 235.805 392.202 235.958 392.202 236.117L392.212 257.897C392.212 258.088 392.288 258.272 392.423 258.407C392.558 258.542 392.741 258.617 392.932 258.617H395.542C395.766 258.617 395.98 258.706 396.139 258.863C396.299 259.02 396.389 259.234 396.392 259.457V262.007C396.393 262.126 396.371 262.243 396.327 262.353C396.283 262.462 396.218 262.562 396.135 262.647C396.053 262.731 395.954 262.799 395.846 262.845C395.737 262.892 395.62 262.916 395.502 262.917L380.712 262.927C380.544 262.929 380.378 262.897 380.223 262.834C380.068 262.77 379.926 262.677 379.807 262.559C379.688 262.441 379.594 262.3 379.529 262.146C379.465 261.991 379.432 261.825 379.432 261.657V259.907C379.432 259.563 379.569 259.232 379.813 258.988C380.056 258.744 380.387 258.607 380.732 258.607L383.432 258.597C383.604 258.597 383.77 258.53 383.891 258.41C384.013 258.29 384.082 258.127 384.082 257.957L384.052 211.057C384.052 210.821 383.958 210.595 383.791 210.428C383.624 210.261 383.398 210.167 383.162 210.167L380.772 210.177C380.414 210.177 380.07 210.035 379.817 209.782C379.564 209.529 379.422 209.185 379.422 208.827V207.027C379.422 206.658 379.568 206.303 379.828 206.041C380.089 205.779 380.442 205.63 380.812 205.627L395.252 205.617C395.395 205.616 395.537 205.643 395.67 205.697C395.803 205.751 395.923 205.831 396.026 205.932C396.128 206.034 396.209 206.154 396.265 206.287C396.321 206.42 396.351 206.563 396.352 206.707V209.067C396.353 209.213 396.326 209.357 396.271 209.491C396.216 209.626 396.136 209.748 396.033 209.852C395.931 209.955 395.809 210.037 395.675 210.093C395.541 210.149 395.397 210.177 395.252 210.177H392.962C392.755 210.177 392.557 210.26 392.41 210.406C392.264 210.552 392.182 210.751 392.182 210.957L392.192 229.207C392.192 229.368 392.254 229.522 392.365 229.639C392.477 229.756 392.629 229.827 392.792 229.837C393.505 229.891 396.785 229.914 402.632 229.907Z" fill="#F9A566"/>
<path d="M452.453 205.667C455.239 205.661 457.786 205.664 460.093 205.677C460.476 205.68 460.842 205.834 461.112 206.106C461.381 206.377 461.533 206.745 461.533 207.127V208.697C461.533 209.074 461.383 209.435 461.117 209.702C460.851 209.968 460.489 210.117 460.113 210.117H457.273C457.11 210.117 456.954 210.181 456.838 210.295C456.722 210.41 456.655 210.565 456.653 210.727C456.479 219.861 456.393 227.721 456.393 234.307C456.399 240.901 456.496 248.764 456.683 257.897C456.688 258.058 456.756 258.211 456.871 258.323C456.987 258.435 457.142 258.497 457.303 258.497H460.143C460.519 258.497 460.881 258.647 461.147 258.913C461.413 259.18 461.563 259.541 461.563 259.917V261.487C461.563 261.869 461.413 262.234 461.145 262.506C460.878 262.777 460.514 262.932 460.133 262.937C457.819 262.957 455.273 262.964 452.493 262.957C449.706 262.964 447.159 262.961 444.853 262.947C444.47 262.945 444.104 262.791 443.834 262.519C443.564 262.248 443.413 261.88 443.413 261.497V259.927C443.413 259.551 443.562 259.19 443.829 258.923C444.095 258.657 444.456 258.507 444.833 258.507H447.673C447.836 258.507 447.992 258.443 448.108 258.329C448.224 258.215 448.29 258.06 448.293 257.897C448.466 248.764 448.553 240.904 448.553 234.317C448.546 227.724 448.449 219.864 448.263 210.737C448.26 210.575 448.194 210.42 448.078 210.305C447.962 210.191 447.806 210.127 447.643 210.127H444.803C444.616 210.127 444.432 210.091 444.259 210.019C444.087 209.948 443.931 209.843 443.799 209.711C443.667 209.58 443.562 209.423 443.491 209.251C443.42 209.079 443.383 208.894 443.383 208.707V207.137C443.383 206.756 443.533 206.39 443.8 206.119C444.068 205.848 444.432 205.693 444.813 205.687C447.126 205.674 449.673 205.667 452.453 205.667Z" fill="#F9A566"/>
<path d="M505.551 235.958C505.512 235.973 505.477 235.998 505.451 236.032C505.426 236.066 505.41 236.106 505.407 236.148C505.404 236.191 505.413 236.233 505.433 236.27C505.454 236.307 505.484 236.338 505.521 236.358C508.421 237.892 510.601 240.272 512.061 243.498C513.261 246.158 514.941 250.035 517.101 255.128C518.028 257.322 519.555 258.468 521.681 258.568C521.854 258.577 522.02 258.638 522.156 258.744C522.292 258.85 522.392 258.994 522.441 259.158C523.901 263.878 520.241 263.578 516.591 263.728C512.591 263.895 510.078 262.145 509.051 258.478C507.591 253.285 506.535 249.682 505.881 247.668C503.661 240.858 500.561 237.708 493.001 239.208C492.869 239.234 492.75 239.305 492.664 239.409C492.578 239.513 492.531 239.643 492.531 239.778V257.928C492.531 258.106 492.602 258.276 492.728 258.402C492.853 258.528 493.024 258.598 493.201 258.598H497.051C497.364 258.598 497.665 258.723 497.886 258.944C498.107 259.165 498.231 259.465 498.231 259.778V261.568C498.231 261.746 498.197 261.921 498.129 262.085C498.061 262.249 497.961 262.397 497.836 262.523C497.711 262.648 497.562 262.748 497.398 262.815C497.234 262.883 497.059 262.918 496.881 262.918H480.551C480.406 262.918 480.261 262.89 480.127 262.834C479.992 262.778 479.87 262.696 479.767 262.593C479.663 262.49 479.582 262.368 479.526 262.233C479.47 262.098 479.441 261.954 479.441 261.808V259.848C479.441 259.519 479.572 259.204 479.805 258.971C480.037 258.739 480.353 258.608 480.681 258.608H483.951C484.084 258.608 484.211 258.556 484.305 258.462C484.399 258.368 484.451 258.241 484.451 258.108V210.878C484.451 210.708 484.383 210.546 484.261 210.426C484.139 210.306 483.974 210.238 483.801 210.238H480.791C480.513 210.238 480.246 210.127 480.049 209.928C479.852 209.729 479.741 209.459 479.741 209.178V207.008C479.741 206.666 479.875 206.337 480.114 206.092C480.354 205.847 480.679 205.706 481.021 205.698C488.361 205.518 494.218 205.528 498.591 205.728C508.721 206.188 517.271 208.788 516.721 221.058C516.395 228.432 512.671 233.398 505.551 235.958ZM492.581 212.148L492.361 233.188C492.361 233.262 492.391 233.334 492.443 233.386C492.496 233.439 492.567 233.468 492.641 233.468L497.621 233.518C500.363 233.546 503.002 232.518 504.96 230.662C506.918 228.806 508.033 226.272 508.061 223.618L508.081 222.038C508.095 220.723 507.842 219.418 507.335 218.198C506.828 216.977 506.077 215.865 505.126 214.925C504.175 213.986 503.042 213.236 501.792 212.72C500.542 212.204 499.2 211.932 497.841 211.918L492.861 211.868C492.787 211.868 492.716 211.898 492.663 211.95C492.611 212.003 492.581 212.074 492.581 212.148Z" fill="#F9A566"/>
<path d="M612.543 242.059V257.929C612.543 258.106 612.614 258.277 612.739 258.402C612.865 258.528 613.035 258.599 613.213 258.599H617.213C617.396 258.599 617.576 258.635 617.745 258.704C617.914 258.774 618.067 258.877 618.196 259.006C618.325 259.135 618.427 259.288 618.497 259.457C618.567 259.625 618.603 259.806 618.603 259.989V261.389C618.603 261.59 618.564 261.788 618.487 261.974C618.41 262.16 618.297 262.328 618.155 262.47C618.013 262.613 617.844 262.725 617.659 262.802C617.473 262.879 617.274 262.919 617.073 262.919H600.523C600.383 262.919 600.243 262.891 600.114 262.837C599.984 262.783 599.866 262.705 599.767 262.605C599.667 262.506 599.588 262.388 599.535 262.258C599.481 262.128 599.453 261.989 599.453 261.849V259.839C599.453 259.512 599.583 259.2 599.813 258.969C600.044 258.738 600.357 258.609 600.683 258.609H603.953C604.086 258.609 604.213 258.556 604.307 258.462C604.4 258.368 604.453 258.241 604.453 258.109V210.889C604.453 210.716 604.385 210.551 604.263 210.429C604.141 210.307 603.976 210.239 603.803 210.239H600.753C600.485 210.239 600.228 210.131 600.039 209.94C599.85 209.749 599.743 209.489 599.743 209.219V207.149C599.742 206.783 599.881 206.431 600.13 206.165C600.379 205.899 600.72 205.739 601.083 205.719C604.243 205.532 609.166 205.509 615.853 205.649C622.013 205.769 630.233 206.089 634.623 210.599C638.463 214.529 638.833 222.759 637.593 227.709C634.573 239.759 623.883 241.339 613.113 241.479C613.038 241.479 612.964 241.494 612.895 241.523C612.826 241.552 612.763 241.595 612.71 241.648C612.657 241.702 612.615 241.766 612.587 241.837C612.558 241.907 612.543 241.982 612.543 242.059ZM612.543 212.619L612.383 235.419C612.382 235.501 612.397 235.583 612.427 235.659C612.458 235.735 612.503 235.805 612.561 235.863C612.619 235.922 612.688 235.969 612.764 236C612.839 236.032 612.921 236.049 613.003 236.049L618.503 236.079C621.349 236.096 624.085 235.074 626.11 233.237C628.135 231.399 629.283 228.897 629.303 226.279L629.333 221.999C629.343 220.701 629.075 219.414 628.544 218.211C628.013 217.008 627.229 215.912 626.239 214.987C625.248 214.063 624.069 213.326 622.769 212.82C621.469 212.314 620.074 212.049 618.663 212.039L613.163 212.009C613 212.009 612.844 212.073 612.728 212.187C612.612 212.301 612.546 212.456 612.543 212.619Z" fill="#F9A566"/>
<path d="M680.551 235.958C680.512 235.973 680.477 235.998 680.451 236.032C680.426 236.066 680.41 236.106 680.407 236.148C680.404 236.191 680.413 236.233 680.433 236.27C680.454 236.307 680.484 236.338 680.521 236.358C683.421 237.892 685.601 240.272 687.061 243.498C688.261 246.158 689.941 250.035 692.101 255.128C693.028 257.322 694.555 258.468 696.681 258.568C696.854 258.577 697.02 258.638 697.156 258.744C697.292 258.85 697.392 258.994 697.441 259.158C698.901 263.878 695.241 263.578 691.591 263.728C687.591 263.895 685.078 262.145 684.051 258.478C682.591 253.285 681.535 249.682 680.881 247.668C678.661 240.858 675.561 237.708 668.001 239.208C667.869 239.234 667.75 239.305 667.664 239.409C667.578 239.513 667.531 239.643 667.531 239.778V257.928C667.531 258.106 667.602 258.276 667.728 258.402C667.853 258.528 668.024 258.598 668.201 258.598H672.051C672.364 258.598 672.665 258.723 672.886 258.944C673.107 259.165 673.231 259.465 673.231 259.778V261.568C673.231 261.926 673.089 262.27 672.836 262.523C672.583 262.776 672.239 262.918 671.881 262.918H655.551C655.257 262.918 654.975 262.801 654.767 262.593C654.558 262.385 654.441 262.103 654.441 261.808V259.848C654.441 259.519 654.572 259.204 654.805 258.971C655.037 258.739 655.353 258.608 655.681 258.608H658.951C659.084 258.608 659.211 258.556 659.305 258.462C659.399 258.368 659.451 258.241 659.451 258.108V210.878C659.451 210.708 659.383 210.546 659.261 210.426C659.139 210.306 658.974 210.238 658.801 210.238H655.791C655.513 210.238 655.246 210.127 655.049 209.928C654.852 209.729 654.741 209.459 654.741 209.178V207.008C654.741 206.666 654.875 206.337 655.114 206.092C655.354 205.847 655.679 205.706 656.021 205.698C663.361 205.518 669.218 205.528 673.591 205.728C683.721 206.188 692.271 208.788 691.721 221.058C691.395 228.432 687.671 233.398 680.551 235.958ZM667.581 212.148L667.361 233.188C667.361 233.262 667.391 233.334 667.443 233.386C667.496 233.439 667.567 233.468 667.641 233.468L672.621 233.518C675.363 233.546 678.002 232.52 679.96 230.665C681.918 228.81 683.033 226.279 683.061 223.628L683.081 222.028C683.095 220.714 682.842 219.411 682.335 218.191C681.828 216.972 681.077 215.861 680.126 214.923C679.175 213.984 678.042 213.235 676.792 212.72C675.542 212.204 674.2 211.932 672.841 211.918L667.861 211.868C667.787 211.868 667.716 211.898 667.663 211.95C667.611 212.003 667.581 212.074 667.581 212.148Z" fill="#F9A566"/>
<path d="M887.553 234.318C887.553 227.725 887.459 219.862 887.273 210.728C887.271 210.647 887.254 210.566 887.222 210.492C887.189 210.417 887.143 210.349 887.084 210.293C887.026 210.236 886.957 210.192 886.881 210.162C886.805 210.132 886.724 210.117 886.643 210.118L883.803 210.128C883.616 210.128 883.432 210.092 883.259 210.02C883.087 209.949 882.931 209.844 882.799 209.712C882.667 209.58 882.562 209.424 882.491 209.252C882.42 209.079 882.383 208.895 882.383 208.708V207.138C882.382 206.948 882.418 206.759 882.489 206.583C882.561 206.406 882.667 206.246 882.8 206.11C882.934 205.974 883.093 205.867 883.269 205.792C883.444 205.718 883.632 205.68 883.823 205.678C886.13 205.665 888.676 205.658 891.463 205.658C894.243 205.658 896.789 205.662 899.103 205.668C899.293 205.67 899.482 205.708 899.657 205.782C899.832 205.856 899.992 205.964 900.125 206.1C900.259 206.236 900.365 206.396 900.436 206.573C900.508 206.749 900.544 206.938 900.543 207.128V208.698C900.543 209.075 900.393 209.436 900.127 209.702C899.861 209.969 899.499 210.118 899.123 210.118H896.283C896.201 210.117 896.121 210.132 896.045 210.162C895.969 210.192 895.9 210.236 895.841 210.293C895.783 210.349 895.736 210.417 895.704 210.492C895.671 210.566 895.654 210.647 895.653 210.728C895.479 219.862 895.396 227.725 895.403 234.318C895.403 240.905 895.496 248.765 895.683 257.898C895.684 257.98 895.701 258.06 895.734 258.135C895.766 258.209 895.813 258.277 895.871 258.334C895.93 258.39 895.999 258.435 896.075 258.465C896.151 258.495 896.231 258.51 896.313 258.508H899.153C899.529 258.508 899.891 258.658 900.157 258.924C900.423 259.19 900.573 259.552 900.573 259.928V261.498C900.573 261.881 900.421 262.248 900.152 262.52C899.882 262.792 899.516 262.946 899.133 262.948C896.826 262.968 894.279 262.975 891.493 262.968C888.713 262.975 886.166 262.972 883.853 262.958C883.47 262.956 883.104 262.802 882.834 262.53C882.564 262.258 882.413 261.891 882.413 261.508V259.938C882.413 259.562 882.562 259.2 882.829 258.934C883.095 258.668 883.456 258.518 883.833 258.518H886.673C886.836 258.518 886.992 258.454 887.108 258.34C887.224 258.226 887.29 258.071 887.293 257.908C887.473 248.775 887.559 240.912 887.553 234.318Z" fill="#F9A566"/>
</svg>
