<svg width="155" height="120" viewBox="0 0 155 120" fill="none" xmlns="http://www.w3.org/2000/svg">
<path d="M123.378 99.9409C120.313 65.5884 94.5952 36.272 66.8627 34.5362C66.7127 35.4791 66.2197 36.5078 66.4341 37.365C70.0989 52.0017 63.4765 62.7382 53.2107 71.9532C45.1953 79.1537 36.3012 84.9612 25.6926 87.6186C22.7136 88.3686 19.606 88.9258 16.5627 88.9687C4.83958 89.1187 -1.09697 82.3253 0.167496 70.5602C1.02476 62.7168 4.90389 56.2449 9.91889 50.4588C18.8987 40.1294 30.0003 32.8004 42.8379 28.1072C45.3668 27.1857 47.9386 26.3713 51.6891 25.1069C40.2232 10.6631 24.0209 6.71991 8.56869 0.205158C11.3334 0.205158 14.2266 -0.309163 16.8627 0.29088C31.1362 3.52683 44.4881 8.7772 54.8824 19.6208C57.84 22.7068 60.7547 24.7426 65.4482 24.8069C83.7294 25.1069 98.4743 33.2504 110.433 46.6871C119.456 56.8235 126.164 68.3529 130.407 81.2753C131.458 84.4683 132.593 87.6186 134.437 92.9332C140.952 83.4611 146.481 75.382 152.01 67.3243C152.653 67.6028 153.318 67.8814 153.961 68.16C154.111 69.9816 154.882 72.0389 154.282 73.5604C151.389 80.8895 148.324 88.1543 144.917 95.2477C141.788 101.72 137.994 107.87 134.737 114.299C131.543 120.599 128.114 121.971 124.042 116.935C116.948 108.149 110.69 98.6551 104.389 89.2473C103.532 87.9614 104.454 85.497 104.561 83.5897C106.661 84.0397 109.469 83.804 110.712 85.0684C115.041 89.4401 118.727 94.3476 123.378 99.9409ZM58.0972 34.0862C37.0084 37.7078 20.699 47.5228 10.2832 66.1456C8.05433 70.1316 6.48982 75.4034 10.2403 78.5322C12.855 80.7181 17.9343 81.211 21.642 80.6323C35.4868 78.5108 46.2883 70.7316 55.2467 60.338C61.5691 52.9875 63.4765 44.7584 58.0972 34.0862Z" fill="#D2D8DF"/>
</svg>
