<svg width="544" height="428" viewBox="0 0 544 428" fill="none" xmlns="http://www.w3.org/2000/svg">
<path d="M543.359 162.76C543.359 211.4 515.099 257.136 463.785 291.531C431.422 313.224 392.34 328.771 349.676 337.293C350.006 335.931 350.426 334.322 350.958 332.499C358.364 307.188 388.453 239.546 505.726 183.117C503.846 183.559 403.568 207.449 348.05 284.925C339.502 296.853 332.301 316.171 326.483 336.799C326.051 338.314 325.632 339.83 325.213 341.354C313.959 382.935 308.218 427.999 308.218 427.999C308.218 427.999 292.862 390.377 290.652 344.436C290.575 343.023 290.524 341.601 290.487 340.171C289.572 309.666 294.729 275.96 314.01 247.37C364.523 172.491 463.086 178.29 533.744 134.835C535.623 133.668 537.49 132.477 539.332 131.242C542 141.544 543.359 152.084 543.359 162.76Z" fill="#5BA199"/>
<path d="M252.871 340.17C252.833 341.6 252.783 343.022 252.707 344.435C250.496 390.376 235.14 427.998 235.14 427.998C235.14 427.998 229.387 382.935 218.146 341.353C217.727 339.829 217.295 338.305 216.862 336.79C211.045 316.161 203.843 296.851 195.309 284.924C139.791 207.449 39.5135 183.559 37.6337 183.116C154.906 239.553 185.007 307.204 192.401 332.507C192.935 334.329 193.354 335.929 193.683 337.292C151.019 328.77 111.937 313.224 79.5744 291.53C28.2604 257.134 0 211.398 0 162.76C0 152.084 1.35882 141.552 4.0264 131.25C5.86791 132.484 7.73491 133.677 9.61469 134.834C80.2857 178.288 178.848 172.491 229.349 247.369C248.63 275.959 253.787 309.665 252.871 340.17Z" fill="#5BA199"/>
<path d="M271.68 207.371C357.862 207.371 427.726 160.95 427.726 103.686C427.726 46.4216 357.862 0 271.68 0C185.497 0 115.633 46.4216 115.633 103.686C115.633 160.95 185.497 207.371 271.68 207.371Z" fill="#C4A46D"/>
</svg>
