<svg width="996" height="831" viewBox="0 0 996 831" fill="none" xmlns="http://www.w3.org/2000/svg">
<g opacity="0.64" filter="url(#filter0_f_1_80)">
<path d="M815.649 445.588C815.649 524.907 782.607 599.492 722.611 655.583C684.772 690.959 639.077 716.311 589.194 730.209C589.58 727.988 590.071 725.364 590.694 722.392C599.352 681.115 634.532 570.806 771.648 478.784C769.45 479.506 652.205 518.464 587.294 644.809C577.299 664.261 568.879 695.763 562.077 729.404C561.572 731.875 561.082 734.347 560.591 736.831C547.434 804.64 540.721 878.129 540.721 878.129C540.721 878.129 522.767 816.776 520.183 741.858C520.093 739.553 520.034 737.235 519.99 734.902C518.921 685.156 524.95 630.189 547.493 583.566C606.553 461.457 721.794 470.912 804.407 400.048C806.605 398.145 808.788 396.202 810.941 394.189C814.061 410.989 815.649 428.177 815.649 445.588Z" fill="#5BA199"/>
<path d="M476.009 734.901C475.964 737.233 475.906 739.552 475.816 741.857C473.232 816.775 455.277 878.128 455.277 878.128C455.277 878.128 448.551 804.64 435.407 736.83C434.918 734.345 434.413 731.859 433.907 729.389C427.105 695.747 418.685 664.259 408.706 644.808C343.795 518.464 226.55 479.506 224.352 478.783C361.467 570.819 396.662 681.142 405.306 722.405C405.93 725.377 406.42 727.986 406.806 730.208C356.923 716.31 311.227 690.958 273.389 655.581C213.393 599.49 180.35 524.905 180.35 445.587C180.35 428.177 181.939 411.002 185.058 394.202C187.211 396.215 189.394 398.159 191.592 400.047C274.221 470.91 389.46 461.456 448.506 583.565C471.05 630.188 477.079 685.155 476.009 734.901Z" fill="#5BA199"/>
<path d="M497.999 518.336C598.764 518.336 680.45 442.633 680.45 349.249C680.45 255.865 598.764 180.162 497.999 180.162C397.235 180.162 315.549 255.865 315.549 349.249C315.549 442.633 397.235 518.336 497.999 518.336Z" fill="#C4A46D"/>
</g>
<defs>
<filter id="filter0_f_1_80" x="0.350464" y="0.16217" width="995.299" height="1057.97" filterUnits="userSpaceOnUse" color-interpolation-filters="sRGB">
<feFlood flood-opacity="0" result="BackgroundImageFix"/>
<feBlend mode="normal" in="SourceGraphic" in2="BackgroundImageFix" result="shape"/>
<feGaussianBlur stdDeviation="90" result="effect1_foregroundBlur_1_80"/>
</filter>
</defs>
</svg>
