<svg width="533" height="336" viewBox="0 0 533 336" fill="none" xmlns="http://www.w3.org/2000/svg">
<g clip-path="url(#clip0_228_533)">
<path d="M288.991 29.526C292.192 30.398 295.494 28.5095 296.366 25.308C297.238 22.1065 295.35 18.8043 292.148 17.9323C288.947 17.0604 285.645 18.9489 284.773 22.1504C283.901 25.3519 285.789 28.6541 288.991 29.526Z" fill="#F9A566"/>
<path d="M268.186 50.2567C272.687 51.4824 277.329 48.8278 278.554 44.3275C279.78 39.8271 277.125 35.1853 272.625 33.9596C268.125 32.7339 263.483 35.3885 262.257 39.8888C261.032 44.3891 263.686 49.0309 268.186 50.2567Z" fill="#F9A566"/>
<path d="M329.139 67.2661C321.287 72.8507 314.016 78.6018 308.113 86.3343C300.649 96.1035 296.368 108.751 295.228 120.854C294.144 132.315 294.47 144.144 296.206 156.341C295.488 154.585 294.884 152.844 294.395 151.118C292.632 144.829 290.33 138.659 288.49 132.655C282.771 114.042 280.349 93.1007 285.641 74.381C288.274 65.0661 293.06 55.7342 300.644 49.6017C300.816 49.4617 301.023 49.3716 301.244 49.341C301.465 49.3105 301.691 49.3407 301.898 49.4283C311.932 53.7811 321.013 59.727 329.139 67.2661Z" fill="#9385B1"/>
<path d="M224.594 102.511C223.734 111.968 223.772 121.41 224.707 130.836C225.666 140.51 226.498 150.195 227.204 159.891C227.894 169.449 227.477 178.029 225.953 185.632C223.326 198.744 216.805 210.102 206.391 219.709C155.763 184.351 149.877 111.324 194.521 68.4553C208.06 55.452 224.428 46.9305 243.624 42.8909C243.691 42.8754 243.761 42.881 243.825 42.9069C243.888 42.9327 243.943 42.9776 243.981 43.0358C244.019 43.0939 244.039 43.1626 244.038 43.2328C244.037 43.303 244.015 43.3715 243.976 43.4293C232.648 59.8533 225.576 78.0235 225.028 97.8744C224.982 99.4815 224.837 101.027 224.594 102.511Z" fill="#ADD8D2"/>
<path d="M292.055 232.75C296.918 217.356 299.155 202.074 298.765 186.902C298.994 177.97 298.49 170.161 297.254 163.474C296.558 159.691 296.208 157.313 296.204 156.342C294.468 144.145 294.142 132.315 295.226 120.854C296.366 108.751 300.647 96.1038 308.111 86.3345C314.014 78.6021 321.285 72.8509 329.137 67.2664C369.291 104.687 371.104 167.12 333.401 206.923C322.163 218.783 308.381 227.392 292.055 232.75Z" fill="#A696C8"/>
<path d="M253.947 78.8203C259.204 80.2522 264.627 77.1511 266.059 71.8938C267.491 66.6366 264.39 61.214 259.132 59.7821C253.875 58.3502 248.453 61.4513 247.021 66.7086C245.589 71.9658 248.69 77.3884 253.947 78.8203Z" fill="#F9A566"/>
<path d="M253.151 112.048C259.773 113.851 266.603 109.945 268.407 103.323C270.211 96.7007 266.304 89.8702 259.682 88.0666C253.06 86.2629 246.229 90.1692 244.426 96.7914C242.622 103.414 246.528 110.244 253.151 112.048Z" fill="#F9A566"/>
<path d="M224.59 102.508C224.924 110.891 226.083 119.04 228.068 126.955C229.501 132.655 231.638 138.305 233.483 144.439C241.811 172.113 240.55 204.361 223.486 228.434C223.369 228.595 223.201 228.711 223.01 228.763C222.818 228.815 222.616 228.799 222.435 228.719C216.726 226.209 211.376 223.205 206.387 219.706C216.801 210.099 223.322 198.741 225.949 185.629C227.473 178.026 227.89 169.446 227.2 159.888C226.494 150.192 225.662 140.507 224.703 130.833C223.768 121.407 223.73 111.965 224.59 102.508Z" fill="#84ADB7"/>
<path d="M257.644 152.964C265.395 155.075 273.391 150.502 275.502 142.751C277.613 134.999 273.041 127.004 265.289 124.893C257.538 122.782 249.542 127.354 247.431 135.106C245.32 142.857 249.892 150.852 257.644 152.964Z" fill="#F9A566"/>
<path d="M263.26 189.817C269.882 191.621 276.713 187.715 278.516 181.093C280.32 174.47 276.414 167.64 269.791 165.836C263.169 164.032 256.339 167.939 254.535 174.561C252.731 181.183 256.638 188.014 263.26 189.817Z" fill="#F9A566"/>
<path d="M292.057 232.749L281.809 235.315C281.737 235.334 281.661 235.331 281.591 235.306C281.521 235.28 281.46 235.234 281.417 235.174C281.374 235.113 281.351 235.04 281.35 234.966C281.349 234.892 281.372 234.819 281.413 234.757C283.078 232.288 284.689 229.723 286.245 227.063C293.446 214.779 297.621 201.392 298.768 186.901C299.157 202.073 296.92 217.355 292.057 232.749Z" fill="#9385B1"/>
<path d="M263.798 218.115C269.06 219.548 274.486 216.444 275.919 211.183C277.352 205.921 274.249 200.494 268.988 199.061C263.726 197.628 258.299 200.732 256.866 205.993C255.433 211.255 258.537 216.682 263.798 218.115Z" fill="#F9A566"/>
<path d="M250.324 243.906C254.82 245.13 259.457 242.478 260.682 237.982C261.907 233.486 259.254 228.848 254.758 227.624C250.262 226.399 245.624 229.051 244.4 233.547C243.175 238.043 245.827 242.681 250.324 243.906Z" fill="#F9A566"/>
<path d="M230.791 259.959C233.997 260.832 237.303 258.941 238.176 255.736C239.049 252.53 237.158 249.223 233.953 248.35C230.747 247.477 227.441 249.368 226.568 252.574C225.694 255.78 227.585 259.086 230.791 259.959Z" fill="#F9A566"/>
<mask id="mask0_228_533" style="mask-type:luminance" maskUnits="userSpaceOnUse" x="439" y="143" width="94" height="116">
<path d="M439.797 143.492H533V258.531H439.797V143.492Z" fill="white"/>
</mask>
<g mask="url(#mask0_228_533)">
<path d="M449.246 204.11C457.812 206.318 466.703 204.559 475.407 205.003C477.799 205.124 480.184 205.421 482.509 206.007C482.386 206.219 482.263 206.431 482.14 206.642C477.421 201.414 473.388 195.579 470.139 189.328C466.874 183.048 464.389 176.357 462.757 169.468C461.948 166.056 461.35 162.594 460.965 159.107C460.788 157.515 460.703 155.928 460.617 154.333C460.556 153.218 460.25 152.054 460.531 150.947C460.792 149.915 461.805 149.146 462.883 149.469C464.568 149.973 464.254 151.805 464.314 153.19C464.483 157.064 464.926 160.925 465.641 164.737C467.068 172.356 469.558 179.777 473.05 186.697C473.475 187.538 473.915 188.371 474.367 189.197C474.136 189.227 473.905 189.258 473.674 189.288C474.525 183.317 474.238 177.252 474.663 171.248C475.072 165.468 476.114 159.476 479.526 154.647C480.386 153.428 481.374 152.301 482.476 151.296C483.404 150.448 484.6 149.671 485.922 149.824C486.411 149.881 486.874 150.097 487.153 150.517C487.565 151.134 487.173 151.865 487.026 152.526C486.662 154.17 486.414 155.836 486.256 157.512C485.664 163.768 486.345 170.051 485.943 176.313C485.752 179.282 485.294 182.254 484.293 185.064C483.235 188.038 481.593 190.753 479.493 193.105C478.88 193.792 478.231 194.443 477.556 195.069C477.576 194.916 477.596 194.763 477.615 194.609C482.799 202.687 489.665 209.597 497.487 215.127C499.701 216.692 501.991 218.147 504.34 219.5C504.154 219.575 503.968 219.651 503.782 219.727C504.907 213.484 504.588 207.087 504.959 200.78C505.317 194.706 506.273 188.371 509.817 183.261C510.699 181.988 511.718 180.812 512.857 179.762C513.784 178.907 514.854 178.171 516.181 178.324C517.23 178.445 517.956 179.231 517.809 180.311C517.712 181.013 517.411 181.708 517.253 182.405C517.082 183.163 516.941 183.928 516.824 184.696C515.86 191.058 516.569 197.521 516.304 203.921C516.049 210.052 514.732 216.192 510.488 220.853C509.921 221.476 509.314 222.06 508.679 222.614C508.654 222.415 508.628 222.216 508.603 222.017C514.963 225.736 521.413 229.423 527.024 234.245C528.616 235.614 530.127 237.073 531.536 238.63C531.325 238.686 531.113 238.742 530.902 238.798C531.807 232.83 531.524 226.756 531.921 220.748C532.304 214.962 533.282 208.954 536.616 204.069C537.454 202.841 538.421 201.701 539.502 200.68C540.453 199.782 541.567 198.936 542.945 198.953C543.446 198.959 543.958 199.112 544.302 199.492C544.816 200.059 544.551 200.61 544.393 201.275C544.012 202.883 543.752 204.516 543.583 206.159C542.936 212.462 543.604 218.797 543.237 225.11C543.063 228.106 542.64 231.114 541.672 233.964C540.673 236.903 539.104 239.603 537.039 241.92C536.447 242.585 535.818 243.213 535.162 243.814C535.182 243.661 535.201 243.507 535.221 243.354C538.675 247.943 540.715 253.458 541.183 259.179C541.499 263.039 541.252 267.349 539.597 270.916C539.227 271.716 538.649 272.831 537.718 273.081C536.805 273.326 536.246 272.446 535.977 271.712C535.868 271.415 535.787 271.107 535.725 270.797C535.597 270.149 536.132 269.424 536.353 268.82C536.875 267.401 537.241 265.92 537.432 264.419C537.812 261.427 537.52 258.382 536.744 255.476C534.971 248.834 530.858 242.882 525.828 238.278C526.007 238.278 526.186 238.278 526.364 238.278C525.543 239.127 524.451 239.427 523.302 239.508C521.868 239.61 520.419 239.52 518.981 239.587C515.737 239.739 512.516 240.182 509.298 240.6C503.561 241.347 497.742 241.984 492.011 240.84C489.501 240.339 487.038 239.498 484.822 238.202C483.072 237.179 480.632 235.666 480.424 233.42C480.387 233.025 480.448 232.611 480.664 232.271C480.975 231.782 481.347 231.661 481.892 231.723C483.365 231.891 484.849 231.946 486.331 231.917C489.304 231.861 492.259 231.476 495.192 231.014C501.689 229.991 508.296 228.498 514.9 229.352C514.836 229.587 514.772 229.824 514.708 230.06C507.338 225.464 499.556 221.503 492.611 216.25C492.764 216.23 492.917 216.21 493.071 216.19C491.931 217.254 490.426 217.298 488.955 217.125C487.005 216.895 485.069 216.668 483.104 216.583C478.958 216.404 474.806 216.576 470.658 216.447C464.061 216.242 457.036 215.135 451.671 210.986C450.394 209.997 448.915 208.787 448.265 207.265C447.78 206.131 447.708 204.633 449.045 204.109C449.5 203.931 449.697 204.665 449.247 204.842C448.017 205.324 449.003 207.267 449.542 207.93C450.476 209.081 451.655 210.084 452.868 210.928C455.279 212.606 458.032 213.718 460.866 214.448C467.597 216.181 474.589 215.607 481.464 215.769C483.573 215.819 485.681 215.938 487.774 216.209C489.344 216.412 491.249 216.853 492.534 215.653C492.646 215.549 492.859 215.491 492.994 215.593C499.94 220.847 507.721 224.807 515.091 229.403C515.381 229.584 515.297 230.163 514.9 230.111C503.834 228.682 493.07 233.722 481.997 232.494C481.7 232.461 481.507 232.386 481.319 232.654C481.19 232.838 481.163 233.069 481.173 233.287C481.197 233.803 481.44 234.31 481.721 234.734C482.347 235.681 483.404 236.389 484.336 237.005C486.395 238.367 488.71 239.283 491.102 239.863C496.312 241.125 501.697 240.774 506.967 240.136C510.347 239.726 513.716 239.21 517.112 238.945C518.765 238.816 520.417 238.77 522.075 238.776C523.405 238.78 524.841 238.762 525.829 237.741C525.976 237.588 526.216 237.604 526.365 237.741C534.53 245.213 541.048 257.256 537.274 268.487C537.06 269.123 536.787 269.73 536.544 270.354C536.455 270.584 536.447 270.568 536.514 270.85C536.551 271.004 536.592 271.157 536.64 271.307C536.755 271.667 536.947 272.098 537.205 272.292C537.366 272.413 537.521 272.387 537.747 272.238C538.081 272.017 538.346 271.626 538.555 271.273C539.306 270.013 539.707 268.539 540.002 267.114C540.422 265.08 540.569 262.992 540.517 260.918C540.361 254.723 538.293 248.689 534.565 243.737C534.469 243.609 534.511 243.381 534.625 243.277C536.958 241.137 538.878 238.611 540.177 235.714C541.364 233.064 541.995 230.19 542.299 227.312C542.93 221.353 542.333 215.348 542.594 209.375C542.66 207.852 542.781 206.332 542.981 204.82C543.08 204.071 543.197 203.324 543.339 202.582C543.406 202.226 543.48 201.87 543.558 201.516C543.641 201.147 543.807 200.74 543.836 200.364C543.891 199.663 542.911 199.666 542.426 199.765C541.781 199.897 541.185 200.204 540.686 200.629C539.573 201.576 538.564 202.673 537.697 203.849C534.299 208.461 533.182 214.216 532.746 219.815C532.301 225.533 532.53 231.291 531.896 236.995C531.822 237.665 531.733 238.333 531.633 238.999C531.59 239.281 531.176 239.363 530.998 239.166C526.043 233.691 519.856 229.582 513.562 225.814C511.789 224.753 510.002 223.715 508.219 222.672C508.019 222.556 507.955 222.238 508.142 222.076C510.488 220.03 512.352 217.515 513.535 214.628C514.638 211.937 515.166 209.047 515.407 206.159C515.913 200.094 515.281 194 515.715 187.932C515.821 186.449 515.991 184.969 516.256 183.506C516.389 182.771 516.548 182.04 516.736 181.316C516.876 180.775 517.277 180.102 516.965 179.551C516.411 178.574 514.752 179.196 514.098 179.684C512.882 180.593 511.809 181.834 510.903 183.044C507.305 187.852 506.198 193.901 505.783 199.763C505.358 205.785 505.63 211.858 504.836 217.852C504.744 218.547 504.638 219.239 504.514 219.928C504.469 220.175 504.153 220.268 503.956 220.155C495.578 215.331 487.942 209.142 481.8 201.649C480.059 199.526 478.442 197.303 476.959 194.992C476.872 194.855 476.9 194.642 477.019 194.532C479.394 192.327 481.393 189.76 482.765 186.812C483.983 184.191 484.664 181.344 484.992 178.48C485.666 172.594 485.062 166.653 485.287 160.748C485.404 157.67 485.734 154.589 486.464 151.593C486.552 151.23 486.665 150.951 486.295 150.719C486.052 150.566 485.739 150.552 485.461 150.573C484.833 150.619 484.196 150.892 483.687 151.256C482.525 152.087 481.505 153.28 480.639 154.406C477.144 158.953 475.958 164.718 475.493 170.317C475.018 176.029 475.246 181.781 474.653 187.484C474.583 188.154 474.5 188.822 474.405 189.488C474.358 189.82 473.857 189.845 473.712 189.579C470.218 183.197 467.566 176.361 465.845 169.29C464.99 165.774 464.366 162.203 463.97 158.605C463.768 156.769 463.628 154.926 463.55 153.08C463.532 152.646 463.517 152.211 463.505 151.776C463.494 151.33 463.55 150.875 463.215 150.528C462.741 150.037 461.963 150.039 461.525 150.574C460.868 151.377 461.233 152.829 461.327 153.761C461.466 155.138 461.467 156.529 461.599 157.911C461.926 161.301 462.462 164.67 463.197 167.995C464.668 174.65 466.93 181.13 469.936 187.245C472.924 193.326 476.64 199.055 481.026 204.221C481.566 204.857 482.117 205.484 482.677 206.104C482.928 206.383 482.685 206.834 482.308 206.739C473.791 204.588 464.921 206.393 456.271 205.906C453.835 205.768 451.409 205.45 449.044 204.841C448.572 204.721 448.772 203.988 449.246 204.11Z" fill="#08101A"/>
</g>
<mask id="mask1_228_533" style="mask-type:luminance" maskUnits="userSpaceOnUse" x="-16" y="216" width="119" height="120">
<path d="M-15.7383 216.162H103V335.999H-15.7383V216.162Z" fill="white"/>
</mask>
<g mask="url(#mask1_228_533)">
<path d="M13.796 309.142C22.0673 318.517 44.649 319.151 50.1549 330.378C52.7727 335.713 68.6516 361.17 78.5139 365.651C79.1763 365.989 79.8154 366.258 80.4374 366.457C94.1395 370.891 97.7554 342.732 96.1764 330.875C94.0685 307.925 79.6157 298.536 60.4872 288.866C53.3701 282.727 52.1296 272.395 48.7231 263.633C41.4112 244.839 21.388 231.836 1.27884 232.737C1.09771 232.741 0.917801 232.752 0.738281 232.762C14.2241 260.877 0.477637 292.601 13.796 309.142Z" fill="#5BA199"/>
<path d="M5.27449 234.202C14.7964 239.529 22.9168 247.561 28.1455 257.164C30.66 261.782 32.5088 266.792 33.3827 271.986C33.8103 274.528 34.0128 277.108 33.9507 279.686C33.8757 282.805 33.189 285.937 33.5464 289.058C33.8676 291.865 35.2924 294.207 37.4435 295.99C39.4009 297.613 41.7403 298.732 44.0446 299.766C46.4264 300.834 48.8239 301.846 51.127 303.082C53.4237 304.314 55.6409 305.694 57.7645 307.205C66.229 313.231 73.2081 321.282 78.1298 330.429C83.0781 339.625 85.9698 349.965 86.1651 360.427C86.1889 361.702 86.1703 362.978 86.115 364.253C86.092 364.778 85.2731 364.781 85.2961 364.253C85.7508 353.807 83.4601 343.341 78.9782 333.914C74.5059 324.508 67.9003 316.116 59.7105 309.677C55.588 306.436 51.0633 303.746 46.2674 301.634C41.9553 299.734 36.9453 297.875 34.2972 293.704C32.7005 291.188 32.5053 288.22 32.7066 285.32C32.9063 282.444 33.2403 279.622 33.0902 276.734C32.8167 271.462 31.4656 266.265 29.3408 261.443C24.9472 251.472 17.3835 242.919 8.28964 236.981C7.17096 236.251 6.02726 235.562 4.86138 234.909C4.40068 234.652 4.81339 233.944 5.27449 234.202Z" fill="#08101A"/>
<path d="M13.7961 309.143C22.0674 318.518 44.6491 319.152 50.155 330.379C52.7727 335.715 68.6516 361.171 78.514 365.653C79.1764 365.99 79.8154 366.259 80.4375 366.458C77.9746 354.71 74.8953 345.632 71.6668 338.622C65.8334 325.942 54.1621 317.061 40.5346 314.095C19.2406 309.452 20.1019 291.785 20.1019 291.785C25.8559 267.054 8.75337 242.14 1.27885 232.738C1.09771 232.742 0.917801 232.752 0.738281 232.763C14.2242 260.878 0.477638 292.602 13.7961 309.143Z" fill="#47847D"/>
<path d="M35.4205 253.573C33.1795 257.442 32.033 261.863 32.1077 266.334C32.1165 266.862 31.2976 266.862 31.2887 266.334C31.2116 261.724 32.4029 257.148 34.7133 253.159C34.9776 252.703 35.6859 253.115 35.4205 253.573Z" fill="#08101A"/>
<path d="M33.1441 277.571C32.8916 276.292 32.0928 275.269 31.2319 274.328C30.3746 273.392 29.4484 272.518 28.4644 271.716C26.4869 270.104 24.2588 268.79 21.8972 267.828C21.4156 267.632 21.6261 266.838 22.115 267.038C24.6174 268.057 26.9476 269.428 29.0438 271.137C30.0931 271.992 31.0786 272.927 31.9814 273.937C32.8665 274.926 33.6722 276.025 33.9344 277.353C34.0357 277.868 33.2466 278.089 33.1441 277.571Z" fill="#08101A"/>
<path d="M48.9472 303.047C47.8797 302.414 46.6445 302.319 45.4294 302.324C44.1304 302.329 42.8297 302.433 41.5469 302.639C39.0001 303.046 36.5223 303.831 34.2047 304.963C33.7327 305.194 33.3172 304.487 33.7912 304.255C36.2831 303.038 38.944 302.195 41.6893 301.793C43.0371 301.596 44.4027 301.487 45.7658 301.506C47.0148 301.523 48.2698 301.693 49.3607 302.34C49.8137 302.608 49.4022 303.317 48.9472 303.047Z" fill="#08101A"/>
<path d="M41.8892 284.423C39.6482 288.291 38.5018 292.713 38.5764 297.184C38.5853 297.712 37.7663 297.712 37.7574 297.184C37.6804 292.573 38.8717 287.997 41.1821 284.009C41.4463 283.553 42.1547 283.965 41.8892 284.423Z" fill="#08101A"/>
<path d="M68.4986 300.888C66.2576 304.756 65.1112 309.178 65.1858 313.649C65.1947 314.177 64.3757 314.177 64.3668 313.649C64.2898 309.038 65.4807 304.463 67.7915 300.474C68.0557 300.018 68.7641 300.43 68.4986 300.888Z" fill="#08101A"/>
<path d="M77.1487 330.45C76.6614 329.305 75.7391 328.482 74.7516 327.764C73.6946 326.996 72.578 326.31 71.4178 325.709C69.0985 324.509 66.6062 323.678 64.038 323.214C63.52 323.121 63.7395 322.331 64.2559 322.424C66.9503 322.91 69.5616 323.806 71.9858 325.082C73.1847 325.712 74.3417 326.433 75.4249 327.248C76.423 327.999 77.3581 328.865 77.8563 330.036C78.06 330.516 77.3548 330.934 77.1487 330.45Z" fill="#08101A"/>
</g>
<path d="M546.442 315.643L519.057 346.256L501.041 366.387L412.753 312.271L255.272 311.669L211.723 292.26L211.713 292.289L33.1133 215.834C33.1133 215.834 33.1132 215.824 33.1233 215.794C33.2734 214.571 36.8166 190.352 91.3256 207.707C96.14 209.24 101.344 211.094 106.979 213.319C107.059 213.349 107.149 213.379 107.229 213.419C107.279 213.439 107.339 213.459 107.389 213.479L108.52 213.87L105.177 212.427L102.295 211.175L89.3739 205.583L84.8197 203.609C84.8197 203.609 87.6924 172.917 159.096 201.565L233.653 233.801L283.057 234.091C293.316 230.825 319.85 224.171 330.579 223.229C353.33 221.215 376.711 223.199 392.715 227.889C415.875 234.693 546.442 315.643 546.442 315.643Z" fill="white"/>
<path opacity="0.3" d="M496.057 344.257L478.041 364.388L412.753 312.272L255.272 311.67L211.723 292.261L211.713 292.29L33.1133 215.835C33.1133 215.835 33.1133 215.825 33.1234 215.795L258.514 296.479L436.053 297.872L496.057 344.257Z" fill="white"/>
<path opacity="0.3" d="M88.8789 205.031L104.257 221.827L183.014 255.885L186.743 249.82L88.8789 205.031Z" fill="white"/>
<path d="M34.2793 214.746C35.5872 212.385 37.6209 210.577 40.2052 209.75C42.6584 208.965 45.3205 209.087 47.8177 209.58C52.7543 210.556 57.5824 212.965 61.481 216.131C64.8084 218.834 67.523 222.83 66.6705 227.31C66.5201 228.101 65.3139 227.766 65.4643 226.977C66.1739 223.247 63.8672 219.842 61.1837 217.51C59.3808 215.943 57.3407 214.651 55.218 213.565C53.0839 212.474 50.8368 211.583 48.5063 211.014C46.2439 210.462 43.8242 210.197 41.5263 210.694C38.8166 211.281 36.6974 212.964 35.3601 215.378C34.9688 216.083 33.888 215.452 34.2793 214.746Z" fill="#08101A"/>
<path d="M117.321 216.528C117.646 214.959 118.256 213.428 118.745 211.906C119.432 209.771 120.109 207.623 120.588 205.43C120.777 204.567 120.948 203.689 120.969 202.804C120.972 202.648 120.971 202.492 120.962 202.336C120.947 202.105 120.961 202.162 120.916 201.99C120.898 201.925 120.882 201.861 120.862 201.797C120.83 201.692 120.899 201.898 120.837 201.739C120.794 201.627 120.741 201.623 120.811 201.664C119.312 200.798 117.63 200.142 116.024 199.502C114.484 198.888 112.917 198.338 111.324 197.876C106.769 196.554 101.852 195.883 97.1657 196.909C95.5621 197.26 94.0307 197.793 92.5957 198.547C91.446 199.151 90.4133 199.854 89.5136 200.64C88.8246 201.241 88.1961 201.902 87.6232 202.615C87.528 202.733 87.6833 202.53 87.5546 202.704C87.5086 202.766 87.4623 202.828 87.4171 202.89C87.3432 202.993 87.271 203.096 87.2008 203.201C87.1193 203.323 87.0528 203.472 86.9604 203.584C86.9483 203.599 86.9402 203.619 86.9314 203.636C86.8567 203.35 86.7817 203.065 86.7071 202.779C87.5829 203.203 88.4591 203.628 89.3349 204.052C91.6986 205.198 94.0626 206.344 96.4262 207.489C99.9174 209.181 103.408 210.873 106.9 212.565C111.187 214.642 115.474 216.72 119.761 218.798C124.427 221.059 129.093 223.32 133.759 225.582C138.468 227.864 143.178 230.147 147.888 232.429C152.307 234.57 156.726 236.712 161.145 238.854C164.855 240.652 168.565 242.45 172.275 244.248C174.945 245.541 177.614 246.835 180.284 248.129C181.555 248.745 182.846 249.33 184.1 249.979C184.153 250.006 184.207 250.03 184.26 250.056C184.985 250.407 184.351 251.488 183.629 251.138C182.753 250.713 181.877 250.289 181.001 249.864C178.638 248.719 176.273 247.573 173.91 246.428C170.419 244.736 166.927 243.044 163.436 241.352C159.149 239.274 154.862 237.197 150.575 235.119C145.909 232.858 141.243 230.596 136.577 228.335C131.867 226.053 127.157 223.77 122.448 221.488C118.029 219.346 113.61 217.205 109.191 215.063C105.481 213.265 101.771 211.467 98.0613 209.669C95.3914 208.375 92.7216 207.081 90.0518 205.787C88.7814 205.172 87.4897 204.587 86.2359 203.938C86.1834 203.911 86.129 203.886 86.0757 203.86C85.7643 203.709 85.7009 203.283 85.8514 203.003C86.4162 201.956 87.2803 201.016 88.1352 200.203C90.2745 198.169 92.9423 196.745 95.7787 195.961C100.385 194.688 105.303 195.069 109.897 196.196C113.312 197.033 116.613 198.298 119.798 199.78C120.72 200.209 121.794 200.486 122.098 201.558C122.303 202.279 122.23 203.08 122.138 203.813C121.606 208.037 119.904 212.023 118.728 216.087C118.655 216.343 118.582 216.6 118.528 216.861C118.364 217.65 117.157 217.316 117.321 216.528Z" fill="#08101A"/>
<path d="M345.188 274.706C343.941 274.668 342.694 274.629 341.447 274.591C338.061 274.486 334.675 274.382 331.289 274.277C326.217 274.121 321.145 273.964 316.073 273.808C309.803 273.615 303.533 273.421 297.264 273.228C290.276 273.012 283.287 272.797 276.299 272.581C269.073 272.358 261.846 272.136 254.619 271.913C247.633 271.697 240.647 271.482 233.66 271.266C227.394 271.073 221.128 270.88 214.861 270.687C209.795 270.531 204.728 270.374 199.661 270.218C196.274 270.113 192.886 270.009 189.498 269.904C188.586 269.876 187.674 269.848 186.762 269.82C186.433 269.81 186.051 269.854 185.727 269.78C185.16 269.65 184.793 268.726 184.548 268.263C183.962 267.154 183.484 265.979 183.132 264.775C182.659 263.158 182.412 261.459 182.454 259.774C182.506 257.699 183.002 255.669 183.887 253.793C184.996 251.44 186.716 249.4 188.674 247.708C191.479 245.284 194.766 243.474 198.16 242.02C203.131 239.889 208.377 238.454 213.664 237.359C221.189 235.8 228.851 234.917 236.51 234.355C247.02 233.583 257.573 233.44 268.107 233.616C274.386 233.721 280.664 233.949 286.936 234.263C287.737 234.304 287.742 235.556 286.936 235.516C275.769 234.956 264.584 234.665 253.403 234.866C244.86 235.019 236.312 235.45 227.819 236.41C221.556 237.117 215.306 238.112 209.195 239.672C204.859 240.779 200.557 242.164 196.531 244.136C193.709 245.517 191.02 247.173 188.764 249.311C187.087 250.902 185.802 252.571 184.836 254.71C184.734 254.936 184.724 254.96 184.602 255.279C184.517 255.501 184.438 255.724 184.365 255.95C184.223 256.384 184.103 256.826 184.004 257.273C183.801 258.195 183.737 258.7 183.707 259.694C183.683 260.491 183.727 261.287 183.827 262.078C183.828 262.091 183.818 262.03 183.847 262.218C183.862 262.313 183.876 262.407 183.892 262.502C183.922 262.682 183.956 262.862 183.992 263.041C184.062 263.39 184.145 263.737 184.237 264.081C184.403 264.696 184.602 265.301 184.832 265.895C184.884 266.028 184.938 266.161 184.993 266.294C185.051 266.436 184.935 266.162 185.018 266.353C185.046 266.417 185.073 266.48 185.101 266.543C185.203 266.769 185.307 266.994 185.417 267.216C185.666 267.721 186.126 268.253 186.304 268.78C186.312 268.803 186.337 268.828 186.351 268.849C186.171 268.745 185.99 268.642 185.81 268.539C187.239 268.583 188.668 268.627 190.097 268.671C193.951 268.789 197.804 268.909 201.658 269.027C207.395 269.204 213.131 269.381 218.867 269.558C225.817 269.772 232.768 269.987 239.718 270.201C247.383 270.437 255.047 270.674 262.712 270.91C270.397 271.147 278.081 271.384 285.766 271.621C292.98 271.844 300.194 272.066 307.407 272.288C313.463 272.475 319.518 272.662 325.574 272.848C329.958 272.984 334.342 273.119 338.727 273.254C340.789 273.318 342.856 273.352 344.918 273.445C345.008 273.449 345.098 273.451 345.188 273.453C345.992 273.478 345.995 274.731 345.188 274.706Z" fill="#08101A"/>
<path d="M185.178 253.881C186.328 253.613 187.499 253.421 188.665 253.243C191.48 252.816 194.321 252.546 197.168 252.478C200.668 252.394 204.199 252.609 207.63 253.338C211.063 254.067 214.425 255.363 217.203 257.549C220.128 259.852 222.089 263.115 222.929 266.731C223.051 267.255 223.148 267.783 223.229 268.315C223.348 269.103 222.143 269.443 222.022 268.648C221.472 265.011 219.925 261.646 217.176 259.158C214.691 256.91 211.522 255.57 208.301 254.776C204.982 253.957 201.547 253.691 198.136 253.715C196.58 253.726 195.025 253.801 193.474 253.929C192.784 253.986 192.094 254.054 191.405 254.132C190.776 254.204 190.198 254.278 189.676 254.352C188.296 254.547 186.936 254.815 185.569 255.076C185.55 255.079 185.53 255.085 185.511 255.089C184.727 255.271 184.393 254.064 185.178 253.881Z" fill="#08101A"/>
</g>
<defs>
<clipPath id="clip0_228_533">
<rect width="533" height="336" fill="white"/>
</clipPath>
</defs>
</svg>
