<svg width="490" height="494" viewBox="0 0 490 494" fill="none" xmlns="http://www.w3.org/2000/svg">
<mask id="mask0_228_489" style="mask-type:luminance" maskUnits="userSpaceOnUse" x="0" y="43" width="490" height="452">
<path d="M490 43.002H0V494.002H490V43.002Z" fill="white"/>
</mask>
<g mask="url(#mask0_228_489)">
<path d="M350.211 576.642L319.093 335.124C310.876 274.57 379.477 242.835 383.433 238.652C387.388 234.47 392.142 215.438 392.691 212.247C393.241 209.055 390.524 189.996 389.78 187.444C389.036 184.892 385.378 172.583 384.587 163.311C383.796 154.04 391.903 150.403 394.497 153.513C397.09 156.624 402.271 170.456 402.271 170.456C402.271 170.456 396.047 147.068 394.499 138.468C392.95 129.868 402.933 121.865 407.121 128.294C411.308 134.724 430.363 187.983 430.363 187.983C430.363 187.983 423.855 140.845 422.214 129.283C420.573 117.722 433.891 104.903 436.995 114.491C440.098 124.081 456.866 194.578 456.866 194.578C458.159 181.937 465.487 155.327 469.364 144.453C473.242 133.579 489.974 124.603 490.094 137.12C490.214 149.636 485.021 199.032 481.335 208.217C477.648 217.401 452.36 269.51 445.512 280.088C438.663 290.666 393.428 334.988 393.772 338.233C394.116 341.478 442.515 494.824 442.515 494.824L350.211 576.642Z" fill="#F3EDE2"/>
<path d="M406.584 292.283C409.356 277.596 417.404 264.433 426.486 252.556C435.568 240.679 445.842 229.694 454.098 217.23C456.14 214.149 458.132 210.594 457.445 206.964C456.635 202.691 452.172 199.8 447.824 199.598C434.725 198.99 418.172 213.748 411.517 221.311C403.37 230.571 397.594 242.041 387.868 249.629C376.89 258.193 361.778 261.055 352.488 271.421" stroke="#08101A" stroke-width="1.7168" stroke-miterlimit="10" stroke-linecap="round"/>
<path d="M402.68 171.557C404.036 183.877 409.27 201.325 409.27 201.325C404.858 215.152 404.464 230.339 404.464 230.339" stroke="#08101A" stroke-width="1.7168" stroke-miterlimit="10" stroke-linecap="round"/>
<path d="M431.238 191.838C431.742 196.255 431.561 200.75 430.703 205.113" stroke="#08101A" stroke-width="1.7168" stroke-miterlimit="10" stroke-linecap="round"/>
<path d="M457.138 197.43C456.514 199.055 455.762 200.629 454.891 202.135" stroke="#08101A" stroke-width="1.7168" stroke-miterlimit="10" stroke-linecap="round"/>
<path d="M463.406 169.404C466.357 168.624 469.534 168.714 472.435 169.663" stroke="#08101A" stroke-width="1.7168" stroke-miterlimit="10" stroke-linecap="round"/>
<path d="M467.062 166.438C467.519 166.268 468.035 166.256 468.499 166.404" stroke="#08101A" stroke-width="1.7168" stroke-miterlimit="10" stroke-linecap="round"/>
<path d="M427.629 155.825C429.624 154.076 432.272 153.089 434.926 153.104" stroke="#08101A" stroke-width="1.7168" stroke-miterlimit="10" stroke-linecap="round"/>
<path d="M428.41 153.023C429.331 152.26 430.412 151.693 431.563 151.367" stroke="#08101A" stroke-width="1.7168" stroke-miterlimit="10" stroke-linecap="round"/>
<path d="M404.367 170.671C406.341 169.526 408.509 168.716 410.752 168.283" stroke="#08101A" stroke-width="1.7168" stroke-miterlimit="10" stroke-linecap="round"/>
<path d="M405.359 167.716C405.772 167.414 406.261 167.215 406.768 167.143" stroke="#08101A" stroke-width="1.7168" stroke-miterlimit="10" stroke-linecap="round"/>
<path d="M392.301 189.566C394.333 188.367 396.542 187.469 398.834 186.908" stroke="#08101A" stroke-width="1.7168" stroke-miterlimit="10" stroke-linecap="round"/>
<path d="M394.443 186.409C394.165 186.393 393.887 186.376 393.609 186.359" stroke="#08101A" stroke-width="1.7168" stroke-miterlimit="10" stroke-linecap="round"/>
<path d="M412.215 240.186C415.203 243.814 419.306 246.514 423.823 247.824" stroke="#08101A" stroke-width="1.7168" stroke-miterlimit="10" stroke-linecap="round"/>
<path d="M412.883 245.002C413.88 246.365 415.19 247.498 416.682 248.288" stroke="#08101A" stroke-width="1.7168" stroke-miterlimit="10" stroke-linecap="round"/>
<path d="M442.792 227.319C436.92 226.501 431.715 222.04 430.012 216.368C433.027 212.095 436.843 208.838 441.18 205.913C443.005 204.682 444.99 203.568 447.175 203.29C449.359 203.013 451.788 203.734 453.032 205.548" stroke="#08101A" stroke-width="1.7168" stroke-miterlimit="10" stroke-linecap="round"/>
<path d="M411.827 543.505L263.342 350.38C226.406 301.666 155.37 327.507 149.613 327.33C143.856 327.152 127.048 317.01 124.404 315.135C121.761 313.26 110.229 297.835 108.955 295.502C107.68 293.168 101.581 281.866 95.5946 274.737C89.6079 267.607 81.2939 270.742 81.651 274.774C82.0089 278.806 88.1038 292.261 88.1038 292.261C88.1038 292.261 76.0004 271.298 71.0249 264.11C66.0494 256.922 53.3232 258.283 54.8941 265.792C56.465 273.3 80.5672 324.478 80.5672 324.478C80.5672 324.478 51.8946 286.479 44.8938 277.128C37.893 267.776 19.4 268.074 23.9711 277.057C28.5423 286.04 66.4371 347.827 66.4371 347.827C56.595 339.778 32.6096 326.079 22.1832 321.102C11.756 316.125 -6.443 321.553 2.31094 330.51C11.0642 339.467 49.6254 370.823 58.7234 374.735C67.8222 378.648 122.543 397.767 134.867 400.44C147.191 403.113 210.553 402.658 212.601 405.2C214.648 407.743 288.623 550.544 288.623 550.544L411.827 543.505Z" fill="#F3EDE2"/>
<path d="M171.074 381.659C158.738 373.201 143.739 369.541 128.915 367.521C114.09 365.502 99.0495 364.954 84.3959 361.936C80.7736 361.19 76.8507 360.075 74.7746 357.017C72.3311 353.418 73.4527 348.224 76.3927 345.017C85.249 335.356 107.404 334.154 117.462 334.826C129.775 335.649 141.969 339.712 154.222 338.237C168.05 336.573 180.783 327.953 194.689 328.756" stroke="#08101A" stroke-width="1.7168" stroke-miterlimit="10" stroke-linecap="round"/>
<path d="M88.5898 293.332C96.3289 303.021 104.939 319.077 104.939 319.077C117.831 325.77 128.834 336.256 128.834 336.256" stroke="#08101A" stroke-width="1.7168" stroke-miterlimit="10" stroke-linecap="round"/>
<path d="M82.668 327.828C85.4294 331.316 88.7323 334.374 92.4214 336.861" stroke="#08101A" stroke-width="1.7168" stroke-miterlimit="10" stroke-linecap="round"/>
<path d="M68.2578 350.041C69.8468 350.753 71.4918 351.339 73.173 351.793" stroke="#08101A" stroke-width="1.7168" stroke-miterlimit="10" stroke-linecap="round"/>
<path d="M44.0261 334.592C41.383 336.118 39.1958 338.421 37.8086 341.137" stroke="#08101A" stroke-width="1.7168" stroke-miterlimit="10" stroke-linecap="round"/>
<path d="M39.3392 335.066C38.895 335.268 38.5219 335.622 38.2969 336.055" stroke="#08101A" stroke-width="1.7168" stroke-miterlimit="10" stroke-linecap="round"/>
<path d="M59.7968 299.756C57.1479 299.923 54.5738 301.088 52.7031 302.969" stroke="#08101A" stroke-width="1.7168" stroke-miterlimit="10" stroke-linecap="round"/>
<path d="M57.2632 298.322C56.0719 298.43 54.9047 298.79 53.8594 299.37" stroke="#08101A" stroke-width="1.7168" stroke-miterlimit="10" stroke-linecap="round"/>
<path d="M86.7671 293.895C84.5589 294.475 82.4494 295.428 80.5547 296.702" stroke="#08101A" stroke-width="1.7168" stroke-miterlimit="10" stroke-linecap="round"/>
<path d="M83.9774 292.496C83.4707 292.573 82.9843 292.777 82.5742 293.083" stroke="#08101A" stroke-width="1.7168" stroke-miterlimit="10" stroke-linecap="round"/>
<path d="M108.664 298.785C106.378 299.367 104.177 300.286 102.156 301.504" stroke="#08101A" stroke-width="1.7168" stroke-miterlimit="10" stroke-linecap="round"/>
<path d="M104.918 298.055C105.103 297.848 105.288 297.64 105.474 297.432" stroke="#08101A" stroke-width="1.7168" stroke-miterlimit="10" stroke-linecap="round"/>
<path d="M130.292 348.695C130.736 353.373 129.734 358.177 127.457 362.289" stroke="#08101A" stroke-width="1.7168" stroke-miterlimit="10" stroke-linecap="round"/>
<path d="M133.221 352.58C133.476 354.249 133.347 355.974 132.848 357.587" stroke="#08101A" stroke-width="1.7168" stroke-miterlimit="10" stroke-linecap="round"/>
<path d="M99.5328 361.121C103.117 356.404 103.658 349.575 100.858 344.355C95.7043 343.45 90.6991 343.83 85.5595 344.812C83.397 345.226 81.2025 345.835 79.4581 347.177C77.7137 348.52 76.5013 350.742 76.9006 352.905" stroke="#08101A" stroke-width="1.7168" stroke-miterlimit="10" stroke-linecap="round"/>
</g>
<path d="M179.961 47.6408C183.7 46.5236 185.825 42.5867 184.708 38.8475C183.591 35.1083 179.654 32.9828 175.915 34.1001C172.176 35.2173 170.05 39.1542 171.167 42.8934C172.285 46.6326 176.222 48.7581 179.961 47.6408Z" fill="#F9A566"/>
<path d="M172.056 81.2665C177.312 79.696 180.3 74.162 178.729 68.9059C177.159 63.6498 171.625 60.662 166.369 62.2325C161.112 63.803 158.125 69.3371 159.695 74.5932C161.266 79.8493 166.8 82.837 172.056 81.2665Z" fill="#F9A566"/>
<path d="M243.498 60.4038C239.123 70.8581 235.433 81.1173 234.339 92.5065C232.951 106.899 236.529 122.19 242.906 134.986C248.942 147.107 256.613 158.72 265.921 169.824C264.114 168.516 262.429 167.151 260.868 165.731C255.202 160.545 249.072 155.812 243.505 150.958C226.234 135.919 210.81 116.506 204.47 94.5231C201.316 83.584 200.302 71.2909 204.067 60.4564C204.152 60.2098 204.304 59.9908 204.506 59.8231C204.707 59.6553 204.952 59.5452 205.212 59.5046C217.938 57.6205 230.7 57.9203 243.498 60.4038Z" fill="#9385B1"/>
<path d="M160.964 160.529C165.979 170.509 171.88 179.916 178.668 188.75C185.633 197.817 192.478 206.973 199.205 216.219C205.829 225.337 210.741 234.166 213.941 242.707C219.46 257.433 220 272.828 215.564 288.891C143.04 285.016 91.8097 215.732 109.779 145.19C115.226 123.794 126.282 105.119 142.947 89.1628C143.004 89.1056 143.078 89.0677 143.157 89.0539C143.237 89.0402 143.319 89.0513 143.393 89.0857C143.468 89.1202 143.53 89.1764 143.573 89.2471C143.615 89.3178 143.636 89.3996 143.633 89.4819C142.518 112.921 146.738 135.461 158.519 155.628C159.471 157.262 160.286 158.896 160.964 160.529Z" fill="#ADD8D2"/>
<path d="M309.225 248.718C304.523 230.324 297.267 213.67 287.456 198.758C282.138 189.695 276.785 182.208 271.398 176.297C268.353 172.951 266.527 170.793 265.92 169.825C256.612 158.72 248.94 147.108 242.904 134.987C236.527 122.191 232.949 106.9 234.337 92.5074C235.432 81.1182 239.122 70.859 243.497 60.4047C306.841 72.8445 347.423 134.076 334.484 197.246C330.625 216.071 322.205 233.228 309.225 248.718Z" fill="#A696C8"/>
<path d="M175.57 118.64C181.71 116.805 185.201 110.341 183.366 104.2C181.531 98.0603 175.067 94.57 168.926 96.4046C162.786 98.2393 159.296 104.704 161.131 110.844C162.965 116.984 169.43 120.475 175.57 118.64Z" fill="#F9A566"/>
<path d="M195.412 152.32C203.147 150.009 207.543 141.866 205.232 134.132C202.921 126.397 194.778 122.001 187.043 124.312C179.309 126.623 174.913 134.766 177.224 142.5C179.535 150.235 187.678 154.631 195.412 152.32Z" fill="#F9A566"/>
<path d="M160.961 160.527C166.501 168.693 172.719 176.112 179.617 182.785C184.587 187.588 190.231 191.905 195.883 196.886C221.387 219.355 240.153 252.347 238.06 286.988C238.043 287.221 237.947 287.442 237.788 287.612C237.629 287.783 237.417 287.893 237.187 287.925C229.926 288.964 222.717 289.285 215.561 288.889C219.997 272.827 219.456 257.432 213.938 242.705C210.738 234.165 205.826 225.336 199.201 216.218C192.475 206.972 185.629 197.815 178.664 188.748C171.877 179.914 165.976 170.507 160.961 160.527Z" fill="#84ADB7"/>
<path d="M225.313 190.4C234.367 187.695 239.513 178.163 236.808 169.11C234.103 160.057 224.571 154.911 215.517 157.616C206.464 160.321 201.318 169.853 204.023 178.906C206.728 187.959 216.26 193.105 225.313 190.4Z" fill="#F9A566"/>
<path d="M253.803 223.723C261.537 221.412 265.934 213.268 263.623 205.534C261.312 197.8 253.168 193.403 245.434 195.714C237.7 198.025 233.303 206.168 235.614 213.903C237.925 221.637 246.069 226.034 253.803 223.723Z" fill="#F9A566"/>
<path d="M309.227 248.715L300.585 257.643C300.525 257.707 300.447 257.751 300.361 257.769C300.275 257.787 300.186 257.779 300.106 257.745C300.025 257.711 299.957 257.653 299.91 257.579C299.863 257.505 299.84 257.419 299.844 257.331C299.973 253.831 299.988 250.269 299.89 246.646C299.455 229.904 295.311 213.941 287.458 198.756C297.269 213.668 304.525 230.321 309.227 248.715Z" fill="#9385B1"/>
<path d="M271.92 251.649C278.065 249.813 281.558 243.343 279.722 237.198C277.886 231.053 271.416 227.56 265.271 229.396C259.126 231.232 255.633 237.702 257.469 243.847C259.305 249.992 265.775 253.485 271.92 251.649Z" fill="#F9A566"/>
<path d="M274.472 285.781C279.723 284.212 282.708 278.683 281.139 273.432C279.57 268.18 274.041 265.195 268.79 266.764C263.538 268.333 260.553 273.862 262.122 279.114C263.691 284.365 269.22 287.35 274.472 285.781Z" fill="#F9A566"/>
<path d="M264.932 313.939C268.676 312.82 270.804 308.878 269.685 305.134C268.567 301.39 264.625 299.262 260.881 300.381C257.137 301.499 255.008 305.441 256.127 309.185C257.246 312.929 261.188 315.058 264.932 313.939Z" fill="#F9A566"/>
</svg>
