<?xml version="1.0" encoding="UTF-8" standalone="no"?>
<!DOCTYPE svg PUBLIC "-//W3C//DTD SVG 1.1//EN" "http://www.w3.org/Graphics/SVG/1.1/DTD/svg11.dtd">
<svg xmlns="http://www.w3.org/2000/svg" version="1.1" viewBox="0.00 0.00 1188.00 527.00">
<circle fill="#ffffff" cx="224.31" cy="111.88" r="7.71"/>
<circle fill="#ffffff" cx="205.46" cy="141.55" r="10.84"/>
<path fill="#ffffff" d="
  M 284.48 377.34
  Q 285.95 372.97 287.50 367.53
  Q 297.06 333.90 286.35 299.83
  Q 280.72 281.92 271.44 267.52
  Q 270.29 265.73 259.98 250.05
  Q 249.48 234.08 242.50 215.30
  Q 234.45 193.62 235.54 172.31
  C 236.09 161.46 239.18 148.69 245.81 140.50
  A 1.32 1.30 -65.9 0 1 247.04 140.02
  C 299.43 147.99 341.57 187.42 352.07 239.23
  Q 359.49 275.84 346.51 309.87
  C 335.30 339.25 313.33 363.90 285.07 377.85
  A 0.42 0.42 0.0 0 1 284.48 377.34
  Z"
/>
<path fill="#ffffff" d="
  M 172.49 151.66
  A 0.35 0.35 0.0 0 1 172.97 152.09
  Q 168.48 164.48 166.30 177.62
  C 161.20 208.39 167.68 239.73 184.37 265.92
  Q 185.97 268.43 193.33 279.89
  C 211.94 308.91 221.24 344.94 213.35 378.84
  Q 211.93 384.91 209.91 389.39
  A 0.64 0.63 -73.4 0 1 209.24 389.76
  C 170.15 384.01 135.74 359.41 117.19 324.76
  C 83.42 261.66 108.37 183.66 172.49 151.66
  Z"
/>
<circle fill="#ffffff" cx="197.43" cy="180.05" r="12.68"/>
<path fill="#ffffff" d="
  M 884.23 242.42
  A 2.53 2.53 0.0 0 1 888.27 243.82
  L 888.99 246.93
  A 4.77 4.74 -20.6 0 1 886.57 252.22
  Q 883.21 253.99 879.27 254.77
  Q 869.50 256.72 860.83 255.50
  C 846.60 253.48 841.29 244.12 839.57 230.99
  Q 837.75 217.02 839.77 201.77
  C 842.04 184.66 850.50 170.93 869.36 170.42
  C 873.93 170.30 887.18 170.18 888.16 176.50
  Q 888.85 180.92 885.79 184.41
  A 0.63 0.61 -53.9 0 1 885.02 184.54
  C 874.75 178.57 859.72 175.35 854.25 189.75
  Q 852.52 194.31 851.88 200.12
  Q 849.95 217.92 853.35 232.94
  C 855.61 242.91 862.88 247.74 873.01 246.64
  Q 879.92 245.88 884.23 242.42
  Z"
/>
<path fill="#ffffff" d="
  M 426.60 240.61
  Q 437.66 247.80 449.71 246.94
  C 458.97 246.27 461.29 239.65 460.01 231.76
  C 458.49 222.36 445.83 218.84 437.17 215.12
  C 425.98 210.32 422.55 200.07 424.54 188.48
  C 426.15 179.17 433.22 172.80 442.51 171.22
  Q 448.08 170.26 455.11 170.73
  C 459.31 171.00 462.77 171.12 465.87 172.65
  C 470.73 175.04 469.20 181.78 466.66 185.24
  A 0.69 0.68 -57.0 0 1 465.78 185.43
  C 458.51 181.40 446.00 176.84 438.53 182.08
  A 3.45 3.32 -89.2 0 0 437.68 182.94
  Q 434.52 187.59 435.41 193.73
  C 436.52 201.27 443.89 204.32 450.44 206.82
  C 456.39 209.09 461.82 211.63 466.13 215.61
  C 470.81 219.94 471.82 227.82 471.41 234.23
  C 470.72 245.29 464.70 252.95 453.65 255.16
  Q 445.13 256.87 435.49 255.79
  C 429.70 255.14 421.70 254.07 423.52 245.76
  Q 424.03 243.43 425.80 240.77
  A 0.59 0.58 33.5 0 1 426.60 240.61
  Z"
/>
<path fill="#ffffff" d="
  M 899.52 213.00
  C 899.94 190.11 908.67 166.79 936.74 171.09
  Q 952.65 173.52 956.60 189.44
  Q 958.88 198.62 958.58 210.26
  Q 958.54 212.03 958.51 213.77
  C 958.08 236.66 949.35 259.97 921.28 255.68
  Q 905.37 253.25 901.42 237.33
  Q 899.14 228.15 899.44 216.50
  Q 899.48 214.74 899.52 213.00
  Z
  M 911.79 213.51
  C 911.89 225.10 912.62 247.13 929.31 246.98
  C 946.00 246.84 946.35 224.80 946.25 213.21
  C 946.15 201.61 945.41 179.58 928.73 179.73
  C 912.04 179.87 911.69 201.91 911.79 213.51
  Z"
/>
<path fill="#ffffff" d="
  M 804.34 215.20
  L 802.29 217.53
  A 3.35 3.24 77.7 0 0 801.72 218.45
  L 794.69 235.33
  A 0.53 0.52 35.2 0 0 794.79 235.89
  Q 796.54 237.77 801.48 243.01
  Q 805.40 247.15 810.56 248.37
  A 1.04 1.03 89.0 0 1 811.33 249.12
  Q 811.98 251.60 810.89 253.37
  A 1.55 1.53 -80.8 0 1 809.96 254.05
  Q 805.15 255.21 798.24 254.28
  Q 795.90 253.97 794.43 252.13
  Q 793.23 250.62 787.90 244.26
  A 0.82 0.82 0.0 0 0 786.74 244.17
  C 780.74 249.34 772.93 255.18 765.35 256.72
  C 758.89 258.04 749.58 257.44 745.34 251.72
  C 738.10 241.96 741.18 231.99 749.21 224.20
  Q 758.55 215.14 767.66 205.92
  C 773.86 199.64 780.88 191.38 776.12 182.96
  C 772.04 175.74 761.61 177.51 759.68 185.71
  Q 758.26 191.79 761.95 197.66
  A 1.15 1.14 53.7 0 1 761.73 199.14
  L 755.13 204.87
  A 0.76 0.75 50.4 0 1 754.05 204.76
  Q 748.75 197.95 748.55 191.68
  Q 748.06 176.41 762.50 172.31
  Q 771.89 169.64 780.99 173.29
  C 787.73 176.00 789.48 183.23 788.02 190.04
  C 786.43 197.47 778.57 205.34 772.97 210.62
  A 0.41 0.40 48.1 0 0 772.95 211.18
  L 782.54 222.24
  A 1.77 1.76 35.4 0 1 782.85 224.04
  Q 781.17 228.27 777.81 231.79
  A 0.59 0.59 0.0 0 1 776.94 231.76
  L 765.54 218.62
  A 0.48 0.48 0.0 0 0 764.84 218.60
  C 760.80 222.82 757.21 226.15 756.00 231.69
  Q 754.36 239.18 758.86 244.10
  C 764.91 250.73 776.42 246.86 781.93 241.17
  C 789.21 233.68 791.64 224.61 793.06 214.26
  A 0.63 0.62 -83.3 0 1 793.74 213.72
  L 804.17 214.76
  A 0.26 0.26 0.0 0 1 804.34 215.20
  Z"
/>
<path fill="#ffffff" d="
  M 483.81 178.27
  A 1.45 1.44 90.0 0 1 482.37 176.82
  L 482.37 173.61
  A 1.77 1.77 0.0 0 1 484.10 171.84
  C 494.05 171.64 504.87 171.45 515.52 172.41
  C 523.61 173.13 532.13 176.04 534.86 184.93
  Q 537.61 193.86 535.71 203.25
  C 532.12 220.93 516.72 223.76 500.95 223.77
  A 0.51 0.51 0.0 0 0 500.44 224.28
  L 500.44 247.63
  A 0.86 0.86 0.0 0 0 501.30 248.49
  L 507.28 248.49
  A 1.60 1.60 0.0 0 1 508.88 250.09
  L 508.88 252.75
  A 2.25 2.24 -90.0 0 1 506.64 255.00
  L 483.80 255.00
  A 1.96 1.95 90.0 0 1 481.85 253.04
  L 481.85 250.58
  A 2.08 2.08 0.0 0 1 483.93 248.50
  L 488.32 248.50
  A 0.59 0.58 -90.0 0 0 488.90 247.91
  L 488.90 179.00
  A 0.73 0.73 0.0 0 0 488.17 178.27
  L 483.81 178.27
  Z
  M 500.71 215.78
  C 510.59 215.96 521.88 215.76 523.63 203.50
  Q 524.74 195.77 521.98 189.27
  C 518.53 181.12 509.09 180.12 501.22 181.38
  A 1.05 1.04 85.5 0 0 500.34 182.42
  L 500.34 215.40
  A 0.38 0.38 0.0 0 0 500.71 215.78
  Z"
/>
<path fill="#ffffff" d="
  M 562.26 213.37
  C 562.26 231.00 562.16 239.31 562.53 247.91
  A 0.61 0.61 0.0 0 0 563.14 248.49
  L 567.64 248.49
  A 1.60 1.59 90.0 0 1 569.23 250.09
  L 569.23 253.09
  A 1.91 1.90 -0.0 0 1 567.32 254.99
  L 545.61 254.99
  A 1.81 1.81 0.0 0 1 543.80 253.18
  L 543.80 250.26
  A 1.76 1.76 0.0 0 1 545.56 248.50
  L 549.85 248.50
  A 0.60 0.59 1.4 0 0 550.45 247.94
  C 550.86 239.36 550.77 230.82 550.76 213.37
  C 550.76 195.91 550.85 187.38 550.43 178.80
  A 0.60 0.59 -1.4 0 0 549.83 178.24
  L 545.54 178.24
  A 1.76 1.76 0.0 0 1 543.78 176.48
  L 543.78 173.56
  A 1.81 1.81 0.0 0 1 545.59 171.75
  L 567.30 171.74
  A 1.91 1.90 -0.0 0 1 569.21 173.64
  L 569.21 176.64
  A 1.60 1.59 90.0 0 1 567.62 178.24
  L 563.12 178.24
  A 0.61 0.61 0.0 0 0 562.51 178.82
  C 562.15 187.42 562.25 195.73 562.26 213.37
  Z"
/>
<path fill="#ffffff" d="
  M 595.37 192.97
  A 0.17 0.17 0.0 0 0 595.05 193.04
  L 595.05 247.77
  A 0.72 0.72 0.0 0 0 595.77 248.49
  L 599.51 248.49
  A 1.27 1.27 0.0 0 1 600.78 249.76
  L 600.78 253.27
  A 1.72 1.71 90.0 0 1 599.07 254.99
  L 580.93 254.99
  A 1.74 1.74 0.0 0 1 579.19 253.25
  L 579.19 250.56
  A 2.04 2.04 0.0 0 1 581.23 248.52
  L 584.62 248.52
  A 1.04 1.04 0.0 0 0 585.66 247.49
  Q 585.84 228.47 585.74 221.85
  Q 585.68 218.44 585.99 210.16
  C 586.18 204.77 585.67 199.12 585.74 193.94
  Q 585.86 184.97 585.48 178.83
  A 0.63 0.62 88.0 0 0 584.86 178.24
  L 581.39 178.24
  A 0.91 0.91 0.0 0 1 580.54 177.65
  Q 579.57 174.90 580.61 172.49
  A 1.21 1.20 11.4 0 1 581.72 171.76
  L 597.75 171.76
  A 1.13 1.12 -12.3 0 1 598.77 172.41
  Q 618.71 215.06 618.79 215.22
  Q 622.04 221.29 628.56 237.37
  A 0.20 0.20 0.0 0 0 628.94 237.29
  L 628.94 179.24
  A 0.98 0.98 0.0 0 0 627.96 178.26
  L 624.29 178.26
  A 1.37 1.37 0.0 0 1 622.92 176.89
  L 622.92 173.51
  A 1.76 1.76 0.0 0 1 624.68 171.75
  L 643.03 171.75
  A 1.61 1.60 90.0 0 1 644.63 173.36
  L 644.63 176.37
  A 1.86 1.86 0.0 0 1 642.77 178.23
  L 639.04 178.23
  A 0.80 0.80 0.0 0 0 638.24 179.02
  Q 637.84 205.55 638.02 251.51
  Q 638.04 255.26 634.79 255.45
  Q 630.53 255.69 626.51 255.26
  A 1.60 1.60 0.0 0 1 625.28 254.44
  Q 607.99 223.49 595.37 192.97
  Z"
/>
<path fill="#ffffff" d="
  M 703.01 184.02
  A 0.57 0.56 -65.0 0 1 702.31 184.28
  Q 688.68 178.88 672.90 180.16
  A 0.71 0.71 0.0 0 0 672.24 180.87
  L 672.25 206.44
  A 0.56 0.56 0.0 0 0 672.81 207.00
  L 697.11 206.99
  A 1.80 1.80 0.0 0 1 698.91 208.79
  L 698.91 212.91
  A 2.07 2.07 0.0 0 1 696.84 214.98
  L 672.67 214.99
  A 0.46 0.45 90.0 0 0 672.22 215.45
  L 672.23 245.97
  A 0.78 0.77 -89.3 0 0 672.98 246.75
  C 683.71 247.00 694.10 246.82 703.96 242.80
  A 0.65 0.65 0.0 0 1 704.80 243.14
  C 705.99 245.93 707.50 252.49 704.01 254.07
  Q 701.89 255.03 698.99 255.03
  Q 656.72 254.96 655.70 255.03
  A 0.72 0.72 0.0 0 1 654.96 254.51
  Q 654.16 251.74 654.80 249.60
  A 1.11 1.09 -0.2 0 1 655.55 248.86
  Q 657.33 248.34 659.80 248.54
  A 0.87 0.86 2.1 0 0 660.73 247.68
  L 660.71 178.96
  A 0.71 0.70 -0.0 0 0 660.00 178.26
  L 656.15 178.26
  A 1.54 1.54 0.0 0 1 654.61 176.72
  L 654.61 173.54
  A 1.74 1.74 0.0 0 1 656.35 171.80
  Q 687.53 171.66 700.90 171.79
  C 706.94 171.85 704.54 181.10 703.01 184.02
  Z"
/>
<path fill="#ffffff" d="
  M 987.78 221.08
  L 987.78 247.77
  A 0.72 0.71 -90.0 0 0 988.49 248.49
  L 994.18 248.49
  A 1.50 1.50 0.0 0 1 995.68 249.99
  L 995.68 252.90
  A 2.10 2.10 0.0 0 1 993.58 255.00
  L 970.96 255.00
  A 1.77 1.77 0.0 0 1 969.19 253.23
  L 969.19 250.48
  A 1.97 1.97 0.0 0 1 971.16 248.51
  L 975.53 248.51
  A 0.65 0.64 -0.0 0 0 976.18 247.87
  L 976.18 178.80
  A 0.55 0.54 90.0 0 0 975.64 178.25
  L 971.01 178.25
  A 1.37 1.36 0.0 0 1 969.64 176.89
  L 969.64 173.71
  A 1.87 1.86 -1.1 0 1 971.44 171.85
  Q 978.08 171.61 995.25 171.81
  C 1009.06 171.96 1021.22 175.65 1021.74 191.77
  Q 1022.32 209.46 1006.03 215.83
  A 0.26 0.26 0.0 0 0 1006.02 216.31
  C 1013.51 219.59 1017.13 230.52 1019.98 238.28
  Q 1022.00 243.75 1024.32 246.72
  Q 1025.41 248.10 1029.10 248.53
  A 0.75 0.74 88.9 0 1 1029.74 249.15
  Q 1030.16 251.68 1029.88 253.28
  A 2.89 2.88 -0.9 0 1 1027.63 255.60
  Q 1023.07 256.57 1019.03 255.96
  C 1013.65 255.16 1012.47 253.37 1010.67 248.09
  Q 1010.25 246.84 1006.50 233.47
  C 1003.80 223.83 999.20 218.03 988.19 220.56
  A 0.53 0.52 84.0 0 0 987.78 221.08
  Z
  M 987.68 182.33
  L 987.68 211.70
  A 0.57 0.57 0.0 0 0 988.25 212.27
  Q 993.30 212.25 997.37 211.61
  C 1007.68 209.99 1010.34 201.64 1008.78 192.48
  C 1007.00 182.04 998.03 180.03 988.54 181.34
  A 1.00 1.00 0.0 0 0 987.68 182.33
  Z"
/>
<path fill="#ffffff" d="
  M 1083.86 184.31
  Q 1070.24 178.90 1054.47 180.18
  A 0.71 0.71 0.0 0 0 1053.81 180.89
  L 1053.81 206.44
  A 0.56 0.56 0.0 0 0 1054.37 207.00
  L 1078.65 207.00
  A 1.80 1.80 0.0 0 1 1080.45 208.80
  L 1080.45 212.92
  A 2.07 2.07 0.0 0 1 1078.38 214.99
  L 1054.22 214.99
  A 0.46 0.45 -90.0 0 0 1053.77 215.45
  L 1053.77 245.95
  A 0.78 0.77 -89.2 0 0 1054.52 246.73
  C 1065.25 246.99 1075.63 246.81 1085.49 242.80
  A 0.65 0.64 -22.7 0 1 1086.33 243.14
  C 1087.51 245.93 1089.02 252.48 1085.53 254.06
  Q 1083.41 255.02 1080.51 255.02
  Q 1038.27 254.93 1037.25 255.00
  A 0.72 0.72 0.0 0 1 1036.51 254.48
  Q 1035.71 251.71 1036.35 249.57
  A 1.11 1.09 -0.2 0 1 1037.10 248.83
  Q 1038.88 248.32 1041.35 248.52
  A 0.87 0.86 2.2 0 0 1042.28 247.66
  L 1042.28 178.97
  A 0.71 0.70 0.0 0 0 1041.57 178.27
  L 1037.73 178.27
  A 1.54 1.54 0.0 0 1 1036.19 176.73
  L 1036.19 173.55
  A 1.74 1.74 0.0 0 1 1037.93 171.81
  Q 1069.09 171.69 1082.46 171.82
  C 1088.49 171.88 1086.09 181.13 1084.56 184.05
  A 0.57 0.56 -65.0 0 1 1083.86 184.31
  Z"
/>
<circle fill="#ffffff" cx="207.69" cy="218.32" r="15.98"/>
<circle fill="#ffffff" cx="227.13" cy="264.94" r="18.70"/>
<circle fill="#ffffff" cx="246.58" cy="311.58" r="15.98"/>
<path fill="#ffffff" d="
  M 426.52 353.74
  Q 427.40 354.43 430.62 355.83
  C 436.66 358.43 449.39 360.76 450.23 350.95
  Q 450.81 344.20 444.84 341.05
  Q 440.72 338.88 434.43 336.43
  C 425.94 333.11 423.11 325.80 425.03 317.18
  Q 427.29 307.10 439.23 305.72
  Q 446.23 304.91 452.11 306.16
  C 457.22 307.25 457.60 311.82 455.05 315.39
  A 0.92 0.92 0.0 0 1 453.85 315.66
  C 447.88 312.30 432.44 307.47 432.47 319.71
  Q 432.49 325.63 438.65 328.39
  C 442.87 330.29 450.39 332.39 454.75 336.74
  C 458.51 340.49 458.87 347.83 457.62 352.86
  C 455.86 359.93 449.65 363.75 442.68 364.13
  Q 432.27 364.69 427.73 363.27
  C 422.91 361.76 423.16 357.24 425.70 353.85
  A 0.59 0.58 -52.3 0 1 426.52 353.74
  Z"
/>
<path fill="#ffffff" d="
  M 747.62 363.32
  Q 744.17 364.41 743.13 361.39
  A 0.69 0.68 -22.7 0 0 742.17 361.00
  Q 733.10 365.65 723.67 363.84
  C 715.62 362.29 711.76 356.45 710.44 348.41
  Q 709.02 339.72 709.92 330.46
  C 711.16 317.67 715.96 306.63 730.51 305.55
  Q 736.42 305.12 741.96 306.43
  A 4.55 4.54 -80.6 0 1 745.44 311.30
  L 745.22 313.47
  A 2.24 2.23 20.3 0 1 741.71 315.08
  Q 737.55 312.18 731.47 311.83
  C 724.34 311.42 720.51 316.64 719.40 323.14
  Q 717.40 334.89 719.77 347.72
  C 721.65 357.90 730.66 359.99 739.22 356.53
  A 0.81 0.80 -10.4 0 0 739.72 355.82
  Q 739.95 348.46 739.35 343.15
  Q 739.13 341.17 737.42 340.92
  A 0.80 0.78 86.6 0 1 736.76 340.32
  Q 736.09 337.57 737.36 336.49
  A 0.93 0.93 0.0 0 1 737.96 336.27
  L 745.73 336.27
  A 2.30 2.30 0.0 0 1 748.03 338.57
  L 748.03 362.76
  A 0.59 0.59 0.0 0 1 747.62 363.32
  Z"
/>
<path fill="#ffffff" d="
  M 505.42 311.64
  A 0.68 0.68 0.0 0 0 504.78 310.75
  L 502.84 310.75
  A 0.87 0.87 0.0 0 1 501.97 309.88
  L 501.97 307.55
  A 1.29 1.28 0.0 0 1 503.26 306.27
  L 515.96 306.27
  A 0.88 0.88 0.0 0 1 516.84 307.15
  L 516.84 309.55
  A 1.19 1.18 -90.0 0 1 515.66 310.74
  L 514.30 310.74
  A 0.98 0.96 -78.5 0 0 513.41 311.34
  L 499.61 344.43
  A 2.96 2.89 -34.9 0 0 499.39 345.59
  L 499.64 358.37
  A 0.63 0.63 0.0 0 0 500.27 358.98
  L 504.10 358.99
  A 1.19 1.19 0.0 0 1 505.29 360.18
  L 505.29 362.10
  A 1.41 1.40 -90.0 0 1 503.89 363.50
  L 486.91 363.50
  A 1.24 1.24 0.0 0 1 485.67 362.26
  L 485.67 360.42
  A 1.42 1.41 0.0 0 1 487.09 359.01
  L 490.50 359.01
  A 0.64 0.64 0.0 0 0 491.14 358.38
  L 491.33 346.27
  A 2.31 2.24 35.3 0 0 491.16 345.37
  Q 484.11 328.60 477.10 312.88
  Q 475.98 310.37 474.62 310.71
  A 1.33 1.32 82.5 0 1 473.01 309.47
  L 472.94 307.97
  A 1.64 1.64 0.0 0 1 474.58 306.25
  L 488.53 306.26
  A 0.62 0.61 -7.2 0 1 489.13 306.72
  Q 489.56 308.38 489.23 310.14
  A 0.68 0.68 0.0 0 1 488.56 310.70
  L 486.66 310.70
  A 0.61 0.61 0.0 0 0 486.09 311.52
  L 496.16 339.08
  A 0.17 0.17 0.0 0 0 496.48 339.07
  L 505.42 311.64
  Z"
/>
<path fill="#ffffff" d="
  M 567.53 350.48
  A 0.24 0.24 0.0 0 0 567.99 350.39
  L 567.99 311.83
  A 1.07 1.06 90.0 0 0 566.93 310.76
  L 564.61 310.76
  A 0.72 0.71 -90.0 0 1 563.90 310.04
  L 563.90 307.35
  A 1.10 1.09 -90.0 0 1 564.99 306.25
  L 578.24 306.25
  A 0.93 0.93 0.0 0 1 579.17 307.18
  L 579.17 309.61
  A 1.13 1.13 0.0 0 1 578.04 310.74
  L 575.27 310.74
  A 0.71 0.71 0.0 0 0 574.56 311.45
  L 574.56 362.02
  A 1.91 1.91 0.0 0 1 572.65 363.93
  L 566.49 363.93
  A 1.11 1.08 74.5 0 1 565.55 363.38
  Q 553.32 342.14 544.41 321.37
  A 0.19 0.19 0.0 0 0 544.05 321.45
  L 544.05 358.28
  A 0.72 0.71 90.0 0 0 544.76 359.00
  L 547.31 359.00
  A 0.74 0.74 0.0 0 1 548.05 359.74
  L 548.05 362.24
  A 1.27 1.26 90.0 0 1 546.79 363.51
  L 533.95 363.51
  A 1.15 1.14 90.0 0 1 532.81 362.36
  L 532.81 360.42
  A 1.43 1.42 -90.0 0 1 534.23 358.99
  L 536.72 358.99
  A 0.71 0.71 0.0 0 0 537.43 358.28
  L 537.43 311.48
  A 0.73 0.73 0.0 0 0 536.70 310.75
  L 534.42 310.75
  A 0.91 0.90 90.0 0 1 533.52 309.84
  L 533.52 307.70
  A 1.45 1.44 -90.0 0 1 534.96 306.25
  L 545.76 306.25
  A 1.07 1.06 -12.8 0 1 546.72 306.85
  C 557.13 328.16 561.46 336.52 567.53 350.48
  Z"
/>
<path fill="#ffffff" d="
  M 610.60 358.00
  Q 617.79 358.06 624.24 357.23
  Q 628.40 356.69 632.01 355.15
  A 0.77 0.77 0.0 0 1 633.04 355.61
  Q 634.13 358.73 633.72 361.03
  A 3.01 3.01 0.0 0 1 630.76 363.50
  L 598.25 363.50
  A 1.01 1.00 -90.0 0 1 597.25 362.49
  L 597.25 360.22
  A 1.19 1.19 0.0 0 1 598.44 359.03
  L 600.57 359.03
  A 0.92 0.92 0.0 0 0 601.49 358.11
  L 601.49 311.78
  A 1.03 1.03 0.0 0 0 600.46 310.75
  L 598.22 310.75
  A 0.98 0.97 90.0 0 1 597.25 309.77
  L 597.25 307.42
  A 1.14 1.14 0.0 0 1 598.38 306.28
  Q 603.36 306.23 629.51 306.24
  Q 633.05 306.24 632.84 309.74
  Q 632.66 312.81 631.78 314.62
  A 0.65 0.64 23.6 0 1 630.98 314.93
  Q 621.48 311.31 610.45 312.10
  A 0.72 0.72 0.0 0 0 609.77 312.82
  L 609.77 329.92
  A 0.58 0.58 0.0 0 0 610.35 330.50
  L 627.40 330.50
  A 1.31 1.31 0.0 0 1 628.71 331.81
  L 628.71 334.56
  A 1.44 1.44 0.0 0 1 627.27 336.00
  L 610.38 336.00
  A 0.61 0.60 0.0 0 0 609.77 336.60
  L 609.77 357.17
  A 0.83 0.83 0.0 0 0 610.60 358.00
  Z"
/>
<path fill="#ffffff" d="
  M 677.11 336.99
  Q 681.23 339.33 683.33 343.96
  Q 685.03 347.72 688.23 355.25
  Q 689.70 358.71 692.32 358.88
  A 1.68 1.67 1.8 0 1 693.89 360.55
  L 693.89 361.92
  A 2.15 2.15 0.0 0 1 691.97 364.06
  C 687.29 364.57 682.15 365.12 680.40 359.79
  C 678.98 355.48 677.49 347.35 673.78 341.96
  A 3.44 3.37 89.1 0 0 672.84 341.03
  Q 669.21 338.61 664.02 340.00
  A 0.22 0.21 -6.8 0 0 663.85 340.21
  L 663.85 358.31
  A 0.69 0.69 0.0 0 0 664.54 359.00
  L 668.51 359.00
  A 0.92 0.92 0.0 0 1 669.43 359.92
  L 669.43 362.31
  A 1.20 1.19 0.0 0 1 668.23 363.50
  L 651.87 363.50
  A 1.17 1.16 0.0 0 1 650.70 362.34
  L 650.70 360.29
  A 1.28 1.28 0.0 0 1 651.98 359.01
  L 654.95 359.01
  A 0.67 0.67 0.0 0 0 655.62 358.34
  L 655.62 311.32
  A 0.59 0.59 0.0 0 0 655.03 310.73
  L 652.09 310.73
  A 1.15 1.14 0.0 0 1 650.94 309.59
  L 650.94 307.82
  A 1.47 1.47 0.0 0 1 652.36 306.35
  Q 658.79 306.12 669.49 306.29
  C 677.73 306.43 686.86 308.35 687.88 318.37
  Q 689.25 331.75 677.14 336.56
  A 0.24 0.24 0.0 0 0 677.11 336.99
  Z
  M 663.79 312.97
  L 663.83 333.71
  A 0.22 0.22 0.0 0 0 664.05 333.93
  L 669.11 333.92
  A 9.90 9.33 -0.1 0 0 678.99 324.58
  L 678.99 322.06
  A 9.90 9.33 -0.1 0 0 669.07 312.74
  L 664.01 312.75
  A 0.22 0.22 0.0 0 0 663.79 312.97
  Z"
/>
<path fill="#ffffff" d="
  M 795.83 310.73
  L 793.89 310.73
  A 0.87 0.87 0.0 0 1 793.02 309.86
  L 793.02 307.53
  A 1.29 1.28 0.0 0 1 794.31 306.25
  L 807.02 306.25
  A 0.88 0.88 0.0 0 1 807.90 307.13
  L 807.90 309.53
  A 1.19 1.18 90.0 0 1 806.72 310.72
  L 805.36 310.72
  A 0.98 0.96 -78.5 0 0 804.47 311.32
  L 790.68 344.43
  A 2.96 2.89 -34.9 0 0 790.46 345.59
  L 790.72 358.38
  A 0.63 0.63 0.0 0 0 791.35 358.99
  L 795.18 358.99
  A 1.19 1.19 0.0 0 1 796.37 360.18
  L 796.37 362.10
  A 1.41 1.40 -90.0 0 1 794.97 363.51
  L 777.98 363.51
  A 1.24 1.24 0.0 0 1 776.74 362.27
  L 776.74 360.43
  A 1.42 1.41 0.0 0 1 778.16 359.02
  L 781.57 359.02
  A 0.64 0.64 0.0 0 0 782.21 358.39
  L 782.40 346.28
  A 2.31 2.24 35.2 0 0 782.23 345.37
  Q 775.16 328.60 768.14 312.88
  Q 767.02 310.37 765.66 310.71
  A 1.33 1.33 0.0 0 1 764.05 309.47
  L 763.98 307.97
  A 1.64 1.64 0.0 0 1 765.62 306.25
  L 779.58 306.25
  A 0.62 0.62 0.0 0 1 780.18 306.71
  Q 780.61 308.37 780.28 310.13
  A 0.68 0.68 0.0 0 1 779.61 310.69
  L 777.71 310.69
  A 0.61 0.61 0.0 0 0 777.14 311.51
  L 787.23 339.08
  A 0.17 0.17 0.0 0 0 787.55 339.07
  L 796.48 311.62
  A 0.68 0.68 0.0 0 0 795.83 310.73
  Z"
/>
<circle fill="#ffffff" cx="256.83" cy="349.85" r="12.68"/>
<circle fill="#ffffff" cx="248.80" cy="388.33" r="10.84"/>
<circle fill="#ffffff" cx="229.97" cy="418.00" r="7.71"/>
</svg>
