<svg width="988" height="324" viewBox="0 0 988 324" fill="none" xmlns="http://www.w3.org/2000/svg">
<path d="M130.972 8.74C130.972 6.68722 130.157 4.71852 128.705 3.26699C127.254 1.81546 125.285 1 123.232 1C121.179 1 119.211 1.81546 117.759 3.26699C116.308 4.71852 115.492 6.68722 115.492 8.74C115.492 9.75643 115.692 10.7629 116.081 11.702C116.47 12.641 117.04 13.4943 117.759 14.213C118.478 14.9317 119.331 15.5019 120.27 15.8908C121.209 16.2798 122.216 16.48 123.232 16.48C124.249 16.48 125.255 16.2798 126.194 15.8908C127.133 15.5019 127.986 14.9317 128.705 14.213C129.424 13.4943 129.994 12.641 130.383 11.702C130.772 10.7629 130.972 9.75643 130.972 8.74Z" stroke="#FCD2B3" stroke-width="2"/>
<path d="M115.272 38.4113C115.272 36.9825 114.99 35.5677 114.444 34.2477C113.897 32.9276 113.095 31.7282 112.085 30.7179C111.075 29.7076 109.875 28.9062 108.555 28.3594C107.235 27.8127 105.821 27.5312 104.392 27.5312C102.963 27.5312 101.548 27.8127 100.228 28.3594C98.9081 28.9062 97.7087 29.7076 96.6984 30.7179C95.6881 31.7282 94.8867 32.9276 94.3399 34.2477C93.7931 35.5677 93.5117 36.9825 93.5117 38.4113C93.5117 41.2968 94.658 44.0642 96.6984 46.1046C98.7388 48.145 101.506 49.2912 104.392 49.2912C107.277 49.2912 110.045 48.145 112.085 46.1046C114.125 44.0642 115.272 41.2968 115.272 38.4113Z" stroke="#FCD2B3" stroke-width="2"/>
<path d="M175.133 171.672C175.466 172.879 176.706 175.715 178.853 180.182C182.653 188.075 185.923 197.612 188.663 208.792" stroke="#D3CBE4" stroke-width="2"/>
<path d="M188.661 208.789C192.141 227.189 191.485 245.242 186.691 262.949C185.658 266.782 184.525 270.516 183.291 274.149C183.26 274.24 183.257 274.338 183.283 274.43C183.309 274.522 183.363 274.604 183.437 274.665C183.511 274.726 183.602 274.763 183.697 274.771C183.793 274.779 183.888 274.757 183.971 274.709L195.841 268.049" stroke="#C9C2D8" stroke-width="2"/>
<path d="M195.84 268.051C214.32 255.864 228.537 240.497 238.49 221.951C271.88 159.711 248.49 82.7208 185.91 49.8008" stroke="#D3CBE4" stroke-width="2"/>
<path d="M185.91 49.8007C173.257 43.1807 159.957 38.864 146.01 36.8507C145.724 36.8116 145.433 36.8506 145.169 36.9633C144.904 37.0761 144.677 37.2584 144.51 37.4907C137.16 47.6807 134.37 60.9007 134.25 73.3707C134.01 98.4307 144.11 123.641 157.52 144.841C161.84 151.681 166.79 158.571 171.11 165.791C172.304 167.771 173.644 169.731 175.13 171.671" stroke="#C9C2D8" stroke-width="2"/>
<path d="M185.91 49.8008C178.04 59.4008 170.95 69.0108 166.23 80.6208C160.26 95.2908 159.22 112.461 161.9 127.891C164.433 142.504 168.843 157.097 175.13 171.671" stroke="#9D8EBD" stroke-width="2"/>
<path d="M195.84 268.049C196.673 247.269 194.28 227.516 188.66 208.789" stroke="#9D8EBD" stroke-width="2"/>
<path d="M84.9406 280.84C92.3273 283.5 99.9939 285.423 107.941 286.61C108.192 286.649 108.449 286.599 108.669 286.47C108.89 286.341 109.059 286.14 109.151 285.9C122.211 250.2 112.861 209.69 93.1406 178.11C88.7706 171.11 84.2006 164.81 80.4906 158.21C75.3439 149.043 71.144 139.307 67.8906 129" stroke="#C2D6DB" stroke-width="2"/>
<path d="M67.8911 129C67.6911 127.073 67.3477 125.103 66.8611 123.09C60.8211 98.2297 63.4611 73.2497 71.9811 48.9997C72.0106 48.9145 72.0143 48.822 71.9916 48.7345C71.969 48.6469 71.921 48.5683 71.8541 48.5089C71.7871 48.4495 71.7042 48.4121 71.6163 48.4015C71.5283 48.391 71.4394 48.4078 71.3611 48.4497C48.8677 59.9697 31.4078 76.1031 18.9811 96.8497C-21.9989 165.25 10.0411 254.03 84.9411 280.84" stroke="#D6ECE9" stroke-width="2"/>
<path d="M67.8906 129C70.024 141.047 73.2673 152.77 77.6206 164.17C82.0873 175.87 86.4006 187.627 90.5606 199.44C94.654 211.087 97.0406 221.893 97.7206 231.86C98.8939 249.047 94.6339 265.373 84.9406 280.84" stroke="#99C3C5" stroke-width="2"/>
<path d="M109.072 76.9092C109.072 73.5383 107.733 70.3055 105.35 67.9219C102.966 65.5383 99.7332 64.1992 96.3623 64.1992C92.9914 64.1992 89.7586 65.5383 87.375 67.9219C84.9914 70.3055 83.6523 73.5383 83.6523 76.9092C83.6523 80.2801 84.9914 83.513 87.375 85.8965C89.7586 88.2801 92.9914 89.6192 96.3623 89.6192C99.7332 89.6192 102.966 88.2801 105.35 85.8965C107.733 83.513 109.072 80.2801 109.072 76.9092Z" stroke="#FCD2B3" stroke-width="2"/>
<path d="M784.652 81.3889C787.202 78.6689 788.542 73.6689 785.762 70.7389C782.102 66.8989 770.722 66.8989 766.082 67.3389C747.722 69.0789 740.462 83.3789 738.462 100.109C737.295 109.882 737.332 119.359 738.572 128.539C740.032 139.439 744.352 148.459 755.702 151.529C764.092 153.799 776.162 153.329 785.092 149.379C786.099 148.935 786.927 148.164 787.441 147.189C787.955 146.214 788.124 145.093 787.922 144.009L787.312 140.779C787.229 140.341 787.035 139.931 786.749 139.59C786.462 139.249 786.093 138.987 785.677 138.83C785.261 138.673 784.811 138.626 784.372 138.695C783.933 138.763 783.52 138.943 783.172 139.219C779.232 142.332 774.182 143.772 768.022 143.539C755.732 143.089 752.122 133.009 750.942 122.599C750.015 114.386 749.965 105.986 750.792 97.3989C751.482 90.1889 753.602 81.6089 760.282 78.0089C767.142 74.3089 777.482 77.5189 783.972 81.4789C784.08 81.5439 784.206 81.5704 784.33 81.554C784.454 81.5377 784.567 81.4794 784.652 81.3889Z" stroke="#D3CBE4" stroke-width="2"/>
<path d="M324.803 137.581C322.263 140.431 321.063 145.891 323.603 148.971C325.613 151.401 329.483 152.051 332.573 152.461C338.886 153.301 344.913 153.285 350.653 152.411C362.393 150.618 368.93 143.968 370.263 132.461C370.87 127.261 370.363 122.468 368.743 118.081C366.523 112.061 360.643 108.671 354.693 105.841C349.953 103.601 343.433 101.811 338.833 98.2114C333.923 94.3714 333.143 87.6114 335.203 82.3514C339.443 71.5714 357.963 78.5214 364.683 82.3214C364.844 82.4146 365.035 82.4436 365.218 82.403C365.401 82.3623 365.563 82.2548 365.673 82.1014C367.113 80.0881 367.88 77.8748 367.973 75.4614C368.143 70.7214 364.963 68.8114 360.633 68.2114C343.583 65.8714 324.313 67.5914 322.983 89.3514C322.316 100.271 326.766 107.868 336.333 112.141C336.906 112.395 340.086 113.748 345.873 116.201C353.553 119.451 359.303 123.031 359.223 132.401C359.163 139.641 355.466 143.438 348.133 143.791C339.973 144.185 332.5 142.078 325.713 137.471C325.573 137.377 325.405 137.337 325.237 137.357C325.07 137.377 324.916 137.457 324.803 137.581Z" stroke="#D3CBE4" stroke-width="2"/>
<path d="M798.359 109.86C798.339 111.12 798.323 112.286 798.309 113.36C798.059 128.34 799.449 147.62 817.319 151.96C824.059 153.593 830.286 153.47 835.999 151.59C853.179 145.94 857.249 126.56 857.519 110.63C857.539 109.37 857.556 108.203 857.569 107.13C857.819 92.1496 856.429 72.8696 838.559 68.5296C831.819 66.8963 825.593 67.0196 819.879 68.8996C802.699 74.5496 798.629 93.9296 798.359 109.86Z" stroke="#D3CBE4" stroke-width="2"/>
<path d="M702.843 111.552L692.893 110.562C692.771 110.549 692.647 110.561 692.53 110.597C692.412 110.632 692.303 110.691 692.208 110.769C692.113 110.847 692.035 110.943 691.977 111.052C691.92 111.16 691.884 111.279 691.873 111.402C690.963 121.142 687.733 131.122 680.483 138.352C673.953 144.862 658.913 148.432 655.213 136.452C652.383 127.272 658.093 121.632 663.853 115.392C663.886 115.358 663.925 115.331 663.968 115.313C664.012 115.295 664.058 115.286 664.105 115.287C664.152 115.288 664.198 115.299 664.241 115.318C664.284 115.338 664.322 115.366 664.353 115.402L675.773 128.562C675.837 128.636 675.915 128.696 676.003 128.738C676.091 128.781 676.187 128.805 676.284 128.808C676.382 128.812 676.479 128.796 676.57 128.76C676.661 128.725 676.744 128.671 676.813 128.602C678.6 126.815 680.203 124.445 681.623 121.492C681.831 121.057 681.908 120.571 681.844 120.093C681.78 119.615 681.578 119.167 681.263 118.802L671.973 108.092C671.891 107.997 671.849 107.876 671.855 107.753C671.86 107.63 671.913 107.514 672.003 107.432C676.75 102.978 680.71 98.4617 683.883 93.8817C689.633 85.5917 689.203 73.0817 678.383 69.4917C666.833 65.6717 651.323 69.0616 648.003 82.0616C646.203 89.1116 648.443 96.3616 653.213 101.872C653.257 101.921 653.309 101.962 653.368 101.991C653.427 102.02 653.491 102.038 653.556 102.042C653.621 102.047 653.686 102.039 653.747 102.018C653.808 101.997 653.865 101.965 653.913 101.922L660.583 96.1417C660.757 95.9889 660.88 95.7872 660.935 95.5636C660.99 95.3401 660.976 95.1055 660.893 94.8917C660.74 94.4783 660.313 93.5117 659.613 91.9917C656.553 85.3317 658.743 74.3617 668.373 75.4717C674.233 76.1417 677.023 81.4717 676.443 86.9717C675.773 93.2617 670.683 98.5216 666.193 103.122C661.58 107.855 655.713 113.652 648.593 120.512C641.063 127.772 637.473 136.102 642.663 146.122C644.563 149.802 647.436 152.158 651.283 153.192C658.27 155.072 664.926 154.372 671.253 151.092C676.72 148.252 681.543 144.862 685.723 140.922C685.785 140.863 685.858 140.818 685.938 140.789C686.018 140.76 686.104 140.747 686.189 140.752C686.274 140.757 686.357 140.779 686.433 140.816C686.51 140.854 686.578 140.907 686.633 140.972C690.286 145.252 692.406 147.802 692.993 148.622C694.093 150.162 695.74 151.058 697.933 151.312C701.4 151.712 704.766 151.665 708.033 151.172C710.693 150.772 710.753 148.162 710.343 145.972C710.314 145.796 710.231 145.633 710.106 145.504C709.981 145.375 709.82 145.287 709.643 145.252C706.336 144.538 703.396 142.848 700.823 140.182C697.67 136.922 695.296 134.412 693.703 132.652C693.594 132.532 693.525 132.38 693.505 132.218C693.486 132.055 693.516 131.889 693.593 131.742C694.943 129.222 696.053 127.102 697.073 124.112C698.593 119.642 700.043 115.722 703.143 112.332C703.2 112.267 703.239 112.188 703.255 112.103C703.27 112.018 703.262 111.931 703.231 111.85C703.2 111.77 703.147 111.699 703.079 111.646C703.01 111.594 702.929 111.561 702.843 111.552Z" stroke="#D3CBE4" stroke-width="2"/>
<path d="M399.43 144.438V121.188C399.43 121.056 399.482 120.928 399.574 120.835C399.666 120.741 399.79 120.688 399.92 120.688C416.96 120.408 432.32 117.518 435.13 97.5883C435.644 93.9416 435.537 89.9716 434.81 85.6783C433.41 77.3383 428.76 72.2516 420.86 70.4183C416.087 69.3049 410.94 68.7049 405.42 68.6183C393.407 68.4383 385.95 68.4783 383.05 68.7383C382.557 68.7808 382.097 69.0067 381.762 69.3713C381.427 69.736 381.241 70.213 381.24 70.7083V73.8583C381.24 74.2031 381.377 74.5337 381.621 74.7775C381.865 75.0213 382.196 75.1583 382.54 75.1583H386.96C387.136 75.1583 387.305 75.2275 387.431 75.351C387.556 75.4745 387.628 75.6423 387.63 75.8183C388.13 98.8183 388.11 121.778 387.57 144.698C387.568 144.866 387.499 145.027 387.379 145.144C387.26 145.262 387.098 145.328 386.93 145.328H382.82C382.29 145.328 381.781 145.538 381.406 145.911C381.031 146.284 380.82 146.79 380.82 147.318V150.228C380.82 150.658 380.992 151.07 381.298 151.374C381.603 151.678 382.018 151.848 382.45 151.848H405.56C406.176 151.848 406.766 151.604 407.201 151.169C407.636 150.734 407.88 150.144 407.88 149.528V146.798C407.88 146.398 407.721 146.014 407.438 145.731C407.155 145.447 406.771 145.288 406.37 145.288H400.28C400.055 145.288 399.839 145.199 399.679 145.039C399.52 144.88 399.43 144.664 399.43 144.438Z" stroke="#D3CBE4" stroke-width="2"/>
<path d="M449.642 110.211C449.642 128.021 449.812 136.421 449.342 144.701C449.335 144.86 449.266 145.01 449.151 145.12C449.035 145.23 448.882 145.291 448.722 145.291H444.572C444.068 145.291 443.585 145.491 443.229 145.847C442.873 146.204 442.672 146.687 442.672 147.191V149.931C442.672 150.184 442.722 150.435 442.819 150.669C442.916 150.904 443.058 151.116 443.238 151.296C443.417 151.475 443.63 151.617 443.864 151.714C444.098 151.811 444.349 151.861 444.602 151.861H466.152C466.699 151.861 467.223 151.643 467.609 151.254C467.995 150.866 468.212 150.34 468.212 149.791V147.061C468.212 146.589 468.025 146.136 467.691 145.802C467.357 145.468 466.904 145.281 466.432 145.281H462.152C461.988 145.281 461.83 145.215 461.714 145.099C461.598 144.983 461.532 144.825 461.532 144.661C461.512 141.761 461.449 139.417 461.342 137.631C461.276 136.484 461.242 127.341 461.242 110.201C461.236 93.0608 461.266 83.9174 461.332 82.7708C461.439 80.9908 461.502 78.6508 461.522 75.7508C461.522 75.5881 461.586 75.4319 461.7 75.3159C461.815 75.1999 461.97 75.1334 462.132 75.1308H466.412C466.646 75.1308 466.878 75.0847 467.094 74.9953C467.31 74.9058 467.506 74.7747 467.671 74.6094C467.836 74.4441 467.967 74.2479 468.057 74.032C468.146 73.816 468.192 73.5845 468.192 73.3508V70.6208C468.192 70.0718 467.975 69.5453 467.589 69.1571C467.203 68.7689 466.679 68.5508 466.132 68.5508L444.582 68.5608C444.071 68.5608 443.58 68.7641 443.218 69.1261C442.856 69.488 442.652 69.9789 442.652 70.4908V73.2308C442.652 73.7347 442.853 74.218 443.209 74.5743C443.565 74.9306 444.048 75.1308 444.552 75.1308L448.702 75.1208C448.863 75.118 449.019 75.178 449.137 75.2881C449.254 75.3983 449.325 75.5499 449.332 75.7108C449.802 84.0008 449.642 92.3908 449.642 110.211Z" stroke="#D3CBE4" stroke-width="2"/>
<path d="M494.402 90.0803C502.428 109.714 512.345 130.13 524.152 151.33C524.275 151.55 524.449 151.738 524.659 151.879C524.87 152.02 525.11 152.109 525.362 152.14C527.895 152.434 530.602 152.517 533.482 152.39C535.768 152.297 536.915 151.04 536.922 148.62C536.935 138.494 536.935 119.794 536.922 92.5203C536.922 87.3303 537.412 81.5703 537.192 75.8903C537.188 75.7933 537.204 75.6965 537.238 75.6056C537.273 75.5148 537.326 75.4319 537.395 75.3618C537.463 75.2918 537.545 75.236 537.635 75.198C537.726 75.1599 537.823 75.1403 537.922 75.1403H541.682C542.194 75.1403 542.685 74.937 543.047 74.575C543.408 74.2131 543.612 73.7222 543.612 73.2103V70.2303C543.612 69.79 543.437 69.3678 543.126 69.0565C542.814 68.7452 542.392 68.5703 541.952 68.5703H523.422C523.086 68.5705 522.76 68.6841 522.497 68.8929C522.233 69.1017 522.048 69.3932 521.972 69.7203C521.658 71.0536 521.685 72.6136 522.052 74.4003C522.094 74.6119 522.209 74.8023 522.379 74.9391C522.548 75.076 522.762 75.1506 522.982 75.1503H526.902C527.156 75.1503 527.401 75.2515 527.581 75.4315C527.761 75.6115 527.862 75.8557 527.862 76.1103V134.15C527.865 134.194 527.852 134.237 527.825 134.272C527.799 134.306 527.76 134.33 527.718 134.339C527.675 134.347 527.63 134.34 527.592 134.318C527.554 134.296 527.526 134.262 527.512 134.22C523.492 124.234 520.188 116.724 517.602 111.69C517.328 111.164 510.682 96.977 497.662 69.1303C497.584 68.9661 497.462 68.8273 497.31 68.7299C497.158 68.6326 496.982 68.5807 496.802 68.5803H480.972C480.478 68.5803 480.005 68.7752 479.657 69.1222C479.308 69.4691 479.112 69.9397 479.112 70.4303V73.8903C479.112 74.2218 479.244 74.5398 479.478 74.7742C479.712 75.0086 480.03 75.1403 480.362 75.1403H483.682C483.777 75.1402 483.871 75.1595 483.958 75.1969C484.046 75.2343 484.125 75.2891 484.191 75.3581C484.257 75.4271 484.309 75.5089 484.344 75.5986C484.378 75.6883 484.394 75.7841 484.392 75.8803C484.312 78.0003 484.692 79.9403 484.662 82.2503C484.512 91.9203 485.142 100.08 484.882 108.72C484.615 117.3 484.542 128.16 484.662 141.3C484.672 142.24 484.312 143.57 484.332 144.73C484.333 144.809 484.319 144.886 484.29 144.959C484.261 145.032 484.217 145.098 484.163 145.154C484.108 145.21 484.042 145.254 483.97 145.284C483.898 145.315 483.82 145.33 483.742 145.33H479.942C479.68 145.33 479.42 145.383 479.18 145.488C478.939 145.592 478.722 145.745 478.543 145.938C478.364 146.13 478.226 146.357 478.138 146.605C478.05 146.854 478.014 147.117 478.032 147.38L478.262 150.57C478.285 150.94 478.454 151.286 478.731 151.531C479.009 151.777 479.372 151.902 479.742 151.88C480.588 151.834 485.818 151.83 495.432 151.87C497.252 151.877 498.488 151.687 499.142 151.3C499.29 151.212 499.417 151.093 499.515 150.952C499.614 150.81 499.681 150.65 499.712 150.48C499.932 149.32 499.848 147.784 499.462 145.87C499.432 145.712 499.347 145.57 499.223 145.468C499.099 145.365 498.943 145.31 498.782 145.31H494.602C494.443 145.31 494.29 145.246 494.178 145.132C494.065 145.017 494.002 144.862 494.002 144.7V90.1603C494.004 90.1134 494.022 90.0684 494.052 90.0327C494.083 89.997 494.124 89.9726 494.17 89.9634C494.217 89.9542 494.264 89.9607 494.306 89.9819C494.348 90.0031 494.382 90.0377 494.402 90.0803Z" stroke="#D3CBE4" stroke-width="2"/>
<path d="M558.84 145.36H555.42C555.167 145.36 554.916 145.41 554.682 145.507C554.448 145.604 554.235 145.746 554.056 145.925C553.877 146.104 553.734 146.317 553.637 146.551C553.54 146.785 553.491 147.036 553.491 147.29V150.2C553.491 150.643 553.665 151.067 553.977 151.381C554.288 151.694 554.71 151.87 555.15 151.87C576.324 151.903 591.167 151.866 599.681 151.76C606.831 151.68 605.551 144.27 603.821 140.02C603.782 139.925 603.724 139.839 603.651 139.766C603.578 139.694 603.491 139.637 603.395 139.599C603.299 139.561 603.196 139.542 603.092 139.544C602.988 139.546 602.886 139.568 602.79 139.61C593.51 143.75 582.33 144.02 571.79 143.43C571.626 143.422 571.471 143.35 571.357 143.229C571.243 143.108 571.18 142.947 571.181 142.78L571.17 112.14C571.17 112.063 571.201 111.989 571.255 111.935C571.31 111.88 571.384 111.85 571.461 111.85L595.86 111.84C596.124 111.84 596.386 111.787 596.63 111.686C596.874 111.584 597.095 111.436 597.282 111.248C597.468 111.06 597.616 110.838 597.717 110.593C597.819 110.348 597.871 110.085 597.871 109.82V105.69C597.871 105.202 597.677 104.734 597.332 104.389C596.986 104.044 596.518 103.85 596.03 103.85L571.79 103.86C571.639 103.86 571.494 103.8 571.387 103.693C571.281 103.586 571.22 103.441 571.22 103.29L571.211 77.6996C571.21 77.5234 571.276 77.3537 571.395 77.2253C571.514 77.097 571.677 77.0198 571.85 77.0096C582.397 76.1963 592.164 77.5796 601.15 81.1596C601.321 81.2272 601.51 81.2264 601.68 81.1574C601.849 81.0885 601.986 80.9567 602.061 80.7896C603.141 78.4563 603.697 75.853 603.73 72.9796C603.764 70.0396 602.144 68.5663 598.871 68.5596C583.124 68.5263 568.667 68.543 555.501 68.6096C555.234 68.6109 554.97 68.6647 554.724 68.768C554.479 68.8712 554.256 69.0218 554.068 69.2113C553.88 69.4007 553.732 69.6252 553.631 69.872C553.53 70.1188 553.479 70.383 553.48 70.6496V73.5396C553.48 73.9693 553.651 74.3813 553.955 74.6852C554.259 74.989 554.671 75.1596 555.1 75.1596H558.84C559.023 75.1596 559.199 75.2323 559.328 75.3617C559.458 75.4911 559.53 75.6666 559.53 75.8496L559.561 144.64C559.561 144.831 559.485 145.014 559.35 145.149C559.215 145.284 559.031 145.36 558.84 145.36Z" stroke="#D3CBE4" stroke-width="2"/>
<path d="M874.431 145.318H870.071C869.559 145.318 869.068 145.521 868.706 145.883C868.344 146.245 868.141 146.736 868.141 147.248V150.338C868.141 150.536 868.179 150.733 868.255 150.916C868.33 151.099 868.441 151.266 868.58 151.406C868.719 151.546 868.885 151.657 869.067 151.733C869.249 151.809 869.444 151.848 869.641 151.848H892.641C892.907 151.848 893.171 151.795 893.417 151.693C893.664 151.59 893.888 151.44 894.076 151.251C894.265 151.061 894.414 150.836 894.516 150.589C894.618 150.341 894.671 150.076 894.671 149.808V146.858C894.671 146.442 894.506 146.042 894.214 145.748C893.921 145.454 893.524 145.288 893.111 145.288H887.441C887.252 145.288 887.072 145.213 886.939 145.08C886.805 144.947 886.731 144.766 886.731 144.578V117.918C886.731 117.803 886.773 117.691 886.848 117.603C886.923 117.515 887.027 117.457 887.141 117.438C893.221 116.308 898.851 116.598 902.141 122.638C905.981 129.668 907.801 139.498 909.431 144.598C911.031 149.598 912.251 151.938 917.531 152.768C920.771 153.281 923.907 153.151 926.941 152.378C927.34 152.275 927.706 152.07 928.003 151.784C928.299 151.499 928.515 151.142 928.631 150.748C928.997 149.508 929.024 147.918 928.711 145.978C928.683 145.801 928.596 145.639 928.463 145.518C928.33 145.398 928.16 145.328 927.981 145.318C925.054 145.198 922.924 143.811 921.591 141.158C918.681 135.368 915.431 123.398 910.191 117.078C908.891 115.511 907.117 114.161 904.871 113.028C904.836 113.01 904.807 112.981 904.787 112.947C904.767 112.913 904.758 112.874 904.76 112.835C904.762 112.797 904.776 112.76 904.799 112.73C904.822 112.701 904.854 112.679 904.891 112.668C913.917 109.401 919.081 103.231 920.381 94.1581C921.801 84.1881 918.871 74.0781 908.631 70.8281C904.331 69.4548 899.594 68.7248 894.421 68.6381C884.147 68.4648 876.151 68.4815 870.431 68.6881C869.915 68.7063 869.427 68.925 869.068 69.2981C868.71 69.6712 868.51 70.1696 868.511 70.6881V73.6881C868.511 74.078 868.665 74.4519 868.941 74.7276C869.217 75.0033 869.591 75.1581 869.981 75.1581H874.561C874.699 75.1581 874.831 75.2129 874.928 75.3104C875.026 75.4079 875.081 75.5402 875.081 75.6781V144.658C875.081 144.833 875.012 145.001 874.89 145.125C874.768 145.249 874.603 145.318 874.431 145.318Z" stroke="#D3CBE4" stroke-width="2"/>
<path d="M940.401 145.329H936.981C936.469 145.329 935.978 145.532 935.616 145.894C935.254 146.256 935.051 146.747 935.051 147.259V150.169C935.051 150.612 935.226 151.037 935.537 151.35C935.848 151.663 936.271 151.839 936.711 151.839C957.871 151.879 972.704 151.849 981.211 151.749C988.361 151.669 987.081 144.259 985.351 140.019C985.312 139.924 985.254 139.839 985.181 139.767C985.108 139.695 985.022 139.638 984.927 139.6C984.832 139.562 984.73 139.543 984.628 139.544C984.526 139.546 984.425 139.568 984.331 139.609C975.051 143.739 963.871 143.999 953.341 143.409C953.176 143.401 953.021 143.329 952.907 143.208C952.794 143.087 952.731 142.926 952.731 142.759V112.139C952.731 112.062 952.761 111.988 952.816 111.934C952.87 111.879 952.944 111.849 953.021 111.849H977.411C977.944 111.849 978.455 111.636 978.832 111.257C979.209 110.878 979.421 110.365 979.421 109.829V105.699C979.421 105.211 979.227 104.743 978.882 104.398C978.537 104.053 978.069 103.859 977.581 103.859H953.361C953.286 103.859 953.212 103.844 953.143 103.816C953.074 103.787 953.011 103.745 952.958 103.692C952.905 103.639 952.863 103.576 952.834 103.507C952.806 103.438 952.791 103.364 952.791 103.289V77.7189C952.79 77.5426 952.856 77.3729 952.975 77.2446C953.094 77.1163 953.257 77.0391 953.431 77.0289C963.971 76.2222 973.731 77.6089 982.711 81.1889C982.881 81.2564 983.071 81.2556 983.24 81.1867C983.41 81.1177 983.546 80.986 983.621 80.8189C984.701 78.4856 985.257 75.8822 985.291 73.0089C985.324 70.0756 983.707 68.6022 980.441 68.5889C964.701 68.5489 950.251 68.5622 937.091 68.6289C936.554 68.6316 936.04 68.8466 935.662 69.227C935.283 69.6074 935.071 70.1222 935.071 70.6589V73.5489C935.071 73.9786 935.241 74.3906 935.545 74.6944C935.849 74.9982 936.261 75.1689 936.691 75.1689H940.431C940.614 75.1689 940.789 75.2416 940.919 75.371C941.048 75.5004 941.121 75.6759 941.121 75.8589V144.609C941.121 144.8 941.045 144.983 940.91 145.118C940.775 145.253 940.592 145.329 940.401 145.329Z" stroke="#D3CBE4" stroke-width="2"/>
<path d="M122.629 115.182C122.629 110.936 120.943 106.864 117.94 103.861C114.938 100.859 110.866 99.1719 106.619 99.1719C102.373 99.1719 98.3011 100.859 95.2986 103.861C92.2961 106.864 90.6094 110.936 90.6094 115.182C90.6094 117.284 91.0235 119.366 91.8281 121.309C92.6326 123.251 93.8119 125.016 95.2986 126.503C96.7853 127.989 98.5502 129.169 100.493 129.973C102.435 130.778 104.517 131.192 106.619 131.192C110.866 131.192 114.938 129.505 117.94 126.503C120.943 123.5 122.629 119.428 122.629 115.182Z" stroke="#FCD2B3" stroke-width="2"/>
<path d="M144.8 161.791C144.8 156.821 142.826 152.054 139.311 148.54C135.797 145.025 131.03 143.051 126.06 143.051C123.599 143.051 121.162 143.536 118.889 144.477C116.615 145.419 114.549 146.799 112.809 148.54C111.069 150.28 109.689 152.346 108.747 154.619C107.805 156.893 107.32 159.33 107.32 161.791C107.32 164.252 107.805 166.689 108.747 168.962C109.689 171.236 111.069 173.302 112.809 175.042C114.549 176.782 116.615 178.163 118.889 179.104C121.162 180.046 123.599 180.531 126.06 180.531C128.521 180.531 130.958 180.046 133.232 179.104C135.505 178.163 137.571 176.782 139.311 175.042C141.052 173.302 142.432 171.236 143.374 168.962C144.316 166.689 144.8 164.252 144.8 161.791Z" stroke="#FCD2B3" stroke-width="2"/>
<path d="M161.52 208.432C161.52 204.186 159.833 200.114 156.831 197.111C153.828 194.109 149.756 192.422 145.51 192.422C141.264 192.422 137.192 194.109 134.189 197.111C131.187 200.114 129.5 204.186 129.5 208.432C129.5 212.678 131.187 216.75 134.189 219.753C137.192 222.755 141.264 224.442 145.51 224.442C149.756 224.442 153.828 222.755 156.831 219.753C159.833 216.75 161.52 212.678 161.52 208.432Z" stroke="#FCD2B3" stroke-width="2"/>
<path d="M353.91 212.272C356.84 208.882 355.93 204.032 351.24 203.052C346.43 202.042 339.29 201.802 334.85 203.062C327.443 205.182 323.616 210.238 323.37 218.232C323.276 221.118 323.756 223.678 324.81 225.912C328.12 232.912 335.65 233.622 341.97 237.012C344.543 238.392 346.093 239.375 346.62 239.962C350.41 244.132 350.53 253.122 343.65 254.432C337.683 255.572 331.656 254.288 325.57 250.582C325.442 250.503 325.294 250.467 325.146 250.48C324.998 250.492 324.859 250.553 324.75 250.652C323.876 251.452 323.32 252.498 323.08 253.792C322.366 257.558 323.906 259.775 327.7 260.442C331.573 261.122 335.57 261.372 339.69 261.192C347.97 260.822 354.91 257.612 356.78 248.932C357.46 245.758 357.39 242.458 356.57 239.032C354.63 230.952 346.31 228.862 337.93 225.372C333.336 223.452 331.186 220.252 331.48 215.772C332.22 204.492 346.61 209.352 352.75 212.492C352.941 212.588 353.159 212.619 353.369 212.579C353.579 212.539 353.769 212.431 353.91 212.272Z" stroke="#C2D6DB" stroke-width="2"/>
<path d="M647.212 259.469C646.912 249.935 646.805 242.022 646.892 235.729C646.918 233.902 645.955 233.005 644.002 233.039C641.608 233.079 639.378 233.102 637.312 233.109C636.85 233.111 636.406 233.283 636.065 233.591C635.723 233.899 635.509 234.322 635.462 234.779C635.375 235.605 635.418 236.352 635.592 237.019C635.634 237.188 635.722 237.343 635.847 237.468C635.971 237.593 636.129 237.683 636.302 237.729C637.442 238.042 638.075 238.672 638.202 239.619C638.602 242.612 638.735 246.945 638.602 252.619C638.596 252.804 638.535 252.983 638.427 253.133C638.318 253.283 638.166 253.396 637.992 253.459C631.112 255.909 622.902 255.659 619.872 248.149C618.885 245.689 618.235 242.845 617.922 239.619C617.348 233.599 617.355 227.952 617.942 222.679C618.912 213.999 622.782 207.489 632.372 208.879C634.738 209.225 638.018 210.435 642.212 212.509C642.349 212.577 642.508 212.591 642.655 212.546C642.802 212.501 642.926 212.402 643.002 212.269C644.162 210.202 644.638 208.395 644.432 206.849C643.742 201.789 633.142 202.069 629.202 202.389C615.612 203.489 610.262 213.739 608.942 225.849C608.135 233.269 608.352 240.195 609.592 246.629C612.742 262.899 628.712 263.939 641.202 257.879C641.275 257.844 641.355 257.825 641.436 257.823C641.518 257.821 641.599 257.837 641.674 257.869C641.75 257.901 641.818 257.949 641.874 258.009C641.931 258.069 641.974 258.141 642.002 258.219C642.715 260.299 644.268 260.969 646.662 260.229C646.823 260.179 646.965 260.078 647.064 259.94C647.163 259.803 647.215 259.638 647.212 259.469Z" stroke="#C2D6DB" stroke-width="2"/>
<path d="M385.451 207.758L387.601 207.498C387.747 207.48 387.884 207.418 387.991 207.319C388.099 207.22 388.172 207.09 388.201 206.948C388.421 205.888 388.391 204.771 388.111 203.598C388.077 203.454 387.996 203.325 387.88 203.232C387.763 203.139 387.619 203.089 387.471 203.088L373.001 203.078C372.728 203.078 372.466 203.188 372.273 203.383C372.079 203.578 371.971 203.842 371.971 204.118L371.961 206.878C371.961 206.978 371.981 207.077 372.019 207.169C372.057 207.261 372.113 207.345 372.184 207.416C372.254 207.486 372.338 207.542 372.43 207.58C372.522 207.618 372.621 207.638 372.721 207.638H374.411C374.616 207.639 374.816 207.698 374.987 207.81C375.157 207.922 375.291 208.081 375.371 208.268L389.951 241.748C390.07 242.012 390.131 242.298 390.131 242.588L390.121 255.148C390.121 255.342 390.044 255.527 389.907 255.664C389.77 255.801 389.585 255.878 389.391 255.878H385.771C385.597 255.878 385.425 255.913 385.266 255.982C385.106 256.052 384.962 256.153 384.843 256.281C384.724 256.408 384.633 256.559 384.574 256.724C384.515 256.888 384.49 257.063 384.501 257.238L384.641 259.348C384.659 259.633 384.786 259.9 384.996 260.095C385.206 260.291 385.483 260.399 385.771 260.398L402.811 260.408C403.02 260.409 403.227 260.366 403.419 260.283C403.611 260.2 403.784 260.078 403.927 259.925C404.069 259.772 404.179 259.591 404.248 259.394C404.318 259.196 404.346 258.987 404.331 258.778L404.201 256.858C404.178 256.583 404.055 256.326 403.854 256.138C403.654 255.951 403.392 255.848 403.121 255.848H399.211C399.056 255.848 398.908 255.788 398.797 255.682C398.687 255.575 398.624 255.43 398.621 255.278L398.391 242.348C398.384 241.966 398.456 241.588 398.601 241.238L412.361 208.228C412.439 208.046 412.572 207.892 412.742 207.788C412.912 207.685 413.111 207.636 413.311 207.648C414.158 207.701 414.778 207.661 415.171 207.528C415.335 207.475 415.479 207.375 415.587 207.24C415.696 207.105 415.763 206.941 415.781 206.768C415.894 205.641 415.848 204.591 415.641 203.618C415.609 203.471 415.527 203.34 415.409 203.245C415.291 203.151 415.143 203.099 414.991 203.098L402.101 203.088C401.941 203.088 401.782 203.12 401.634 203.181C401.486 203.242 401.352 203.332 401.238 203.445C401.125 203.559 401.035 203.693 400.974 203.841C400.913 203.989 400.881 204.148 400.881 204.308V206.728C400.881 206.849 400.905 206.969 400.951 207.08C400.997 207.192 401.065 207.293 401.15 207.379C401.236 207.464 401.337 207.532 401.449 207.578C401.561 207.624 401.68 207.648 401.801 207.648H403.831C403.919 207.649 404.005 207.67 404.083 207.71C404.161 207.75 404.229 207.808 404.281 207.879C404.332 207.95 404.366 208.032 404.38 208.119C404.394 208.206 404.388 208.294 404.361 208.378L395.581 235.248C395.56 235.32 395.517 235.384 395.457 235.43C395.398 235.475 395.325 235.501 395.25 235.502C395.175 235.503 395.101 235.48 395.04 235.436C394.979 235.392 394.934 235.33 394.911 235.258L385.051 208.418C385.026 208.348 385.017 208.272 385.025 208.198C385.032 208.124 385.056 208.052 385.095 207.989C385.133 207.926 385.185 207.872 385.247 207.832C385.308 207.792 385.378 207.767 385.451 207.758Z" stroke="#C2D6DB" stroke-width="2"/>
<path d="M466.411 247.289C461.061 234.559 456.241 225.329 445.661 203.649C445.577 203.477 445.447 203.333 445.286 203.233C445.125 203.132 444.94 203.078 444.751 203.079H433.711C433.361 203.079 433.025 203.217 432.778 203.462C432.53 203.708 432.391 204.041 432.391 204.389V206.709C432.391 206.955 432.49 207.192 432.666 207.366C432.842 207.541 433.082 207.639 433.331 207.639H435.681C435.848 207.639 436.008 207.704 436.126 207.82C436.245 207.936 436.311 208.094 436.311 208.259V255.179C436.311 255.362 436.238 255.537 436.109 255.666C435.979 255.796 435.804 255.869 435.621 255.869H432.961C432.629 255.869 432.311 256 432.077 256.235C431.843 256.469 431.711 256.787 431.711 257.119V259.289C431.711 259.588 431.83 259.876 432.042 260.088C432.254 260.3 432.541 260.419 432.841 260.419H445.741C445.908 260.419 446.073 260.385 446.227 260.321C446.381 260.257 446.521 260.163 446.639 260.044C446.757 259.925 446.85 259.784 446.914 259.628C446.978 259.473 447.011 259.307 447.011 259.139V256.779C447.011 256.535 446.915 256.301 446.744 256.128C446.574 255.956 446.342 255.859 446.101 255.859H443.721C443.53 255.859 443.347 255.783 443.212 255.648C443.077 255.513 443.001 255.33 443.001 255.139V218.369C443.004 218.327 443.021 218.288 443.048 218.256C443.076 218.225 443.113 218.204 443.154 218.196C443.195 218.188 443.238 218.194 443.275 218.212C443.312 218.231 443.342 218.261 443.361 218.299C448.821 231.179 455.741 244.985 464.121 259.719C464.255 259.952 464.438 260.152 464.659 260.303C464.879 260.454 465.129 260.551 465.391 260.589C467.538 260.915 469.628 260.969 471.661 260.749C472.921 260.615 473.544 259.735 473.531 258.109C473.398 244.162 473.474 227.549 473.761 208.269C473.764 208.095 473.834 207.93 473.958 207.808C474.081 207.687 474.248 207.619 474.421 207.619H476.891C477.225 207.619 477.546 207.486 477.782 207.25C478.018 207.013 478.151 206.693 478.151 206.359V204.229C478.151 204.075 478.121 203.923 478.062 203.781C478.003 203.639 477.917 203.51 477.808 203.401C477.7 203.293 477.571 203.206 477.429 203.148C477.287 203.089 477.135 203.059 476.981 203.059L464.231 203.079C463.927 203.079 463.63 203.174 463.381 203.349C463.132 203.524 462.944 203.772 462.841 204.059C462.601 204.705 462.621 205.702 462.901 207.049C462.935 207.207 463.022 207.348 463.147 207.45C463.273 207.552 463.429 207.608 463.591 207.609H465.781C466.083 207.609 466.373 207.729 466.587 207.942C466.801 208.156 466.921 208.446 466.921 208.749V247.189C466.923 247.25 466.904 247.309 466.866 247.356C466.829 247.403 466.775 247.435 466.715 247.447C466.655 247.459 466.592 247.449 466.536 247.42C466.481 247.392 466.436 247.345 466.411 247.289Z" stroke="#C2D6DB" stroke-width="2"/>
<path d="M499.551 207.628C499.763 207.628 499.967 207.712 500.117 207.862C500.267 208.012 500.351 208.216 500.351 208.428V255.088C500.351 255.306 500.265 255.514 500.111 255.668C499.957 255.822 499.749 255.908 499.531 255.908H497.081C496.834 255.908 496.598 256.006 496.423 256.181C496.249 256.355 496.151 256.591 496.151 256.838V259.678C496.151 259.874 496.229 260.063 496.368 260.201C496.507 260.34 496.695 260.418 496.891 260.418H529.521C530.365 260.418 531.173 260.082 531.77 259.484C532.366 258.886 532.701 258.074 532.701 257.228V254.248C532.702 253.911 532.621 253.578 532.465 253.279C532.308 252.98 532.082 252.723 531.804 252.531C531.527 252.339 531.206 252.218 530.871 252.177C530.536 252.137 530.197 252.178 529.881 252.298C525.008 254.171 518.114 254.995 509.201 254.768C509.076 254.766 508.956 254.714 508.868 254.624C508.78 254.534 508.731 254.414 508.731 254.288V233.438C508.731 233.361 508.747 233.284 508.777 233.212C508.807 233.141 508.851 233.076 508.907 233.021C508.963 232.966 509.029 232.923 509.102 232.893C509.174 232.863 509.252 232.848 509.331 232.848H526.301C526.662 232.848 527.008 232.705 527.263 232.45C527.518 232.195 527.661 231.849 527.661 231.488V228.548C527.661 228.217 527.529 227.899 527.295 227.664C527.061 227.43 526.743 227.298 526.411 227.298H509.261C509.121 227.298 508.986 227.242 508.886 227.143C508.787 227.043 508.731 226.909 508.731 226.768V209.628C508.731 209.454 508.797 209.287 508.916 209.161C509.035 209.034 509.198 208.958 509.371 208.948C516.571 208.455 523.434 209.411 529.961 211.818C530.127 211.877 530.309 211.869 530.47 211.797C530.63 211.724 530.756 211.592 530.821 211.428C531.761 208.975 532.008 206.768 531.561 204.808C531.448 204.317 531.172 203.879 530.778 203.564C530.384 203.25 529.895 203.079 529.391 203.078H497.491C497.128 203.078 496.779 203.222 496.522 203.479C496.265 203.736 496.121 204.085 496.121 204.448V206.478C496.121 206.783 496.243 207.076 496.461 207.291C496.678 207.507 496.973 207.628 497.281 207.628H499.551Z" stroke="#C2D6DB" stroke-width="2"/>
<path d="M576.47 233.299C583.977 230.105 587.46 224.522 586.92 216.549C586.15 205.129 577.22 203.139 567.68 203.079C558.147 203.025 552.703 203.049 551.35 203.149C550.945 203.177 550.566 203.357 550.289 203.654C550.012 203.951 549.859 204.343 549.86 204.749V206.519C549.86 206.813 549.976 207.095 550.182 207.303C550.388 207.512 550.668 207.629 550.96 207.629H553.93C554.081 207.629 554.226 207.689 554.333 207.796C554.44 207.902 554.5 208.047 554.5 208.199V255.199C554.5 255.379 554.428 255.552 554.301 255.679C554.173 255.807 554 255.879 553.82 255.879H550.77C550.457 255.879 550.157 256.003 549.935 256.224C549.714 256.445 549.59 256.746 549.59 257.059V259.249C549.59 259.559 549.713 259.857 549.933 260.076C550.152 260.295 550.45 260.419 550.76 260.419H567.2C567.523 260.419 567.834 260.29 568.063 260.061C568.291 259.832 568.42 259.522 568.42 259.199V256.849C568.42 256.72 568.395 256.592 568.345 256.474C568.296 256.355 568.224 256.247 568.133 256.156C568.042 256.065 567.934 255.992 567.815 255.943C567.696 255.894 567.569 255.869 567.44 255.869H563.52C563.329 255.869 563.146 255.794 563.011 255.661C562.876 255.527 562.8 255.347 562.8 255.159V237.419C562.8 237.279 562.847 237.144 562.932 237.035C563.017 236.926 563.136 236.85 563.27 236.819C566.71 235.965 569.61 236.389 571.97 238.089C572.365 238.365 572.696 238.727 572.94 239.149C576.22 244.599 577.6 251.139 579.16 256.369C580.14 259.649 582.497 261.262 586.23 261.209C590.49 261.139 593.58 261.649 592.69 256.519C592.662 256.353 592.578 256.202 592.45 256.091C592.323 255.979 592.16 255.915 591.99 255.909C589.83 255.855 588.17 254.462 587.01 251.729C584.49 245.795 582.973 242.245 582.46 241.079C581.307 238.439 579.29 236.015 576.41 233.809C576.369 233.777 576.337 233.735 576.317 233.688C576.297 233.64 576.29 233.588 576.296 233.537C576.302 233.485 576.321 233.437 576.352 233.395C576.382 233.353 576.423 233.32 576.47 233.299Z" stroke="#C2D6DB" stroke-width="2"/>
<path d="M676.49 207.75L678.64 207.49C678.786 207.473 678.923 207.41 679.03 207.311C679.138 207.212 679.211 207.083 679.24 206.94C679.46 205.874 679.43 204.754 679.15 203.58C679.116 203.436 679.035 203.307 678.919 203.214C678.802 203.122 678.659 203.071 678.51 203.07H664.03C663.757 203.07 663.495 203.18 663.302 203.375C663.109 203.57 663 203.834 663 204.11V206.87C663 207.072 663.08 207.265 663.223 207.408C663.365 207.55 663.558 207.63 663.76 207.63H665.45C665.655 207.631 665.855 207.691 666.026 207.803C666.196 207.915 666.33 208.074 666.41 208.26L681.01 241.75C681.129 242.014 681.19 242.3 681.19 242.59V255.16C681.19 255.354 681.113 255.54 680.976 255.677C680.839 255.813 680.654 255.89 680.46 255.89H676.84C676.666 255.89 676.494 255.925 676.335 255.995C676.175 256.064 676.031 256.165 675.912 256.293C675.793 256.42 675.702 256.571 675.643 256.736C675.584 256.9 675.559 257.076 675.57 257.25L675.71 259.37C675.728 259.655 675.855 259.922 676.065 260.118C676.275 260.313 676.552 260.421 676.84 260.42H693.89C694.099 260.421 694.306 260.378 694.498 260.295C694.69 260.212 694.863 260.09 695.006 259.937C695.148 259.784 695.258 259.603 695.327 259.406C695.397 259.209 695.425 258.999 695.41 258.79L695.28 256.87C695.257 256.595 695.134 256.338 694.934 256.151C694.733 255.963 694.472 255.86 694.2 255.86H690.28C690.125 255.86 689.977 255.801 689.866 255.694C689.756 255.587 689.693 255.442 689.69 255.29L689.46 242.35C689.453 241.968 689.525 241.59 689.67 241.24L703.42 208.21C703.496 208.026 703.629 207.87 703.799 207.765C703.969 207.659 704.169 207.609 704.37 207.62C705.217 207.674 705.837 207.634 706.23 207.5C706.394 207.447 706.538 207.347 706.646 207.212C706.755 207.077 706.822 206.913 706.84 206.74C706.953 205.614 706.907 204.564 706.7 203.59C706.668 203.444 706.586 203.312 706.468 203.217C706.35 203.123 706.202 203.071 706.05 203.07H693.15C692.99 203.07 692.831 203.102 692.683 203.163C692.535 203.224 692.401 203.314 692.287 203.428C692.174 203.541 692.084 203.675 692.023 203.823C691.962 203.971 691.93 204.13 691.93 204.29V206.71C691.93 206.954 692.027 207.188 692.199 207.361C692.372 207.533 692.606 207.63 692.85 207.63H694.88C694.968 207.631 695.054 207.652 695.132 207.692C695.21 207.732 695.278 207.79 695.33 207.861C695.381 207.932 695.415 208.015 695.429 208.101C695.443 208.188 695.437 208.277 695.41 208.36L686.64 235.25C686.619 235.323 686.576 235.386 686.516 235.432C686.457 235.478 686.384 235.503 686.309 235.504C686.234 235.505 686.16 235.482 686.099 235.438C686.038 235.394 685.993 235.332 685.97 235.26L676.09 208.41C676.065 208.34 676.056 208.265 676.064 208.19C676.072 208.116 676.095 208.045 676.134 207.981C676.172 207.918 676.224 207.864 676.286 207.824C676.347 207.784 676.417 207.759 676.49 207.75Z" stroke="#C2D6DB" stroke-width="2"/>
<path d="M168.491 246.708C168.491 243.335 167.151 240.099 164.765 237.714C162.38 235.328 159.144 233.988 155.771 233.988C152.397 233.988 149.162 235.328 146.776 237.714C144.391 240.099 143.051 243.335 143.051 246.708C143.051 250.082 144.391 253.317 146.776 255.703C149.162 258.088 152.397 259.428 155.771 259.428C159.144 259.428 162.38 258.088 164.765 255.703C167.151 253.317 168.491 250.082 168.491 246.708Z" stroke="#FCD2B3" stroke-width="2"/>
<path d="M158.611 285.179C158.611 282.296 157.466 279.531 155.427 277.492C153.389 275.454 150.624 274.309 147.741 274.309C144.858 274.309 142.093 275.454 140.055 277.492C138.016 279.531 136.871 282.296 136.871 285.179C136.871 288.061 138.016 290.826 140.055 292.865C142.093 294.903 144.858 296.049 147.741 296.049C150.624 296.049 153.389 294.903 155.427 292.865C157.466 290.826 158.611 288.061 158.611 285.179Z" stroke="#FCD2B3" stroke-width="2"/>
<path d="M136.652 314.859C136.652 312.804 135.836 310.833 134.382 309.379C132.929 307.926 130.958 307.109 128.902 307.109C126.847 307.109 124.876 307.926 123.422 309.379C121.969 310.833 121.152 312.804 121.152 314.859C121.152 316.915 121.969 318.886 123.422 320.339C124.876 321.793 126.847 322.609 128.902 322.609C130.958 322.609 132.929 321.793 134.382 320.339C135.836 318.886 136.652 316.915 136.652 314.859Z" stroke="#FCD2B3" stroke-width="2"/>
<path d="M810.75 110.368C810.803 116.028 811.293 121.605 812.22 127.098C813.69 135.748 818.23 143.918 828.24 143.828C838.24 143.748 842.64 135.498 843.96 126.828C844.8 121.322 845.196 115.735 845.15 110.068C845.096 104.402 844.603 98.8216 843.67 93.3282C842.21 84.6782 837.67 76.5182 827.66 76.5982C817.66 76.6882 813.26 84.9282 811.94 93.5982C811.1 99.1116 810.703 104.702 810.75 110.368Z" stroke="#D3CBE4" stroke-width="2"/>
<path d="M399.902 112.499C404.949 112.799 409.395 112.436 413.242 111.409C420.942 109.359 422.892 102.839 422.852 95.4293C422.802 88.2593 420.052 80.9793 412.482 78.8193C408.409 77.6527 404.269 77.496 400.062 78.3493C399.856 78.3908 399.671 78.5021 399.538 78.6642C399.405 78.8264 399.332 79.0296 399.332 79.2393V111.889C399.332 112.046 399.391 112.197 399.497 112.31C399.603 112.424 399.748 112.492 399.902 112.499Z" stroke="#D3CBE4" stroke-width="2"/>
<path d="M886.861 109.018C891.081 109.218 894.887 108.862 898.281 107.948C907.001 105.588 909.371 97.4984 907.671 89.3284C905.561 79.1384 897.111 76.6385 887.871 78.2085C887.527 78.2652 887.215 78.4411 886.99 78.7048C886.765 78.9685 886.641 79.3028 886.641 79.6484V108.788C886.641 108.848 886.663 108.905 886.704 108.948C886.745 108.991 886.801 109.016 886.861 109.018Z" stroke="#D3CBE4" stroke-width="2"/>
<path d="M562.73 209.931L562.81 230.491C562.81 230.568 562.841 230.642 562.895 230.696C562.95 230.751 563.024 230.781 563.1 230.781L568.07 230.761C570.696 230.75 573.21 229.742 575.059 227.959C576.908 226.175 577.941 223.763 577.93 221.251V219.051C577.925 217.807 577.664 216.577 577.162 215.43C576.66 214.283 575.926 213.242 575.003 212.366C574.08 211.49 572.986 210.797 571.782 210.326C570.579 209.855 569.291 209.616 567.99 209.621L563.021 209.641C562.944 209.641 562.87 209.672 562.815 209.726C562.761 209.78 562.73 209.854 562.73 209.931Z" stroke="#C2D6DB" stroke-width="2"/>
<path d="M123.228 16.48C127.503 16.48 130.968 13.0147 130.968 8.74C130.968 4.46531 127.503 1 123.228 1C118.954 1 115.488 4.46531 115.488 8.74C115.488 13.0147 118.954 16.48 123.228 16.48Z" fill="#F9A566"/>
<path d="M104.388 49.2912C110.397 49.2912 115.268 44.4201 115.268 38.4113C115.268 32.4024 110.397 27.5312 104.388 27.5312C98.379 27.5312 93.5078 32.4024 93.5078 38.4113C93.5078 44.4201 98.379 49.2912 104.388 49.2912Z" fill="#F9A566"/>
<path d="M185.91 49.8007C178.04 59.4007 170.95 69.0107 166.23 80.6207C160.26 95.2907 159.22 112.461 161.9 127.891C164.434 142.504 168.844 157.097 175.13 171.671C173.644 169.731 172.304 167.771 171.11 165.791C166.79 158.571 161.84 151.681 157.52 144.841C144.11 123.641 134.01 98.4307 134.25 73.3707C134.37 60.9007 137.16 47.6807 144.51 37.4907C144.677 37.2584 144.904 37.0761 145.169 36.9633C145.433 36.8506 145.724 36.8116 146.01 36.8507C159.957 38.864 173.257 43.1807 185.91 49.8007Z" fill="#9385B1"/>
<path d="M67.8911 129C70.0244 141.046 73.2678 152.77 77.6211 164.17C82.0878 175.87 86.4011 187.626 90.5611 199.44C94.6544 211.086 97.0411 221.893 97.7211 231.86C98.8944 249.046 94.6344 265.373 84.9411 280.84C10.0411 254.03 -21.9989 165.25 18.9811 96.8497C31.4078 76.1031 48.8677 59.9697 71.3611 48.4497C71.4394 48.4078 71.5283 48.391 71.6163 48.4015C71.7042 48.4121 71.7871 48.4495 71.8541 48.5089C71.921 48.5683 71.969 48.6469 71.9916 48.7345C72.0143 48.822 72.0106 48.9145 71.9811 48.9997C63.4611 73.2497 60.8211 98.2297 66.8611 123.09C67.3477 125.103 67.6911 127.073 67.8911 129Z" fill="#ADD8D2"/>
<path d="M195.84 268.051C196.673 247.271 194.28 227.517 188.66 208.791C185.92 197.611 182.65 188.074 178.85 180.181C176.703 175.714 175.463 172.877 175.13 171.671C168.843 157.097 164.433 142.504 161.9 127.891C159.22 112.461 160.26 95.2908 166.23 80.6208C170.95 69.0108 178.04 59.4008 185.91 49.8008C248.49 82.7208 271.88 159.711 238.49 221.951C228.537 240.497 214.32 255.864 195.84 268.051Z" fill="#A696C8"/>
<path d="M96.3584 89.6192C103.378 89.6192 109.068 83.9288 109.068 76.9092C109.068 69.8897 103.378 64.1992 96.3584 64.1992C89.3389 64.1992 83.6484 69.8897 83.6484 76.9092C83.6484 83.9288 89.3389 89.6192 96.3584 89.6192Z" fill="#F9A566"/>
<path d="M784.652 81.3889C784.567 81.4794 784.454 81.5377 784.33 81.554C784.206 81.5704 784.08 81.5439 783.972 81.4789C777.482 77.5189 767.142 74.3089 760.282 78.0089C753.602 81.6089 751.482 90.1889 750.792 97.3989C749.965 105.986 750.015 114.386 750.942 122.599C752.122 133.009 755.732 143.089 768.022 143.539C774.182 143.772 779.232 142.332 783.172 139.219C783.52 138.943 783.933 138.763 784.372 138.695C784.811 138.626 785.261 138.673 785.677 138.83C786.093 138.987 786.462 139.249 786.749 139.59C787.035 139.931 787.229 140.341 787.312 140.779L787.922 144.009C788.124 145.093 787.955 146.214 787.441 147.189C786.927 148.164 786.099 148.935 785.092 149.379C776.162 153.329 764.092 153.799 755.702 151.529C744.352 148.459 740.032 139.439 738.572 128.539C737.332 119.359 737.295 109.882 738.462 100.109C740.462 83.3789 747.722 69.0789 766.082 67.3389C770.722 66.8989 782.102 66.8989 785.762 70.7389C788.542 73.6689 787.202 78.6689 784.652 81.3889Z" fill="#A696C8"/>
<path d="M325.709 137.468C332.496 142.074 339.969 144.181 348.129 143.788C355.462 143.434 359.159 139.638 359.219 132.398C359.299 123.028 353.549 119.448 345.869 116.198C340.082 113.744 336.902 112.391 336.329 112.138C326.762 107.864 322.312 100.268 322.979 89.3475C324.309 67.5875 343.579 65.8675 360.629 68.2075C364.959 68.8075 368.139 70.7175 367.969 75.4575C367.876 77.8709 367.109 80.0842 365.669 82.0975C365.559 82.2509 365.397 82.3584 365.214 82.399C365.031 82.4397 364.84 82.4107 364.679 82.3175C357.959 78.5175 339.439 71.5675 335.199 82.3475C333.139 87.6075 333.919 94.3675 338.829 98.2075C343.429 101.808 349.949 103.598 354.689 105.838C360.639 108.668 366.519 112.058 368.739 118.078C370.359 122.464 370.866 127.258 370.259 132.458C368.926 143.964 362.389 150.614 350.649 152.408C344.909 153.281 338.882 153.298 332.569 152.458C329.479 152.048 325.609 151.398 323.599 148.968C321.059 145.888 322.259 140.428 324.799 137.578C324.912 137.453 325.066 137.373 325.234 137.353C325.401 137.333 325.569 137.373 325.709 137.468Z" fill="#A696C8"/>
<path d="M798.359 109.86C798.629 93.9296 802.699 74.5496 819.879 68.8996C825.593 67.0196 831.819 66.8963 838.559 68.5296C856.429 72.8696 857.819 92.1496 857.569 107.13C857.556 108.203 857.539 109.37 857.519 110.63C857.249 126.56 853.179 145.94 835.999 151.59C830.286 153.47 824.059 153.593 817.319 151.96C799.449 147.62 798.059 128.34 798.309 113.36C798.323 112.286 798.339 111.12 798.359 109.86ZM810.749 110.37C810.803 116.03 811.293 121.606 812.219 127.1C813.689 135.75 818.229 143.92 828.239 143.83C838.239 143.75 842.639 135.5 843.959 126.83C844.799 121.323 845.196 115.736 845.149 110.07C845.096 104.403 844.603 98.823 843.669 93.3296C842.209 84.6796 837.669 76.5196 827.659 76.5996C817.659 76.6896 813.259 84.9296 811.939 93.5996C811.099 99.113 810.703 104.703 810.749 110.37Z" fill="#A696C8"/>
<path d="M703.139 112.328C700.039 115.718 698.589 119.638 697.069 124.108C696.049 127.098 694.939 129.218 693.589 131.738C693.512 131.885 693.482 132.051 693.501 132.214C693.521 132.376 693.59 132.528 693.699 132.648C695.292 134.408 697.666 136.918 700.819 140.178C703.392 142.844 706.332 144.534 709.639 145.248C709.816 145.284 709.977 145.372 710.102 145.5C710.227 145.629 710.31 145.792 710.339 145.968C710.749 148.158 710.689 150.768 708.029 151.168C704.762 151.661 701.396 151.708 697.929 151.308C695.736 151.054 694.089 150.158 692.989 148.618C692.402 147.798 690.282 145.248 686.629 140.968C686.574 140.903 686.506 140.85 686.429 140.812C686.353 140.775 686.27 140.753 686.185 140.748C686.1 140.743 686.015 140.756 685.935 140.785C685.854 140.814 685.781 140.859 685.719 140.918C681.539 144.858 676.716 148.248 671.249 151.088C664.922 154.368 658.266 155.068 651.279 153.188C647.432 152.154 644.559 149.798 642.659 146.118C637.469 136.098 641.059 127.768 648.589 120.508C655.709 113.648 661.576 107.851 666.189 103.118C670.679 98.5177 675.769 93.2577 676.439 86.9677C677.019 81.4677 674.229 76.1377 668.369 75.4677C658.739 74.3577 656.549 85.3278 659.609 91.9878C660.309 93.5078 660.736 94.4744 660.889 94.8877C660.972 95.1016 660.987 95.3362 660.931 95.5597C660.876 95.7833 660.753 95.985 660.579 96.1377L653.909 101.918C653.861 101.961 653.804 101.993 653.743 102.014C653.682 102.035 653.617 102.043 653.552 102.038C653.487 102.034 653.423 102.016 653.364 101.987C653.305 101.958 653.253 101.917 653.209 101.868C648.439 96.3577 646.199 89.1077 647.999 82.0577C651.319 69.0577 666.829 65.6678 678.379 69.4878C689.199 73.0778 689.629 85.5878 683.879 93.8778C680.706 98.4578 676.746 102.974 671.999 107.428C671.91 107.511 671.856 107.626 671.851 107.749C671.845 107.872 671.888 107.994 671.969 108.088L681.259 118.798C681.574 119.163 681.776 119.611 681.84 120.089C681.904 120.567 681.827 121.053 681.619 121.488C680.199 124.441 678.596 126.811 676.809 128.598C676.74 128.667 676.657 128.721 676.566 128.756C676.475 128.792 676.378 128.808 676.28 128.805C676.183 128.801 676.087 128.777 675.999 128.734C675.911 128.692 675.833 128.632 675.769 128.558L664.349 115.398C664.318 115.363 664.28 115.334 664.237 115.314C664.195 115.295 664.148 115.284 664.101 115.283C664.054 115.282 664.008 115.291 663.964 115.309C663.921 115.327 663.882 115.354 663.849 115.388C658.089 121.628 652.379 127.268 655.209 136.448C658.909 148.428 673.949 144.858 680.479 138.348C687.729 131.118 690.959 121.138 691.869 111.398C691.88 111.275 691.916 111.157 691.973 111.048C692.031 110.939 692.109 110.843 692.204 110.765C692.299 110.687 692.408 110.628 692.526 110.593C692.643 110.557 692.767 110.545 692.889 110.558L702.839 111.548C702.925 111.557 703.007 111.59 703.075 111.643C703.143 111.695 703.196 111.766 703.227 111.846C703.258 111.927 703.266 112.014 703.251 112.099C703.235 112.184 703.197 112.263 703.139 112.328Z" fill="#A696C8"/>
<path d="M400.28 145.288H406.37C406.771 145.288 407.155 145.447 407.438 145.731C407.721 146.014 407.88 146.398 407.88 146.798V149.528C407.88 150.144 407.636 150.734 407.201 151.169C406.766 151.604 406.176 151.848 405.56 151.848H382.45C382.018 151.848 381.603 151.678 381.298 151.374C380.992 151.07 380.82 150.658 380.82 150.228V147.318C380.82 146.79 381.031 146.284 381.406 145.911C381.781 145.538 382.29 145.328 382.82 145.328H386.93C387.098 145.328 387.26 145.262 387.379 145.144C387.499 145.027 387.568 144.866 387.57 144.698C388.11 121.778 388.13 98.8183 387.63 75.8183C387.628 75.6423 387.556 75.4745 387.431 75.351C387.305 75.2275 387.136 75.1583 386.96 75.1583H382.54C382.196 75.1583 381.865 75.0213 381.621 74.7775C381.377 74.5337 381.24 74.2031 381.24 73.8583V70.7083C381.241 70.213 381.427 69.736 381.762 69.3713C382.097 69.0067 382.557 68.7808 383.05 68.7383C385.95 68.4783 393.407 68.4383 405.42 68.6183C410.94 68.7049 416.087 69.3049 420.86 70.4183C428.76 72.2516 433.41 77.3383 434.81 85.6783C435.537 89.9716 435.644 93.9416 435.13 97.5883C432.32 117.518 416.96 120.408 399.92 120.688C399.79 120.688 399.666 120.741 399.574 120.835C399.482 120.928 399.43 121.056 399.43 121.188V144.438C399.43 144.664 399.52 144.88 399.679 145.039C399.839 145.199 400.055 145.288 400.28 145.288ZM399.9 112.498C404.947 112.798 409.394 112.435 413.24 111.408C420.94 109.358 422.89 102.838 422.85 95.4283C422.8 88.2583 420.05 80.9783 412.48 78.8183C408.407 77.6516 404.267 77.4949 400.06 78.3483C399.855 78.3898 399.67 78.501 399.537 78.6632C399.404 78.8254 399.331 79.0285 399.33 79.2383V111.888C399.33 112.045 399.389 112.196 399.495 112.309C399.601 112.423 399.746 112.491 399.9 112.498Z" fill="#A696C8"/>
<path d="M461.238 110.201C461.238 127.341 461.272 136.484 461.338 137.631C461.445 139.417 461.508 141.761 461.528 144.661C461.528 144.825 461.594 144.983 461.71 145.099C461.826 145.215 461.984 145.281 462.148 145.281H466.428C466.901 145.281 467.353 145.468 467.687 145.802C468.021 146.136 468.208 146.589 468.208 147.061V149.791C468.208 150.34 467.991 150.866 467.605 151.254C467.219 151.643 466.695 151.861 466.148 151.861H444.598C444.345 151.861 444.094 151.811 443.86 151.714C443.626 151.617 443.413 151.475 443.234 151.296C443.055 151.116 442.912 150.904 442.815 150.669C442.718 150.435 442.668 150.184 442.668 149.931V147.191C442.668 146.687 442.869 146.204 443.225 145.847C443.581 145.491 444.065 145.291 444.568 145.291H448.718C448.878 145.291 449.031 145.23 449.147 145.12C449.262 145.01 449.331 144.86 449.338 144.701C449.808 136.421 449.638 128.021 449.638 110.211C449.638 92.3908 449.798 84.0008 449.328 75.7108C449.321 75.5499 449.251 75.3983 449.133 75.2881C449.015 75.178 448.86 75.118 448.698 75.1208L444.548 75.1308C444.045 75.1308 443.561 74.9306 443.205 74.5743C442.849 74.218 442.648 73.7347 442.648 73.2308V70.4908C442.648 69.9789 442.852 69.488 443.214 69.1261C443.576 68.7641 444.067 68.5608 444.578 68.5608L466.128 68.5508C466.675 68.5508 467.199 68.7689 467.585 69.1571C467.971 69.5453 468.188 70.0718 468.188 70.6208V73.3508C468.188 73.5845 468.142 73.816 468.053 74.032C467.964 74.2479 467.832 74.4441 467.667 74.6094C467.502 74.7747 467.306 74.9058 467.09 74.9953C466.874 75.0847 466.642 75.1308 466.408 75.1308H462.128C461.966 75.1334 461.811 75.1999 461.697 75.3159C461.582 75.4319 461.518 75.5881 461.518 75.7508C461.498 78.6508 461.435 80.9908 461.328 82.7708C461.262 83.9174 461.232 93.0608 461.238 110.201Z" fill="#A696C8"/>
<path d="M494.398 90.0803C494.378 90.0377 494.344 90.0031 494.302 89.9819C494.26 89.9607 494.213 89.9542 494.167 89.9634C494.12 89.9726 494.079 89.997 494.048 90.0327C494.018 90.0684 494 90.1134 493.998 90.1603V144.7C493.998 144.862 494.061 145.017 494.174 145.132C494.286 145.246 494.439 145.31 494.598 145.31H498.778C498.939 145.31 499.095 145.365 499.219 145.468C499.343 145.57 499.428 145.712 499.458 145.87C499.845 147.784 499.928 149.32 499.708 150.48C499.677 150.65 499.61 150.81 499.511 150.952C499.413 151.093 499.286 151.212 499.138 151.3C498.485 151.687 497.248 151.877 495.428 151.87C485.815 151.83 480.585 151.834 479.738 151.88C479.368 151.902 479.005 151.777 478.727 151.531C478.45 151.286 478.281 150.94 478.258 150.57L478.028 147.38C478.01 147.117 478.046 146.854 478.134 146.605C478.222 146.357 478.36 146.13 478.539 145.938C478.718 145.745 478.935 145.592 479.176 145.488C479.416 145.383 479.676 145.33 479.938 145.33H483.738C483.816 145.33 483.894 145.315 483.966 145.284C484.038 145.254 484.104 145.21 484.159 145.154C484.214 145.098 484.257 145.032 484.286 144.959C484.315 144.886 484.329 144.809 484.328 144.73C484.308 143.57 484.668 142.24 484.658 141.3C484.538 128.16 484.611 117.3 484.878 108.72C485.138 100.08 484.508 91.9203 484.658 82.2503C484.688 79.9403 484.308 78.0003 484.388 75.8803C484.391 75.7841 484.374 75.6883 484.34 75.5986C484.305 75.5089 484.253 75.4271 484.187 75.3581C484.121 75.2891 484.042 75.2343 483.954 75.1969C483.867 75.1595 483.773 75.1402 483.678 75.1403H480.358C480.026 75.1403 479.708 75.0086 479.474 74.7742C479.24 74.5398 479.108 74.2218 479.108 73.8903V70.4303C479.108 69.9397 479.304 69.4691 479.653 69.1222C480.002 68.7752 480.475 68.5803 480.968 68.5803H496.798C496.978 68.5807 497.154 68.6326 497.306 68.7299C497.458 68.8273 497.58 68.9661 497.658 69.1303C510.678 96.977 517.325 111.164 517.598 111.69C520.185 116.724 523.488 124.234 527.508 134.22C527.522 134.262 527.551 134.296 527.588 134.318C527.626 134.34 527.671 134.347 527.714 134.339C527.756 134.33 527.795 134.306 527.821 134.272C527.848 134.237 527.861 134.194 527.858 134.15V76.1103C527.858 75.8557 527.757 75.6115 527.577 75.4315C527.397 75.2515 527.152 75.1503 526.898 75.1503H522.978C522.758 75.1506 522.545 75.076 522.375 74.9391C522.205 74.8023 522.09 74.6119 522.048 74.4003C521.681 72.6136 521.655 71.0536 521.968 69.7203C522.045 69.3932 522.229 69.1017 522.493 68.8929C522.756 68.6841 523.082 68.5705 523.418 68.5703H541.948C542.388 68.5703 542.81 68.7452 543.122 69.0565C543.433 69.3678 543.608 69.79 543.608 70.2303V73.2103C543.608 73.7222 543.405 74.2131 543.043 74.575C542.681 74.937 542.19 75.1403 541.678 75.1403H537.918C537.819 75.1403 537.722 75.1599 537.631 75.198C537.541 75.236 537.459 75.2918 537.391 75.3618C537.323 75.4319 537.269 75.5148 537.235 75.6056C537.2 75.6965 537.184 75.7933 537.188 75.8903C537.408 81.5703 536.918 87.3303 536.918 92.5203C536.931 119.794 536.931 138.494 536.918 148.62C536.911 151.04 535.765 152.297 533.478 152.39C530.598 152.517 527.891 152.434 525.358 152.14C525.106 152.109 524.866 152.02 524.656 151.879C524.445 151.738 524.271 151.55 524.148 151.33C512.341 130.13 502.425 109.714 494.398 90.0803Z" fill="#A696C8"/>
<path d="M558.84 145.36C559.031 145.36 559.215 145.284 559.35 145.149C559.485 145.014 559.561 144.831 559.561 144.64L559.53 75.8496C559.53 75.6666 559.458 75.4911 559.328 75.3617C559.199 75.2323 559.023 75.1596 558.84 75.1596H555.1C554.671 75.1596 554.259 74.989 553.955 74.6852C553.651 74.3813 553.48 73.9693 553.48 73.5396V70.6496C553.479 70.383 553.53 70.1188 553.631 69.872C553.732 69.6252 553.88 69.4007 554.068 69.2113C554.256 69.0218 554.479 68.8712 554.724 68.768C554.97 68.6647 555.234 68.6109 555.501 68.6096C568.667 68.543 583.124 68.5263 598.871 68.5596C602.144 68.5663 603.764 70.0396 603.73 72.9796C603.697 75.853 603.141 78.4563 602.061 80.7896C601.986 80.9567 601.849 81.0885 601.68 81.1574C601.51 81.2264 601.321 81.2272 601.15 81.1596C592.164 77.5796 582.397 76.1963 571.85 77.0096C571.677 77.0198 571.514 77.097 571.395 77.2253C571.276 77.3537 571.21 77.5234 571.211 77.6996L571.22 103.29C571.22 103.441 571.281 103.586 571.387 103.693C571.494 103.8 571.639 103.86 571.79 103.86L596.03 103.85C596.518 103.85 596.986 104.044 597.332 104.389C597.677 104.734 597.871 105.202 597.871 105.69V109.82C597.871 110.085 597.819 110.348 597.717 110.593C597.616 110.838 597.468 111.06 597.282 111.248C597.095 111.436 596.874 111.584 596.63 111.686C596.386 111.787 596.124 111.84 595.86 111.84L571.461 111.85C571.384 111.85 571.31 111.88 571.255 111.935C571.201 111.989 571.17 112.063 571.17 112.14L571.181 142.78C571.18 142.947 571.243 143.108 571.357 143.229C571.471 143.35 571.626 143.422 571.79 143.43C582.33 144.02 593.51 143.75 602.79 139.61C602.886 139.568 602.988 139.546 603.092 139.544C603.196 139.542 603.299 139.561 603.395 139.599C603.491 139.637 603.578 139.694 603.651 139.766C603.724 139.839 603.782 139.925 603.821 140.02C605.551 144.27 606.831 151.68 599.681 151.76C591.167 151.866 576.324 151.903 555.15 151.87C554.71 151.87 554.288 151.694 553.977 151.381C553.665 151.067 553.491 150.643 553.491 150.2V147.29C553.491 147.036 553.54 146.785 553.637 146.551C553.734 146.317 553.877 146.104 554.056 145.925C554.235 145.746 554.448 145.604 554.682 145.507C554.916 145.41 555.167 145.36 555.42 145.36H558.84Z" fill="#A696C8"/>
<path d="M875.081 144.658V75.6781C875.081 75.5402 875.026 75.4079 874.928 75.3104C874.831 75.2129 874.699 75.1581 874.561 75.1581H869.981C869.591 75.1581 869.217 75.0033 868.941 74.7276C868.665 74.4519 868.511 74.078 868.511 73.6881V70.6881C868.51 70.1696 868.71 69.6712 869.068 69.2981C869.427 68.925 869.915 68.7063 870.431 68.6881C876.151 68.4815 884.147 68.4648 894.421 68.6381C899.594 68.7248 904.331 69.4548 908.631 70.8281C918.871 74.0781 921.801 84.1881 920.381 94.1581C919.081 103.231 913.917 109.401 904.891 112.668C904.854 112.679 904.822 112.701 904.799 112.73C904.776 112.76 904.762 112.797 904.76 112.835C904.758 112.874 904.767 112.913 904.787 112.947C904.807 112.981 904.836 113.01 904.871 113.028C907.117 114.161 908.891 115.511 910.191 117.078C915.431 123.398 918.681 135.368 921.591 141.158C922.924 143.811 925.054 145.198 927.981 145.318C928.16 145.328 928.33 145.398 928.463 145.518C928.596 145.639 928.683 145.801 928.711 145.978C929.024 147.918 928.997 149.508 928.631 150.748C928.515 151.142 928.299 151.499 928.003 151.784C927.706 152.07 927.34 152.275 926.941 152.378C923.907 153.151 920.771 153.281 917.531 152.768C912.251 151.938 911.031 149.598 909.431 144.598C907.801 139.498 905.981 129.668 902.141 122.638C898.851 116.598 893.221 116.308 887.141 117.438C887.027 117.457 886.923 117.515 886.848 117.603C886.773 117.691 886.731 117.803 886.731 117.918V144.578C886.731 144.766 886.805 144.947 886.939 145.08C887.072 145.213 887.252 145.288 887.441 145.288H893.111C893.524 145.288 893.921 145.454 894.214 145.748C894.506 146.042 894.671 146.442 894.671 146.858V149.808C894.671 150.076 894.618 150.341 894.516 150.589C894.414 150.836 894.265 151.061 894.076 151.251C893.888 151.44 893.664 151.59 893.417 151.693C893.171 151.795 892.907 151.848 892.641 151.848H869.641C869.444 151.848 869.249 151.809 869.067 151.733C868.885 151.657 868.719 151.546 868.58 151.406C868.441 151.266 868.33 151.099 868.255 150.916C868.179 150.733 868.141 150.536 868.141 150.338V147.248C868.141 146.736 868.344 146.245 868.706 145.883C869.068 145.521 869.559 145.318 870.071 145.318H874.431C874.603 145.318 874.768 145.249 874.89 145.125C875.012 145.001 875.081 144.833 875.081 144.658ZM886.861 109.018C891.081 109.218 894.887 108.861 898.281 107.948C907.001 105.588 909.371 97.4981 907.671 89.3281C905.561 79.1381 897.111 76.6381 887.871 78.2081C887.527 78.2649 887.215 78.4408 886.99 78.7045C886.765 78.9681 886.641 79.3025 886.641 79.6481V108.788C886.641 108.847 886.663 108.904 886.704 108.947C886.745 108.99 886.801 109.016 886.861 109.018Z" fill="#A696C8"/>
<path d="M941.121 144.609V75.8589C941.121 75.6759 941.048 75.5004 940.919 75.371C940.789 75.2416 940.614 75.1689 940.431 75.1689H936.691C936.261 75.1689 935.849 74.9982 935.545 74.6944C935.241 74.3906 935.071 73.9786 935.071 73.5489V70.6589C935.071 70.1222 935.283 69.6074 935.662 69.227C936.04 68.8466 936.554 68.6316 937.091 68.6289C950.251 68.5622 964.701 68.5489 980.441 68.5889C983.707 68.6022 985.324 70.0756 985.291 73.0089C985.257 75.8822 984.701 78.4856 983.621 80.8189C983.546 80.986 983.41 81.1177 983.24 81.1867C983.071 81.2556 982.881 81.2564 982.711 81.1889C973.731 77.6089 963.971 76.2222 953.431 77.0289C953.257 77.0391 953.094 77.1163 952.975 77.2446C952.856 77.3729 952.79 77.5426 952.791 77.7189V103.289C952.791 103.364 952.806 103.438 952.834 103.507C952.863 103.576 952.905 103.639 952.958 103.692C953.011 103.745 953.074 103.787 953.143 103.816C953.212 103.844 953.286 103.859 953.361 103.859H977.581C978.069 103.859 978.537 104.053 978.882 104.398C979.227 104.743 979.421 105.211 979.421 105.699V109.829C979.421 110.365 979.209 110.878 978.832 111.257C978.455 111.636 977.944 111.849 977.411 111.849H953.021C952.944 111.849 952.87 111.879 952.816 111.934C952.761 111.988 952.731 112.062 952.731 112.139V142.759C952.731 142.926 952.794 143.087 952.907 143.208C953.021 143.329 953.176 143.401 953.341 143.409C963.871 143.999 975.051 143.739 984.331 139.609C984.425 139.568 984.526 139.546 984.628 139.544C984.73 139.543 984.832 139.562 984.927 139.6C985.022 139.638 985.108 139.695 985.181 139.767C985.254 139.839 985.312 139.924 985.351 140.019C987.081 144.259 988.361 151.669 981.211 151.749C972.704 151.849 957.871 151.879 936.711 151.839C936.271 151.839 935.848 151.663 935.537 151.35C935.226 151.037 935.051 150.612 935.051 150.169V147.259C935.051 146.747 935.254 146.256 935.616 145.894C935.978 145.532 936.469 145.329 936.981 145.329H940.401C940.592 145.329 940.775 145.253 940.91 145.118C941.045 144.983 941.121 144.8 941.121 144.609Z" fill="#A696C8"/>
<path d="M106.619 131.188C115.461 131.188 122.629 124.02 122.629 115.178C122.629 106.336 115.461 99.168 106.619 99.168C97.7773 99.168 90.6094 106.336 90.6094 115.178C90.6094 124.02 97.7773 131.188 106.619 131.188Z" fill="#F9A566"/>
<path d="M67.8906 129C71.144 139.307 75.3439 149.043 80.4906 158.21C84.2006 164.81 88.7706 171.11 93.1406 178.11C112.861 209.69 122.211 250.2 109.151 285.9C109.059 286.14 108.89 286.341 108.669 286.47C108.449 286.599 108.192 286.649 107.941 286.61C99.9939 285.423 92.3273 283.5 84.9406 280.84C94.6339 265.373 98.8939 249.047 97.7206 231.86C97.0406 221.893 94.654 211.087 90.5606 199.44C86.4006 187.627 82.0873 175.87 77.6206 164.17C73.2673 152.77 70.024 141.047 67.8906 129Z" fill="#84ADB7"/>
<path d="M126.06 180.531C136.41 180.531 144.8 172.141 144.8 161.791C144.8 151.441 136.41 143.051 126.06 143.051C115.711 143.051 107.32 151.441 107.32 161.791C107.32 172.141 115.711 180.531 126.06 180.531Z" fill="#F9A566"/>
<path d="M145.51 224.438C154.352 224.438 161.52 217.27 161.52 208.428C161.52 199.586 154.352 192.418 145.51 192.418C136.668 192.418 129.5 199.586 129.5 208.428C129.5 217.27 136.668 224.438 145.51 224.438Z" fill="#F9A566"/>
<path d="M352.75 212.488C346.61 209.348 332.22 204.488 331.48 215.768C331.186 220.248 333.336 223.448 337.93 225.368C346.31 228.858 354.63 230.948 356.57 239.028C357.39 242.454 357.46 245.754 356.78 248.928C354.91 257.608 347.97 260.818 339.69 261.188C335.57 261.368 331.573 261.118 327.7 260.438C323.906 259.771 322.366 257.554 323.08 253.788C323.32 252.494 323.876 251.448 324.75 250.648C324.859 250.549 324.998 250.489 325.146 250.476C325.294 250.463 325.442 250.499 325.57 250.578C331.656 254.284 337.683 255.568 343.65 254.428C350.53 253.118 350.41 244.128 346.62 239.958C346.093 239.371 344.543 238.388 341.97 237.008C335.65 233.618 328.12 232.908 324.81 225.908C323.756 223.674 323.276 221.114 323.37 218.228C323.616 210.234 327.443 205.178 334.85 203.058C339.29 201.798 346.43 202.038 351.24 203.048C355.93 204.028 356.84 208.878 353.91 212.268C353.769 212.427 353.579 212.536 353.369 212.575C353.159 212.615 352.941 212.584 352.75 212.488Z" fill="#84ADB7"/>
<path d="M646.658 260.229C644.264 260.969 642.711 260.299 641.998 258.219C641.97 258.141 641.927 258.069 641.87 258.009C641.814 257.949 641.746 257.901 641.67 257.869C641.595 257.837 641.514 257.821 641.433 257.823C641.351 257.825 641.271 257.844 641.198 257.879C628.708 263.939 612.738 262.899 609.588 246.629C608.348 240.195 608.131 233.269 608.938 225.849C610.258 213.739 615.608 203.489 629.198 202.389C633.138 202.069 643.738 201.789 644.428 206.849C644.635 208.395 644.158 210.202 642.998 212.269C642.922 212.402 642.798 212.501 642.651 212.546C642.504 212.591 642.345 212.577 642.208 212.509C638.015 210.435 634.735 209.225 632.368 208.879C622.778 207.489 618.908 213.999 617.938 222.679C617.351 227.952 617.345 233.599 617.918 239.619C618.231 242.845 618.881 245.689 619.868 248.149C622.898 255.659 631.108 255.909 637.988 253.459C638.162 253.396 638.314 253.283 638.423 253.133C638.531 252.983 638.593 252.804 638.598 252.619C638.731 246.945 638.598 242.612 638.198 239.619C638.071 238.672 637.438 238.042 636.298 237.729C636.125 237.683 635.968 237.593 635.843 237.468C635.718 237.343 635.63 237.188 635.588 237.019C635.414 236.352 635.371 235.605 635.458 234.779C635.505 234.322 635.72 233.899 636.061 233.591C636.403 233.283 636.847 233.111 637.308 233.109C639.375 233.102 641.605 233.079 643.998 233.039C645.951 233.005 646.915 233.902 646.888 235.729C646.801 242.022 646.908 249.935 647.208 259.469C647.211 259.638 647.159 259.803 647.06 259.94C646.961 260.078 646.82 260.179 646.658 260.229Z" fill="#84ADB7"/>
<path d="M385.451 207.758C385.378 207.767 385.308 207.792 385.247 207.832C385.185 207.872 385.133 207.926 385.095 207.989C385.056 208.052 385.032 208.124 385.025 208.198C385.017 208.272 385.026 208.348 385.051 208.418L394.911 235.258C394.934 235.33 394.979 235.392 395.04 235.436C395.101 235.48 395.175 235.503 395.25 235.502C395.325 235.501 395.398 235.475 395.457 235.43C395.517 235.384 395.56 235.32 395.581 235.248L404.361 208.378C404.388 208.294 404.394 208.206 404.38 208.119C404.366 208.032 404.332 207.95 404.281 207.879C404.229 207.808 404.161 207.75 404.083 207.71C404.005 207.67 403.919 207.649 403.831 207.648H401.801C401.68 207.648 401.561 207.624 401.449 207.578C401.337 207.532 401.236 207.464 401.15 207.379C401.065 207.293 400.997 207.192 400.951 207.08C400.905 206.969 400.881 206.849 400.881 206.728V204.308C400.881 204.148 400.913 203.989 400.974 203.841C401.035 203.693 401.125 203.559 401.238 203.445C401.352 203.332 401.486 203.242 401.634 203.181C401.782 203.12 401.941 203.088 402.101 203.088L414.991 203.098C415.143 203.099 415.291 203.151 415.409 203.245C415.527 203.34 415.609 203.471 415.641 203.618C415.848 204.591 415.894 205.641 415.781 206.768C415.763 206.941 415.696 207.105 415.587 207.24C415.479 207.375 415.335 207.475 415.171 207.528C414.778 207.661 414.158 207.701 413.311 207.648C413.111 207.636 412.912 207.685 412.742 207.788C412.572 207.892 412.439 208.046 412.361 208.228L398.601 241.238C398.456 241.588 398.384 241.966 398.391 242.348L398.621 255.278C398.624 255.43 398.687 255.575 398.797 255.682C398.908 255.788 399.056 255.848 399.211 255.848H403.121C403.392 255.848 403.654 255.951 403.854 256.138C404.055 256.326 404.178 256.583 404.201 256.858L404.331 258.778C404.346 258.987 404.318 259.196 404.248 259.394C404.179 259.591 404.069 259.772 403.927 259.925C403.784 260.078 403.611 260.2 403.419 260.283C403.227 260.366 403.02 260.409 402.811 260.408L385.771 260.398C385.483 260.399 385.206 260.291 384.996 260.095C384.786 259.9 384.659 259.633 384.641 259.348L384.501 257.238C384.49 257.063 384.515 256.888 384.574 256.724C384.633 256.559 384.724 256.408 384.843 256.281C384.962 256.153 385.106 256.052 385.266 255.982C385.425 255.913 385.597 255.878 385.771 255.878H389.391C389.585 255.878 389.77 255.801 389.907 255.664C390.044 255.527 390.121 255.342 390.121 255.148L390.131 242.588C390.131 242.298 390.07 242.012 389.951 241.748L375.371 208.268C375.291 208.081 375.157 207.922 374.987 207.81C374.816 207.698 374.616 207.639 374.411 207.638H372.721C372.621 207.638 372.522 207.618 372.43 207.58C372.338 207.542 372.254 207.486 372.184 207.416C372.113 207.345 372.057 207.261 372.019 207.169C371.981 207.077 371.961 206.978 371.961 206.878L371.971 204.118C371.971 203.842 372.079 203.578 372.273 203.383C372.466 203.188 372.728 203.078 373.001 203.078L387.471 203.088C387.619 203.089 387.763 203.139 387.88 203.232C387.996 203.325 388.077 203.454 388.111 203.598C388.391 204.771 388.421 205.888 388.201 206.948C388.172 207.09 388.099 207.22 387.991 207.319C387.884 207.418 387.747 207.48 387.601 207.498L385.451 207.758Z" fill="#84ADB7"/>
<path d="M466.411 247.289C466.436 247.345 466.481 247.392 466.536 247.42C466.592 247.449 466.655 247.459 466.715 247.447C466.775 247.435 466.829 247.403 466.866 247.356C466.904 247.309 466.923 247.25 466.921 247.189V208.749C466.921 208.446 466.801 208.156 466.587 207.942C466.373 207.729 466.083 207.609 465.781 207.609H463.591C463.429 207.608 463.273 207.552 463.147 207.45C463.022 207.348 462.935 207.207 462.901 207.049C462.621 205.702 462.601 204.705 462.841 204.059C462.944 203.772 463.132 203.524 463.381 203.349C463.63 203.174 463.927 203.079 464.231 203.079L476.981 203.059C477.135 203.059 477.287 203.089 477.429 203.148C477.571 203.206 477.7 203.293 477.808 203.401C477.917 203.51 478.003 203.639 478.062 203.781C478.121 203.923 478.151 204.075 478.151 204.229V206.359C478.151 206.693 478.018 207.013 477.782 207.25C477.546 207.486 477.225 207.619 476.891 207.619H474.421C474.248 207.619 474.081 207.687 473.958 207.808C473.834 207.93 473.764 208.095 473.761 208.269C473.474 227.549 473.398 244.162 473.531 258.109C473.544 259.735 472.921 260.615 471.661 260.749C469.628 260.969 467.538 260.915 465.391 260.589C465.129 260.551 464.879 260.454 464.659 260.303C464.438 260.152 464.255 259.952 464.121 259.719C455.741 244.985 448.821 231.179 443.361 218.299C443.342 218.261 443.312 218.231 443.275 218.212C443.238 218.194 443.195 218.188 443.154 218.196C443.113 218.204 443.076 218.225 443.048 218.256C443.021 218.288 443.004 218.327 443.001 218.369V255.139C443.001 255.33 443.077 255.513 443.212 255.648C443.347 255.783 443.53 255.859 443.721 255.859H446.101C446.342 255.859 446.574 255.956 446.744 256.128C446.915 256.301 447.011 256.535 447.011 256.779V259.139C447.011 259.307 446.978 259.473 446.914 259.628C446.85 259.784 446.757 259.925 446.639 260.044C446.521 260.163 446.381 260.257 446.227 260.321C446.073 260.385 445.908 260.419 445.741 260.419H432.841C432.541 260.419 432.254 260.3 432.042 260.088C431.83 259.876 431.711 259.588 431.711 259.289V257.119C431.711 256.787 431.843 256.469 432.077 256.235C432.311 256 432.629 255.869 432.961 255.869H435.621C435.804 255.869 435.979 255.796 436.109 255.666C436.238 255.537 436.311 255.362 436.311 255.179V208.259C436.311 208.094 436.245 207.936 436.126 207.82C436.008 207.704 435.848 207.639 435.681 207.639H433.331C433.082 207.639 432.842 207.541 432.666 207.366C432.49 207.192 432.391 206.955 432.391 206.709V204.389C432.391 204.041 432.53 203.708 432.778 203.462C433.025 203.217 433.361 203.079 433.711 203.079H444.751C444.94 203.078 445.125 203.132 445.286 203.233C445.447 203.333 445.577 203.477 445.661 203.649C456.241 225.329 461.061 234.559 466.411 247.289Z" fill="#84ADB7"/>
<path d="M499.551 207.628H497.281C496.973 207.628 496.678 207.507 496.461 207.291C496.243 207.076 496.121 206.783 496.121 206.478V204.448C496.121 204.085 496.265 203.736 496.522 203.479C496.779 203.222 497.128 203.078 497.491 203.078H529.391C529.895 203.079 530.384 203.25 530.778 203.564C531.172 203.879 531.448 204.317 531.561 204.808C532.008 206.768 531.761 208.975 530.821 211.428C530.756 211.592 530.63 211.724 530.47 211.797C530.309 211.869 530.127 211.877 529.961 211.818C523.434 209.411 516.571 208.455 509.371 208.948C509.198 208.958 509.035 209.034 508.916 209.161C508.797 209.287 508.731 209.454 508.731 209.628V226.768C508.731 226.909 508.787 227.043 508.886 227.143C508.986 227.242 509.121 227.298 509.261 227.298H526.411C526.743 227.298 527.061 227.43 527.295 227.664C527.529 227.899 527.661 228.217 527.661 228.548V231.488C527.661 231.849 527.518 232.195 527.263 232.45C527.008 232.705 526.662 232.848 526.301 232.848H509.331C509.252 232.848 509.174 232.863 509.102 232.893C509.029 232.923 508.963 232.966 508.907 233.021C508.851 233.076 508.807 233.141 508.777 233.212C508.747 233.284 508.731 233.361 508.731 233.438V254.288C508.731 254.414 508.78 254.534 508.868 254.624C508.956 254.714 509.076 254.766 509.201 254.768C518.114 254.995 525.008 254.171 529.881 252.298C530.197 252.178 530.536 252.137 530.871 252.177C531.206 252.218 531.527 252.339 531.804 252.531C532.082 252.723 532.308 252.98 532.465 253.279C532.621 253.578 532.702 253.911 532.701 254.248V257.228C532.701 258.074 532.366 258.886 531.77 259.484C531.173 260.082 530.365 260.418 529.521 260.418H496.891C496.695 260.418 496.507 260.34 496.368 260.201C496.229 260.063 496.151 259.874 496.151 259.678V256.838C496.151 256.591 496.249 256.355 496.423 256.181C496.598 256.006 496.834 255.908 497.081 255.908H499.531C499.749 255.908 499.957 255.822 500.111 255.668C500.265 255.514 500.351 255.306 500.351 255.088V208.428C500.351 208.216 500.267 208.012 500.117 207.862C499.967 207.712 499.763 207.628 499.551 207.628Z" fill="#84ADB7"/>
<path d="M576.41 233.809C579.29 236.015 581.307 238.439 582.46 241.079C582.973 242.245 584.49 245.795 587.01 251.729C588.17 254.462 589.83 255.855 591.99 255.909C592.16 255.915 592.323 255.979 592.45 256.091C592.578 256.202 592.662 256.353 592.69 256.519C593.58 261.649 590.49 261.139 586.23 261.209C582.497 261.262 580.14 259.649 579.16 256.369C577.6 251.139 576.22 244.599 572.94 239.149C572.696 238.727 572.365 238.365 571.97 238.089C569.61 236.389 566.71 235.965 563.27 236.819C563.136 236.85 563.017 236.926 562.932 237.035C562.847 237.144 562.8 237.279 562.8 237.419V255.159C562.8 255.347 562.876 255.527 563.011 255.661C563.146 255.794 563.329 255.869 563.52 255.869H567.44C567.569 255.869 567.696 255.894 567.815 255.943C567.934 255.992 568.042 256.065 568.133 256.156C568.224 256.247 568.296 256.355 568.345 256.474C568.395 256.592 568.42 256.72 568.42 256.849V259.199C568.42 259.522 568.291 259.832 568.063 260.061C567.834 260.29 567.523 260.419 567.2 260.419H550.76C550.45 260.419 550.152 260.295 549.933 260.076C549.713 259.857 549.59 259.559 549.59 259.249V257.059C549.59 256.746 549.714 256.445 549.935 256.224C550.157 256.003 550.457 255.879 550.77 255.879H553.82C554 255.879 554.173 255.807 554.301 255.679C554.428 255.552 554.5 255.379 554.5 255.199V208.199C554.5 208.047 554.44 207.902 554.333 207.796C554.226 207.689 554.081 207.629 553.93 207.629H550.96C550.668 207.629 550.388 207.512 550.182 207.303C549.976 207.095 549.86 206.813 549.86 206.519V204.749C549.859 204.343 550.012 203.951 550.289 203.654C550.566 203.357 550.945 203.177 551.35 203.149C552.703 203.049 558.147 203.025 567.68 203.079C577.22 203.139 586.15 205.129 586.92 216.549C587.46 224.522 583.977 230.105 576.47 233.299C576.423 233.32 576.382 233.353 576.352 233.395C576.321 233.437 576.302 233.485 576.296 233.537C576.29 233.588 576.297 233.64 576.317 233.688C576.337 233.735 576.369 233.777 576.41 233.809ZM562.73 209.929L562.81 230.489C562.81 230.566 562.84 230.639 562.895 230.694C562.949 230.748 563.023 230.779 563.1 230.779L568.07 230.759C570.695 230.748 573.209 229.74 575.058 227.956C576.907 226.173 577.94 223.76 577.93 221.249V219.049C577.925 217.805 577.664 216.574 577.161 215.427C576.659 214.28 575.925 213.239 575.002 212.364C574.079 211.488 572.985 210.795 571.782 210.324C570.579 209.853 569.29 209.613 567.99 209.619L563.02 209.639C562.943 209.639 562.869 209.669 562.815 209.724C562.76 209.778 562.73 209.852 562.73 209.929Z" fill="#84ADB7"/>
<path d="M676.49 207.75C676.417 207.759 676.347 207.784 676.286 207.824C676.224 207.864 676.172 207.918 676.134 207.981C676.095 208.045 676.072 208.116 676.064 208.19C676.056 208.265 676.065 208.34 676.09 208.41L685.97 235.26C685.993 235.332 686.038 235.394 686.099 235.438C686.16 235.482 686.234 235.505 686.309 235.504C686.384 235.503 686.457 235.478 686.516 235.432C686.576 235.386 686.619 235.323 686.64 235.25L695.41 208.36C695.437 208.277 695.443 208.188 695.429 208.101C695.415 208.015 695.381 207.932 695.33 207.861C695.278 207.79 695.21 207.732 695.132 207.692C695.054 207.652 694.968 207.631 694.88 207.63H692.85C692.606 207.63 692.372 207.533 692.199 207.361C692.027 207.188 691.93 206.954 691.93 206.71V204.29C691.93 204.13 691.962 203.971 692.023 203.823C692.084 203.675 692.174 203.541 692.287 203.428C692.401 203.314 692.535 203.224 692.683 203.163C692.831 203.102 692.99 203.07 693.15 203.07H706.05C706.202 203.071 706.35 203.123 706.468 203.217C706.586 203.312 706.668 203.444 706.7 203.59C706.907 204.564 706.953 205.614 706.84 206.74C706.822 206.913 706.755 207.077 706.646 207.212C706.538 207.347 706.394 207.447 706.23 207.5C705.837 207.634 705.217 207.674 704.37 207.62C704.169 207.609 703.969 207.659 703.799 207.765C703.629 207.87 703.496 208.026 703.42 208.21L689.67 241.24C689.525 241.59 689.453 241.968 689.46 242.35L689.69 255.29C689.693 255.442 689.756 255.587 689.866 255.694C689.977 255.801 690.125 255.86 690.28 255.86H694.2C694.472 255.86 694.733 255.963 694.934 256.151C695.134 256.338 695.257 256.595 695.28 256.87L695.41 258.79C695.425 258.999 695.397 259.209 695.327 259.406C695.258 259.603 695.148 259.784 695.006 259.937C694.863 260.09 694.69 260.212 694.498 260.295C694.306 260.378 694.099 260.421 693.89 260.42H676.84C676.552 260.421 676.275 260.313 676.065 260.118C675.855 259.922 675.728 259.655 675.71 259.37L675.57 257.25C675.559 257.076 675.584 256.9 675.643 256.736C675.702 256.571 675.793 256.42 675.912 256.293C676.031 256.165 676.175 256.064 676.335 255.995C676.494 255.925 676.666 255.89 676.84 255.89H680.46C680.654 255.89 680.839 255.813 680.976 255.677C681.113 255.54 681.19 255.354 681.19 255.16V242.59C681.19 242.3 681.129 242.014 681.01 241.75L666.41 208.26C666.33 208.074 666.196 207.915 666.026 207.803C665.855 207.691 665.655 207.631 665.45 207.63H663.76C663.558 207.63 663.365 207.55 663.223 207.408C663.08 207.265 663 207.072 663 206.87V204.11C663 203.834 663.109 203.57 663.302 203.375C663.495 203.18 663.757 203.07 664.03 203.07H678.51C678.659 203.071 678.802 203.122 678.919 203.214C679.035 203.307 679.116 203.436 679.15 203.58C679.43 204.754 679.46 205.874 679.24 206.94C679.211 207.083 679.138 207.212 679.03 207.311C678.923 207.41 678.786 207.473 678.64 207.49L676.49 207.75Z" fill="#84ADB7"/>
<path d="M195.841 268.049L183.971 274.709C183.888 274.757 183.793 274.779 183.697 274.771C183.602 274.763 183.511 274.726 183.437 274.665C183.363 274.604 183.309 274.522 183.283 274.43C183.257 274.338 183.26 274.24 183.291 274.149C184.525 270.516 185.658 266.782 186.691 262.949C191.485 245.242 192.141 227.189 188.661 208.789C194.281 227.516 196.675 247.269 195.841 268.049Z" fill="#9385B1"/>
<path d="M155.771 259.428C162.796 259.428 168.491 253.733 168.491 246.708C168.491 239.683 162.796 233.988 155.771 233.988C148.746 233.988 143.051 239.683 143.051 246.708C143.051 253.733 148.746 259.428 155.771 259.428Z" fill="#F9A566"/>
<path d="M147.741 296.049C153.744 296.049 158.611 291.182 158.611 285.179C158.611 279.175 153.744 274.309 147.741 274.309C141.738 274.309 136.871 279.175 136.871 285.179C136.871 291.182 141.738 296.049 147.741 296.049Z" fill="#F9A566"/>
<path d="M128.898 322.609C133.179 322.609 136.648 319.14 136.648 314.859C136.648 310.579 133.179 307.109 128.898 307.109C124.618 307.109 121.148 310.579 121.148 314.859C121.148 319.14 124.618 322.609 128.898 322.609Z" fill="#F9A566"/>
</svg>
