<svg width="1759" height="425" viewBox="0 0 1759 425" fill="none" xmlns="http://www.w3.org/2000/svg">
<path d="M524.65 286.938C500.177 282.567 480.609 301.1 466.67 321.686C444.044 355.093 420.257 388.423 393.23 395.357C324 413.12 286.328 352.136 286.328 352.136C286.328 352.136 308.467 420.598 379.662 414.341C457.208 407.529 499.761 274.548 572.656 325.913C572.656 325.913 559.913 293.237 524.65 286.938Z" fill="url(#paint0_radial_218_313)"/>
<path d="M373.942 244.633C369.073 352.526 286.328 344.012 286.328 344.012C286.328 344.012 362.275 376.991 414.45 318.094C460.25 266.394 397.775 103.959 500.132 86.0035C500.132 86.0035 383.406 35.0096 373.942 244.633Z" fill="url(#paint1_radial_218_313)"/>
<path d="M455.722 212.131C441.626 257.828 444.341 308.103 416.037 332.045C359.554 379.823 286.328 348.251 286.328 348.251C286.328 348.251 340.94 397.658 416.293 362.279C490.647 327.368 465.13 153.122 568.128 166.952C568.128 166.952 487.29 109.795 455.722 212.131Z" fill="url(#paint2_radial_218_313)"/>
<path d="M359.967 231.748C344.656 72.1468 425.899 48.3456 438.224 43.2065C438.224 43.2065 313.141 19.1041 349.971 225.684C368.924 332.011 286.328 341.887 286.328 341.887C286.328 341.887 370.279 339.257 359.967 231.748Z" fill="url(#paint3_radial_218_313)"/>
<path d="M335.237 218.76C292.163 58.3637 361.253 25.6121 372.222 18C372.222 18 244.868 20.6618 324.193 214.93C365.022 314.918 286.328 341.89 286.328 341.89C286.328 341.89 363.246 323.066 335.237 218.76Z" fill="url(#paint4_radial_218_313)"/>
<path d="M48.0055 286.938C72.4791 282.567 92.0469 301.1 105.986 321.686C128.612 355.093 152.398 388.423 179.426 395.357C248.655 413.12 286.328 352.136 286.328 352.136C286.328 352.136 264.189 420.598 192.993 414.341C115.447 407.529 72.8948 274.548 0 325.913C0 325.913 12.7426 293.237 48.0055 286.938Z" fill="url(#paint5_radial_218_313)"/>
<path d="M198.706 244.633C203.575 352.526 286.32 344.012 286.32 344.012C286.32 344.012 210.373 376.991 158.198 318.094C112.398 266.394 174.872 103.959 72.5156 86.0035C72.5156 86.0035 189.246 35.0096 198.706 244.633Z" fill="url(#paint6_radial_218_313)"/>
<path d="M116.933 212.131C131.029 257.828 128.314 308.103 156.618 332.045C213.101 379.823 286.327 348.251 286.327 348.251C286.327 348.251 231.715 397.658 156.362 362.279C82.0076 327.368 107.525 153.122 4.52734 166.952C4.52734 166.952 85.365 109.795 116.933 212.131Z" fill="url(#paint7_radial_218_313)"/>
<path d="M212.684 231.748C227.996 72.1468 146.753 48.3456 134.426 43.2065C134.426 43.2065 259.509 19.1041 222.678 225.684C203.728 332.011 286.324 341.887 286.324 341.887C286.324 341.887 202.37 339.257 212.684 231.748Z" fill="url(#paint8_radial_218_313)"/>
<path d="M237.423 218.76C280.497 58.3637 211.407 25.6121 200.438 18C200.438 18 327.792 20.6618 248.468 214.93C207.64 314.918 286.332 341.89 286.332 341.89C286.332 341.89 209.413 323.066 237.423 218.76Z" fill="url(#paint9_radial_218_313)"/>
<path d="M682.48 193.8C669.28 193.8 658.24 191.04 649.36 185.52C640.6 180 634 172.32 629.56 162.48C625.24 152.52 623.08 140.88 623.08 127.56C623.08 114.6 625.36 103.2 629.92 93.36C634.48 83.4 641.26 75.66 650.26 70.14C659.26 64.5 670.36 61.68 683.56 61.68C692.32 61.68 699.58 62.58 705.34 64.38C711.22 66.18 715.6 68.64 718.48 71.76C721.36 74.88 722.8 78.36 722.8 82.2C722.8 86.52 721 90.06 717.4 92.82C713.92 95.46 709.06 96.78 702.82 96.78C702.82 92.94 702.16 89.16 700.84 85.44C699.64 81.72 697.54 78.66 694.54 76.26C691.66 73.74 687.7 72.48 682.66 72.48C674.5 72.48 667.96 74.64 663.04 78.96C658.24 83.28 654.76 89.52 652.6 97.68C650.44 105.84 649.36 115.8 649.36 127.56C649.36 138.72 650.56 148.26 652.96 156.18C655.48 164.1 659.44 170.1 664.84 174.18C670.24 178.26 677.32 180.3 686.08 180.3C691.96 180.3 697 179.52 701.2 177.96C705.4 176.28 708.94 174.18 711.82 171.66C714.7 169.14 717.16 166.56 719.2 163.92C720.16 164.64 720.94 165.66 721.54 166.98C722.14 168.3 722.44 169.8 722.44 171.48C722.44 173.88 721.72 176.4 720.28 179.04C718.84 181.56 716.56 183.96 713.44 186.24C710.32 188.52 706.18 190.38 701.02 191.82C695.98 193.14 689.8 193.8 682.48 193.8ZM729.539 192V183.18H730.439C733.199 183.18 735.599 182.88 737.639 182.28C739.799 181.68 741.539 180.48 742.859 178.68C744.179 176.88 744.839 174.18 744.839 170.58L744.659 75.36C744.659 72 743.939 69.54 742.499 67.98C741.059 66.3 739.319 65.22 737.279 64.74C735.239 64.26 733.199 64.02 731.159 64.02H729.179V55.2H768.059V88.68C768.059 91.44 767.939 94.38 767.699 97.5C767.579 100.5 767.399 103.14 767.159 105.42C767.039 107.58 766.979 108.66 766.979 108.66H768.239C770.399 104.46 772.859 101.28 775.619 99.12C778.379 96.84 781.379 95.34 784.619 94.62C787.979 93.78 791.579 93.36 795.419 93.36C805.019 93.36 812.459 96.12 817.739 101.64C823.139 107.16 825.839 116.04 825.839 128.28V170.4C825.839 174.12 826.319 176.88 827.279 178.68C828.359 180.48 829.859 181.68 831.779 182.28C833.699 182.88 835.979 183.18 838.619 183.18H839.159V192H802.439V131.7C802.439 123.9 801.239 117.9 798.839 113.7C796.439 109.38 792.179 107.22 786.059 107.22C781.739 107.22 778.259 108.48 775.619 111C772.979 113.52 771.059 116.94 769.859 121.26C768.659 125.58 768.059 130.38 768.059 135.66L768.239 171.3C768.239 174.78 768.779 177.36 769.859 179.04C771.059 180.72 772.679 181.86 774.719 182.46C776.759 182.94 779.099 183.18 781.739 183.18H782.279V192H729.539ZM894.108 193.8C880.308 193.8 869.388 189.66 861.348 181.38C853.428 173.1 849.468 160.44 849.468 143.4C849.468 126.6 853.248 114.06 860.808 105.78C868.488 97.5 879.768 93.36 894.648 93.36C908.568 93.36 919.488 97.5 927.408 105.78C935.328 114.06 939.288 126.6 939.288 143.4C939.288 160.44 935.448 173.1 927.768 181.38C920.208 189.66 908.988 193.8 894.108 193.8ZM894.468 183.18C899.628 183.18 903.708 181.74 906.708 178.86C909.828 175.86 912.048 171.36 913.368 165.36C914.688 159.36 915.348 152.04 915.348 143.4C915.348 134.64 914.628 127.38 913.188 121.62C911.868 115.86 909.648 111.54 906.528 108.66C903.528 105.66 899.448 104.16 894.288 104.16C889.248 104.16 885.168 105.66 882.048 108.66C878.928 111.54 876.708 115.86 875.388 121.62C874.068 127.38 873.408 134.64 873.408 143.4C873.408 152.16 874.068 159.48 875.388 165.36C876.828 171.24 879.048 175.68 882.048 178.68C885.168 181.68 889.308 183.18 894.468 183.18ZM947.682 192V183.18H949.662C951.822 183.18 953.922 182.94 955.962 182.46C958.002 181.86 959.682 180.72 961.002 179.04C962.442 177.24 963.162 174.6 963.162 171.12V75.36C963.162 72 962.442 69.54 961.002 67.98C959.562 66.3 957.822 65.22 955.782 64.74C953.742 64.26 951.702 64.02 949.662 64.02H947.682V55.2H986.562V124.68C986.562 126.24 986.502 128.16 986.382 130.44C986.262 132.72 986.142 135 986.022 137.28C986.022 139.44 985.962 141.24 985.842 142.68C985.722 144.12 985.662 144.84 985.662 144.84L1008.34 119.82C1010.14 117.78 1011.52 116.1 1012.48 114.78C1013.44 113.34 1014.1 112.14 1014.46 111.18C1014.94 110.1 1015.18 109.14 1015.18 108.3C1015.18 106.74 1014.4 105.66 1012.84 105.06C1011.28 104.34 1009 103.98 1006 103.98V95.52H1049.2V103.98C1047.16 103.98 1045.12 104.34 1043.08 105.06C1041.04 105.66 1039 106.62 1036.96 107.94C1034.92 109.26 1032.82 110.94 1030.66 112.98C1028.5 114.9 1026.22 117.18 1023.82 119.82L1011.94 133.32L1035.88 168.96C1038.04 172.08 1040.14 174.72 1042.18 176.88C1044.34 178.92 1046.5 180.48 1048.66 181.56C1050.82 182.64 1052.98 183.18 1055.14 183.18H1055.68V192H1053.16C1047.16 192 1042.06 191.88 1037.86 191.64C1033.78 191.28 1030.3 190.56 1027.42 189.48C1024.66 188.4 1022.14 186.78 1019.86 184.62C1017.58 182.34 1015.24 179.28 1012.84 175.44L996.102 149.16L986.562 156.18V171.3C986.562 174.78 987.222 177.36 988.542 179.04C989.982 180.72 991.722 181.86 993.762 182.46C995.922 182.94 998.022 183.18 1000.06 183.18H1001.68V192H947.682ZM1094.14 193.8C1086.34 193.8 1079.68 192.06 1074.16 188.58C1068.76 185.1 1064.62 179.7 1061.74 172.38C1058.86 164.94 1057.42 155.46 1057.42 143.94C1057.42 132.3 1058.8 122.76 1061.56 115.32C1064.44 107.88 1068.58 102.42 1073.98 98.94C1079.5 95.34 1086.16 93.54 1093.96 93.54C1100.8 93.54 1106.38 94.92 1110.7 97.68C1115.02 100.44 1118.5 104.04 1121.14 108.48H1122.22C1121.98 106.32 1121.74 103.98 1121.5 101.46C1121.38 98.94 1121.26 96.42 1121.14 93.9C1121.02 91.38 1120.96 89.16 1120.96 87.24V75.54C1120.96 72.06 1120.3 69.54 1118.98 67.98C1117.66 66.3 1115.86 65.22 1113.58 64.74C1111.42 64.26 1109.02 64.02 1106.38 64.02H1104.94V55.2H1144.36V170.76C1144.36 174.36 1145.02 177.06 1146.34 178.86C1147.78 180.66 1149.58 181.86 1151.74 182.46C1154.02 182.94 1156.54 183.18 1159.3 183.18H1160.2V192H1127.08L1123.12 177.06H1121.86C1119.22 182.22 1115.74 186.3 1111.42 189.3C1107.1 192.3 1101.34 193.8 1094.14 193.8ZM1100.26 181.02C1108.18 181.02 1113.58 177.96 1116.46 171.84C1119.46 165.72 1120.96 156.36 1120.96 143.76C1120.96 135.6 1120.3 128.76 1118.98 123.24C1117.78 117.6 1115.68 113.34 1112.68 110.46C1109.68 107.58 1105.48 106.14 1100.08 106.14C1095.64 106.14 1092.04 107.64 1089.28 110.64C1086.52 113.52 1084.48 117.78 1083.16 123.42C1081.96 128.94 1081.36 135.78 1081.36 143.94C1081.36 152.22 1081.96 159.12 1083.16 164.64C1084.48 170.04 1086.52 174.12 1089.28 176.88C1092.04 179.64 1095.7 181.02 1100.26 181.02ZM1213.25 193.8C1198.85 193.8 1187.75 189.48 1179.95 180.84C1172.27 172.08 1168.43 159.9 1168.43 144.3C1168.43 127.5 1172.15 114.84 1179.59 106.32C1187.15 97.68 1197.71 93.36 1211.27 93.36C1223.87 93.36 1233.71 97.02 1240.79 104.34C1247.99 111.54 1251.59 122.28 1251.59 136.56V145.38H1192.19C1192.43 153.78 1193.51 160.62 1195.43 165.9C1197.47 171.06 1200.29 174.9 1203.89 177.42C1207.61 179.94 1212.11 181.2 1217.39 181.2C1221.59 181.2 1225.31 180.6 1228.55 179.4C1231.91 178.08 1234.79 176.4 1237.19 174.36C1239.59 172.2 1241.51 169.86 1242.95 167.34C1244.27 167.94 1245.29 168.96 1246.01 170.4C1246.85 171.72 1247.27 173.28 1247.27 175.08C1247.27 178.08 1246.01 181.02 1243.49 183.9C1241.09 186.78 1237.37 189.18 1232.33 191.1C1227.41 192.9 1221.05 193.8 1213.25 193.8ZM1227.65 134.58C1227.65 128.46 1227.11 123.12 1226.03 118.56C1224.95 114 1223.21 110.52 1220.81 108.12C1218.53 105.6 1215.41 104.34 1211.45 104.34C1207.61 104.34 1204.31 105.48 1201.55 107.76C1198.91 110.04 1196.81 113.46 1195.25 118.02C1193.81 122.46 1192.91 127.98 1192.55 134.58H1227.65ZM1309.85 193.8C1295.45 193.8 1284.35 189.48 1276.55 180.84C1268.87 172.08 1265.03 159.9 1265.03 144.3C1265.03 127.5 1268.75 114.84 1276.19 106.32C1283.75 97.68 1294.31 93.36 1307.87 93.36C1320.47 93.36 1330.31 97.02 1337.39 104.34C1344.59 111.54 1348.19 122.28 1348.19 136.56V145.38H1288.79C1289.03 153.78 1290.11 160.62 1292.03 165.9C1294.07 171.06 1296.89 174.9 1300.49 177.42C1304.21 179.94 1308.71 181.2 1313.99 181.2C1318.19 181.2 1321.91 180.6 1325.15 179.4C1328.51 178.08 1331.39 176.4 1333.79 174.36C1336.19 172.2 1338.11 169.86 1339.55 167.34C1340.87 167.94 1341.89 168.96 1342.61 170.4C1343.45 171.72 1343.87 173.28 1343.87 175.08C1343.87 178.08 1342.61 181.02 1340.09 183.9C1337.69 186.78 1333.97 189.18 1328.93 191.1C1324.01 192.9 1317.65 193.8 1309.85 193.8ZM1324.25 134.58C1324.25 128.46 1323.71 123.12 1322.63 118.56C1321.55 114 1319.81 110.52 1317.41 108.12C1315.13 105.6 1312.01 104.34 1308.05 104.34C1304.21 104.34 1300.91 105.48 1298.15 107.76C1295.51 110.04 1293.41 113.46 1291.85 118.02C1290.41 122.46 1289.51 127.98 1289.15 134.58H1324.25Z" fill="white"/>
<path d="M640.36 372V363.18H646.66C648.82 363.18 650.74 362.94 652.42 362.46C654.1 361.86 655.42 360.72 656.38 359.04C657.46 357.36 658 354.78 658 351.3V253.74H642.52C638.92 253.74 636.1 254.34 634.06 255.54C632.02 256.62 630.52 258.18 629.56 260.22C628.6 262.26 627.94 264.6 627.58 267.24L626.5 277.14H615.52L616.42 243.48H724.42L725.32 277.14H714.34L713.08 267.24C712.84 264.6 712.18 262.26 711.1 260.22C710.14 258.18 708.64 256.62 706.6 255.54C704.56 254.34 701.74 253.74 698.14 253.74H682.66V351.12C682.66 354.6 683.14 357.24 684.1 359.04C685.06 360.72 686.44 361.86 688.24 362.46C690.04 362.94 691.96 363.18 694 363.18H700.3V372H640.36ZM727.605 372V363.18H728.505C731.265 363.18 733.665 362.88 735.705 362.28C737.865 361.68 739.605 360.48 740.925 358.68C742.245 356.88 742.905 354.18 742.905 350.58L742.725 255.36C742.725 252 742.005 249.54 740.565 247.98C739.125 246.3 737.385 245.22 735.345 244.74C733.305 244.26 731.265 244.02 729.225 244.02H727.245V235.2H766.125V268.68C766.125 271.44 766.005 274.38 765.765 277.5C765.645 280.5 765.465 283.14 765.225 285.42C765.105 287.58 765.045 288.66 765.045 288.66H766.305C768.465 284.46 770.925 281.28 773.685 279.12C776.445 276.84 779.445 275.34 782.685 274.62C786.045 273.78 789.645 273.36 793.485 273.36C803.085 273.36 810.525 276.12 815.805 281.64C821.205 287.16 823.905 296.04 823.905 308.28V350.4C823.905 354.12 824.385 356.88 825.345 358.68C826.425 360.48 827.925 361.68 829.845 362.28C831.765 362.88 834.045 363.18 836.685 363.18H837.225V372H800.505V311.7C800.505 303.9 799.305 297.9 796.905 293.7C794.505 289.38 790.245 287.22 784.125 287.22C779.805 287.22 776.325 288.48 773.685 291C771.045 293.52 769.125 296.94 767.925 301.26C766.725 305.58 766.125 310.38 766.125 315.66L766.305 351.3C766.305 354.78 766.845 357.36 767.925 359.04C769.125 360.72 770.745 361.86 772.785 362.46C774.825 362.94 777.165 363.18 779.805 363.18H780.345V372H727.605ZM875.074 373.8C869.794 373.8 864.994 372.78 860.674 370.74C856.474 368.58 853.114 365.34 850.594 361.02C848.194 356.7 846.994 351.24 846.994 344.64C846.994 335.04 850.354 327.9 857.074 323.22C863.794 318.54 873.934 315.96 887.494 315.48L902.434 314.94V304.68C902.434 300.6 902.134 297 901.534 293.88C900.934 290.64 899.674 288.12 897.754 286.32C895.954 284.52 893.074 283.62 889.114 283.62C885.514 283.62 882.694 284.46 880.654 286.14C878.614 287.82 877.234 290.16 876.514 293.16C875.794 296.04 875.434 299.34 875.434 303.06C868.474 303.06 863.254 302.22 859.774 300.54C856.294 298.74 854.554 295.68 854.554 291.36C854.554 287.04 856.114 283.56 859.234 280.92C862.474 278.28 866.794 276.36 872.194 275.16C877.594 273.96 883.474 273.36 889.834 273.36C901.834 273.36 910.834 275.7 916.834 280.38C922.834 284.94 925.834 292.86 925.834 304.14V350.4C925.834 353.64 926.134 356.22 926.734 358.14C927.454 359.94 928.654 361.26 930.334 362.1C932.014 362.82 934.174 363.18 936.814 363.18H937.354V372H907.474L903.874 358.5H902.434C899.794 361.74 897.274 364.5 894.874 366.78C892.594 369.06 889.894 370.8 886.774 372C883.774 373.2 879.874 373.8 875.074 373.8ZM882.814 361.38C886.894 361.38 890.374 360.42 893.254 358.5C896.134 356.58 898.354 353.82 899.914 350.22C901.594 346.62 902.434 342.42 902.434 337.62V323.76L893.074 324.3C887.434 324.54 882.994 325.5 879.754 327.18C876.634 328.86 874.354 331.2 872.914 334.2C871.594 337.2 870.934 340.92 870.934 345.36C870.934 348.96 871.354 351.96 872.194 354.36C873.034 356.64 874.354 358.38 876.154 359.58C877.954 360.78 880.174 361.38 882.814 361.38ZM943.647 372V363.18H945.987C948.027 363.18 950.067 362.94 952.107 362.46C954.267 361.86 956.007 360.72 957.327 359.04C958.767 357.36 959.487 354.84 959.487 351.48V295.68C959.487 292.32 958.767 289.86 957.327 288.3C955.887 286.62 954.147 285.54 952.107 285.06C950.067 284.58 948.027 284.34 945.987 284.34H944.367V275.52H982.887V351.12C982.887 354.6 983.547 357.24 984.867 359.04C986.187 360.72 987.927 361.86 990.087 362.46C992.247 362.94 994.347 363.18 996.387 363.18H998.547V372H943.647ZM970.287 258.6C966.567 258.6 963.387 257.64 960.747 255.72C958.227 253.8 956.967 250.68 956.967 246.36C956.967 241.92 958.227 238.8 960.747 237C963.387 235.08 966.627 234.12 970.467 234.12C974.067 234.12 977.187 235.08 979.827 237C982.467 238.8 983.787 241.92 983.787 246.36C983.787 250.68 982.467 253.8 979.827 255.72C977.187 257.64 974.007 258.6 970.287 258.6ZM1068.32 372V363.18H1074.62C1076.78 363.18 1078.7 362.94 1080.38 362.46C1082.06 361.86 1083.38 360.72 1084.34 359.04C1085.42 357.36 1085.96 354.78 1085.96 351.3V253.74H1070.48C1066.88 253.74 1064.06 254.34 1062.02 255.54C1059.98 256.62 1058.48 258.18 1057.52 260.22C1056.56 262.26 1055.9 264.6 1055.54 267.24L1054.46 277.14H1043.48L1044.38 243.48H1152.38L1153.28 277.14H1142.3L1141.04 267.24C1140.8 264.6 1140.14 262.26 1139.06 260.22C1138.1 258.18 1136.6 256.62 1134.56 255.54C1132.52 254.34 1129.7 253.74 1126.1 253.74H1110.62V351.12C1110.62 354.6 1111.1 357.24 1112.06 359.04C1113.02 360.72 1114.4 361.86 1116.2 362.46C1118 362.94 1119.92 363.18 1121.96 363.18H1128.26V372H1068.32ZM1155.56 372V363.18H1156.46C1159.22 363.18 1161.62 362.88 1163.66 362.28C1165.82 361.68 1167.56 360.48 1168.88 358.68C1170.2 356.88 1170.86 354.18 1170.86 350.58L1170.68 255.36C1170.68 252 1169.96 249.54 1168.52 247.98C1167.08 246.3 1165.34 245.22 1163.3 244.74C1161.26 244.26 1159.22 244.02 1157.18 244.02H1155.2V235.2H1194.08V268.68C1194.08 271.44 1193.96 274.38 1193.72 277.5C1193.6 280.5 1193.42 283.14 1193.18 285.42C1193.06 287.58 1193 288.66 1193 288.66H1194.26C1196.42 284.46 1198.88 281.28 1201.64 279.12C1204.4 276.84 1207.4 275.34 1210.64 274.62C1214 273.78 1217.6 273.36 1221.44 273.36C1231.04 273.36 1238.48 276.12 1243.76 281.64C1249.16 287.16 1251.86 296.04 1251.86 308.28V350.4C1251.86 354.12 1252.34 356.88 1253.3 358.68C1254.38 360.48 1255.88 361.68 1257.8 362.28C1259.72 362.88 1262 363.18 1264.64 363.18H1265.18V372H1228.46V311.7C1228.46 303.9 1227.26 297.9 1224.86 293.7C1222.46 289.38 1218.2 287.22 1212.08 287.22C1207.76 287.22 1204.28 288.48 1201.64 291C1199 293.52 1197.08 296.94 1195.88 301.26C1194.68 305.58 1194.08 310.38 1194.08 315.66L1194.26 351.3C1194.26 354.78 1194.8 357.36 1195.88 359.04C1197.08 360.72 1198.7 361.86 1200.74 362.46C1202.78 362.94 1205.12 363.18 1207.76 363.18H1208.3V372H1155.56ZM1320.31 373.8C1305.91 373.8 1294.81 369.48 1287.01 360.84C1279.33 352.08 1275.49 339.9 1275.49 324.3C1275.49 307.5 1279.21 294.84 1286.65 286.32C1294.21 277.68 1304.77 273.36 1318.33 273.36C1330.93 273.36 1340.77 277.02 1347.85 284.34C1355.05 291.54 1358.65 302.28 1358.65 316.56V325.38H1299.25C1299.49 333.78 1300.57 340.62 1302.49 345.9C1304.53 351.06 1307.35 354.9 1310.95 357.42C1314.67 359.94 1319.17 361.2 1324.45 361.2C1328.65 361.2 1332.37 360.6 1335.61 359.4C1338.97 358.08 1341.85 356.4 1344.25 354.36C1346.65 352.2 1348.57 349.86 1350.01 347.34C1351.33 347.94 1352.35 348.96 1353.07 350.4C1353.91 351.72 1354.33 353.28 1354.33 355.08C1354.33 358.08 1353.07 361.02 1350.55 363.9C1348.15 366.78 1344.43 369.18 1339.39 371.1C1334.47 372.9 1328.11 373.8 1320.31 373.8ZM1334.71 314.58C1334.71 308.46 1334.17 303.12 1333.09 298.56C1332.01 294 1330.27 290.52 1327.87 288.12C1325.59 285.6 1322.47 284.34 1318.51 284.34C1314.67 284.34 1311.37 285.48 1308.61 287.76C1305.97 290.04 1303.87 293.46 1302.31 298.02C1300.87 302.46 1299.97 307.98 1299.61 314.58H1334.71ZM1367.59 372V363.18H1368.13C1370.89 363.18 1373.29 362.88 1375.33 362.28C1377.49 361.68 1379.17 360.48 1380.37 358.68C1381.69 356.76 1382.35 353.94 1382.35 350.22V296.58C1382.35 292.98 1381.75 290.34 1380.55 288.66C1379.35 286.86 1377.73 285.72 1375.69 285.24C1373.65 284.64 1371.31 284.34 1368.67 284.34H1368.13V275.52H1401.25L1404.67 291H1405.57C1407.13 287.4 1408.87 284.28 1410.79 281.64C1412.83 279 1415.41 277.02 1418.53 275.7C1421.65 274.26 1425.73 273.54 1430.77 273.54C1437.61 273.54 1442.65 274.74 1445.89 277.14C1449.25 279.54 1450.93 283.02 1450.93 287.58C1450.93 292.38 1449.19 296.22 1445.71 299.1C1442.23 301.86 1437.13 303.24 1430.41 303.24C1430.41 299.88 1430.11 297.18 1429.51 295.14C1429.03 292.98 1428.13 291.36 1426.81 290.28C1425.49 289.2 1423.69 288.66 1421.41 288.66C1418.17 288.66 1415.53 289.86 1413.49 292.26C1411.45 294.54 1409.83 297.42 1408.63 300.9C1407.55 304.38 1406.77 307.98 1406.29 311.7C1405.93 315.42 1405.75 318.54 1405.75 321.06V351.12C1405.75 354.6 1406.35 357.24 1407.55 359.04C1408.75 360.72 1410.37 361.86 1412.41 362.46C1414.45 362.94 1416.67 363.18 1419.07 363.18H1424.65V372H1367.59ZM1483.04 373.8C1477.76 373.8 1472.96 372.78 1468.64 370.74C1464.44 368.58 1461.08 365.34 1458.56 361.02C1456.16 356.7 1454.96 351.24 1454.96 344.64C1454.96 335.04 1458.32 327.9 1465.04 323.22C1471.76 318.54 1481.9 315.96 1495.46 315.48L1510.4 314.94V304.68C1510.4 300.6 1510.1 297 1509.5 293.88C1508.9 290.64 1507.64 288.12 1505.72 286.32C1503.92 284.52 1501.04 283.62 1497.08 283.62C1493.48 283.62 1490.66 284.46 1488.62 286.14C1486.58 287.82 1485.2 290.16 1484.48 293.16C1483.76 296.04 1483.4 299.34 1483.4 303.06C1476.44 303.06 1471.22 302.22 1467.74 300.54C1464.26 298.74 1462.52 295.68 1462.52 291.36C1462.52 287.04 1464.08 283.56 1467.2 280.92C1470.44 278.28 1474.76 276.36 1480.16 275.16C1485.56 273.96 1491.44 273.36 1497.8 273.36C1509.8 273.36 1518.8 275.7 1524.8 280.38C1530.8 284.94 1533.8 292.86 1533.8 304.14V350.4C1533.8 353.64 1534.1 356.22 1534.7 358.14C1535.42 359.94 1536.62 361.26 1538.3 362.1C1539.98 362.82 1542.14 363.18 1544.78 363.18H1545.32V372H1515.44L1511.84 358.5H1510.4C1507.76 361.74 1505.24 364.5 1502.84 366.78C1500.56 369.06 1497.86 370.8 1494.74 372C1491.74 373.2 1487.84 373.8 1483.04 373.8ZM1490.78 361.38C1494.86 361.38 1498.34 360.42 1501.22 358.5C1504.1 356.58 1506.32 353.82 1507.88 350.22C1509.56 346.62 1510.4 342.42 1510.4 337.62V323.76L1501.04 324.3C1495.4 324.54 1490.96 325.5 1487.72 327.18C1484.6 328.86 1482.32 331.2 1480.88 334.2C1479.56 337.2 1478.9 340.92 1478.9 345.36C1478.9 348.96 1479.32 351.96 1480.16 354.36C1481 356.64 1482.32 358.38 1484.12 359.58C1485.92 360.78 1488.14 361.38 1490.78 361.38ZM1550.89 415.2V406.38H1552.69C1554.85 406.38 1556.95 406.08 1558.99 405.48C1561.15 405 1562.89 403.86 1564.21 402.06C1565.65 400.38 1566.37 397.8 1566.37 394.32V296.76C1566.37 293.04 1565.77 290.34 1564.57 288.66C1563.37 286.86 1561.75 285.72 1559.71 285.24C1557.79 284.64 1555.63 284.34 1553.23 284.34H1551.61V275.52H1585.45L1588.15 290.46H1588.87C1591.51 285.42 1594.99 281.4 1599.31 278.4C1603.75 275.28 1609.45 273.72 1616.41 273.72C1628.29 273.72 1637.35 277.74 1643.59 285.78C1649.95 293.82 1653.13 306.54 1653.13 323.94C1653.13 341.34 1650.01 354.06 1643.77 362.1C1637.53 370.02 1628.53 373.98 1616.77 373.98C1609.93 373.98 1604.35 372.66 1600.03 370.02C1595.71 367.26 1592.23 363.6 1589.59 359.04H1588.51C1588.75 360.96 1588.93 363.3 1589.05 366.06C1589.29 368.82 1589.47 371.46 1589.59 373.98C1589.71 376.5 1589.77 378.6 1589.77 380.28V394.5C1589.77 397.98 1590.43 400.56 1591.75 402.24C1593.19 403.92 1594.93 405 1596.97 405.48C1599.13 406.08 1601.23 406.38 1603.27 406.38H1605.97V415.2H1550.89ZM1610.47 361.38C1615.03 361.38 1618.69 360 1621.45 357.24C1624.21 354.36 1626.19 350.16 1627.39 344.64C1628.71 339.12 1629.37 332.22 1629.37 323.94C1629.37 315.78 1628.71 308.94 1627.39 303.42C1626.19 297.78 1624.21 293.58 1621.45 290.82C1618.69 287.94 1615.03 286.5 1610.47 286.5C1605.19 286.5 1600.99 287.88 1597.87 290.64C1594.87 293.4 1592.77 297.6 1591.57 303.24C1590.37 308.88 1589.77 315.78 1589.77 323.94C1589.77 332.22 1590.37 339.18 1591.57 344.82C1592.77 350.34 1594.87 354.48 1597.87 357.24C1600.99 360 1605.19 361.38 1610.47 361.38ZM1660.56 405.48C1666.8 405.48 1672.14 404.64 1676.58 402.96C1681.02 401.4 1684.74 399.12 1687.74 396.12C1690.86 393.24 1693.44 389.76 1695.48 385.68C1697.52 381.6 1699.26 377.16 1700.7 372.36L1667.94 293.34C1666.98 291.06 1665.9 289.32 1664.7 288.12C1663.62 286.92 1662.36 286.14 1660.92 285.78C1659.48 285.3 1657.8 285.06 1655.88 285.06H1655.34V275.52H1703.4V284.34H1702.86C1699.5 284.34 1696.86 284.88 1694.94 285.96C1693.02 287.04 1692.06 288.96 1692.06 291.72C1692.06 292.68 1692.24 293.82 1692.6 295.14C1692.96 296.34 1693.38 297.48 1693.86 298.56L1706.46 331.14C1707.3 333.42 1708.08 335.58 1708.8 337.62C1709.52 339.66 1710.12 341.58 1710.6 343.38C1711.2 345.18 1711.68 346.92 1712.04 348.6C1712.4 350.16 1712.7 351.6 1712.94 352.92C1713.42 350.04 1714.2 346.92 1715.28 343.56C1716.48 340.2 1717.44 337.62 1718.16 335.82L1730.04 300.54C1730.52 299.22 1730.94 297.78 1731.3 296.22C1731.66 294.54 1731.84 293.16 1731.84 292.08C1731.84 289.32 1730.76 287.34 1728.6 286.14C1726.56 284.94 1723.56 284.34 1719.6 284.34H1718.88V275.52H1758.3V284.34H1757.58C1755.42 284.34 1753.5 284.76 1751.82 285.6C1750.26 286.32 1748.88 287.7 1747.68 289.74C1746.48 291.66 1745.22 294.36 1743.9 297.84L1716.72 372.36C1713.6 381.12 1710.6 388.26 1707.72 393.78C1704.84 399.3 1701.54 403.62 1697.82 406.74C1694.22 409.86 1689.66 412.02 1684.14 413.22C1678.62 414.54 1671.6 415.2 1663.08 415.2H1660.56V405.48Z" fill="white"/>
<defs>
<radialGradient id="paint0_radial_218_313" cx="0" cy="0" r="1" gradientUnits="userSpaceOnUse" gradientTransform="translate(533.418 236.522) scale(250.568 250.568)">
<stop stop-color="#5CA099"/>
<stop offset="1" stop-color="#5CA099"/>
</radialGradient>
<radialGradient id="paint1_radial_218_313" cx="0" cy="0" r="1" gradientUnits="userSpaceOnUse" gradientTransform="translate(445.399 48.8218) scale(432.103 432.103)">
<stop stop-color="#9A5CA0"/>
<stop offset="0.2241" stop-color="#9A5CA0"/>
<stop offset="0.4722" stop-color="#9A5CA0"/>
<stop offset="0.7277" stop-color="#9A5CA0"/>
<stop offset="1" stop-color="#9A5CA0"/>
</radialGradient>
<radialGradient id="paint2_radial_218_313" cx="0" cy="0" r="1" gradientUnits="userSpaceOnUse" gradientTransform="translate(452.306 52.6782) rotate(1.35806) scale(432.097 432.097)">
<stop stop-color="#9A5CA0"/>
<stop offset="0.2241" stop-color="#9A5CA0"/>
<stop offset="0.4722" stop-color="#9A5CA0"/>
<stop offset="0.7277" stop-color="#9A5CA0"/>
<stop offset="1" stop-color="#9A5CA0"/>
</radialGradient>
<radialGradient id="paint3_radial_218_313" cx="0" cy="0" r="1" gradientUnits="userSpaceOnUse" gradientTransform="translate(445.401 48.8168) scale(432.101 432.101)">
<stop stop-color="#9A5CA0"/>
<stop offset="0.2241" stop-color="#9A5CA0"/>
<stop offset="0.4722" stop-color="#9A5CA0"/>
<stop offset="0.7277" stop-color="#9A5CA0"/>
<stop offset="1" stop-color="#9A5CA0"/>
</radialGradient>
<radialGradient id="paint4_radial_218_313" cx="0" cy="0" r="1" gradientUnits="userSpaceOnUse" gradientTransform="translate(445.401 48.8197) scale(432.103 432.103)">
<stop stop-color="#9A5CA0"/>
<stop offset="0.2241" stop-color="#9A5CA0"/>
<stop offset="0.4722" stop-color="#9A5CA0"/>
<stop offset="0.7277" stop-color="#9A5CA0"/>
<stop offset="1" stop-color="#9A5CA0"/>
</radialGradient>
<radialGradient id="paint5_radial_218_313" cx="0" cy="0" r="1" gradientUnits="userSpaceOnUse" gradientTransform="translate(39.2375 236.522) rotate(180) scale(250.568 250.568)">
<stop stop-color="#5CA099"/>
<stop offset="1" stop-color="#5CA099"/>
</radialGradient>
<radialGradient id="paint6_radial_218_313" cx="0" cy="0" r="1" gradientUnits="userSpaceOnUse" gradientTransform="translate(127.251 48.8218) rotate(180) scale(432.103 432.103)">
<stop stop-color="#9A5CA0"/>
<stop offset="0.2241" stop-color="#9A5CA0"/>
<stop offset="0.4722" stop-color="#9A5CA0"/>
<stop offset="0.7277" stop-color="#9A5CA0"/>
<stop offset="1" stop-color="#9A5CA0"/>
</radialGradient>
<radialGradient id="paint7_radial_218_313" cx="0" cy="0" r="1" gradientUnits="userSpaceOnUse" gradientTransform="translate(120.349 52.6781) rotate(178.642) scale(432.097 432.097)">
<stop stop-color="#9A5CA0"/>
<stop offset="0.2241" stop-color="#9A5CA0"/>
<stop offset="0.4722" stop-color="#9A5CA0"/>
<stop offset="0.7277" stop-color="#9A5CA0"/>
<stop offset="1" stop-color="#9A5CA0"/>
</radialGradient>
<radialGradient id="paint8_radial_218_313" cx="0" cy="0" r="1" gradientUnits="userSpaceOnUse" gradientTransform="translate(127.251 48.8168) rotate(180) scale(432.101 432.101)">
<stop stop-color="#9A5CA0"/>
<stop offset="0.2241" stop-color="#9A5CA0"/>
<stop offset="0.4722" stop-color="#9A5CA0"/>
<stop offset="0.7277" stop-color="#9A5CA0"/>
<stop offset="1" stop-color="#9A5CA0"/>
</radialGradient>
<radialGradient id="paint9_radial_218_313" cx="0" cy="0" r="1" gradientUnits="userSpaceOnUse" gradientTransform="translate(127.258 48.8197) rotate(180) scale(432.103 432.103)">
<stop stop-color="#9A5CA0"/>
<stop offset="0.2241" stop-color="#9A5CA0"/>
<stop offset="0.4722" stop-color="#9A5CA0"/>
<stop offset="0.7277" stop-color="#9A5CA0"/>
<stop offset="1" stop-color="#9A5CA0"/>
</radialGradient>
</defs>
</svg>
