<svg width="992" height="324" viewBox="0 0 992 324" fill="none" xmlns="http://www.w3.org/2000/svg">
<path d="M788.533 83.2495C790.843 80.7595 791.983 76.1796 789.973 73.3796C786.583 68.6696 773.593 68.9796 768.453 69.5196C748.963 71.5396 742.903 89.6596 741.633 106.43C741.053 114.03 741.1 121.166 741.773 127.84C743.123 141.25 747.553 151.61 762.123 154.41C768.593 155.65 778.603 155.09 785.123 153.02C789.993 151.46 793.203 149.48 791.133 143.93C790.526 142.296 789.906 141.16 789.273 140.52C789.167 140.415 789.027 140.352 788.88 140.343C788.733 140.334 788.588 140.379 788.473 140.47C779.213 147.65 762.343 148.96 757.283 136.02C755.29 130.933 754.21 125.06 754.043 118.4C753.813 109.1 753.633 101.32 755.513 92.7996C759.503 74.6496 774.743 76.5996 787.573 83.4196C787.728 83.5003 787.906 83.5275 788.08 83.4968C788.253 83.4661 788.412 83.3792 788.533 83.2495Z" stroke="#D3CBE4" stroke-width="2"/>
<path d="M368.262 84.3398C370.355 81.8331 371.175 78.9598 370.722 75.7198C369.892 69.8298 361.532 69.9698 357.202 69.6098C346.582 68.7298 335.412 70.1398 329.272 79.5698C325.222 85.7898 324.792 95.2598 327.042 102.07C329.872 110.6 337.902 114.12 346.532 117.38C351.812 119.38 359.542 123.02 361.292 128.91C362.852 134.16 362.562 141.63 357.192 144.42C354.952 145.58 352.099 146.133 348.632 146.08C341.465 145.973 334.722 143.813 328.402 139.6C328.309 139.533 328.194 139.505 328.079 139.52C327.965 139.535 327.859 139.592 327.782 139.68C325.415 142.366 324.559 145.443 325.212 148.91C326.532 156 343.782 155.45 348.902 155.12C360.602 154.37 370.342 149.84 372.702 137.3C373.909 130.88 373.459 125.023 371.352 119.73C367.632 110.4 354.182 106.72 346.222 103.18C341.135 100.92 338.152 97.6164 337.272 93.2698C335.722 85.5798 339.132 78.6098 347.982 78.7498C354.782 78.8498 361.275 80.7564 367.462 84.4698C367.588 84.5469 367.737 84.5762 367.884 84.5524C368.03 84.5286 368.164 84.4532 368.262 84.3398Z" stroke="#D3CBE4" stroke-width="2"/>
<path d="M802.071 110.83C801.711 116.75 801.914 122.946 802.681 129.42C803.731 138.29 806.551 147.05 814.841 151.72C819.661 154.446 825.271 155.616 831.671 155.23C854.981 153.82 860.111 133.32 861.281 113.91C861.641 107.99 861.438 101.793 860.671 95.3196C859.621 86.4496 856.801 77.6895 848.511 73.0195C843.691 70.2929 838.081 69.1229 831.681 69.5095C808.371 70.9195 803.241 91.4195 802.071 110.83Z" stroke="#D3CBE4" stroke-width="2"/>
<path d="M706.273 113.67L696.003 112.64C695.862 112.626 695.72 112.669 695.61 112.759C695.499 112.849 695.429 112.978 695.413 113.12C694.343 123.72 691.073 134.04 682.923 141.41C678.95 145.003 674.35 146.69 669.123 146.47C657.733 145.99 655.683 133.95 660.393 125.63C661.38 123.89 663.667 121.247 667.253 117.7C667.298 117.654 667.352 117.619 667.411 117.595C667.471 117.571 667.535 117.56 667.6 117.561C667.664 117.563 667.728 117.578 667.787 117.606C667.846 117.633 667.899 117.672 667.943 117.72L679.383 130.88C679.426 130.93 679.479 130.97 679.538 130.999C679.597 131.028 679.661 131.044 679.727 131.047C679.792 131.05 679.858 131.039 679.919 131.015C679.981 130.992 680.036 130.956 680.083 130.91C681.933 129.09 685.113 125.02 685.403 122.29C685.419 122.126 685.401 121.96 685.351 121.804C685.302 121.647 685.221 121.503 685.113 121.38L675.483 110.3C675.371 110.172 675.313 110.005 675.322 109.835C675.331 109.665 675.407 109.505 675.533 109.39C680.113 105.203 683.99 100.817 687.163 96.2301C693.323 87.3201 692.783 74.4001 680.633 71.1601C665.833 67.2201 648.823 74.1201 651.043 92.1701C651.553 96.3701 653.803 100.66 656.493 103.88C656.548 103.946 656.616 104.001 656.692 104.04C656.768 104.08 656.851 104.104 656.937 104.112C657.022 104.119 657.108 104.11 657.19 104.084C657.272 104.058 657.348 104.016 657.413 103.96L664.093 98.1501C664.317 97.9551 664.463 97.6872 664.507 97.3942C664.551 97.1011 664.489 96.802 664.333 96.5501C660.903 91.1101 660.083 82.0601 666.463 78.5601C668.463 77.4601 670.64 77.1868 672.993 77.7401C681.063 79.6301 681.333 89.8601 677.703 95.4901C675.823 98.4034 673.43 101.337 670.523 104.29C662.773 112.15 659.623 115.37 653.893 120.71C646.533 127.58 640.833 135.59 644.903 146.06C647.343 152.333 652.16 155.767 659.353 156.36C671.473 157.36 680.193 150.61 689.363 143.18C689.467 143.097 689.6 143.057 689.733 143.07C689.865 143.083 689.988 143.148 690.073 143.25L697.523 151.81C698.246 152.642 699.243 153.188 700.333 153.35C702.203 153.62 713.633 154.96 713.903 151.26C714.017 149.66 714.02 148.61 713.913 148.11C713.88 147.958 713.804 147.819 713.694 147.709C713.585 147.599 713.445 147.523 713.293 147.49C706.523 146.04 701.743 139.98 697.173 134.68C697.069 134.56 697.004 134.41 696.99 134.25C696.976 134.09 697.012 133.929 697.093 133.79C700.073 128.82 701.713 122.74 703.893 118.04C704.453 116.84 705.763 115.46 706.593 114.44C706.649 114.374 706.685 114.294 706.698 114.209C706.711 114.124 706.7 114.037 706.667 113.958C706.634 113.879 706.58 113.81 706.51 113.759C706.441 113.708 706.359 113.677 706.273 113.67Z" stroke="#D3CBE4" stroke-width="2"/>
<path d="M402.961 122.7C414.991 122.89 427.671 121.36 434.241 110.98C436.974 106.667 438.358 101.564 438.391 95.6703C438.451 86.7503 436.591 77.0003 426.971 73.5203C423.551 72.2803 420.771 71.5703 418.631 71.3903C408.784 70.5369 397.848 70.3403 385.821 70.8003C385.38 70.8158 384.963 71.0028 384.657 71.3218C384.351 71.6409 384.181 72.0669 384.181 72.5103V75.8003C384.181 76.1742 384.329 76.5329 384.594 76.7973C384.858 77.0617 385.217 77.2103 385.591 77.2103H389.571C389.819 77.2102 390.058 77.3064 390.236 77.4784C390.413 77.6504 390.516 77.8844 390.521 78.1303C390.988 100.584 390.968 123.444 390.461 146.71C390.456 146.898 390.378 147.076 390.243 147.207C390.109 147.337 389.928 147.41 389.741 147.41H385.791C385.239 147.41 384.71 147.629 384.32 148.02C383.93 148.41 383.711 148.939 383.711 149.49V152.32C383.711 152.742 383.878 153.146 384.177 153.445C384.475 153.743 384.879 153.91 385.301 153.91H408.891C409.403 153.91 409.894 153.708 410.256 153.348C410.618 152.988 410.821 152.499 410.821 151.99V148.97C410.821 148.541 410.649 148.129 410.344 147.825C410.038 147.521 409.623 147.35 409.191 147.35H403.201C402.962 147.35 402.733 147.254 402.565 147.084C402.396 146.913 402.301 146.682 402.301 146.44V123.35C402.301 123.264 402.318 123.179 402.351 123.099C402.385 123.02 402.433 122.948 402.495 122.887C402.556 122.827 402.629 122.779 402.709 122.747C402.789 122.715 402.875 122.699 402.961 122.7Z" stroke="#D3CBE4" stroke-width="2"/>
<path d="M452.811 112.381C452.811 123.171 452.741 134.811 452.521 146.691C452.519 146.875 452.444 147.05 452.313 147.179C452.182 147.309 452.005 147.381 451.821 147.381H447.681C447.154 147.381 446.647 147.591 446.274 147.964C445.901 148.337 445.691 148.843 445.691 149.371V152.291C445.691 152.723 445.864 153.138 446.172 153.443C446.479 153.749 446.896 153.921 447.331 153.921H469.371C469.87 153.921 470.348 153.723 470.701 153.37C471.053 153.018 471.251 152.539 471.251 152.041V148.831C471.251 148.433 471.093 148.052 470.812 147.77C470.531 147.489 470.149 147.331 469.751 147.331H465.021C464.888 147.331 464.76 147.279 464.664 147.185C464.569 147.092 464.514 146.964 464.511 146.831C464.271 137.438 464.151 125.884 464.151 112.171C464.151 101.381 464.221 89.7409 464.451 77.8609C464.454 77.6787 464.528 77.5047 464.656 77.3758C464.785 77.247 464.959 77.1735 465.141 77.1709H469.281C469.543 77.1709 469.802 77.1194 470.043 77.0194C470.284 76.9194 470.504 76.7728 470.689 76.588C470.873 76.4032 471.02 76.1839 471.12 75.9424C471.22 75.701 471.271 75.4422 471.271 75.1809V72.2609C471.271 71.8286 471.099 71.414 470.791 71.1083C470.484 70.8026 470.066 70.6309 469.631 70.6309H447.591C447.093 70.6309 446.615 70.829 446.262 71.1815C445.909 71.5341 445.711 72.0123 445.711 72.5109V75.7209C445.711 76.1187 445.869 76.5002 446.151 76.7815C446.432 77.0628 446.814 77.2209 447.211 77.2209H451.941C452.008 77.2195 452.075 77.2314 452.137 77.2558C452.2 77.2802 452.257 77.3167 452.305 77.3631C452.353 77.4096 452.392 77.4651 452.419 77.5265C452.446 77.5878 452.46 77.6539 452.461 77.7209C452.695 87.1142 452.811 98.6676 452.811 112.381Z" stroke="#D3CBE4" stroke-width="2"/>
<path d="M530.82 136.421C525.79 124.631 520.61 112.971 513.5 98.3009C508.86 88.7409 504.627 79.7042 500.8 71.1909C500.725 71.0267 500.605 70.8875 500.455 70.79C500.304 70.6925 500.129 70.6407 499.95 70.6409H484.22C483.816 70.6406 483.421 70.7643 483.09 70.9951C482.759 71.2259 482.508 71.5526 482.37 71.9309C481.977 73.0242 482.023 74.5975 482.51 76.6509C482.546 76.81 482.636 76.952 482.765 77.0538C482.894 77.1555 483.055 77.2109 483.22 77.2109H486.79C486.918 77.2109 487.044 77.236 487.161 77.2847C487.279 77.3334 487.386 77.4049 487.476 77.495C487.566 77.585 487.638 77.692 487.686 77.8097C487.735 77.9273 487.76 78.0535 487.76 78.1809V146.811C487.76 146.887 487.745 146.962 487.716 147.033C487.687 147.103 487.644 147.167 487.59 147.221C487.536 147.275 487.472 147.318 487.402 147.347C487.332 147.376 487.256 147.391 487.18 147.391H483.25C482.696 147.391 482.164 147.611 481.772 148.003C481.38 148.395 481.16 148.927 481.16 149.481V152.271C481.16 152.706 481.333 153.123 481.641 153.431C481.948 153.738 482.365 153.911 482.8 153.911H501.05C501.29 153.911 501.528 153.864 501.75 153.772C501.972 153.68 502.174 153.545 502.344 153.375C502.514 153.205 502.649 153.003 502.741 152.781C502.833 152.559 502.88 152.321 502.88 152.081V148.951C502.88 148.529 502.712 148.125 502.412 147.827C502.111 147.528 501.705 147.361 501.28 147.361H497.88C497.684 147.361 497.496 147.282 497.357 147.141C497.218 147.001 497.14 146.81 497.14 146.611V91.5009C497.142 91.4954 497.145 91.4896 497.148 91.4848C497.152 91.48 497.157 91.4766 497.161 91.4753C497.165 91.4739 497.168 91.4748 497.17 91.4778C497.171 91.4807 497.172 91.4854 497.17 91.4909C504.93 110.398 514.9 130.984 527.08 153.251C527.301 153.653 527.626 153.989 528.022 154.223C528.418 154.457 528.87 154.581 529.33 154.581H537.43C538.003 154.582 538.559 154.382 539.001 154.017C539.443 153.652 539.743 153.144 539.85 152.581C540.15 151.021 540.287 149.468 540.26 147.921C540.047 134.728 540.09 114.184 540.39 86.2909C540.43 82.5375 540.45 79.7109 540.45 77.8109C540.45 77.7295 540.466 77.6488 540.497 77.5736C540.529 77.4984 540.574 77.43 540.632 77.3725C540.689 77.3149 540.758 77.2692 540.833 77.2381C540.908 77.2069 540.989 77.1909 541.07 77.1909H544.79C545.055 77.1909 545.318 77.1384 545.563 77.0363C545.808 76.9343 546.031 76.7848 546.219 76.5963C546.406 76.4078 546.555 76.184 546.656 75.9377C546.758 75.6914 546.81 75.4274 546.81 75.1609V72.4409C546.81 71.9608 546.619 71.5005 546.28 71.161C545.941 70.8216 545.48 70.6309 545 70.6309H526.79C526.307 70.6309 525.845 70.8216 525.503 71.161C525.162 71.5005 524.97 71.9608 524.97 72.4409V75.7909C524.97 76.1728 525.123 76.5391 525.395 76.8091C525.667 77.0792 526.036 77.2309 526.42 77.2309H530.24C530.442 77.2309 530.635 77.3109 530.778 77.4535C530.92 77.596 531 77.7893 531 77.9909V136.381C531.005 136.405 531.001 136.43 530.988 136.45C530.975 136.471 530.954 136.486 530.93 136.491C530.918 136.494 530.906 136.494 530.894 136.492C530.882 136.49 530.871 136.485 530.861 136.479C530.84 136.466 530.825 136.445 530.82 136.421Z" stroke="#D3CBE4" stroke-width="2"/>
<path d="M562.143 147.631H558.723C558.187 147.631 557.674 147.843 557.295 148.22C556.916 148.596 556.703 149.108 556.703 149.641V152.441C556.703 152.692 556.753 152.941 556.851 153.173C556.948 153.405 557.091 153.616 557.271 153.792C557.451 153.968 557.664 154.106 557.898 154.199C558.132 154.291 558.382 154.336 558.633 154.331C573.513 153.984 587.843 153.841 601.623 153.901C606.213 153.921 608.603 152.981 608.403 148.151C608.303 145.811 607.856 143.844 607.063 142.251C606.992 142.106 606.87 141.993 606.721 141.932C606.571 141.872 606.405 141.867 606.253 141.921C596.686 145.267 586.3 146.537 575.093 145.731C574.919 145.718 574.756 145.641 574.638 145.515C574.519 145.389 574.453 145.223 574.453 145.051L574.443 114.481C574.443 114.33 574.504 114.185 574.613 114.078C574.722 113.971 574.869 113.911 575.023 113.911L599.153 113.901C599.684 113.901 600.192 113.689 600.567 113.312C600.942 112.935 601.153 112.424 601.153 111.891L601.143 107.771C601.143 107.283 600.95 106.815 600.607 106.47C600.264 106.125 599.798 105.931 599.313 105.931L574.913 105.941C574.788 105.941 574.669 105.891 574.581 105.803C574.493 105.715 574.443 105.595 574.443 105.471L574.433 79.7708C574.433 79.5962 574.498 79.4278 574.617 79.2998C574.736 79.1717 574.899 79.0935 575.073 79.0808C585.64 78.2941 595.453 79.6908 604.513 83.2708C604.668 83.331 604.84 83.3317 604.996 83.2728C605.153 83.2138 605.283 83.0993 605.363 82.9508C606.343 81.0975 606.896 78.5041 607.023 75.1708C607.13 72.1841 605.643 70.6841 602.563 70.6708C585.09 70.5775 570.403 70.5841 558.503 70.6908C558.029 70.6961 557.577 70.888 557.243 71.225C556.91 71.562 556.723 72.0169 556.723 72.4908V75.7308C556.723 76.1313 556.882 76.5153 557.165 76.7985C557.449 77.0817 557.833 77.2408 558.233 77.2408H562.033C562.221 77.2408 562.402 77.3156 562.535 77.4488C562.668 77.5819 562.743 77.7625 562.743 77.9508L562.783 146.981C562.783 147.066 562.767 147.151 562.734 147.23C562.702 147.308 562.655 147.38 562.596 147.44C562.536 147.501 562.466 147.549 562.388 147.581C562.31 147.614 562.227 147.631 562.143 147.631Z" stroke="#D3CBE4" stroke-width="2"/>
<path d="M878.001 77.2208C878.17 77.2207 878.333 77.2864 878.454 77.4041C878.575 77.5217 878.646 77.6819 878.651 77.8508C879.145 91.5908 879.258 107.367 878.991 125.181C878.818 136.587 878.771 143.544 878.851 146.051C878.858 146.228 878.829 146.405 878.766 146.571C878.702 146.737 878.606 146.889 878.483 147.017C878.36 147.145 878.212 147.246 878.048 147.316C877.885 147.385 877.709 147.421 877.531 147.421H874.001C873.731 147.421 873.463 147.474 873.213 147.578C872.963 147.682 872.736 147.835 872.545 148.027C872.354 148.219 872.202 148.447 872.098 148.699C871.995 148.95 871.941 149.219 871.941 149.491V152.261C871.941 152.478 871.984 152.692 872.067 152.892C872.15 153.092 872.271 153.274 872.425 153.428C872.578 153.581 872.76 153.702 872.96 153.785C873.16 153.868 873.375 153.911 873.591 153.911H896.621C897.12 153.911 897.598 153.713 897.951 153.36C898.303 153.008 898.501 152.529 898.501 152.031V148.781C898.501 148.593 898.464 148.407 898.393 148.234C898.321 148.06 898.215 147.902 898.083 147.77C897.95 147.637 897.792 147.532 897.619 147.46C897.445 147.388 897.259 147.351 897.071 147.351H891.221C891.044 147.351 890.873 147.279 890.748 147.152C890.622 147.024 890.551 146.851 890.551 146.671V120.161C890.552 120.019 890.6 119.881 890.688 119.772C890.775 119.663 890.897 119.588 891.031 119.561C896.921 118.441 902.961 118.901 906.041 124.791C909.821 132.041 911.111 139.281 913.381 146.951C914.028 149.131 914.985 151.081 916.251 152.801C916.449 153.071 916.704 153.303 917.001 153.481C920.441 155.581 925.201 155.471 929.641 154.961C930.551 154.858 931.392 154.425 932.006 153.744C932.619 153.062 932.963 152.179 932.971 151.261L932.981 150.041C932.989 149.312 932.718 148.608 932.226 148.073C931.733 147.538 931.056 147.212 930.331 147.161C928.125 147.141 926.325 145.461 924.931 142.121C922.451 136.167 920.658 131.798 919.551 129.011C917.381 123.541 914.471 118.021 909.151 115.441C909.071 115.402 909.005 115.34 908.96 115.263C908.915 115.186 908.894 115.098 908.899 115.009C908.904 114.92 908.936 114.835 908.99 114.764C909.044 114.693 909.117 114.64 909.201 114.611C917.791 111.681 923.531 104.541 924.471 95.3308C925.361 86.6408 923.101 77.2608 914.571 73.7408C909.898 71.8075 904.345 70.7875 897.911 70.6808C890.398 70.5475 882.458 70.5708 874.091 70.7508C873.638 70.7587 873.205 70.9444 872.887 71.268C872.569 71.5916 872.391 72.0271 872.391 72.4808V75.9308C872.391 76.2729 872.527 76.6011 872.769 76.843C873.011 77.0849 873.339 77.2208 873.681 77.2208H878.001Z" stroke="#D3CBE4" stroke-width="2"/>
<path d="M944.432 147.631H941.012C940.476 147.631 939.963 147.842 939.584 148.219C939.205 148.596 938.992 149.108 938.992 149.641V152.441C938.992 152.692 939.042 152.941 939.14 153.173C939.237 153.405 939.38 153.615 939.56 153.791C939.74 153.968 939.953 154.106 940.187 154.198C940.421 154.291 940.671 154.336 940.922 154.331C955.809 153.997 970.142 153.864 983.922 153.931C988.512 153.951 990.912 153.011 990.712 148.181C990.612 145.841 990.165 143.871 989.372 142.271C989.301 142.126 989.179 142.013 989.03 141.952C988.88 141.891 988.714 141.887 988.562 141.941C978.989 145.287 968.599 146.554 957.392 145.741C957.218 145.728 957.055 145.651 956.937 145.525C956.818 145.398 956.752 145.233 956.752 145.061V114.481C956.752 114.33 956.813 114.185 956.922 114.078C957.031 113.971 957.178 113.911 957.332 113.911H981.472C982.003 113.911 982.511 113.699 982.886 113.322C983.261 112.945 983.472 112.434 983.472 111.901V107.781C983.472 107.293 983.279 106.825 982.936 106.48C982.593 106.135 982.127 105.941 981.642 105.941H957.232C957.108 105.941 956.988 105.891 956.9 105.803C956.812 105.715 956.762 105.595 956.762 105.471V79.7607C956.762 79.586 956.828 79.4177 956.946 79.2897C957.065 79.1616 957.228 79.0834 957.402 79.0707C967.975 78.2907 977.792 79.6907 986.852 83.2707C987.007 83.3309 987.179 83.3316 987.335 83.2727C987.492 83.2137 987.622 83.0992 987.702 82.9507C988.682 81.0974 989.236 78.504 989.362 75.1707C989.476 72.184 987.989 70.684 984.902 70.6707C967.429 70.5707 952.739 70.5707 940.832 70.6707C940.358 70.676 939.906 70.8679 939.572 71.2049C939.239 71.5419 939.052 71.9967 939.052 72.4707V75.7107C939.052 76.1112 939.211 76.4953 939.494 76.7784C939.778 77.0616 940.162 77.2207 940.562 77.2207H944.362C944.55 77.2207 944.731 77.2955 944.864 77.4287C944.997 77.5618 945.072 77.7424 945.072 77.9307V146.981C945.072 147.066 945.056 147.151 945.023 147.229C944.991 147.308 944.944 147.38 944.885 147.44C944.825 147.501 944.755 147.549 944.677 147.581C944.599 147.614 944.516 147.631 944.432 147.631Z" stroke="#D3CBE4" stroke-width="2"/>
<path d="M814.503 112.509C814.603 123.959 815.253 146.219 831.993 146.069C848.733 145.929 848.993 123.659 848.903 112.209C848.803 100.769 848.143 78.4992 831.403 78.6492C814.673 78.7892 814.403 101.059 814.503 112.509Z" stroke="#D3CBE4" stroke-width="2"/>
<path d="M402.762 114.549C407.196 114.843 411.222 114.626 414.842 113.899C421.492 112.569 424.782 108.469 425.572 101.639C426.422 94.2693 424.792 84.6994 417.552 81.6694C413.159 79.836 408.356 79.406 403.142 80.3794C402.889 80.4281 402.661 80.5625 402.497 80.7596C402.333 80.9566 402.243 81.204 402.242 81.4594V113.989C402.242 114.131 402.295 114.268 402.392 114.372C402.488 114.476 402.621 114.539 402.762 114.549Z" stroke="#D3CBE4" stroke-width="2"/>
<path d="M891.133 111.11C901.093 111.59 911.893 109.26 911.993 96.9097C912.063 87.6997 908.663 80.8197 898.613 80.0197C895.393 79.7664 892.916 79.9231 891.183 80.4897C890.976 80.5589 890.796 80.6908 890.668 80.8667C890.541 81.0426 890.473 81.2535 890.473 81.4697V110.42C890.472 110.598 890.541 110.769 890.664 110.897C890.787 111.026 890.955 111.102 891.133 111.11Z" stroke="#D3CBE4" stroke-width="2"/>
<path d="M130.948 8.72603C130.948 6.67696 130.133 4.71181 128.684 3.2629C127.234 1.81399 125.268 1 123.218 1C121.168 1 119.202 1.81399 117.752 3.2629C116.303 4.71181 115.488 6.67696 115.488 8.72603C115.488 10.7751 116.303 12.7402 117.752 14.1892C119.202 15.6381 121.168 16.4521 123.218 16.4521C125.268 16.4521 127.234 15.6381 128.684 14.1892C130.133 12.7402 130.948 10.7751 130.948 8.72603Z" stroke="#D3CBE4" stroke-width="2"/>
<path d="M115.231 38.409C115.231 35.5308 114.087 32.7704 112.051 30.7352C110.015 28.7 107.253 27.5566 104.373 27.5566C101.494 27.5566 98.732 28.7 96.6958 30.7352C94.6595 32.7704 93.5156 35.5308 93.5156 38.409C93.5156 39.8342 93.7965 41.2454 94.3421 42.562C94.8878 43.8787 95.6875 45.0751 96.6958 46.0828C97.704 47.0906 98.9009 47.8899 100.218 48.4353C101.536 48.9807 102.947 49.2614 104.373 49.2614C105.799 49.2614 107.211 48.9807 108.528 48.4353C109.846 47.8899 111.043 47.0906 112.051 46.0828C113.059 45.0751 113.859 43.8787 114.404 42.562C114.95 41.2454 115.231 39.8342 115.231 38.409Z" stroke="#D3CBE4" stroke-width="2"/>
<path d="M175.43 172.635C181.512 184.661 185.985 197.277 188.849 210.483" stroke="#D3CBE4" stroke-width="2"/>
<path d="M188.849 210.482C192.876 232.397 190.997 253.673 183.213 274.312C183.18 274.399 183.175 274.494 183.198 274.584C183.221 274.674 183.271 274.755 183.342 274.815C183.414 274.875 183.502 274.912 183.594 274.92C183.687 274.928 183.78 274.907 183.86 274.86L195.94 267.952" stroke="#C9C2D8" stroke-width="2"/>
<path d="M195.942 267.952C227.149 247.442 247.678 215.514 252.559 179.049C259.605 126.332 233.594 74.6303 185.93 49.8262" stroke="#D3CBE4" stroke-width="2"/>
<path d="M185.928 49.8275C173.249 43.1556 160.048 38.8524 146.326 36.9179C145.949 36.8664 145.564 36.9176 145.213 37.0662C144.862 37.2149 144.557 37.4553 144.331 37.7624C134.157 51.6333 132.683 72.6104 135.424 89.2123C139.091 111.429 149.248 133.215 161.453 150.994C167.098 159.217 171.757 166.431 175.43 172.636" stroke="#C9C2D8" stroke-width="2"/>
<path d="M185.93 49.8262C183.545 52.6351 181.256 55.453 179.063 58.2799C163.273 78.6131 157.542 101.68 161.868 127.482C164.355 142.317 168.876 157.368 175.431 172.634" stroke="#9D8EBD" stroke-width="2"/>
<path d="M195.943 267.952C196.452 248.373 194.388 229.507 189.75 211.354C189.643 210.947 189.343 210.656 188.852 210.482" stroke="#9D8EBD" stroke-width="2"/>
<path d="M71.8616 49.2432C71.8944 49.1494 71.8987 49.048 71.8739 48.9518C71.8491 48.8556 71.7964 48.7689 71.7224 48.7026C71.6483 48.6363 71.5564 48.5934 71.458 48.5793C71.3596 48.5652 71.2593 48.5805 71.1696 48.6233C52.2766 58.0323 36.7181 71.2983 24.4943 88.4214C-12.0244 139.566 -5.33726 209.909 40.1426 253.192C59.2154 271.352 81.7845 282.494 107.85 286.621C108.103 286.659 108.361 286.61 108.582 286.483C108.802 286.356 108.972 286.157 109.063 285.92C111.928 278.5 113.752 270.642 114.537 262.347C117.44 231.784 108.21 201.311 91.6625 175.815C86.1497 167.329 83.3245 162.975 83.1867 162.753C61.4534 128.66 57.975 87.2265 71.8616 49.2432Z" stroke="#E3DFEF" stroke-width="2"/>
<path d="M109.033 76.8952C109.033 73.5286 107.695 70.2998 105.313 67.9192C102.932 65.5386 99.7013 64.2012 96.333 64.2012C92.9647 64.2012 89.7344 65.5386 87.3526 67.9192C84.9709 70.2998 83.6328 73.5286 83.6328 76.8952C83.6328 80.2619 84.9709 83.4907 87.3526 85.8713C89.7344 88.2519 92.9647 89.5893 96.333 89.5893C99.7013 89.5893 102.932 88.2519 105.313 85.8713C107.695 83.4907 109.033 80.2619 109.033 76.8952Z" stroke="#D3CBE4" stroke-width="2"/>
<path d="M122.609 115.174C122.609 110.93 120.923 106.861 117.921 103.86C114.919 100.86 110.847 99.1738 106.602 99.1738C102.356 99.1738 98.2844 100.86 95.2823 103.86C92.2803 106.861 90.5938 110.93 90.5938 115.174C90.5938 119.417 92.2803 123.487 95.2823 126.488C98.2844 129.488 102.356 131.174 106.602 131.174C110.847 131.174 114.919 129.488 117.921 126.488C120.923 123.487 122.609 119.417 122.609 115.174Z" stroke="#D3CBE4" stroke-width="2"/>
<path d="M144.771 161.8C144.771 156.835 142.798 152.073 139.285 148.562C135.772 145.051 131.008 143.078 126.04 143.078C121.072 143.078 116.308 145.051 112.795 148.562C109.282 152.073 107.309 156.835 107.309 161.8C107.309 164.259 107.793 166.693 108.734 168.965C109.676 171.236 111.055 173.3 112.795 175.039C114.534 176.777 116.599 178.156 118.872 179.097C121.144 180.038 123.58 180.522 126.04 180.522C128.5 180.522 130.935 180.038 133.208 179.097C135.481 178.156 137.545 176.777 139.285 175.039C141.024 173.3 142.404 171.236 143.345 168.965C144.287 166.693 144.771 164.259 144.771 161.8Z" stroke="#D3CBE4" stroke-width="2"/>
<path d="M161.516 208.443C161.516 204.2 159.829 200.13 156.827 197.13C153.825 194.129 149.753 192.443 145.508 192.443C141.262 192.443 137.191 194.129 134.189 197.13C131.187 200.13 129.5 204.2 129.5 208.443C129.5 212.687 131.187 216.757 134.189 219.757C137.191 222.758 141.262 224.443 145.508 224.443C149.753 224.443 153.825 222.758 156.827 219.757C159.829 216.757 161.516 212.687 161.516 208.443Z" stroke="#D3CBE4" stroke-width="2"/>
<path d="M168.467 246.716C168.467 243.349 167.129 240.12 164.747 237.739C162.365 235.359 159.135 234.021 155.767 234.021C152.398 234.021 149.168 235.359 146.786 237.739C144.404 240.12 143.066 243.349 143.066 246.716C143.066 248.383 143.395 250.033 144.033 251.573C144.671 253.113 145.607 254.513 146.786 255.692C147.966 256.87 149.366 257.805 150.906 258.443C152.447 259.081 154.099 259.41 155.767 259.41C159.135 259.41 162.365 258.072 164.747 255.692C167.129 253.311 168.467 250.082 168.467 246.716Z" stroke="#D3CBE4" stroke-width="2"/>
<path d="M158.604 285.201C158.604 283.775 158.323 282.362 157.777 281.045C157.231 279.727 156.431 278.53 155.422 277.521C154.413 276.512 153.215 275.712 151.896 275.167C150.578 274.621 149.165 274.34 147.738 274.34C146.311 274.34 144.898 274.621 143.579 275.167C142.261 275.712 141.063 276.512 140.054 277.521C139.045 278.53 138.244 279.727 137.698 281.045C137.152 282.362 136.871 283.775 136.871 285.201C136.871 288.082 138.016 290.844 140.054 292.881C142.092 294.918 144.856 296.063 147.738 296.063C150.62 296.063 153.384 294.918 155.422 292.881C157.459 290.844 158.604 288.082 158.604 285.201Z" stroke="#D3CBE4" stroke-width="2"/>
<path d="M136.613 314.893C136.613 312.846 135.8 310.883 134.352 309.436C132.904 307.989 130.94 307.176 128.893 307.176C126.845 307.176 124.881 307.989 123.433 309.436C121.985 310.883 121.172 312.846 121.172 314.893C121.172 316.94 121.985 318.902 123.433 320.35C124.881 321.797 126.845 322.61 128.893 322.61C130.94 322.61 132.904 321.797 134.352 320.35C135.8 318.902 136.613 316.94 136.613 314.893Z" stroke="#D3CBE4" stroke-width="2"/>
<path d="M123.218 16.4521C127.487 16.4521 130.948 12.993 130.948 8.72603C130.948 4.45906 127.487 1 123.218 1C118.949 1 115.488 4.45906 115.488 8.72603C115.488 12.993 118.949 16.4521 123.218 16.4521Z" fill="#A696C8"/>
<path d="M104.373 49.2614C110.37 49.2614 115.231 44.4026 115.231 38.409C115.231 32.4154 110.37 27.5566 104.373 27.5566C98.3768 27.5566 93.5156 32.4154 93.5156 38.409C93.5156 44.4026 98.3768 49.2614 104.373 49.2614Z" fill="#A696C8"/>
<path d="M185.932 49.8275C183.547 52.6365 181.258 55.4544 179.065 58.2813C163.276 78.6145 157.545 101.682 161.871 127.483C164.358 142.318 168.879 157.369 175.434 172.636C171.761 166.431 167.102 159.217 161.457 150.994C149.251 133.215 139.095 111.429 135.428 89.2123C132.686 72.6104 134.16 51.6333 144.335 37.7624C144.561 37.4553 144.866 37.2149 145.217 37.0662C145.568 36.9176 145.953 36.8664 146.33 36.9179C160.052 38.8524 173.253 43.1556 185.932 49.8275Z" fill="#9385B1"/>
<path d="M71.8616 49.2432C57.975 87.2265 61.4534 128.66 83.1867 162.753C83.3245 162.975 86.1497 167.329 91.6625 175.815C108.21 201.311 117.44 231.784 114.537 262.347C113.752 270.642 111.928 278.5 109.063 285.92C108.972 286.157 108.802 286.356 108.582 286.483C108.361 286.61 108.103 286.659 107.85 286.621C81.7845 282.494 59.2154 271.352 40.1426 253.192C-5.33726 209.909 -12.0244 139.566 24.4943 88.4214C36.7181 71.2983 52.2766 58.0323 71.1696 48.6233C71.2593 48.5805 71.3596 48.5652 71.458 48.5793C71.5564 48.5934 71.6483 48.6363 71.7224 48.7026C71.7964 48.7689 71.8491 48.8556 71.8739 48.9518C71.8987 49.048 71.8944 49.1494 71.8616 49.2432Z" fill="#C7BFDF"/>
<path d="M195.942 267.952C196.452 248.373 194.387 229.507 189.749 211.354C189.642 210.947 189.342 210.656 188.851 210.483C185.986 197.277 181.513 184.66 175.431 172.634C168.876 157.368 164.355 142.317 161.868 127.482C157.542 101.68 163.273 78.6131 179.063 58.2799C181.256 55.453 183.545 52.6351 185.93 49.8262C233.593 74.6303 259.605 126.332 252.558 179.049C247.678 215.514 227.149 247.442 195.942 267.952Z" fill="#A696C8"/>
<path d="M96.333 89.5893C103.347 89.5893 109.033 83.906 109.033 76.8952C109.033 69.8845 103.347 64.2012 96.333 64.2012C89.3189 64.2012 83.6328 69.8845 83.6328 76.8952C83.6328 83.906 89.3189 89.5893 96.333 89.5893Z" fill="#A696C8"/>
<path d="M106.602 131.174C115.442 131.174 122.609 124.01 122.609 115.174C122.609 106.337 115.442 99.1738 106.602 99.1738C97.7607 99.1738 90.5938 106.337 90.5938 115.174C90.5938 124.01 97.7607 131.174 106.602 131.174Z" fill="#A696C8"/>
<path d="M126.04 180.522C136.385 180.522 144.771 172.14 144.771 161.8C144.771 151.46 136.385 143.078 126.04 143.078C115.695 143.078 107.309 151.46 107.309 161.8C107.309 172.14 115.695 180.522 126.04 180.522Z" fill="#A696C8"/>
<path d="M145.508 224.443C154.349 224.443 161.516 217.28 161.516 208.443C161.516 199.607 154.349 192.443 145.508 192.443C136.667 192.443 129.5 199.607 129.5 208.443C129.5 217.28 136.667 224.443 145.508 224.443Z" fill="#A696C8"/>
<path d="M195.94 267.952L183.86 274.86C183.78 274.907 183.687 274.928 183.594 274.92C183.502 274.912 183.414 274.875 183.342 274.815C183.271 274.755 183.221 274.674 183.198 274.584C183.175 274.494 183.18 274.399 183.213 274.312C190.997 253.673 192.876 232.397 188.849 210.482C189.34 210.656 189.64 210.947 189.748 211.354C194.386 229.507 196.45 248.373 195.94 267.952Z" fill="#9385B1"/>
<path d="M155.767 259.41C162.781 259.41 168.467 253.726 168.467 246.716C168.467 239.705 162.781 234.021 155.767 234.021C148.752 234.021 143.066 239.705 143.066 246.716C143.066 253.726 148.752 259.41 155.767 259.41Z" fill="#A696C8"/>
<path d="M147.738 296.063C153.739 296.063 158.604 291.2 158.604 285.201C158.604 279.203 153.739 274.34 147.738 274.34C141.736 274.34 136.871 279.203 136.871 285.201C136.871 291.2 141.736 296.063 147.738 296.063Z" fill="#A696C8"/>
<path d="M128.893 322.61C133.157 322.61 136.613 319.155 136.613 314.893C136.613 310.631 133.157 307.176 128.893 307.176C124.629 307.176 121.172 310.631 121.172 314.893C121.172 319.155 124.629 322.61 128.893 322.61Z" fill="#A696C8"/>
<path d="M787.573 83.4196C774.743 76.5996 759.503 74.6496 755.513 92.7996C753.633 101.32 753.813 109.1 754.043 118.4C754.21 125.06 755.29 130.933 757.283 136.02C762.343 148.96 779.213 147.65 788.473 140.47C788.588 140.379 788.733 140.334 788.88 140.343C789.027 140.352 789.167 140.415 789.273 140.52C789.906 141.16 790.526 142.296 791.133 143.93C793.203 149.48 789.993 151.46 785.123 153.02C778.603 155.09 768.593 155.65 762.123 154.41C747.553 151.61 743.123 141.25 741.773 127.84C741.1 121.166 741.053 114.03 741.633 106.43C742.903 89.6596 748.963 71.5396 768.453 69.5196C773.593 68.9796 786.583 68.6696 789.973 73.3796C791.983 76.1796 790.843 80.7595 788.533 83.2495C788.412 83.3792 788.253 83.4661 788.08 83.4968C787.906 83.5275 787.728 83.5003 787.573 83.4196Z" fill="#A696C8"/>
<path d="M368.262 84.3398C368.164 84.4532 368.03 84.5286 367.884 84.5524C367.737 84.5762 367.588 84.5469 367.462 84.4698C361.275 80.7564 354.782 78.8498 347.982 78.7498C339.132 78.6098 335.722 85.5798 337.272 93.2698C338.152 97.6164 341.135 100.92 346.222 103.18C354.182 106.72 367.632 110.4 371.352 119.73C373.459 125.023 373.909 130.88 372.702 137.3C370.342 149.84 360.602 154.37 348.902 155.12C343.782 155.45 326.532 156 325.212 148.91C324.559 145.443 325.415 142.366 327.782 139.68C327.859 139.592 327.965 139.535 328.079 139.52C328.194 139.505 328.309 139.533 328.402 139.6C334.722 143.813 341.465 145.973 348.632 146.08C352.099 146.133 354.952 145.58 357.192 144.42C362.562 141.63 362.852 134.16 361.292 128.91C359.542 123.02 351.812 119.38 346.532 117.38C337.902 114.12 329.872 110.6 327.042 102.07C324.792 95.2598 325.222 85.7898 329.272 79.5698C335.412 70.1398 346.582 68.7298 357.202 69.6098C361.532 69.9698 369.892 69.8298 370.722 75.7198C371.175 78.9598 370.355 81.8331 368.262 84.3398Z" fill="#A696C8"/>
<path d="M861.281 113.91C860.111 133.32 854.981 153.82 831.671 155.23C825.271 155.616 819.661 154.446 814.841 151.72C806.551 147.05 803.731 138.29 802.681 129.42C801.914 122.946 801.711 116.75 802.071 110.83C803.241 91.4195 808.371 70.9195 831.681 69.5095C838.081 69.1229 843.691 70.2929 848.511 73.0195C856.801 77.6895 859.621 86.4496 860.671 95.3196C861.438 101.793 861.641 107.99 861.281 113.91ZM814.501 112.51C814.601 123.96 815.251 146.22 831.991 146.07C848.731 145.93 848.991 123.66 848.901 112.21C848.801 100.77 848.141 78.4995 831.401 78.6495C814.671 78.7895 814.401 101.06 814.501 112.51Z" fill="#A696C8"/>
<path d="M706.593 114.44C705.763 115.46 704.453 116.84 703.893 118.04C701.713 122.74 700.073 128.82 697.093 133.79C697.012 133.929 696.976 134.09 696.99 134.25C697.004 134.41 697.069 134.56 697.173 134.68C701.743 139.98 706.523 146.04 713.293 147.49C713.445 147.523 713.585 147.599 713.694 147.709C713.804 147.819 713.88 147.958 713.913 148.11C714.02 148.61 714.017 149.66 713.903 151.26C713.633 154.96 702.203 153.62 700.333 153.35C699.243 153.188 698.246 152.642 697.523 151.81L690.073 143.25C689.988 143.148 689.865 143.083 689.733 143.07C689.6 143.057 689.467 143.097 689.363 143.18C680.193 150.61 671.473 157.36 659.353 156.36C652.16 155.767 647.343 152.333 644.903 146.06C640.833 135.59 646.533 127.58 653.893 120.71C659.623 115.37 662.773 112.15 670.523 104.29C673.43 101.337 675.823 98.4034 677.703 95.4901C681.333 89.8601 681.063 79.6301 672.993 77.7401C670.64 77.1868 668.463 77.4601 666.463 78.5601C660.083 82.0601 660.903 91.1101 664.333 96.5501C664.489 96.802 664.551 97.1011 664.507 97.3942C664.463 97.6872 664.317 97.9551 664.093 98.1501L657.413 103.96C657.348 104.016 657.272 104.058 657.19 104.084C657.108 104.11 657.022 104.119 656.937 104.112C656.851 104.104 656.768 104.08 656.692 104.04C656.616 104.001 656.548 103.946 656.493 103.88C653.803 100.66 651.553 96.3701 651.043 92.1701C648.823 74.1201 665.833 67.2201 680.633 71.1601C692.783 74.4001 693.323 87.3201 687.163 96.2301C683.99 100.817 680.113 105.203 675.533 109.39C675.407 109.505 675.331 109.665 675.322 109.835C675.313 110.005 675.371 110.172 675.483 110.3L685.113 121.38C685.221 121.503 685.302 121.647 685.351 121.804C685.401 121.96 685.419 122.126 685.403 122.29C685.113 125.02 681.933 129.09 680.083 130.91C680.036 130.956 679.981 130.992 679.919 131.015C679.858 131.039 679.792 131.05 679.727 131.047C679.661 131.044 679.597 131.028 679.538 130.999C679.479 130.97 679.426 130.93 679.383 130.88L667.943 117.72C667.899 117.672 667.846 117.633 667.787 117.606C667.728 117.578 667.664 117.563 667.6 117.561C667.535 117.56 667.471 117.571 667.411 117.595C667.352 117.619 667.298 117.654 667.253 117.7C663.667 121.247 661.38 123.89 660.393 125.63C655.683 133.95 657.733 145.99 669.123 146.47C674.35 146.69 678.95 145.003 682.923 141.41C691.073 134.04 694.343 123.72 695.413 113.12C695.429 112.978 695.499 112.849 695.61 112.759C695.72 112.669 695.862 112.626 696.003 112.64L706.273 113.67C706.359 113.677 706.441 113.708 706.51 113.759C706.58 113.81 706.634 113.879 706.667 113.958C706.7 114.037 706.711 114.124 706.698 114.209C706.685 114.294 706.649 114.374 706.593 114.44Z" fill="#A696C8"/>
<path d="M402.301 123.35V146.44C402.301 146.682 402.396 146.913 402.565 147.084C402.733 147.254 402.962 147.35 403.201 147.35H409.191C409.623 147.35 410.038 147.521 410.344 147.825C410.649 148.129 410.821 148.541 410.821 148.97V151.99C410.821 152.499 410.618 152.988 410.256 153.348C409.894 153.708 409.403 153.91 408.891 153.91H385.301C384.879 153.91 384.475 153.743 384.177 153.445C383.878 153.146 383.711 152.742 383.711 152.32V149.49C383.711 148.939 383.93 148.41 384.32 148.02C384.71 147.629 385.239 147.41 385.791 147.41H389.741C389.928 147.41 390.109 147.337 390.243 147.207C390.378 147.076 390.456 146.898 390.461 146.71C390.968 123.444 390.988 100.584 390.521 78.1303C390.516 77.8844 390.413 77.6504 390.236 77.4784C390.058 77.3064 389.819 77.2102 389.571 77.2103H385.591C385.217 77.2103 384.858 77.0617 384.594 76.7973C384.329 76.5329 384.181 76.1742 384.181 75.8003V72.5103C384.181 72.0669 384.351 71.6409 384.657 71.3218C384.963 71.0028 385.38 70.8158 385.821 70.8003C397.848 70.3403 408.784 70.5369 418.631 71.3903C420.771 71.5703 423.551 72.2803 426.971 73.5203C436.591 77.0003 438.451 86.7503 438.391 95.6703C438.358 101.564 436.974 106.667 434.241 110.98C427.671 121.36 414.991 122.89 402.961 122.7C402.875 122.699 402.789 122.715 402.709 122.747C402.629 122.779 402.556 122.827 402.495 122.887C402.433 122.948 402.385 123.02 402.351 123.099C402.318 123.179 402.301 123.264 402.301 123.35ZM402.761 114.55C407.194 114.844 411.221 114.627 414.841 113.9C421.491 112.57 424.781 108.47 425.571 101.64C426.421 94.2702 424.791 84.7003 417.551 81.6703C413.158 79.8369 408.354 79.4069 403.141 80.3803C402.888 80.429 402.66 80.5634 402.496 80.7604C402.331 80.9575 402.241 81.2049 402.241 81.4603V113.99C402.241 114.132 402.294 114.269 402.391 114.373C402.487 114.477 402.619 114.54 402.761 114.55Z" fill="#A696C8"/>
<path d="M464.151 112.171C464.151 125.884 464.271 137.438 464.511 146.831C464.514 146.964 464.569 147.092 464.664 147.185C464.76 147.279 464.888 147.331 465.021 147.331H469.751C470.149 147.331 470.531 147.489 470.812 147.77C471.093 148.052 471.251 148.433 471.251 148.831V152.041C471.251 152.539 471.053 153.018 470.701 153.37C470.348 153.723 469.87 153.921 469.371 153.921H447.331C446.896 153.921 446.479 153.749 446.172 153.443C445.864 153.138 445.691 152.723 445.691 152.291V149.371C445.691 148.843 445.901 148.337 446.274 147.964C446.647 147.591 447.154 147.381 447.681 147.381H451.821C452.005 147.381 452.182 147.309 452.313 147.179C452.444 147.05 452.519 146.875 452.521 146.691C452.741 134.811 452.811 123.171 452.811 112.381C452.811 98.6676 452.695 87.1142 452.461 77.7209C452.46 77.6539 452.446 77.5878 452.419 77.5265C452.392 77.4651 452.353 77.4096 452.305 77.3631C452.257 77.3167 452.2 77.2802 452.137 77.2558C452.075 77.2314 452.008 77.2195 451.941 77.2209H447.211C446.814 77.2209 446.432 77.0628 446.151 76.7815C445.869 76.5002 445.711 76.1187 445.711 75.7209V72.5109C445.711 72.0123 445.909 71.5341 446.262 71.1815C446.615 70.829 447.093 70.6309 447.591 70.6309H469.631C470.066 70.6309 470.484 70.8026 470.791 71.1083C471.099 71.414 471.271 71.8286 471.271 72.2609V75.1809C471.271 75.4422 471.22 75.701 471.12 75.9424C471.02 76.1839 470.873 76.4032 470.689 76.588C470.504 76.7728 470.284 76.9194 470.043 77.0194C469.802 77.1194 469.543 77.1709 469.281 77.1709H465.141C464.959 77.1735 464.785 77.247 464.656 77.3758C464.528 77.5047 464.454 77.6787 464.451 77.8609C464.221 89.7409 464.151 101.381 464.151 112.171Z" fill="#A696C8"/>
<path d="M530.824 136.421C530.829 136.445 530.844 136.466 530.865 136.479C530.875 136.485 530.886 136.49 530.898 136.492C530.91 136.494 530.922 136.494 530.934 136.491C530.946 136.488 530.957 136.483 530.967 136.476C530.977 136.469 530.985 136.461 530.992 136.45C530.998 136.44 531.003 136.429 531.005 136.417C531.007 136.405 531.007 136.393 531.004 136.381V77.9909C531.004 77.7893 530.924 77.596 530.781 77.4535C530.639 77.3109 530.446 77.2309 530.244 77.2309H526.424C526.039 77.2309 525.671 77.0792 525.399 76.8091C525.127 76.5391 524.974 76.1728 524.974 75.7909V72.4409C524.974 71.9608 525.166 71.5005 525.507 71.161C525.848 70.8216 526.311 70.6309 526.794 70.6309H545.004C545.484 70.6309 545.944 70.8216 546.284 71.161C546.623 71.5005 546.814 71.9608 546.814 72.4409V75.1609C546.814 75.4274 546.762 75.6914 546.66 75.9377C546.559 76.184 546.41 76.4078 546.222 76.5963C546.035 76.7848 545.812 76.9343 545.567 77.0363C545.322 77.1384 545.059 77.1909 544.794 77.1909H541.074C540.993 77.1909 540.912 77.2069 540.837 77.2381C540.762 77.2692 540.693 77.3149 540.636 77.3725C540.578 77.43 540.532 77.4984 540.501 77.5736C540.47 77.6488 540.454 77.7295 540.454 77.8109C540.454 79.7109 540.434 82.5375 540.394 86.2909C540.094 114.184 540.051 134.728 540.264 147.921C540.291 149.468 540.154 151.021 539.854 152.581C539.747 153.144 539.446 153.652 539.005 154.017C538.563 154.382 538.007 154.582 537.434 154.581H529.334C528.873 154.581 528.422 154.457 528.026 154.223C527.63 153.989 527.305 153.653 527.084 153.251C514.904 130.984 504.934 110.398 497.174 91.4909C497.176 91.4854 497.175 91.4807 497.174 91.4778C497.172 91.4748 497.169 91.4739 497.165 91.4753C497.161 91.4766 497.156 91.48 497.152 91.4848C497.148 91.4896 497.146 91.4954 497.144 91.5009V146.611C497.144 146.81 497.222 147.001 497.361 147.141C497.5 147.282 497.688 147.361 497.884 147.361H501.284C501.708 147.361 502.115 147.528 502.415 147.827C502.716 148.125 502.884 148.529 502.884 148.951V152.081C502.884 152.321 502.837 152.559 502.745 152.781C502.653 153.003 502.518 153.205 502.348 153.375C502.178 153.545 501.976 153.68 501.754 153.772C501.532 153.864 501.294 153.911 501.054 153.911H482.804C482.369 153.911 481.952 153.738 481.644 153.431C481.337 153.123 481.164 152.706 481.164 152.271V149.481C481.164 148.927 481.384 148.395 481.776 148.003C482.168 147.611 482.7 147.391 483.254 147.391H487.184C487.26 147.391 487.336 147.376 487.406 147.347C487.476 147.318 487.54 147.275 487.594 147.221C487.648 147.167 487.691 147.103 487.72 147.033C487.749 146.962 487.764 146.887 487.764 146.811V78.1809C487.764 78.0535 487.739 77.9273 487.69 77.8097C487.641 77.692 487.57 77.585 487.48 77.495C487.39 77.4049 487.283 77.3334 487.165 77.2847C487.048 77.236 486.921 77.2109 486.794 77.2109H483.224C483.059 77.2109 482.898 77.1555 482.769 77.0538C482.64 76.952 482.55 76.81 482.514 76.6509C482.027 74.5975 481.981 73.0242 482.374 71.9309C482.512 71.5526 482.763 71.2259 483.094 70.9951C483.425 70.7643 483.82 70.6406 484.224 70.6409H499.954C500.133 70.6407 500.308 70.6925 500.459 70.79C500.609 70.8875 500.729 71.0267 500.804 71.1909C504.631 79.7042 508.864 88.7409 513.504 98.3009C520.614 112.971 525.794 124.631 530.824 136.421Z" fill="#A696C8"/>
<path d="M562.143 147.631C562.227 147.631 562.31 147.614 562.388 147.581C562.466 147.549 562.536 147.501 562.596 147.44C562.655 147.38 562.702 147.308 562.734 147.23C562.767 147.151 562.783 147.066 562.783 146.981L562.743 77.9508C562.743 77.7625 562.668 77.5819 562.535 77.4488C562.402 77.3156 562.221 77.2408 562.033 77.2408H558.233C557.833 77.2408 557.449 77.0817 557.165 76.7985C556.882 76.5153 556.723 76.1313 556.723 75.7308V72.4908C556.723 72.0169 556.91 71.562 557.243 71.225C557.577 70.888 558.029 70.6961 558.503 70.6908C570.403 70.5841 585.09 70.5775 602.563 70.6708C605.643 70.6841 607.13 72.1841 607.023 75.1708C606.896 78.5041 606.343 81.0975 605.363 82.9508C605.283 83.0993 605.153 83.2138 604.996 83.2728C604.84 83.3317 604.668 83.331 604.513 83.2708C595.453 79.6908 585.64 78.2941 575.073 79.0808C574.899 79.0935 574.736 79.1717 574.617 79.2998C574.498 79.4278 574.433 79.5962 574.433 79.7708L574.443 105.471C574.443 105.595 574.493 105.715 574.581 105.803C574.669 105.891 574.788 105.941 574.913 105.941L599.313 105.931C599.798 105.931 600.264 106.125 600.607 106.47C600.95 106.815 601.143 107.283 601.143 107.771L601.153 111.891C601.153 112.424 600.942 112.935 600.567 113.312C600.192 113.689 599.684 113.901 599.153 113.901L575.023 113.911C574.869 113.911 574.722 113.971 574.613 114.078C574.504 114.185 574.443 114.33 574.443 114.481L574.453 145.051C574.453 145.223 574.519 145.389 574.638 145.515C574.756 145.641 574.919 145.718 575.093 145.731C586.3 146.537 596.686 145.267 606.253 141.921C606.405 141.867 606.571 141.872 606.721 141.932C606.87 141.993 606.992 142.106 607.063 142.251C607.856 143.844 608.303 145.811 608.403 148.151C608.603 152.981 606.213 153.921 601.623 153.901C587.843 153.841 573.513 153.984 558.633 154.331C558.382 154.336 558.132 154.291 557.898 154.199C557.664 154.106 557.451 153.968 557.271 153.792C557.091 153.616 556.948 153.405 556.851 153.173C556.753 152.941 556.703 152.692 556.703 152.441V149.641C556.703 149.108 556.916 148.596 557.295 148.22C557.674 147.843 558.187 147.631 558.723 147.631H562.143Z" fill="#A696C8"/>
<path d="M878.001 77.2208H873.681C873.339 77.2208 873.011 77.0849 872.769 76.843C872.527 76.6011 872.391 76.2729 872.391 75.9308V72.4808C872.391 72.0271 872.569 71.5916 872.887 71.268C873.205 70.9444 873.638 70.7587 874.091 70.7508C882.458 70.5708 890.398 70.5475 897.911 70.6808C904.345 70.7875 909.898 71.8075 914.571 73.7408C923.101 77.2608 925.361 86.6408 924.471 95.3308C923.531 104.541 917.791 111.681 909.201 114.611C909.117 114.64 909.044 114.693 908.99 114.764C908.936 114.835 908.904 114.92 908.899 115.009C908.894 115.098 908.915 115.186 908.96 115.263C909.005 115.34 909.071 115.402 909.151 115.441C914.471 118.021 917.381 123.541 919.551 129.011C920.658 131.798 922.451 136.167 924.931 142.121C926.325 145.461 928.125 147.141 930.331 147.161C931.056 147.212 931.733 147.538 932.226 148.073C932.718 148.608 932.989 149.312 932.981 150.041L932.971 151.261C932.963 152.179 932.619 153.062 932.006 153.744C931.392 154.425 930.551 154.858 929.641 154.961C925.201 155.471 920.441 155.581 917.001 153.481C916.704 153.303 916.449 153.071 916.251 152.801C914.985 151.081 914.028 149.131 913.381 146.951C911.111 139.281 909.821 132.041 906.041 124.791C902.961 118.901 896.921 118.441 891.031 119.561C890.897 119.588 890.775 119.663 890.688 119.772C890.6 119.881 890.552 120.019 890.551 120.161V146.671C890.551 146.851 890.622 147.024 890.748 147.152C890.873 147.279 891.044 147.351 891.221 147.351H897.071C897.259 147.351 897.445 147.388 897.619 147.46C897.792 147.532 897.95 147.637 898.083 147.77C898.215 147.902 898.321 148.06 898.393 148.234C898.464 148.407 898.501 148.593 898.501 148.781V152.031C898.501 152.529 898.303 153.008 897.951 153.36C897.598 153.713 897.12 153.911 896.621 153.911H873.591C873.375 153.911 873.16 153.868 872.96 153.785C872.76 153.702 872.578 153.581 872.425 153.428C872.271 153.274 872.15 153.092 872.067 152.892C871.984 152.692 871.941 152.478 871.941 152.261V149.491C871.941 149.219 871.995 148.95 872.098 148.699C872.202 148.447 872.354 148.219 872.545 148.027C872.736 147.835 872.963 147.682 873.213 147.578C873.463 147.474 873.731 147.421 874.001 147.421H877.531C877.709 147.421 877.885 147.385 878.048 147.316C878.212 147.246 878.36 147.145 878.483 147.017C878.606 146.889 878.702 146.737 878.766 146.571C878.829 146.405 878.858 146.228 878.851 146.051C878.771 143.544 878.818 136.587 878.991 125.181C879.258 107.367 879.145 91.5908 878.651 77.8508C878.646 77.6819 878.575 77.5217 878.454 77.4041C878.333 77.2864 878.17 77.2207 878.001 77.2208ZM891.131 111.111C901.091 111.591 911.891 109.261 911.991 96.9108C912.061 87.7008 908.661 80.8208 898.611 80.0208C895.391 79.7675 892.915 79.9241 891.181 80.4908C890.975 80.56 890.795 80.6919 890.667 80.8678C890.54 81.0436 890.471 81.2546 890.471 81.4708V110.421C890.471 110.599 890.54 110.77 890.663 110.898C890.786 111.027 890.954 111.103 891.131 111.111Z" fill="#A696C8"/>
<path d="M945.072 146.981V77.9307C945.072 77.7424 944.997 77.5618 944.864 77.4287C944.731 77.2955 944.55 77.2207 944.362 77.2207H940.562C940.162 77.2207 939.778 77.0616 939.494 76.7784C939.211 76.4953 939.052 76.1112 939.052 75.7107V72.4707C939.052 71.9967 939.239 71.5419 939.572 71.2049C939.906 70.8679 940.358 70.676 940.832 70.6707C952.739 70.5707 967.429 70.5707 984.902 70.6707C987.989 70.684 989.476 72.184 989.362 75.1707C989.236 78.504 988.682 81.0974 987.702 82.9507C987.622 83.0992 987.492 83.2137 987.335 83.2727C987.179 83.3316 987.007 83.3309 986.852 83.2707C977.792 79.6907 967.975 78.2907 957.402 79.0707C957.228 79.0834 957.065 79.1616 956.946 79.2897C956.828 79.4177 956.762 79.586 956.762 79.7607V105.471C956.762 105.595 956.812 105.715 956.9 105.803C956.988 105.891 957.108 105.941 957.232 105.941H981.642C982.127 105.941 982.593 106.135 982.936 106.48C983.279 106.825 983.472 107.293 983.472 107.781V111.901C983.472 112.434 983.261 112.945 982.886 113.322C982.511 113.699 982.003 113.911 981.472 113.911H957.332C957.178 113.911 957.031 113.971 956.922 114.078C956.813 114.185 956.752 114.33 956.752 114.481V145.061C956.752 145.233 956.818 145.398 956.937 145.525C957.055 145.651 957.218 145.728 957.392 145.741C968.599 146.554 978.989 145.287 988.562 141.941C988.714 141.887 988.88 141.891 989.03 141.952C989.179 142.013 989.301 142.126 989.372 142.271C990.165 143.871 990.612 145.841 990.712 148.181C990.912 153.011 988.512 153.951 983.922 153.931C970.142 153.864 955.809 153.997 940.922 154.331C940.671 154.336 940.421 154.291 940.187 154.198C939.953 154.106 939.74 153.968 939.56 153.791C939.38 153.615 939.237 153.405 939.14 153.173C939.042 152.941 938.992 152.692 938.992 152.441V149.641C938.992 149.108 939.205 148.596 939.584 148.219C939.963 147.842 940.476 147.631 941.012 147.631H944.432C944.516 147.631 944.599 147.614 944.677 147.581C944.755 147.549 944.825 147.501 944.885 147.44C944.944 147.38 944.991 147.308 945.023 147.229C945.056 147.151 945.072 147.066 945.072 146.981Z" fill="#A696C8"/>
<path d="M537.911 259.463H534.251C533.872 259.463 533.508 259.613 533.24 259.881C532.972 260.15 532.821 260.513 532.821 260.892V263.043C532.821 263.35 532.944 263.645 533.161 263.863C533.379 264.08 533.674 264.202 533.981 264.202H550.761C551.18 264.202 551.582 264.036 551.879 263.74C552.175 263.443 552.341 263.042 552.341 262.623V260.642C552.341 260.322 552.214 260.014 551.987 259.787C551.76 259.56 551.452 259.433 551.131 259.433H547.331C547.156 259.433 546.988 259.364 546.865 259.242C546.741 259.12 546.671 258.955 546.671 258.783V213.332C546.671 213.132 546.749 212.94 546.889 212.795C547.028 212.649 547.219 212.563 547.421 212.553C552.955 212.286 558.215 213.203 563.201 215.303C563.323 215.353 563.461 215.354 563.585 215.306C563.71 215.258 563.812 215.164 563.871 215.043C564.991 212.673 566.911 206.663 562.101 206.663C556.348 206.669 547.185 206.653 534.611 206.613C530.545 206.599 526.888 206.086 523.641 205.072C523.413 205.002 523.172 204.982 522.935 205.016C522.699 205.05 522.473 205.136 522.273 205.268C522.074 205.401 521.907 205.575 521.784 205.78C521.661 205.985 521.585 206.215 521.561 206.452L521.151 210.543C521.122 210.831 521.153 211.122 521.243 211.397C521.334 211.672 521.481 211.925 521.675 212.14C521.869 212.355 522.106 212.527 522.371 212.644C522.635 212.762 522.922 212.823 523.211 212.822H538.071C538.167 212.822 538.258 212.861 538.326 212.931C538.393 213 538.431 213.094 538.431 213.192V258.942C538.431 259.08 538.377 259.213 538.279 259.31C538.181 259.408 538.049 259.463 537.911 259.463Z" stroke="#D3CBE4" stroke-width="2"/>
<path d="M665.492 213.773L665.712 211.603C665.822 210.499 665.517 209.394 664.855 208.503C664.193 207.612 663.222 206.999 662.132 206.783C655.352 205.449 649.405 205.513 644.292 206.973C635.032 209.623 631.962 219.053 634.382 227.753C636.312 234.673 642.622 236.603 649.622 239.513C656.352 242.303 661.002 245.483 658.982 253.553C658.275 256.386 656.202 257.983 652.762 258.343C646.755 258.969 641.125 257.613 635.872 254.273C635.708 254.167 635.512 254.124 635.319 254.152C635.126 254.18 634.95 254.276 634.822 254.423C633.609 255.849 633.019 257.609 633.052 259.703C633.162 266.363 649.662 265.153 653.852 264.463C661.899 263.136 666.399 258.619 667.352 250.913C667.962 245.983 667.122 239.893 663.442 236.653C661.175 234.659 657.779 232.819 653.252 231.133C649.782 229.843 646.072 228.463 644.162 226.433C639.862 221.843 640.852 212.583 648.682 212.483C654.009 212.416 658.329 213.463 661.642 215.623C662.002 215.857 662.416 215.994 662.844 216.021C663.272 216.049 663.7 215.966 664.087 215.78C664.474 215.594 664.806 215.312 665.052 214.96C665.298 214.609 665.45 214.2 665.492 213.773Z" stroke="#D3CBE4" stroke-width="2"/>
<path d="M473.94 258.802L476.66 246.112C476.694 245.946 476.785 245.797 476.918 245.689C477.051 245.582 477.218 245.523 477.39 245.522H492.04C492.215 245.521 492.386 245.579 492.524 245.686C492.662 245.793 492.759 245.943 492.8 246.112L495.85 258.752C495.863 258.806 495.865 258.862 495.856 258.916C495.847 258.971 495.827 259.024 495.797 259.071C495.767 259.118 495.728 259.16 495.682 259.193C495.637 259.225 495.585 259.249 495.53 259.262L493.22 259.822C493.078 259.858 492.95 259.935 492.852 260.044C492.754 260.152 492.691 260.288 492.67 260.432C492.536 261.426 492.596 262.512 492.85 263.692C492.881 263.837 492.961 263.967 493.076 264.06C493.191 264.153 493.333 264.203 493.48 264.202H508.33C508.635 264.202 508.927 264.081 509.143 263.865C509.358 263.65 509.48 263.357 509.48 263.052V260.222C509.48 260.015 509.397 259.817 509.251 259.671C509.105 259.524 508.906 259.442 508.7 259.442H506.44C506.266 259.441 506.098 259.386 505.959 259.283C505.82 259.18 505.719 259.036 505.67 258.872L490.46 207.542C490.347 207.166 490.117 206.836 489.804 206.602C489.49 206.368 489.11 206.242 488.72 206.242H484.1C483.376 206.242 482.669 206.452 482.063 206.846C481.458 207.24 480.981 207.802 480.69 208.462C479.783 210.495 478.843 213.265 477.87 216.772C472.07 237.739 468.163 251.719 466.15 258.712C466.082 258.94 465.944 259.141 465.755 259.283C465.565 259.426 465.335 259.503 465.1 259.502H463.73C463.538 259.502 463.348 259.54 463.171 259.613C462.994 259.685 462.833 259.792 462.697 259.927C462.562 260.062 462.454 260.221 462.381 260.397C462.307 260.573 462.27 260.762 462.27 260.952V263.002C462.27 263.32 462.397 263.626 462.624 263.851C462.851 264.076 463.159 264.202 463.48 264.202H476.16C476.51 264.202 476.845 264.064 477.093 263.818C477.34 263.573 477.48 263.24 477.48 262.892V260.452C477.48 260.187 477.373 259.933 477.184 259.745C476.994 259.558 476.737 259.452 476.47 259.452H474.46C474.38 259.453 474.302 259.435 474.231 259.401C474.159 259.367 474.096 259.317 474.047 259.254C473.997 259.192 473.961 259.119 473.943 259.041C473.924 258.963 473.923 258.881 473.94 258.802Z" stroke="#D3CBE4" stroke-width="2"/>
<path d="M388.993 206.633C383.76 206.633 381.093 206.643 380.993 206.663C380.807 206.698 380.632 206.78 380.487 206.901C380.342 207.022 380.23 207.178 380.163 207.353C379.796 208.32 379.78 209.417 380.113 210.643C380.162 210.827 380.269 210.989 380.419 211.104C380.569 211.22 380.754 211.283 380.943 211.283H383.853C384.083 211.283 384.304 211.372 384.468 211.531C384.633 211.69 384.728 211.906 384.733 212.133C384.813 214.887 384.856 222.647 384.863 235.413C384.876 248.18 384.846 255.94 384.773 258.693C384.772 258.808 384.748 258.921 384.702 259.026C384.657 259.131 384.591 259.226 384.508 259.306C384.426 259.386 384.328 259.449 384.221 259.491C384.113 259.534 383.999 259.555 383.883 259.553H380.973C380.785 259.556 380.603 259.62 380.455 259.735C380.307 259.851 380.201 260.012 380.153 260.193C379.82 261.42 379.836 262.517 380.203 263.483C380.27 263.659 380.382 263.815 380.527 263.936C380.672 264.057 380.847 264.138 381.033 264.173C381.133 264.193 383.8 264.2 389.033 264.193C394.266 264.193 396.933 264.183 397.033 264.163C397.22 264.128 397.394 264.047 397.539 263.926C397.684 263.805 397.796 263.649 397.863 263.473C398.23 262.507 398.246 261.41 397.913 260.183C397.865 260 397.757 259.838 397.607 259.722C397.457 259.607 397.273 259.544 397.083 259.543H394.173C393.943 259.544 393.722 259.455 393.558 259.296C393.393 259.137 393.298 258.921 393.293 258.693C393.213 255.94 393.166 248.18 393.153 235.413C393.146 222.647 393.18 214.887 393.253 212.133C393.256 211.904 393.35 211.686 393.514 211.525C393.679 211.364 393.901 211.273 394.133 211.273H397.043C397.233 211.273 397.417 211.21 397.567 211.094C397.717 210.979 397.825 210.817 397.873 210.633C398.206 209.407 398.19 208.31 397.823 207.343C397.756 207.168 397.644 207.012 397.499 206.891C397.354 206.77 397.18 206.688 396.993 206.653C396.886 206.633 394.22 206.627 388.993 206.633Z" stroke="#D3CBE4" stroke-width="2"/>
<path d="M338.24 258.802V243.052C338.24 242.917 338.294 242.787 338.389 242.691C338.485 242.596 338.615 242.542 338.75 242.542C348.73 242.682 358.99 241.132 362.49 231.392C365.25 223.722 364.64 211.342 355.05 208.472C351.623 207.445 347.887 206.869 343.84 206.742C337.833 206.555 332.067 206.569 326.54 206.782C326.182 206.797 325.844 206.951 325.596 207.21C325.348 207.469 325.21 207.814 325.21 208.172V210.172C325.21 210.458 325.323 210.733 325.523 210.936C325.724 211.138 325.996 211.252 326.28 211.252H329.31C329.474 211.252 329.632 211.316 329.748 211.431C329.865 211.545 329.93 211.7 329.93 211.862V258.812C329.93 258.987 329.86 259.155 329.737 259.279C329.613 259.402 329.445 259.472 329.27 259.472H326.23C325.904 259.472 325.591 259.602 325.36 259.832C325.13 260.063 325 260.376 325 260.702V263.182C325 263.453 325.107 263.712 325.299 263.903C325.49 264.095 325.749 264.202 326.02 264.202H342.55C342.993 264.202 343.418 264.027 343.731 263.716C344.044 263.404 344.22 262.982 344.22 262.542V260.762C344.22 260.412 344.08 260.076 343.83 259.829C343.581 259.581 343.243 259.442 342.89 259.442H338.87C338.703 259.442 338.543 259.375 338.425 259.255C338.306 259.134 338.24 258.972 338.24 258.802Z" stroke="#D3CBE4" stroke-width="2"/>
<path d="M419.283 211.212C419.548 211.212 419.802 211.317 419.99 211.502C420.177 211.688 420.283 211.94 420.283 212.202V258.852C420.283 259.07 420.197 259.278 420.045 259.432C419.893 259.586 419.687 259.672 419.473 259.672H417.372C417.03 259.672 416.702 259.808 416.46 260.05C416.218 260.292 416.083 260.62 416.083 260.962V263.202C416.083 263.47 416.189 263.727 416.378 263.917C416.568 264.106 416.825 264.212 417.092 264.212C427.386 264.212 436.056 264.212 443.103 264.212C445.476 264.206 447.119 264.082 448.033 263.842C451.403 262.952 450.553 258.362 449.393 256.062C449.315 255.913 449.186 255.798 449.03 255.737C448.873 255.676 448.7 255.675 448.543 255.732C442.663 257.886 436.282 258.766 429.402 258.372C429.195 258.362 428.999 258.271 428.855 258.118C428.712 257.966 428.632 257.763 428.633 257.552V211.882C428.633 211.796 428.649 211.71 428.682 211.63C428.715 211.55 428.763 211.477 428.823 211.416C428.883 211.354 428.955 211.306 429.034 211.273C429.113 211.239 429.197 211.222 429.283 211.222H432.323C432.651 211.222 432.967 211.093 433.199 210.862C433.432 210.631 433.562 210.319 433.562 209.992V207.842C433.562 207.527 433.436 207.224 433.211 207.001C432.986 206.778 432.681 206.652 432.363 206.652H417.423C417.062 206.652 416.716 206.796 416.461 207.051C416.206 207.306 416.063 207.652 416.063 208.012V210.262C416.062 210.387 416.087 210.511 416.134 210.626C416.181 210.741 416.251 210.846 416.338 210.934C416.425 211.022 416.529 211.092 416.643 211.14C416.757 211.188 416.879 211.212 417.003 211.212H419.283Z" stroke="#D3CBE4" stroke-width="2"/>
<path d="M592.97 236.783H609.39C609.942 236.783 610.471 236.564 610.861 236.174C611.251 235.784 611.47 235.255 611.47 234.703V232.703C611.47 232.231 611.282 231.778 610.946 231.445C610.61 231.111 610.155 230.923 609.68 230.923H592.96C592.814 230.923 592.674 230.865 592.571 230.762C592.468 230.659 592.41 230.519 592.41 230.373V213.393C592.41 213.203 592.481 213.02 592.611 212.879C592.74 212.738 592.918 212.651 593.11 212.633C600.264 212.067 607.107 213.003 613.64 215.443C613.778 215.495 613.929 215.495 614.066 215.443C614.202 215.392 614.314 215.292 614.38 215.163C615.75 212.513 617.09 206.703 612.12 206.683C598.74 206.61 588.567 206.617 581.6 206.703C579.2 206.733 579.54 208.973 579.97 210.713C580.008 210.859 580.092 210.988 580.21 211.081C580.327 211.173 580.472 211.223 580.62 211.223H583.28C583.474 211.223 583.659 211.299 583.796 211.434C583.933 211.569 584.01 211.752 584.01 211.943V259.123C584.01 259.272 583.951 259.414 583.846 259.519C583.741 259.624 583.599 259.683 583.45 259.683H581.01C580.687 259.683 580.376 259.812 580.148 260.041C579.919 260.269 579.79 260.58 579.79 260.903V263.083C579.79 263.372 579.905 263.65 580.109 263.854C580.314 264.058 580.591 264.173 580.88 264.173H613.61C613.963 264.173 614.313 264.104 614.64 263.968C614.966 263.833 615.262 263.635 615.512 263.385C615.762 263.136 615.96 262.839 616.095 262.513C616.231 262.186 616.3 261.836 616.3 261.483V257.563C616.299 257.283 616.231 257.008 616.101 256.76C615.972 256.512 615.785 256.299 615.556 256.139C615.328 255.979 615.064 255.877 614.788 255.841C614.512 255.805 614.231 255.837 613.97 255.933C608.31 258.013 601.364 258.817 593.13 258.343C592.938 258.333 592.758 258.249 592.626 258.11C592.493 257.97 592.42 257.785 592.42 257.593V237.333C592.42 237.261 592.434 237.189 592.462 237.123C592.49 237.056 592.53 236.995 592.581 236.944C592.632 236.893 592.693 236.853 592.76 236.825C592.826 236.797 592.898 236.783 592.97 236.783Z" stroke="#D3CBE4" stroke-width="2"/>
<path d="M478.241 239.433C478.224 239.498 478.222 239.566 478.236 239.633C478.25 239.699 478.278 239.761 478.32 239.814C478.361 239.867 478.415 239.91 478.476 239.939C478.536 239.968 478.603 239.983 478.671 239.983L490.621 239.853C490.687 239.852 490.753 239.836 490.812 239.806C490.872 239.776 490.924 239.733 490.964 239.68C491.005 239.627 491.033 239.565 491.046 239.5C491.059 239.435 491.057 239.367 491.041 239.303L484.831 216.923C484.804 216.829 484.748 216.747 484.671 216.689C484.593 216.631 484.499 216.6 484.402 216.602C484.305 216.603 484.211 216.636 484.135 216.696C484.059 216.756 484.004 216.839 483.981 216.933L478.241 239.433Z" stroke="#D3CBE4" stroke-width="2"/>
<path d="M338.29 214.192L338.09 236.072C338.09 236.308 338.184 236.535 338.351 236.702C338.517 236.869 338.744 236.962 338.98 236.962L344.23 237.012C345.609 237.024 346.977 236.768 348.255 236.257C349.534 235.747 350.698 234.992 351.681 234.036C352.665 233.081 353.448 231.943 353.987 230.688C354.525 229.433 354.808 228.086 354.82 226.722L354.84 223.822C354.864 221.07 353.78 218.42 351.828 216.457C349.876 214.493 347.214 213.377 344.43 213.352L339.18 213.313C338.946 213.312 338.721 213.405 338.554 213.57C338.387 213.734 338.292 213.958 338.29 214.192Z" stroke="#D3CBE4" stroke-width="2"/>
<path d="M538.431 258.942V213.192C538.431 213.094 538.393 213 538.326 212.931C538.258 212.861 538.167 212.822 538.071 212.822H523.211C522.922 212.823 522.635 212.762 522.371 212.644C522.106 212.527 521.869 212.355 521.675 212.14C521.481 211.925 521.334 211.672 521.243 211.397C521.153 211.122 521.122 210.831 521.151 210.543L521.561 206.452C521.585 206.215 521.661 205.985 521.784 205.78C521.907 205.575 522.074 205.401 522.273 205.268C522.473 205.136 522.699 205.05 522.935 205.016C523.172 204.982 523.413 205.002 523.641 205.072C526.888 206.086 530.545 206.599 534.611 206.613C547.185 206.653 556.348 206.669 562.101 206.663C566.911 206.663 564.991 212.673 563.871 215.043C563.812 215.164 563.71 215.258 563.585 215.306C563.461 215.354 563.323 215.353 563.201 215.303C558.215 213.203 552.955 212.286 547.421 212.553C547.219 212.563 547.028 212.649 546.889 212.795C546.749 212.94 546.671 213.132 546.671 213.332V258.783C546.671 258.955 546.741 259.12 546.865 259.242C546.988 259.364 547.156 259.433 547.331 259.433H551.131C551.452 259.433 551.76 259.56 551.987 259.787C552.214 260.014 552.341 260.322 552.341 260.642V262.623C552.341 263.042 552.175 263.443 551.879 263.74C551.582 264.036 551.18 264.202 550.761 264.202H533.981C533.674 264.202 533.379 264.08 533.161 263.863C532.944 263.645 532.821 263.35 532.821 263.043V260.892C532.821 260.513 532.972 260.15 533.24 259.881C533.508 259.613 533.872 259.463 534.251 259.463H537.911C538.049 259.463 538.181 259.408 538.279 259.31C538.377 259.213 538.431 259.08 538.431 258.942Z" fill="#A696C8"/>
<path d="M661.642 215.623C658.329 213.463 654.009 212.416 648.682 212.483C640.852 212.583 639.862 221.843 644.162 226.433C646.072 228.463 649.782 229.843 653.252 231.133C657.779 232.819 661.175 234.659 663.442 236.653C667.122 239.893 667.962 245.983 667.352 250.913C666.399 258.619 661.899 263.136 653.852 264.463C649.662 265.153 633.162 266.363 633.052 259.703C633.019 257.609 633.609 255.849 634.822 254.423C634.95 254.276 635.126 254.18 635.319 254.152C635.512 254.124 635.708 254.167 635.872 254.273C641.125 257.613 646.755 258.969 652.762 258.343C656.202 257.983 658.275 256.386 658.982 253.553C661.002 245.483 656.352 242.303 649.622 239.513C642.622 236.603 636.312 234.673 634.382 227.753C631.962 219.053 635.032 209.623 644.292 206.973C649.405 205.513 655.352 205.449 662.132 206.783C663.222 206.999 664.193 207.612 664.855 208.503C665.517 209.394 665.822 210.499 665.712 211.603L665.492 213.773C665.45 214.2 665.298 214.609 665.052 214.96C664.806 215.312 664.474 215.594 664.087 215.78C663.7 215.966 663.272 216.049 662.844 216.021C662.416 215.994 662.002 215.857 661.642 215.623Z" fill="#A696C8"/>
<path d="M474.463 259.452H476.473C476.741 259.452 476.998 259.558 477.188 259.745C477.377 259.933 477.483 260.187 477.483 260.452V262.892C477.483 263.24 477.344 263.573 477.097 263.818C476.849 264.064 476.514 264.202 476.163 264.202H463.483C463.163 264.202 462.855 264.076 462.628 263.851C462.401 263.626 462.273 263.32 462.273 263.002V260.952C462.273 260.762 462.311 260.573 462.385 260.397C462.458 260.221 462.565 260.062 462.701 259.927C462.837 259.792 462.998 259.685 463.175 259.613C463.352 259.54 463.542 259.502 463.733 259.502H465.103C465.339 259.503 465.569 259.426 465.759 259.283C465.948 259.141 466.086 258.94 466.153 258.712C468.167 251.719 472.073 237.739 477.873 216.772C478.847 213.265 479.787 210.495 480.693 208.462C480.984 207.802 481.462 207.24 482.067 206.846C482.673 206.452 483.38 206.242 484.103 206.242H488.723C489.114 206.242 489.494 206.368 489.808 206.602C490.121 206.836 490.351 207.166 490.463 207.542L505.673 258.872C505.723 259.036 505.824 259.18 505.963 259.283C506.101 259.386 506.27 259.441 506.443 259.442H508.703C508.91 259.442 509.109 259.524 509.255 259.671C509.401 259.817 509.483 260.015 509.483 260.222V263.052C509.483 263.357 509.362 263.65 509.147 263.865C508.931 264.081 508.638 264.202 508.333 264.202H493.483C493.337 264.203 493.195 264.153 493.08 264.06C492.965 263.967 492.885 263.837 492.853 263.692C492.6 262.512 492.54 261.426 492.673 260.432C492.695 260.288 492.758 260.152 492.856 260.044C492.954 259.935 493.082 259.858 493.223 259.822L495.533 259.262C495.588 259.249 495.64 259.225 495.686 259.193C495.732 259.16 495.771 259.118 495.801 259.071C495.831 259.024 495.851 258.971 495.86 258.916C495.869 258.862 495.866 258.806 495.853 258.752L492.803 246.112C492.763 245.943 492.666 245.793 492.528 245.686C492.39 245.579 492.219 245.521 492.043 245.522H477.393C477.221 245.523 477.055 245.582 476.922 245.689C476.789 245.797 476.698 245.946 476.663 246.112L473.943 258.802C473.927 258.881 473.928 258.963 473.947 259.041C473.965 259.119 474.001 259.192 474.05 259.254C474.1 259.317 474.163 259.367 474.235 259.401C474.306 259.435 474.384 259.453 474.463 259.452ZM478.243 239.432C478.227 239.498 478.225 239.566 478.239 239.632C478.252 239.698 478.281 239.76 478.323 239.813C478.364 239.866 478.418 239.909 478.478 239.939C478.539 239.968 478.606 239.983 478.673 239.982L490.623 239.852C490.69 239.851 490.756 239.835 490.815 239.805C490.875 239.775 490.927 239.732 490.967 239.679C491.008 239.626 491.035 239.565 491.049 239.5C491.062 239.434 491.06 239.367 491.043 239.302L484.833 216.922C484.807 216.829 484.751 216.747 484.674 216.689C484.596 216.631 484.501 216.6 484.405 216.601C484.308 216.602 484.214 216.635 484.138 216.695C484.062 216.755 484.007 216.838 483.983 216.932L478.243 239.432Z" fill="#A696C8"/>
<path d="M393.153 235.413C393.166 248.18 393.213 255.94 393.293 258.693C393.298 258.921 393.393 259.137 393.558 259.296C393.722 259.455 393.943 259.544 394.173 259.543H397.083C397.273 259.544 397.457 259.607 397.607 259.722C397.757 259.838 397.865 260 397.913 260.183C398.246 261.41 398.23 262.507 397.863 263.473C397.796 263.649 397.684 263.805 397.539 263.926C397.394 264.047 397.22 264.128 397.033 264.163C396.933 264.183 394.266 264.193 389.033 264.193C383.8 264.2 381.133 264.193 381.033 264.173C380.847 264.138 380.672 264.057 380.527 263.936C380.382 263.815 380.27 263.659 380.203 263.483C379.836 262.517 379.82 261.42 380.153 260.193C380.201 260.012 380.307 259.851 380.455 259.735C380.603 259.62 380.785 259.556 380.973 259.553H383.883C383.999 259.555 384.113 259.534 384.221 259.491C384.328 259.449 384.426 259.386 384.508 259.306C384.591 259.226 384.657 259.131 384.702 259.026C384.748 258.921 384.772 258.808 384.773 258.693C384.846 255.94 384.876 248.18 384.863 235.413C384.856 222.647 384.813 214.887 384.733 212.133C384.728 211.906 384.633 211.69 384.468 211.531C384.304 211.372 384.083 211.283 383.853 211.283H380.943C380.754 211.283 380.569 211.22 380.419 211.104C380.269 210.989 380.162 210.827 380.113 210.643C379.78 209.417 379.796 208.32 380.163 207.353C380.23 207.178 380.342 207.022 380.487 206.901C380.632 206.78 380.807 206.698 380.993 206.663C381.093 206.643 383.76 206.633 388.993 206.633C394.22 206.627 396.886 206.633 396.993 206.653C397.18 206.688 397.354 206.77 397.499 206.891C397.644 207.012 397.756 207.168 397.823 207.343C398.19 208.31 398.206 209.407 397.873 210.633C397.825 210.817 397.717 210.979 397.567 211.094C397.417 211.21 397.233 211.273 397.043 211.273H394.133C393.901 211.273 393.679 211.364 393.514 211.525C393.35 211.686 393.256 211.904 393.253 212.133C393.18 214.887 393.146 222.647 393.153 235.413Z" fill="#A696C8"/>
<path d="M338.87 259.442H342.89C343.243 259.442 343.581 259.581 343.83 259.829C344.08 260.076 344.22 260.412 344.22 260.762V262.542C344.22 262.982 344.044 263.404 343.731 263.716C343.418 264.027 342.993 264.202 342.55 264.202H326.02C325.749 264.202 325.49 264.095 325.299 263.903C325.107 263.712 325 263.453 325 263.182V260.702C325 260.376 325.13 260.063 325.36 259.832C325.591 259.602 325.904 259.472 326.23 259.472H329.27C329.445 259.472 329.613 259.402 329.737 259.279C329.86 259.155 329.93 258.987 329.93 258.812V211.862C329.93 211.7 329.865 211.545 329.748 211.431C329.632 211.316 329.474 211.252 329.31 211.252H326.28C325.996 211.252 325.724 211.138 325.523 210.936C325.323 210.733 325.21 210.458 325.21 210.172V208.172C325.21 207.814 325.348 207.469 325.596 207.21C325.844 206.951 326.182 206.797 326.54 206.782C332.067 206.569 337.833 206.555 343.84 206.742C347.887 206.869 351.623 207.445 355.05 208.472C364.64 211.342 365.25 223.722 362.49 231.392C358.99 241.132 348.73 242.682 338.75 242.542C338.615 242.542 338.485 242.596 338.389 242.691C338.294 242.787 338.24 242.917 338.24 243.052V258.802C338.24 258.972 338.306 259.134 338.425 259.255C338.543 259.375 338.703 259.442 338.87 259.442ZM338.29 214.192L338.09 236.072C338.09 236.308 338.184 236.534 338.351 236.701C338.518 236.868 338.744 236.962 338.98 236.962L344.23 237.012C345.609 237.024 346.977 236.767 348.255 236.257C349.534 235.746 350.698 234.991 351.681 234.036C352.665 233.08 353.448 231.943 353.987 230.688C354.525 229.433 354.808 228.085 354.82 226.722L354.84 223.822C354.864 221.069 353.78 218.42 351.828 216.456C349.876 214.493 347.215 213.376 344.43 213.352L339.18 213.312C338.946 213.312 338.721 213.404 338.554 213.569C338.388 213.734 338.293 213.958 338.29 214.192Z" fill="#A696C8"/>
<path d="M419.283 211.212H417.003C416.879 211.212 416.757 211.188 416.643 211.14C416.529 211.092 416.425 211.022 416.338 210.934C416.251 210.846 416.181 210.741 416.134 210.626C416.087 210.511 416.062 210.387 416.062 210.262V208.012C416.062 207.652 416.206 207.306 416.461 207.051C416.716 206.796 417.062 206.652 417.423 206.652H432.363C432.681 206.652 432.986 206.778 433.211 207.001C433.436 207.224 433.562 207.527 433.562 207.842V209.992C433.563 210.319 433.432 210.631 433.199 210.862C432.967 211.093 432.651 211.222 432.323 211.222H429.283C429.197 211.222 429.113 211.239 429.034 211.273C428.955 211.306 428.883 211.354 428.823 211.416C428.763 211.477 428.715 211.55 428.682 211.63C428.649 211.71 428.633 211.796 428.633 211.882V257.552C428.632 257.763 428.712 257.966 428.855 258.118C428.999 258.271 429.195 258.362 429.402 258.372C436.282 258.766 442.663 257.886 448.543 255.732C448.7 255.675 448.873 255.676 449.03 255.737C449.186 255.798 449.315 255.913 449.393 256.062C450.553 258.362 451.403 262.952 448.033 263.842C447.119 264.082 445.476 264.206 443.103 264.212C436.056 264.212 427.386 264.212 417.092 264.212C416.825 264.212 416.568 264.106 416.378 263.917C416.189 263.727 416.083 263.47 416.083 263.202V260.962C416.083 260.62 416.218 260.292 416.46 260.05C416.702 259.808 417.03 259.672 417.372 259.672H419.473C419.687 259.672 419.893 259.586 420.045 259.432C420.197 259.278 420.283 259.07 420.283 258.852V212.202C420.283 211.94 420.177 211.688 419.99 211.502C419.802 211.317 419.548 211.212 419.283 211.212Z" fill="#A696C8"/>
<path d="M592.42 237.333V257.593C592.42 257.785 592.493 257.97 592.626 258.11C592.758 258.249 592.938 258.333 593.13 258.343C601.364 258.817 608.31 258.013 613.97 255.933C614.231 255.837 614.512 255.805 614.788 255.841C615.064 255.877 615.328 255.979 615.556 256.139C615.785 256.299 615.972 256.512 616.101 256.76C616.231 257.008 616.299 257.283 616.3 257.563V261.483C616.3 261.836 616.231 262.186 616.095 262.513C615.96 262.839 615.762 263.136 615.512 263.385C615.262 263.635 614.966 263.833 614.64 263.968C614.313 264.104 613.963 264.173 613.61 264.173H580.88C580.591 264.173 580.314 264.058 580.109 263.854C579.905 263.65 579.79 263.372 579.79 263.083V260.903C579.79 260.58 579.919 260.269 580.148 260.041C580.376 259.812 580.687 259.683 581.01 259.683H583.45C583.599 259.683 583.741 259.624 583.846 259.519C583.951 259.414 584.01 259.272 584.01 259.123V211.943C584.01 211.752 583.933 211.569 583.796 211.434C583.659 211.299 583.474 211.223 583.28 211.223H580.62C580.472 211.223 580.327 211.173 580.21 211.081C580.092 210.988 580.008 210.859 579.97 210.713C579.54 208.973 579.2 206.733 581.6 206.703C588.567 206.617 598.74 206.61 612.12 206.683C617.09 206.703 615.75 212.513 614.38 215.163C614.314 215.292 614.202 215.392 614.066 215.443C613.929 215.495 613.778 215.495 613.64 215.443C607.107 213.003 600.264 212.067 593.11 212.633C592.918 212.651 592.74 212.738 592.611 212.879C592.481 213.02 592.41 213.203 592.41 213.393V230.373C592.41 230.519 592.468 230.659 592.571 230.762C592.674 230.865 592.814 230.923 592.96 230.923H609.68C610.155 230.923 610.61 231.111 610.946 231.445C611.282 231.778 611.47 232.231 611.47 232.703V234.703C611.47 235.255 611.251 235.784 610.861 236.174C610.471 236.564 609.942 236.783 609.39 236.783H592.97C592.898 236.783 592.826 236.797 592.76 236.825C592.693 236.853 592.632 236.893 592.581 236.944C592.53 236.995 592.49 237.056 592.462 237.123C592.434 237.189 592.42 237.261 592.42 237.333Z" fill="#A696C8"/>
</svg>
